G75*
G70*
%OFA0B0*%
%FSLAX24Y24*%
%IPPOS*%
%LPD*%
%AMOC8*
5,1,8,0,0,1.08239X$1,22.5*
%
%ADD10C,0.1300*%
%ADD11R,0.0946X0.0316*%
%ADD12R,0.0710X0.0491*%
%ADD13R,0.0491X0.0710*%
%ADD14R,0.0789X0.0631*%
%ADD15R,0.0316X0.0946*%
%ADD16OC8,0.0640*%
%ADD17R,0.0789X0.0946*%
%ADD18R,0.1182X0.1576*%
%ADD19OC8,0.1580*%
%ADD20C,0.0680*%
%ADD21R,0.0750X0.0750*%
%ADD22C,0.0860*%
%ADD23C,0.0640*%
%ADD24OC8,0.0710*%
%ADD25C,0.0710*%
%ADD26OC8,0.0680*%
%ADD27C,0.0437*%
%ADD28C,0.0476*%
D10*
X005315Y001422D03*
X040247Y001422D03*
X005315Y013172D03*
D11*
X035841Y003222D03*
X035841Y002722D03*
X035841Y002222D03*
X035841Y001722D03*
X037888Y001722D03*
X037888Y002222D03*
X037888Y002722D03*
X037888Y003222D03*
X041841Y003222D03*
X041841Y003722D03*
X041841Y004222D03*
X041841Y004722D03*
X043888Y004722D03*
X043888Y004222D03*
X043888Y003722D03*
X043888Y003222D03*
D12*
X035752Y006288D03*
X035752Y007175D03*
X036740Y007216D03*
X036740Y008103D03*
X043427Y007415D03*
X044365Y007415D03*
X043615Y008028D03*
X043615Y008915D03*
X043427Y006528D03*
X044365Y006528D03*
X035365Y012278D03*
X035365Y013165D03*
X017052Y011228D03*
X017052Y010341D03*
X007865Y005540D03*
X007865Y004653D03*
D13*
X034171Y000972D03*
X035059Y000972D03*
X036171Y000972D03*
X037059Y000972D03*
X036184Y003972D03*
X035296Y003972D03*
X042296Y009972D03*
X043184Y009972D03*
X040059Y010222D03*
X039171Y010222D03*
X038309Y013222D03*
X037421Y013222D03*
D14*
X041865Y002141D03*
X042865Y002141D03*
X043865Y002141D03*
X043865Y000802D03*
X042865Y000802D03*
X041865Y000802D03*
D15*
X041990Y006698D03*
X042490Y006698D03*
X041490Y006698D03*
X040990Y006698D03*
X040990Y008745D03*
X041490Y008745D03*
X041990Y008745D03*
X042490Y008745D03*
D16*
X031615Y003472D03*
X030615Y003472D03*
X029615Y003472D03*
X028615Y003472D03*
X027615Y003472D03*
X026615Y003472D03*
X025615Y003472D03*
X025615Y002472D03*
X026615Y002472D03*
X027615Y002472D03*
X028615Y002472D03*
X029615Y002472D03*
X030615Y002472D03*
X031615Y002472D03*
D17*
X008994Y011722D03*
X006986Y011722D03*
D18*
X006658Y008722D03*
X009571Y008722D03*
D19*
X017115Y006972D03*
X001740Y006972D03*
X001740Y013222D03*
X017115Y013222D03*
D20*
X019115Y013272D02*
X019115Y012672D01*
X020115Y012672D02*
X020115Y013272D01*
X021115Y013272D02*
X021115Y012672D01*
X022565Y008472D02*
X023165Y008472D01*
X023165Y007472D02*
X022565Y007472D01*
X019540Y004222D02*
X018940Y004222D01*
X018940Y003222D02*
X019540Y003222D01*
X019540Y002222D02*
X018940Y002222D01*
X015540Y002222D02*
X014940Y002222D01*
X014940Y003222D02*
X015540Y003222D01*
X015540Y004222D02*
X014940Y004222D01*
X011790Y004597D02*
X011190Y004597D01*
X011190Y003597D02*
X011790Y003597D01*
X011790Y002597D02*
X011190Y002597D01*
X005727Y003034D02*
X005127Y003034D01*
X005127Y004034D02*
X005727Y004034D01*
X005727Y005034D02*
X005127Y005034D01*
D21*
X003115Y013222D03*
X044865Y013847D03*
D22*
X042734Y012086D02*
X042734Y011306D01*
X040774Y011306D02*
X040774Y012086D01*
X038794Y012086D02*
X038794Y011306D01*
X036834Y011306D02*
X036834Y012086D01*
D23*
X033865Y012192D02*
X033865Y012752D01*
X032865Y012752D02*
X032865Y012192D01*
X031865Y012192D02*
X031865Y012752D01*
X030865Y012752D02*
X030865Y012192D01*
X029865Y012192D02*
X029865Y012752D01*
X028865Y012752D02*
X028865Y012192D01*
X027865Y012192D02*
X027865Y012752D01*
X026865Y012752D02*
X026865Y012192D01*
X025865Y012192D02*
X025865Y012752D01*
X024865Y012752D02*
X024865Y012192D01*
X023865Y012192D02*
X023865Y012752D01*
X022865Y012752D02*
X022865Y012192D01*
X022865Y006752D02*
X022865Y006192D01*
X023865Y006192D02*
X023865Y006752D01*
X024865Y006752D02*
X024865Y006192D01*
X025865Y006192D02*
X025865Y006752D01*
X026865Y006752D02*
X026865Y006192D01*
X027865Y006192D02*
X027865Y006752D01*
X028865Y006752D02*
X028865Y006192D01*
X029865Y006192D02*
X029865Y006752D01*
X030865Y006752D02*
X030865Y006192D01*
X031865Y006192D02*
X031865Y006752D01*
X032865Y006752D02*
X032865Y006192D01*
X033865Y006192D02*
X033865Y006752D01*
D24*
X020565Y009972D03*
X009065Y002222D03*
X001790Y002097D03*
D25*
X003190Y002097D03*
X007665Y002222D03*
X019165Y009972D03*
D26*
X022115Y010472D03*
X025865Y010972D03*
X026865Y010972D03*
X029365Y007472D03*
X030365Y007472D03*
D27*
X034415Y008422D03*
X035615Y008022D03*
X036815Y004022D03*
X038615Y002422D03*
X041215Y002222D03*
X027215Y001822D03*
X021615Y005622D03*
X022015Y006422D03*
X018615Y006022D03*
X018615Y007622D03*
X017615Y008022D03*
X012615Y008022D03*
D28*
X035115Y005472D03*
X035115Y002722D03*
X043115Y005372D03*
M02*
