G75*
G70*
%OFA0B0*%
%FSLAX24Y24*%
%IPPOS*%
%LPD*%
%AMOC8*
5,1,8,0,0,1.08239X$1,22.5*
%
%ADD10C,0.0050*%
%ADD11C,0.0020*%
%ADD12C,0.0070*%
%ADD13C,0.0060*%
%ADD14C,0.0040*%
%ADD15C,0.0100*%
%ADD16C,0.0030*%
D10*
X000369Y000522D02*
X000519Y000522D01*
X000594Y000597D01*
X000754Y000747D02*
X001055Y000747D01*
X000980Y000522D02*
X000980Y000972D01*
X000754Y000747D01*
X000594Y000897D02*
X000519Y000972D01*
X000369Y000972D01*
X000294Y000897D01*
X000294Y000597D01*
X000369Y000522D01*
X009690Y003422D02*
X009690Y003722D01*
X009765Y003797D01*
X009915Y003797D01*
X009990Y003722D01*
X010150Y003722D02*
X010225Y003797D01*
X010375Y003797D01*
X010450Y003722D01*
X010450Y003647D01*
X010375Y003572D01*
X010450Y003497D01*
X010450Y003422D01*
X010375Y003347D01*
X010225Y003347D01*
X010150Y003422D01*
X009990Y003422D02*
X009915Y003347D01*
X009765Y003347D01*
X009690Y003422D01*
X010300Y003572D02*
X010375Y003572D01*
X010340Y003847D02*
X010340Y004097D01*
X010340Y005097D01*
X012490Y004597D02*
X012640Y004597D01*
X012640Y004497D01*
X016390Y002972D02*
X016390Y002722D01*
X016390Y001722D01*
X018090Y002222D02*
X018090Y002322D01*
X018090Y002222D02*
X018240Y002222D01*
X020390Y002722D02*
X020390Y002972D01*
X020390Y002722D02*
X020390Y001722D01*
X023615Y001222D02*
X025315Y001222D01*
X025315Y001272D01*
X025915Y001272D01*
X025915Y001222D01*
X027815Y001222D01*
X027815Y001622D01*
X027815Y001722D01*
X024115Y001722D01*
X024115Y004222D01*
X033115Y004222D01*
X033115Y001722D01*
X031415Y001722D01*
X030815Y001722D01*
X029415Y001722D01*
X029415Y001622D01*
X029415Y001222D01*
X027815Y001222D01*
X028240Y001397D02*
X028540Y001397D01*
X028390Y001397D02*
X028390Y001847D01*
X028240Y001697D01*
X027815Y001722D02*
X027815Y002022D01*
X029415Y002022D01*
X029415Y001722D01*
X029000Y001622D02*
X028700Y001622D01*
X028925Y001847D01*
X028925Y001397D01*
X029415Y001222D02*
X030465Y001222D01*
X030615Y001422D01*
X030815Y001422D01*
X031415Y001422D01*
X031415Y001622D01*
X031415Y001722D01*
X030815Y001722D02*
X030815Y001622D01*
X030815Y001422D01*
X031415Y001422D02*
X031615Y001422D01*
X031765Y001222D01*
X033615Y001222D01*
X033615Y004722D01*
X033115Y004722D01*
X033115Y004822D01*
X032615Y004822D01*
X032615Y004722D01*
X028865Y004722D01*
X028865Y004822D01*
X028365Y004822D01*
X028365Y004722D01*
X024615Y004722D01*
X024615Y004822D01*
X024115Y004822D01*
X024115Y004722D01*
X023615Y004722D01*
X023615Y001222D01*
X024640Y002247D02*
X024940Y002247D01*
X024790Y002247D02*
X024790Y002697D01*
X024640Y002547D01*
X024640Y003247D02*
X024940Y003547D01*
X024940Y003622D01*
X024865Y003697D01*
X024715Y003697D01*
X024640Y003622D01*
X024640Y003247D02*
X024940Y003247D01*
X014240Y002222D02*
X014090Y002222D01*
X014090Y002322D01*
X006577Y004934D02*
X006577Y005034D01*
X006427Y005034D01*
X004277Y004534D02*
X004277Y004284D01*
X004277Y004534D02*
X004277Y005534D01*
X003617Y007897D02*
X003317Y007897D01*
X003617Y008197D01*
X003617Y008272D01*
X003542Y008347D01*
X003392Y008347D01*
X003317Y008272D01*
X003156Y008272D02*
X003081Y008347D01*
X002931Y008347D01*
X002856Y008272D01*
X002856Y007972D01*
X003156Y008272D01*
X003156Y007972D01*
X003081Y007897D01*
X002931Y007897D01*
X002856Y007972D01*
X002696Y007897D02*
X002396Y007897D01*
X002696Y008197D01*
X002696Y008272D01*
X002621Y008347D01*
X002471Y008347D01*
X002396Y008272D01*
X002236Y008272D02*
X002161Y008347D01*
X001936Y008347D01*
X001936Y007897D01*
X002161Y007897D01*
X002236Y007972D01*
X002236Y008272D01*
X001775Y008197D02*
X001625Y008347D01*
X001475Y008197D01*
X001475Y007897D01*
X001475Y008122D02*
X001775Y008122D01*
X001775Y008197D02*
X001775Y007897D01*
X001315Y008122D02*
X001240Y008047D01*
X001015Y008047D01*
X001015Y007897D02*
X001015Y008347D01*
X001240Y008347D01*
X001315Y008272D01*
X001315Y008122D01*
X016390Y008047D02*
X016615Y008047D01*
X016690Y008122D01*
X016690Y008272D01*
X016615Y008347D01*
X016390Y008347D01*
X016390Y007897D01*
X016850Y007897D02*
X016850Y008197D01*
X017000Y008347D01*
X017150Y008197D01*
X017150Y007897D01*
X017311Y007897D02*
X017536Y007897D01*
X017611Y007972D01*
X017611Y008272D01*
X017536Y008347D01*
X017311Y008347D01*
X017311Y007897D01*
X017150Y008122D02*
X016850Y008122D01*
X017771Y008272D02*
X017846Y008347D01*
X017996Y008347D01*
X018071Y008272D01*
X018071Y008197D01*
X017771Y007897D01*
X018071Y007897D01*
X018231Y007972D02*
X018531Y008272D01*
X018531Y007972D01*
X018456Y007897D01*
X018306Y007897D01*
X018231Y007972D01*
X018231Y008272D01*
X018306Y008347D01*
X018456Y008347D01*
X018531Y008272D01*
X018692Y008197D02*
X018842Y008347D01*
X018842Y007897D01*
X018692Y007897D02*
X018992Y007897D01*
X021669Y007962D02*
X021744Y007887D01*
X021669Y007962D02*
X021669Y008113D01*
X021744Y008188D01*
X021820Y008188D01*
X022120Y007887D01*
X022120Y008188D01*
X022490Y008032D02*
X022490Y007957D01*
X022565Y007882D01*
X022715Y007882D01*
X022790Y007807D01*
X022790Y007732D01*
X022715Y007657D01*
X022565Y007657D01*
X022490Y007732D01*
X022950Y007657D02*
X023250Y007657D01*
X022950Y007657D02*
X022950Y008107D01*
X022790Y008032D02*
X022715Y008107D01*
X022565Y008107D01*
X022490Y008032D01*
X021970Y007652D02*
X021895Y007727D01*
X021744Y007727D01*
X021669Y007652D01*
X021669Y007427D01*
X022120Y007427D01*
X021970Y007427D02*
X021970Y007652D01*
X021669Y007267D02*
X021669Y007117D01*
X021669Y007192D02*
X022045Y007192D01*
X022120Y007117D01*
X022120Y007042D01*
X022045Y006967D01*
X022700Y006980D02*
X022813Y006867D01*
X022700Y006980D02*
X023040Y006980D01*
X023040Y006867D02*
X023040Y007094D01*
X023636Y007657D02*
X023636Y008107D01*
X023411Y007882D01*
X023711Y007882D01*
X028860Y008292D02*
X028935Y008217D01*
X029010Y008217D01*
X029085Y008292D01*
X029085Y008667D01*
X029010Y008667D02*
X029160Y008667D01*
X029320Y008667D02*
X029545Y008667D01*
X029620Y008592D01*
X029620Y008442D01*
X029545Y008367D01*
X029320Y008367D01*
X029320Y008217D02*
X029320Y008667D01*
X029781Y008667D02*
X030081Y008667D01*
X030081Y008592D01*
X029781Y008292D01*
X029781Y008217D01*
X029860Y008292D02*
X029935Y008217D01*
X030010Y008217D01*
X030085Y008292D01*
X030085Y008667D01*
X030010Y008667D02*
X030160Y008667D01*
X030320Y008667D02*
X030545Y008667D01*
X030620Y008592D01*
X030620Y008442D01*
X030545Y008367D01*
X030320Y008367D01*
X030320Y008217D02*
X030320Y008667D01*
X030781Y008442D02*
X030931Y008592D01*
X031081Y008667D01*
X031006Y008442D02*
X030781Y008442D01*
X030781Y008292D01*
X030856Y008217D01*
X031006Y008217D01*
X031081Y008292D01*
X031081Y008367D01*
X031006Y008442D01*
X037324Y010721D02*
X037324Y011171D01*
X037099Y010946D01*
X037399Y010946D01*
X039099Y010796D02*
X039174Y010721D01*
X039324Y010721D01*
X039399Y010796D01*
X039399Y010871D01*
X039324Y010946D01*
X039249Y010946D01*
X039324Y010946D02*
X039399Y011021D01*
X039399Y011096D01*
X039324Y011171D01*
X039174Y011171D01*
X039099Y011096D01*
X041099Y011096D02*
X041174Y011171D01*
X041324Y011171D01*
X041399Y011096D01*
X041399Y011021D01*
X041099Y010721D01*
X041399Y010721D01*
X043099Y010721D02*
X043399Y010721D01*
X043249Y010721D02*
X043249Y011171D01*
X043099Y011021D01*
X027581Y011792D02*
X027506Y011717D01*
X027356Y011717D01*
X027281Y011792D01*
X027281Y011942D02*
X027431Y012017D01*
X027506Y012017D01*
X027581Y011942D01*
X027581Y011792D01*
X027281Y011942D02*
X027281Y012167D01*
X027581Y012167D01*
X027120Y012092D02*
X027120Y011942D01*
X027045Y011867D01*
X026820Y011867D01*
X026820Y011717D02*
X026820Y012167D01*
X027045Y012167D01*
X027120Y012092D01*
X026660Y012167D02*
X026510Y012167D01*
X026506Y012167D02*
X026581Y012092D01*
X026581Y012017D01*
X026506Y011942D01*
X026581Y011867D01*
X026581Y011792D01*
X026506Y011717D01*
X026356Y011717D01*
X026281Y011792D01*
X026360Y011792D02*
X026435Y011717D01*
X026510Y011717D01*
X026585Y011792D01*
X026585Y012167D01*
X026506Y012167D02*
X026356Y012167D01*
X026281Y012092D01*
X026120Y012092D02*
X026120Y011942D01*
X026045Y011867D01*
X025820Y011867D01*
X025820Y011717D02*
X025820Y012167D01*
X026045Y012167D01*
X026120Y012092D01*
X026431Y011942D02*
X026506Y011942D01*
X025660Y012167D02*
X025510Y012167D01*
X025585Y012167D02*
X025585Y011792D01*
X025510Y011717D01*
X025435Y011717D01*
X025360Y011792D01*
X022831Y011442D02*
X022531Y011442D01*
X022756Y011667D01*
X022756Y011217D01*
X022370Y011442D02*
X022295Y011367D01*
X022070Y011367D01*
X021950Y011397D02*
X021950Y011472D01*
X021875Y011547D01*
X021725Y011547D01*
X021650Y011472D01*
X021490Y011472D02*
X021415Y011547D01*
X021265Y011547D01*
X021190Y011472D01*
X021190Y011172D01*
X021265Y011097D01*
X021415Y011097D01*
X021490Y011172D01*
X021610Y011292D02*
X021685Y011217D01*
X021760Y011217D01*
X021835Y011292D01*
X021835Y011667D01*
X021760Y011667D02*
X021910Y011667D01*
X022070Y011667D02*
X022295Y011667D01*
X022370Y011592D01*
X022370Y011442D01*
X022070Y011217D02*
X022070Y011667D01*
X021950Y011397D02*
X021650Y011097D01*
X021950Y011097D01*
X021115Y011822D02*
X021015Y011822D01*
X021115Y011822D02*
X021115Y011972D01*
X022700Y012980D02*
X023040Y012980D01*
X023040Y012867D02*
X023040Y013094D01*
X022813Y012867D02*
X022700Y012980D01*
X022715Y013657D02*
X022565Y013657D01*
X022490Y013732D01*
X022565Y013882D02*
X022715Y013882D01*
X022790Y013807D01*
X022790Y013732D01*
X022715Y013657D01*
X022950Y013657D02*
X023250Y013657D01*
X023411Y013657D02*
X023711Y013957D01*
X023711Y014032D01*
X023636Y014107D01*
X023486Y014107D01*
X023411Y014032D01*
X022950Y014107D02*
X022950Y013657D01*
X022565Y013882D02*
X022490Y013957D01*
X022490Y014032D01*
X022565Y014107D01*
X022715Y014107D01*
X022790Y014032D01*
X023411Y013657D02*
X023711Y013657D01*
X021615Y014122D02*
X020615Y014122D01*
X020365Y014122D01*
X018992Y014372D02*
X018692Y014372D01*
X018917Y014597D01*
X018917Y014147D01*
X018531Y014222D02*
X018456Y014147D01*
X018306Y014147D01*
X018231Y014222D01*
X018531Y014522D01*
X018531Y014222D01*
X018231Y014222D02*
X018231Y014522D01*
X018306Y014597D01*
X018456Y014597D01*
X018531Y014522D01*
X018071Y014522D02*
X018071Y014447D01*
X017771Y014147D01*
X018071Y014147D01*
X017611Y014222D02*
X017611Y014522D01*
X017536Y014597D01*
X017311Y014597D01*
X017311Y014147D01*
X017536Y014147D01*
X017611Y014222D01*
X017150Y014147D02*
X017150Y014447D01*
X017000Y014597D01*
X016850Y014447D01*
X016850Y014147D01*
X016690Y014372D02*
X016615Y014297D01*
X016390Y014297D01*
X016390Y014147D02*
X016390Y014597D01*
X016615Y014597D01*
X016690Y014522D01*
X016690Y014372D01*
X016850Y014372D02*
X017150Y014372D01*
X017771Y014522D02*
X017846Y014597D01*
X017996Y014597D01*
X018071Y014522D01*
X003617Y014522D02*
X003617Y014447D01*
X003542Y014372D01*
X003617Y014297D01*
X003617Y014222D01*
X003542Y014147D01*
X003392Y014147D01*
X003317Y014222D01*
X003156Y014222D02*
X003081Y014147D01*
X002931Y014147D01*
X002856Y014222D01*
X003156Y014522D01*
X003156Y014222D01*
X002856Y014222D02*
X002856Y014522D01*
X002931Y014597D01*
X003081Y014597D01*
X003156Y014522D01*
X003317Y014522D02*
X003392Y014597D01*
X003542Y014597D01*
X003617Y014522D01*
X003542Y014372D02*
X003467Y014372D01*
X002696Y014447D02*
X002396Y014147D01*
X002696Y014147D01*
X002236Y014222D02*
X002236Y014522D01*
X002161Y014597D01*
X001936Y014597D01*
X001936Y014147D01*
X002161Y014147D01*
X002236Y014222D01*
X001775Y014147D02*
X001775Y014447D01*
X001625Y014597D01*
X001475Y014447D01*
X001475Y014147D01*
X001315Y014372D02*
X001240Y014297D01*
X001015Y014297D01*
X001015Y014147D02*
X001015Y014597D01*
X001240Y014597D01*
X001315Y014522D01*
X001315Y014372D01*
X001475Y014372D02*
X001775Y014372D01*
X002396Y014522D02*
X002471Y014597D01*
X002621Y014597D01*
X002696Y014522D01*
X002696Y014447D01*
D11*
X002740Y013597D02*
X003490Y013597D01*
X003490Y012847D01*
X002740Y012847D01*
X002740Y013597D01*
X024015Y004322D02*
X024015Y001622D01*
X027815Y001622D01*
X029415Y001622D02*
X030815Y001622D01*
X031415Y001622D02*
X033215Y001622D01*
X033215Y004322D01*
X024015Y004322D01*
X044490Y013472D02*
X044490Y014222D01*
X045240Y014222D01*
X045240Y013472D01*
X044490Y013472D01*
D12*
X043460Y009012D02*
X043250Y009012D01*
X043144Y008907D01*
X042920Y008907D02*
X042500Y008486D01*
X042605Y008381D01*
X042815Y008381D01*
X042920Y008486D01*
X042920Y008907D01*
X042815Y009012D01*
X042605Y009012D01*
X042500Y008907D01*
X042500Y008486D01*
X042276Y008381D02*
X041855Y008381D01*
X042276Y008801D01*
X042276Y008907D01*
X042171Y009012D01*
X041961Y009012D01*
X041855Y008907D01*
X041631Y009012D02*
X041421Y009012D01*
X041526Y009012D02*
X041526Y008486D01*
X041421Y008381D01*
X041316Y008381D01*
X041211Y008486D01*
X043144Y008381D02*
X043565Y008801D01*
X043565Y008907D01*
X043460Y009012D01*
X043565Y008381D02*
X043144Y008381D01*
X026004Y005532D02*
X026004Y005427D01*
X025899Y005322D01*
X025688Y005322D01*
X025583Y005427D01*
X025583Y005532D01*
X025688Y005637D01*
X025899Y005637D01*
X026004Y005532D01*
X025899Y005322D02*
X026004Y005217D01*
X026004Y005112D01*
X025899Y005007D01*
X025688Y005007D01*
X025583Y005112D01*
X025583Y005217D01*
X025688Y005322D01*
X025359Y005532D02*
X024939Y005112D01*
X025044Y005007D01*
X025254Y005007D01*
X025359Y005112D01*
X025359Y005532D01*
X025254Y005637D01*
X025044Y005637D01*
X024939Y005532D01*
X024939Y005112D01*
X024715Y005007D02*
X024294Y005007D01*
X024715Y005427D01*
X024715Y005532D01*
X024610Y005637D01*
X024399Y005637D01*
X024294Y005532D01*
X024070Y005637D02*
X023860Y005637D01*
X023965Y005637D02*
X023965Y005112D01*
X023860Y005007D01*
X023755Y005007D01*
X023650Y005112D01*
X019495Y005140D02*
X019065Y005140D01*
X019209Y004996D01*
X019495Y004996D02*
X019495Y005283D01*
X015495Y005283D02*
X015495Y004996D01*
X015495Y005140D02*
X015065Y005140D01*
X015209Y004996D01*
X011684Y005204D02*
X011613Y005132D01*
X011684Y005204D02*
X011684Y005347D01*
X011613Y005419D01*
X011541Y005419D01*
X011469Y005347D01*
X011469Y005275D01*
X011469Y005347D02*
X011397Y005419D01*
X011326Y005419D01*
X011254Y005347D01*
X011254Y005204D01*
X011326Y005132D01*
X005622Y005641D02*
X005550Y005569D01*
X005622Y005641D02*
X005622Y005785D01*
X005550Y005856D01*
X005478Y005856D01*
X005407Y005785D01*
X005407Y005713D01*
X005407Y005785D02*
X005335Y005856D01*
X005263Y005856D01*
X005191Y005785D01*
X005191Y005641D01*
X005263Y005569D01*
X005602Y002156D02*
X005602Y001869D01*
X005602Y002013D02*
X005171Y002013D01*
X005315Y001869D01*
X011234Y001575D02*
X011377Y001432D01*
X011234Y001575D02*
X011664Y001575D01*
X011664Y001432D02*
X011664Y001719D01*
X015045Y001511D02*
X015045Y001368D01*
X015117Y001296D01*
X015260Y001440D02*
X015260Y001511D01*
X015332Y001583D01*
X015404Y001583D01*
X015475Y001511D01*
X015475Y001368D01*
X015404Y001296D01*
X015260Y001511D02*
X015189Y001583D01*
X015117Y001583D01*
X015045Y001511D01*
X019045Y001511D02*
X019045Y001368D01*
X019117Y001296D01*
X019260Y001440D02*
X019260Y001511D01*
X019332Y001583D01*
X019404Y001583D01*
X019475Y001511D01*
X019475Y001368D01*
X019404Y001296D01*
X019260Y001511D02*
X019189Y001583D01*
X019117Y001583D01*
X019045Y001511D01*
X018237Y012797D02*
X017950Y012797D01*
X018093Y012797D02*
X018093Y013228D01*
X017950Y013084D01*
X021650Y013136D02*
X021722Y013208D01*
X021865Y013208D01*
X021937Y013136D01*
X021937Y013064D01*
X021865Y012992D01*
X021937Y012921D01*
X021937Y012849D01*
X021865Y012777D01*
X021722Y012777D01*
X021650Y012849D01*
X021793Y012992D02*
X021865Y012992D01*
D13*
X022465Y013172D02*
X023215Y013172D01*
X023265Y013122D01*
X023265Y011872D01*
X023465Y011872D01*
X023465Y013122D01*
X023515Y013172D01*
X024265Y013172D01*
X024265Y011872D01*
X024465Y011872D01*
X024465Y013172D01*
X025265Y013172D01*
X025465Y013172D01*
X026265Y013172D01*
X026465Y013172D01*
X027265Y013172D01*
X027465Y013172D01*
X028265Y013172D01*
X028465Y013172D01*
X029265Y013172D01*
X029465Y013172D01*
X030265Y013172D01*
X030465Y013172D01*
X031265Y013172D01*
X031465Y013172D01*
X032265Y013172D01*
X032465Y013172D01*
X033215Y013172D01*
X033265Y013122D01*
X033265Y011872D01*
X033465Y011872D01*
X033465Y013122D01*
X033515Y013172D01*
X034265Y013172D01*
X034265Y011872D01*
X034265Y011772D01*
X034115Y011772D01*
X034115Y011872D01*
X034115Y011972D01*
X033615Y011972D01*
X033615Y011872D01*
X033465Y011872D01*
X033615Y011872D02*
X033615Y011772D01*
X033115Y011772D01*
X033115Y011872D01*
X033265Y011872D01*
X033115Y011872D02*
X033115Y011972D01*
X032615Y011972D01*
X032615Y011872D01*
X032465Y011872D01*
X032465Y013172D01*
X032265Y013172D02*
X032265Y011872D01*
X032465Y011872D01*
X032615Y011872D02*
X032615Y011772D01*
X032115Y011772D01*
X032115Y011872D01*
X032265Y011872D01*
X032115Y011872D02*
X032115Y011972D01*
X031615Y011972D01*
X031615Y011872D01*
X031465Y011872D01*
X031465Y013172D01*
X031265Y013172D02*
X031265Y011872D01*
X031465Y011872D01*
X031615Y011872D02*
X031615Y011772D01*
X031115Y011772D01*
X031115Y011872D01*
X031265Y011872D01*
X031115Y011872D02*
X031115Y011972D01*
X030615Y011972D01*
X030615Y011872D01*
X030465Y011872D01*
X030465Y013172D01*
X030265Y013172D02*
X030265Y011872D01*
X030465Y011872D01*
X030615Y011872D02*
X030615Y011772D01*
X030115Y011772D01*
X030115Y011872D01*
X030265Y011872D01*
X030115Y011872D02*
X030115Y011972D01*
X029615Y011972D01*
X029615Y011872D01*
X029465Y011872D01*
X029465Y013172D01*
X029265Y013172D02*
X029265Y011872D01*
X029465Y011872D01*
X029615Y011872D02*
X029615Y011772D01*
X029115Y011772D01*
X029115Y011872D01*
X029265Y011872D01*
X029115Y011872D02*
X029115Y011972D01*
X028615Y011972D01*
X028615Y011872D01*
X028465Y011872D01*
X028465Y013172D01*
X028265Y013172D02*
X028265Y011872D01*
X028465Y011872D01*
X028615Y011872D02*
X028615Y011772D01*
X028115Y011772D01*
X028115Y011872D01*
X028265Y011872D01*
X028115Y011872D02*
X028115Y011972D01*
X027615Y011972D01*
X027615Y011872D01*
X027465Y011872D01*
X027465Y013172D01*
X027265Y013172D02*
X027265Y011872D01*
X027465Y011872D01*
X027615Y011872D02*
X027615Y011772D01*
X027115Y011772D01*
X027115Y011872D01*
X027265Y011872D01*
X027115Y011872D02*
X027115Y011972D01*
X026615Y011972D01*
X026615Y011872D01*
X026465Y011872D01*
X026465Y013172D01*
X026265Y013172D02*
X026265Y011872D01*
X026465Y011872D01*
X026615Y011872D02*
X026615Y011772D01*
X026115Y011772D01*
X026115Y011872D01*
X026265Y011872D01*
X026115Y011872D02*
X026115Y011972D01*
X025615Y011972D01*
X025615Y011872D01*
X025465Y011872D01*
X025265Y011872D01*
X025115Y011872D01*
X025115Y011972D01*
X024615Y011972D01*
X024615Y011872D01*
X024465Y011872D01*
X024615Y011872D02*
X024615Y011772D01*
X024115Y011772D01*
X024115Y011872D01*
X024265Y011872D01*
X024115Y011872D02*
X024115Y011972D01*
X023615Y011972D01*
X023615Y011872D01*
X023465Y011872D01*
X023615Y011872D02*
X023615Y011772D01*
X023115Y011772D01*
X023115Y011872D01*
X023265Y011872D01*
X023115Y011872D02*
X023115Y011972D01*
X022615Y011972D01*
X022615Y011872D01*
X022465Y011872D01*
X022465Y011772D01*
X022615Y011772D01*
X022615Y011872D01*
X022465Y011872D02*
X022465Y013172D01*
X022465Y013472D01*
X022765Y013472D01*
X022765Y013522D01*
X022965Y013522D01*
X022965Y013472D01*
X023265Y013472D01*
X023265Y013422D01*
X023465Y013422D01*
X023465Y013472D01*
X023765Y013472D01*
X023765Y013522D01*
X023965Y013522D01*
X023965Y013472D01*
X024265Y013472D01*
X024265Y013422D01*
X024465Y013422D01*
X024465Y013472D01*
X024765Y013472D01*
X024765Y013522D01*
X024965Y013522D01*
X024965Y013472D01*
X025265Y013472D01*
X025265Y013422D01*
X025465Y013422D01*
X025465Y013472D01*
X025765Y013472D01*
X025765Y013522D01*
X025965Y013522D01*
X025965Y013472D01*
X026265Y013472D01*
X026265Y013422D01*
X026465Y013422D01*
X026465Y013472D01*
X026765Y013472D01*
X026765Y013522D01*
X026965Y013522D01*
X026965Y013472D01*
X027265Y013472D01*
X027265Y013422D01*
X027465Y013422D01*
X027465Y013472D01*
X027765Y013472D01*
X027765Y013522D01*
X027965Y013522D01*
X027965Y013472D01*
X028265Y013472D01*
X028265Y013422D01*
X028465Y013422D01*
X028465Y013472D01*
X028765Y013472D01*
X028765Y013522D01*
X028965Y013522D01*
X028965Y013472D01*
X029265Y013472D01*
X029265Y013422D01*
X029465Y013422D01*
X029465Y013472D01*
X029765Y013472D01*
X029765Y013522D01*
X029965Y013522D01*
X029965Y013472D01*
X030265Y013472D01*
X030265Y013422D01*
X030465Y013422D01*
X030465Y013472D01*
X030765Y013472D01*
X030765Y013522D01*
X030965Y013522D01*
X030965Y013472D01*
X031265Y013472D01*
X031265Y013422D01*
X031465Y013422D01*
X031465Y013472D01*
X031765Y013472D01*
X031765Y013522D01*
X031965Y013522D01*
X031965Y013472D01*
X032265Y013472D01*
X032265Y013422D01*
X032465Y013422D01*
X032465Y013472D01*
X032765Y013472D01*
X032765Y013522D01*
X032965Y013522D01*
X032965Y013472D01*
X033265Y013472D01*
X033265Y013422D01*
X033465Y013422D01*
X033465Y013472D01*
X033765Y013472D01*
X033765Y013522D01*
X033965Y013522D01*
X033965Y013472D01*
X034265Y013472D01*
X034265Y013172D01*
X033465Y013122D02*
X033365Y013022D01*
X033265Y013122D01*
X035614Y013196D02*
X035614Y013846D01*
X035814Y013746D01*
X035814Y013296D01*
X035814Y011446D01*
X036214Y011446D01*
X036214Y011596D02*
X036014Y011596D01*
X036014Y013396D01*
X036014Y014146D01*
X035814Y014146D01*
X035814Y013746D01*
X036014Y014146D02*
X037614Y014146D01*
X038014Y014146D01*
X039614Y014146D01*
X039784Y014146D01*
X039784Y011446D01*
X040154Y011446D01*
X040154Y011596D02*
X039954Y011596D01*
X039954Y013396D01*
X039954Y014146D01*
X039784Y014146D01*
X039614Y014146D02*
X039614Y013396D01*
X038014Y013396D01*
X038014Y011596D01*
X038164Y011596D01*
X038164Y011446D02*
X037464Y011446D01*
X037464Y011596D02*
X037614Y011596D01*
X037614Y013396D01*
X036014Y013396D01*
X035814Y013296D02*
X035614Y013196D01*
X036164Y013146D02*
X037464Y013146D01*
X037464Y011896D01*
X038164Y011896D02*
X038164Y013146D01*
X039464Y013146D01*
X039464Y011896D01*
X040104Y011896D02*
X040104Y013146D01*
X041404Y013146D01*
X041404Y011896D01*
X041404Y011596D02*
X041554Y011596D01*
X041554Y013396D01*
X039954Y013396D01*
X039614Y013396D02*
X039614Y011596D01*
X039414Y011596D01*
X039414Y011446D02*
X039784Y011446D01*
X039784Y010446D01*
X039784Y009246D01*
X035814Y009246D01*
X035614Y009246D01*
X035614Y011146D01*
X035814Y011046D01*
X035814Y010446D01*
X039784Y010446D01*
X043754Y010446D01*
X043754Y009246D01*
X039784Y009246D01*
X039614Y009346D02*
X038014Y009346D01*
X038014Y010346D01*
X039614Y010346D01*
X039614Y009346D01*
X039954Y009346D02*
X039954Y010346D01*
X041554Y010346D01*
X041554Y009346D01*
X039954Y009346D01*
X040157Y010075D02*
X040207Y010109D01*
X040258Y010141D01*
X040312Y010169D01*
X040367Y010194D01*
X040423Y010215D01*
X040481Y010233D01*
X040539Y010247D01*
X040599Y010257D01*
X040659Y010264D01*
X040719Y010267D01*
X040779Y010266D01*
X040839Y010261D01*
X040899Y010253D01*
X040958Y010241D01*
X041016Y010225D01*
X041073Y010205D01*
X041129Y010182D01*
X041183Y010156D01*
X041236Y010126D01*
X041286Y010093D01*
X041334Y010056D01*
X041344Y009996D02*
X040144Y009746D01*
X040194Y009696D02*
X041394Y009946D01*
X041317Y010070D02*
X041343Y010053D01*
X041366Y010034D01*
X041386Y010011D01*
X041403Y009987D01*
X041417Y009960D01*
X041428Y009931D01*
X041434Y009902D01*
X041437Y009872D01*
X041436Y009841D01*
X041431Y009812D01*
X041422Y009783D01*
X041409Y009755D01*
X041393Y009730D01*
X041374Y009706D01*
X042144Y009746D02*
X043344Y009996D01*
X043394Y009946D02*
X042194Y009696D01*
X042154Y009706D02*
X042135Y009730D01*
X042119Y009755D01*
X042106Y009783D01*
X042096Y009811D01*
X042089Y009841D01*
X042085Y009871D01*
X042085Y009901D01*
X042089Y009932D01*
X042096Y009961D01*
X042106Y009990D01*
X042119Y010017D01*
X042135Y010043D01*
X042154Y010066D01*
X042176Y010088D01*
X042152Y009704D02*
X042189Y009664D01*
X042229Y009627D01*
X042271Y009592D01*
X042315Y009561D01*
X042361Y009532D01*
X042409Y009507D01*
X042459Y009484D01*
X042510Y009466D01*
X042562Y009450D01*
X042616Y009439D01*
X042669Y009431D01*
X042724Y009426D01*
X042778Y009425D01*
X042833Y009428D01*
X042887Y009434D01*
X042940Y009444D01*
X042993Y009458D01*
X043044Y009475D01*
X043095Y009496D01*
X043144Y009519D01*
X043191Y009547D01*
X043236Y009577D01*
X043280Y009610D01*
X043320Y009646D01*
X043359Y009685D01*
X043394Y009726D01*
X043374Y009706D02*
X043393Y009730D01*
X043409Y009755D01*
X043422Y009783D01*
X043431Y009812D01*
X043436Y009841D01*
X043437Y009872D01*
X043434Y009902D01*
X043428Y009931D01*
X043417Y009960D01*
X043403Y009987D01*
X043386Y010011D01*
X043366Y010034D01*
X043343Y010053D01*
X043317Y010070D01*
X043554Y010346D02*
X043554Y009346D01*
X041954Y009346D01*
X041954Y010346D01*
X043554Y010346D01*
X043754Y010446D02*
X043754Y011446D01*
X043354Y011446D01*
X043354Y011596D02*
X043554Y011596D01*
X043554Y013396D01*
X043554Y014146D01*
X041954Y014146D01*
X041554Y014146D01*
X039954Y014146D01*
X041554Y014146D02*
X041554Y013396D01*
X041954Y013396D02*
X041954Y011596D01*
X042104Y011596D01*
X042104Y011446D02*
X041404Y011446D01*
X042104Y011896D02*
X042104Y013146D01*
X043404Y013146D01*
X043404Y011896D01*
X043754Y011446D02*
X043754Y014146D01*
X043554Y014146D01*
X041954Y014146D02*
X041954Y013396D01*
X043554Y013396D01*
X038014Y013396D02*
X038014Y014146D01*
X037614Y014146D02*
X037614Y013396D01*
X036164Y013146D02*
X036164Y011896D01*
X035814Y011446D02*
X035814Y011046D01*
X034265Y011572D02*
X034265Y011772D01*
X034265Y011872D02*
X034115Y011872D01*
X034265Y011572D02*
X033465Y011572D01*
X033465Y011622D01*
X033265Y011622D01*
X033265Y011572D01*
X032465Y011572D01*
X032465Y011622D01*
X032265Y011622D01*
X032265Y011572D01*
X031465Y011572D01*
X031465Y011622D01*
X031265Y011622D01*
X031265Y011572D01*
X030465Y011572D01*
X030465Y011622D01*
X030265Y011622D01*
X030265Y011572D01*
X029465Y011572D01*
X029465Y011622D01*
X029265Y011622D01*
X029265Y011572D01*
X028465Y011572D01*
X028465Y011622D01*
X028265Y011622D01*
X028265Y011572D01*
X027465Y011572D01*
X027465Y011622D01*
X027265Y011622D01*
X027265Y011572D01*
X026465Y011572D01*
X026465Y011622D01*
X026265Y011622D01*
X026265Y011572D01*
X025465Y011572D01*
X025465Y011622D01*
X025265Y011622D01*
X025265Y011572D01*
X024465Y011572D01*
X024465Y011622D01*
X024265Y011622D01*
X024265Y011572D01*
X023465Y011572D01*
X023465Y011622D01*
X023265Y011622D01*
X023265Y011572D01*
X022465Y011572D01*
X022465Y011772D01*
X022365Y010972D02*
X021865Y010972D01*
X021615Y010722D01*
X021615Y010222D01*
X021865Y009972D01*
X022365Y009972D01*
X022615Y010222D01*
X022615Y010722D01*
X022365Y010972D01*
X018265Y009972D02*
X018267Y010052D01*
X018273Y010131D01*
X018283Y010210D01*
X018297Y010289D01*
X018314Y010367D01*
X018336Y010444D01*
X018361Y010519D01*
X018391Y010593D01*
X018423Y010666D01*
X018460Y010737D01*
X018500Y010806D01*
X018543Y010873D01*
X018590Y010938D01*
X018639Y011000D01*
X018692Y011060D01*
X018748Y011117D01*
X018806Y011172D01*
X018867Y011223D01*
X018931Y011271D01*
X018997Y011316D01*
X019065Y011358D01*
X019135Y011396D01*
X019207Y011430D01*
X019280Y011461D01*
X019355Y011489D01*
X019432Y011512D01*
X019509Y011532D01*
X019587Y011548D01*
X019666Y011560D01*
X019745Y011568D01*
X019825Y011572D01*
X019905Y011572D01*
X019985Y011568D01*
X020064Y011560D01*
X020143Y011548D01*
X020221Y011532D01*
X020298Y011512D01*
X020375Y011489D01*
X020450Y011461D01*
X020523Y011430D01*
X020595Y011396D01*
X020665Y011358D01*
X020733Y011316D01*
X020799Y011271D01*
X020863Y011223D01*
X020924Y011172D01*
X020982Y011117D01*
X021038Y011060D01*
X021091Y011000D01*
X021140Y010938D01*
X021187Y010873D01*
X021230Y010806D01*
X021270Y010737D01*
X021307Y010666D01*
X021339Y010593D01*
X021369Y010519D01*
X021394Y010444D01*
X021416Y010367D01*
X021433Y010289D01*
X021447Y010210D01*
X021457Y010131D01*
X021463Y010052D01*
X021465Y009972D01*
X021463Y009892D01*
X021457Y009813D01*
X021447Y009734D01*
X021433Y009655D01*
X021416Y009577D01*
X021394Y009500D01*
X021369Y009425D01*
X021339Y009351D01*
X021307Y009278D01*
X021270Y009207D01*
X021230Y009138D01*
X021187Y009071D01*
X021140Y009006D01*
X021091Y008944D01*
X021038Y008884D01*
X020982Y008827D01*
X020924Y008772D01*
X020863Y008721D01*
X020799Y008673D01*
X020733Y008628D01*
X020665Y008586D01*
X020595Y008548D01*
X020523Y008514D01*
X020450Y008483D01*
X020375Y008455D01*
X020298Y008432D01*
X020221Y008412D01*
X020143Y008396D01*
X020064Y008384D01*
X019985Y008376D01*
X019905Y008372D01*
X019825Y008372D01*
X019745Y008376D01*
X019666Y008384D01*
X019587Y008396D01*
X019509Y008412D01*
X019432Y008432D01*
X019355Y008455D01*
X019280Y008483D01*
X019207Y008514D01*
X019135Y008548D01*
X019065Y008586D01*
X018997Y008628D01*
X018931Y008673D01*
X018867Y008721D01*
X018806Y008772D01*
X018748Y008827D01*
X018692Y008884D01*
X018639Y008944D01*
X018590Y009006D01*
X018543Y009071D01*
X018500Y009138D01*
X018460Y009207D01*
X018423Y009278D01*
X018391Y009351D01*
X018361Y009425D01*
X018336Y009500D01*
X018314Y009577D01*
X018297Y009655D01*
X018283Y009734D01*
X018273Y009813D01*
X018267Y009892D01*
X018265Y009972D01*
X018665Y010272D02*
X018665Y010572D01*
X018515Y010422D02*
X018815Y010422D01*
X022365Y008722D02*
X022615Y008972D01*
X023115Y008972D01*
X023365Y008722D01*
X023365Y008222D01*
X023115Y007972D01*
X023365Y007722D01*
X023365Y007222D01*
X023115Y006972D01*
X022615Y006972D01*
X022365Y007222D01*
X022365Y007722D01*
X022615Y007972D01*
X022365Y008222D01*
X022365Y008722D01*
X022615Y007972D02*
X023115Y007972D01*
X022965Y007522D02*
X022765Y007522D01*
X022765Y007472D01*
X022465Y007472D01*
X022465Y007172D01*
X023215Y007172D01*
X023265Y007122D01*
X023265Y005872D01*
X023465Y005872D01*
X023465Y007122D01*
X023515Y007172D01*
X024265Y007172D01*
X024265Y005872D01*
X024465Y005872D01*
X024465Y007172D01*
X025265Y007172D01*
X025465Y007172D01*
X026265Y007172D01*
X026465Y007172D01*
X027265Y007172D01*
X027465Y007172D01*
X028265Y007172D01*
X028465Y007172D01*
X029265Y007172D01*
X029465Y007172D01*
X030265Y007172D01*
X030465Y007172D01*
X031265Y007172D01*
X031465Y007172D01*
X032265Y007172D01*
X032465Y007172D01*
X033215Y007172D01*
X033265Y007122D01*
X033265Y005872D01*
X033465Y005872D01*
X033465Y007122D01*
X033515Y007172D01*
X034265Y007172D01*
X034265Y005872D01*
X034265Y005772D01*
X034115Y005772D01*
X034115Y005872D01*
X034115Y005972D01*
X033615Y005972D01*
X033615Y005872D01*
X033465Y005872D01*
X033615Y005872D02*
X033615Y005772D01*
X033115Y005772D01*
X033115Y005872D01*
X033265Y005872D01*
X033115Y005872D02*
X033115Y005972D01*
X032615Y005972D01*
X032615Y005872D01*
X032465Y005872D01*
X032465Y007172D01*
X032265Y007172D02*
X032265Y005872D01*
X032465Y005872D01*
X032615Y005872D02*
X032615Y005772D01*
X032115Y005772D01*
X032115Y005872D01*
X032265Y005872D01*
X032115Y005872D02*
X032115Y005972D01*
X031615Y005972D01*
X031615Y005872D01*
X031465Y005872D01*
X031465Y007172D01*
X031265Y007172D02*
X031265Y005872D01*
X031465Y005872D01*
X031615Y005872D02*
X031615Y005772D01*
X031115Y005772D01*
X031115Y005872D01*
X031265Y005872D01*
X031115Y005872D02*
X031115Y005972D01*
X030615Y005972D01*
X030615Y005872D01*
X030465Y005872D01*
X030465Y007172D01*
X030265Y007172D02*
X030265Y005872D01*
X030465Y005872D01*
X030615Y005872D02*
X030615Y005772D01*
X030115Y005772D01*
X030115Y005872D01*
X030265Y005872D01*
X030115Y005872D02*
X030115Y005972D01*
X029615Y005972D01*
X029615Y005872D01*
X029465Y005872D01*
X029465Y007172D01*
X029265Y007172D02*
X029265Y005872D01*
X029465Y005872D01*
X029615Y005872D02*
X029615Y005772D01*
X029115Y005772D01*
X029115Y005872D01*
X029265Y005872D01*
X029115Y005872D02*
X029115Y005972D01*
X028615Y005972D01*
X028615Y005872D01*
X028465Y005872D01*
X028465Y007172D01*
X028265Y007172D02*
X028265Y005872D01*
X028465Y005872D01*
X028615Y005872D02*
X028615Y005772D01*
X028115Y005772D01*
X028115Y005872D01*
X028265Y005872D01*
X028115Y005872D02*
X028115Y005972D01*
X027615Y005972D01*
X027615Y005872D01*
X027465Y005872D01*
X027465Y007172D01*
X027265Y007172D02*
X027265Y005872D01*
X027465Y005872D01*
X027615Y005872D02*
X027615Y005772D01*
X027115Y005772D01*
X027115Y005872D01*
X027265Y005872D01*
X027115Y005872D02*
X027115Y005972D01*
X026615Y005972D01*
X026615Y005872D01*
X026465Y005872D01*
X026465Y007172D01*
X026265Y007172D02*
X026265Y005872D01*
X026465Y005872D01*
X026615Y005872D02*
X026615Y005772D01*
X026115Y005772D01*
X026115Y005872D01*
X026265Y005872D01*
X026115Y005872D02*
X026115Y005972D01*
X025615Y005972D01*
X025615Y005872D01*
X025465Y005872D01*
X025265Y005872D01*
X025115Y005872D01*
X025115Y005972D01*
X024615Y005972D01*
X024615Y005872D01*
X024465Y005872D01*
X024615Y005872D02*
X024615Y005772D01*
X024115Y005772D01*
X024115Y005872D01*
X024265Y005872D01*
X024115Y005872D02*
X024115Y005972D01*
X023615Y005972D01*
X023615Y005872D01*
X023465Y005872D01*
X023615Y005872D02*
X023615Y005772D01*
X023115Y005772D01*
X023115Y005872D01*
X023265Y005872D01*
X023115Y005872D02*
X023115Y005972D01*
X022615Y005972D01*
X022615Y005872D01*
X022465Y005872D01*
X022465Y005772D01*
X022615Y005772D01*
X022615Y005872D01*
X022465Y005872D02*
X022465Y007172D01*
X023265Y007122D02*
X023365Y007022D01*
X023465Y007122D01*
X023465Y007422D02*
X023265Y007422D01*
X023265Y007472D01*
X022965Y007472D01*
X022965Y007522D01*
X023465Y007472D02*
X023765Y007472D01*
X023765Y007522D01*
X023965Y007522D01*
X023965Y007472D01*
X024265Y007472D01*
X024265Y007422D01*
X024465Y007422D01*
X024465Y007472D01*
X024765Y007472D01*
X024765Y007522D01*
X024965Y007522D01*
X024965Y007472D01*
X025265Y007472D01*
X025265Y007422D01*
X025465Y007422D01*
X025465Y007472D01*
X025765Y007472D01*
X025765Y007522D01*
X025965Y007522D01*
X025965Y007472D01*
X026265Y007472D01*
X026265Y007422D01*
X026465Y007422D01*
X026465Y007472D01*
X026765Y007472D01*
X026765Y007522D01*
X026965Y007522D01*
X026965Y007472D01*
X027265Y007472D01*
X027265Y007422D01*
X027465Y007422D01*
X027465Y007472D01*
X027765Y007472D01*
X027765Y007522D01*
X027965Y007522D01*
X027965Y007472D01*
X028265Y007472D01*
X028265Y007422D01*
X028465Y007422D01*
X028465Y007472D01*
X028765Y007472D01*
X028765Y007522D01*
X028965Y007522D01*
X028965Y007472D01*
X029265Y007472D01*
X029265Y007422D01*
X029465Y007422D01*
X029465Y007472D01*
X029765Y007472D01*
X029765Y007522D01*
X029965Y007522D01*
X029965Y007472D01*
X030265Y007472D01*
X030265Y007422D01*
X030465Y007422D01*
X030465Y007472D01*
X030765Y007472D01*
X030765Y007522D01*
X030965Y007522D01*
X030965Y007472D01*
X031265Y007472D01*
X031265Y007422D01*
X031465Y007422D01*
X031465Y007472D01*
X031765Y007472D01*
X031765Y007522D01*
X031965Y007522D01*
X031965Y007472D01*
X032265Y007472D01*
X032265Y007422D01*
X032465Y007422D01*
X032465Y007472D01*
X032765Y007472D01*
X032765Y007522D01*
X032965Y007522D01*
X032965Y007472D01*
X033265Y007472D01*
X033265Y007422D01*
X033465Y007422D01*
X033465Y007472D01*
X033765Y007472D01*
X033765Y007522D01*
X033965Y007522D01*
X033965Y007472D01*
X034265Y007472D01*
X034265Y007172D01*
X033465Y007122D02*
X033365Y007022D01*
X033265Y007122D01*
X030865Y007222D02*
X030615Y006972D01*
X030115Y006972D01*
X029865Y007222D01*
X029615Y006972D01*
X029115Y006972D01*
X028865Y007222D01*
X028865Y007722D01*
X029115Y007972D01*
X029615Y007972D01*
X029865Y007722D01*
X029865Y007222D01*
X029865Y007722D01*
X030115Y007972D01*
X030615Y007972D01*
X030865Y007722D01*
X030865Y007222D01*
X034115Y005872D02*
X034265Y005872D01*
X034265Y005772D02*
X034265Y005572D01*
X033465Y005572D01*
X033465Y005622D01*
X033265Y005622D01*
X033265Y005572D01*
X032465Y005572D01*
X032465Y005622D01*
X032265Y005622D01*
X032265Y005572D01*
X031465Y005572D01*
X031465Y005622D01*
X031265Y005622D01*
X031265Y005572D01*
X030465Y005572D01*
X030465Y005622D01*
X030265Y005622D01*
X030265Y005572D01*
X029465Y005572D01*
X029465Y005622D01*
X029265Y005622D01*
X029265Y005572D01*
X028465Y005572D01*
X028465Y005622D01*
X028265Y005622D01*
X028265Y005572D01*
X027465Y005572D01*
X027465Y005622D01*
X027265Y005622D01*
X027265Y005572D01*
X026465Y005572D01*
X026465Y005622D01*
X026265Y005622D01*
X026265Y005572D01*
X025465Y005572D01*
X025465Y005622D01*
X025265Y005622D01*
X025265Y005572D01*
X024465Y005572D01*
X024465Y005622D01*
X024265Y005622D01*
X024265Y005572D01*
X023465Y005572D01*
X023465Y005622D01*
X023265Y005622D01*
X023265Y005572D01*
X022465Y005572D01*
X022465Y005772D01*
X025115Y005772D02*
X025615Y005772D01*
X025615Y005872D01*
X025465Y005872D02*
X025465Y007172D01*
X025265Y007172D02*
X025265Y005872D01*
X025115Y005872D02*
X025115Y005772D01*
X024465Y007172D02*
X024265Y007172D01*
X023465Y007422D02*
X023465Y007472D01*
X017865Y007472D02*
X017865Y007722D01*
X017615Y007722D01*
X016615Y007722D02*
X016365Y007722D01*
X016365Y007472D01*
X016365Y006472D02*
X016365Y006222D01*
X016615Y006222D01*
X017615Y006222D02*
X017865Y006222D01*
X017865Y006472D01*
X007165Y002822D02*
X007165Y002522D01*
X007015Y002672D02*
X007315Y002672D01*
X006765Y002222D02*
X006767Y002302D01*
X006773Y002381D01*
X006783Y002460D01*
X006797Y002539D01*
X006814Y002617D01*
X006836Y002694D01*
X006861Y002769D01*
X006891Y002843D01*
X006923Y002916D01*
X006960Y002987D01*
X007000Y003056D01*
X007043Y003123D01*
X007090Y003188D01*
X007139Y003250D01*
X007192Y003310D01*
X007248Y003367D01*
X007306Y003422D01*
X007367Y003473D01*
X007431Y003521D01*
X007497Y003566D01*
X007565Y003608D01*
X007635Y003646D01*
X007707Y003680D01*
X007780Y003711D01*
X007855Y003739D01*
X007932Y003762D01*
X008009Y003782D01*
X008087Y003798D01*
X008166Y003810D01*
X008245Y003818D01*
X008325Y003822D01*
X008405Y003822D01*
X008485Y003818D01*
X008564Y003810D01*
X008643Y003798D01*
X008721Y003782D01*
X008798Y003762D01*
X008875Y003739D01*
X008950Y003711D01*
X009023Y003680D01*
X009095Y003646D01*
X009165Y003608D01*
X009233Y003566D01*
X009299Y003521D01*
X009363Y003473D01*
X009424Y003422D01*
X009482Y003367D01*
X009538Y003310D01*
X009591Y003250D01*
X009640Y003188D01*
X009687Y003123D01*
X009730Y003056D01*
X009770Y002987D01*
X009807Y002916D01*
X009839Y002843D01*
X009869Y002769D01*
X009894Y002694D01*
X009916Y002617D01*
X009933Y002539D01*
X009947Y002460D01*
X009957Y002381D01*
X009963Y002302D01*
X009965Y002222D01*
X009963Y002142D01*
X009957Y002063D01*
X009947Y001984D01*
X009933Y001905D01*
X009916Y001827D01*
X009894Y001750D01*
X009869Y001675D01*
X009839Y001601D01*
X009807Y001528D01*
X009770Y001457D01*
X009730Y001388D01*
X009687Y001321D01*
X009640Y001256D01*
X009591Y001194D01*
X009538Y001134D01*
X009482Y001077D01*
X009424Y001022D01*
X009363Y000971D01*
X009299Y000923D01*
X009233Y000878D01*
X009165Y000836D01*
X009095Y000798D01*
X009023Y000764D01*
X008950Y000733D01*
X008875Y000705D01*
X008798Y000682D01*
X008721Y000662D01*
X008643Y000646D01*
X008564Y000634D01*
X008485Y000626D01*
X008405Y000622D01*
X008325Y000622D01*
X008245Y000626D01*
X008166Y000634D01*
X008087Y000646D01*
X008009Y000662D01*
X007932Y000682D01*
X007855Y000705D01*
X007780Y000733D01*
X007707Y000764D01*
X007635Y000798D01*
X007565Y000836D01*
X007497Y000878D01*
X007431Y000923D01*
X007367Y000971D01*
X007306Y001022D01*
X007248Y001077D01*
X007192Y001134D01*
X007139Y001194D01*
X007090Y001256D01*
X007043Y001321D01*
X007000Y001388D01*
X006960Y001457D01*
X006923Y001528D01*
X006891Y001601D01*
X006861Y001675D01*
X006836Y001750D01*
X006814Y001827D01*
X006797Y001905D01*
X006783Y001984D01*
X006773Y002063D01*
X006767Y002142D01*
X006765Y002222D01*
X003840Y001647D02*
X003540Y001647D01*
X003690Y001797D02*
X003690Y001497D01*
X000890Y002097D02*
X000892Y002177D01*
X000898Y002256D01*
X000908Y002335D01*
X000922Y002414D01*
X000939Y002492D01*
X000961Y002569D01*
X000986Y002644D01*
X001016Y002718D01*
X001048Y002791D01*
X001085Y002862D01*
X001125Y002931D01*
X001168Y002998D01*
X001215Y003063D01*
X001264Y003125D01*
X001317Y003185D01*
X001373Y003242D01*
X001431Y003297D01*
X001492Y003348D01*
X001556Y003396D01*
X001622Y003441D01*
X001690Y003483D01*
X001760Y003521D01*
X001832Y003555D01*
X001905Y003586D01*
X001980Y003614D01*
X002057Y003637D01*
X002134Y003657D01*
X002212Y003673D01*
X002291Y003685D01*
X002370Y003693D01*
X002450Y003697D01*
X002530Y003697D01*
X002610Y003693D01*
X002689Y003685D01*
X002768Y003673D01*
X002846Y003657D01*
X002923Y003637D01*
X003000Y003614D01*
X003075Y003586D01*
X003148Y003555D01*
X003220Y003521D01*
X003290Y003483D01*
X003358Y003441D01*
X003424Y003396D01*
X003488Y003348D01*
X003549Y003297D01*
X003607Y003242D01*
X003663Y003185D01*
X003716Y003125D01*
X003765Y003063D01*
X003812Y002998D01*
X003855Y002931D01*
X003895Y002862D01*
X003932Y002791D01*
X003964Y002718D01*
X003994Y002644D01*
X004019Y002569D01*
X004041Y002492D01*
X004058Y002414D01*
X004072Y002335D01*
X004082Y002256D01*
X004088Y002177D01*
X004090Y002097D01*
X004088Y002017D01*
X004082Y001938D01*
X004072Y001859D01*
X004058Y001780D01*
X004041Y001702D01*
X004019Y001625D01*
X003994Y001550D01*
X003964Y001476D01*
X003932Y001403D01*
X003895Y001332D01*
X003855Y001263D01*
X003812Y001196D01*
X003765Y001131D01*
X003716Y001069D01*
X003663Y001009D01*
X003607Y000952D01*
X003549Y000897D01*
X003488Y000846D01*
X003424Y000798D01*
X003358Y000753D01*
X003290Y000711D01*
X003220Y000673D01*
X003148Y000639D01*
X003075Y000608D01*
X003000Y000580D01*
X002923Y000557D01*
X002846Y000537D01*
X002768Y000521D01*
X002689Y000509D01*
X002610Y000501D01*
X002530Y000497D01*
X002450Y000497D01*
X002370Y000501D01*
X002291Y000509D01*
X002212Y000521D01*
X002134Y000537D01*
X002057Y000557D01*
X001980Y000580D01*
X001905Y000608D01*
X001832Y000639D01*
X001760Y000673D01*
X001690Y000711D01*
X001622Y000753D01*
X001556Y000798D01*
X001492Y000846D01*
X001431Y000897D01*
X001373Y000952D01*
X001317Y001009D01*
X001264Y001069D01*
X001215Y001131D01*
X001168Y001196D01*
X001125Y001263D01*
X001085Y001332D01*
X001048Y001403D01*
X001016Y001476D01*
X000986Y001550D01*
X000961Y001625D01*
X000939Y001702D01*
X000922Y001780D01*
X000908Y001859D01*
X000898Y001938D01*
X000892Y002017D01*
X000890Y002097D01*
X000990Y006222D02*
X000990Y006472D01*
X000990Y006222D02*
X001240Y006222D01*
X002240Y006222D02*
X002490Y006222D01*
X002490Y006472D01*
X002490Y007472D02*
X002490Y007722D01*
X002240Y007722D01*
X001240Y007722D02*
X000990Y007722D01*
X000990Y007472D01*
X000990Y012472D02*
X000990Y012722D01*
X000990Y012472D02*
X001240Y012472D01*
X002240Y012472D02*
X002490Y012472D01*
X002490Y012722D01*
X002490Y013722D02*
X002490Y013972D01*
X002240Y013972D01*
X001240Y013972D02*
X000990Y013972D01*
X000990Y013722D01*
X016365Y013722D02*
X016365Y013972D01*
X016615Y013972D01*
X017615Y013972D02*
X017865Y013972D01*
X017865Y013722D01*
X017865Y012722D02*
X017865Y012472D01*
X017615Y012472D01*
X016615Y012472D02*
X016365Y012472D01*
X016365Y012722D01*
X023265Y013122D02*
X023365Y013022D01*
X023465Y013122D01*
X024265Y013172D02*
X024465Y013172D01*
X025265Y013172D02*
X025265Y011872D01*
X025115Y011872D02*
X025115Y011772D01*
X025615Y011772D01*
X025615Y011872D01*
X025465Y011872D02*
X025465Y013172D01*
X025615Y011472D02*
X025365Y011222D01*
X025365Y010722D01*
X025615Y010472D01*
X026115Y010472D01*
X026365Y010722D01*
X026615Y010472D01*
X027115Y010472D01*
X027365Y010722D01*
X027365Y011222D01*
X027115Y011472D01*
X026615Y011472D01*
X026365Y011222D01*
X026365Y010722D01*
X026365Y011222D01*
X026115Y011472D01*
X025615Y011472D01*
X035814Y010446D02*
X035814Y009246D01*
X036014Y009346D02*
X036014Y010346D01*
X037614Y010346D01*
X037614Y009346D01*
X036014Y009346D01*
X036218Y010074D02*
X036267Y010109D01*
X036319Y010140D01*
X036372Y010168D01*
X036427Y010193D01*
X036483Y010214D01*
X036541Y010232D01*
X036599Y010246D01*
X036659Y010256D01*
X036719Y010263D01*
X036779Y010266D01*
X036839Y010265D01*
X036899Y010260D01*
X036959Y010252D01*
X037018Y010240D01*
X037076Y010224D01*
X037133Y010204D01*
X037189Y010181D01*
X037243Y010155D01*
X037295Y010125D01*
X037345Y010092D01*
X037394Y010056D01*
X037404Y009996D02*
X036204Y009746D01*
X036254Y009696D02*
X037454Y009946D01*
X037377Y010070D02*
X037403Y010053D01*
X037426Y010034D01*
X037446Y010011D01*
X037463Y009987D01*
X037477Y009960D01*
X037488Y009931D01*
X037494Y009902D01*
X037497Y009872D01*
X037496Y009841D01*
X037491Y009812D01*
X037482Y009783D01*
X037469Y009755D01*
X037453Y009730D01*
X037434Y009706D01*
X038204Y009746D02*
X039404Y009996D01*
X039454Y009946D02*
X038254Y009696D01*
X038214Y009706D02*
X038195Y009730D01*
X038179Y009755D01*
X038166Y009783D01*
X038156Y009811D01*
X038149Y009841D01*
X038145Y009871D01*
X038145Y009901D01*
X038149Y009932D01*
X038156Y009961D01*
X038166Y009990D01*
X038179Y010017D01*
X038195Y010043D01*
X038214Y010066D01*
X038236Y010088D01*
X038212Y009704D02*
X038249Y009664D01*
X038289Y009627D01*
X038331Y009592D01*
X038375Y009561D01*
X038421Y009532D01*
X038469Y009507D01*
X038519Y009485D01*
X038570Y009466D01*
X038622Y009450D01*
X038676Y009439D01*
X038729Y009431D01*
X038784Y009426D01*
X038838Y009425D01*
X038892Y009428D01*
X038947Y009434D01*
X039000Y009444D01*
X039053Y009458D01*
X039104Y009475D01*
X039155Y009496D01*
X039204Y009519D01*
X039251Y009547D01*
X039296Y009577D01*
X039339Y009610D01*
X039380Y009646D01*
X039419Y009685D01*
X039454Y009726D01*
X039434Y009706D02*
X039453Y009730D01*
X039469Y009755D01*
X039482Y009783D01*
X039491Y009812D01*
X039496Y009841D01*
X039497Y009872D01*
X039494Y009902D01*
X039488Y009931D01*
X039477Y009960D01*
X039463Y009987D01*
X039446Y010011D01*
X039426Y010034D01*
X039403Y010053D01*
X039377Y010070D01*
X040176Y010088D02*
X040154Y010066D01*
X040135Y010043D01*
X040119Y010017D01*
X040106Y009990D01*
X040096Y009961D01*
X040089Y009932D01*
X040085Y009901D01*
X040085Y009871D01*
X040089Y009841D01*
X040096Y009811D01*
X040106Y009783D01*
X040119Y009755D01*
X040135Y009730D01*
X040154Y009706D01*
X040152Y009704D02*
X040189Y009664D01*
X040229Y009627D01*
X040271Y009592D01*
X040315Y009561D01*
X040361Y009532D01*
X040409Y009507D01*
X040459Y009484D01*
X040510Y009466D01*
X040562Y009450D01*
X040616Y009439D01*
X040669Y009431D01*
X040724Y009426D01*
X040778Y009425D01*
X040833Y009428D01*
X040887Y009434D01*
X040940Y009444D01*
X040993Y009458D01*
X041044Y009475D01*
X041095Y009496D01*
X041144Y009519D01*
X041191Y009547D01*
X041236Y009577D01*
X041280Y009610D01*
X041320Y009646D01*
X041359Y009685D01*
X041394Y009726D01*
X042157Y010075D02*
X042207Y010109D01*
X042258Y010141D01*
X042312Y010169D01*
X042367Y010194D01*
X042423Y010215D01*
X042481Y010233D01*
X042539Y010247D01*
X042599Y010257D01*
X042659Y010264D01*
X042719Y010267D01*
X042779Y010266D01*
X042839Y010261D01*
X042899Y010253D01*
X042958Y010241D01*
X043016Y010225D01*
X043073Y010205D01*
X043129Y010182D01*
X043183Y010156D01*
X043236Y010126D01*
X043286Y010093D01*
X043334Y010056D01*
X039394Y010056D02*
X039345Y010092D01*
X039295Y010125D01*
X039243Y010155D01*
X039189Y010181D01*
X039133Y010204D01*
X039076Y010224D01*
X039018Y010240D01*
X038959Y010252D01*
X038899Y010260D01*
X038839Y010265D01*
X038779Y010266D01*
X038719Y010263D01*
X038659Y010256D01*
X038599Y010246D01*
X038541Y010232D01*
X038483Y010214D01*
X038427Y010193D01*
X038372Y010168D01*
X038319Y010140D01*
X038267Y010109D01*
X038218Y010074D01*
X037454Y009726D02*
X037419Y009685D01*
X037380Y009646D01*
X037339Y009610D01*
X037296Y009577D01*
X037251Y009547D01*
X037204Y009519D01*
X037155Y009496D01*
X037104Y009475D01*
X037053Y009458D01*
X037000Y009444D01*
X036947Y009434D01*
X036892Y009428D01*
X036838Y009425D01*
X036784Y009426D01*
X036729Y009431D01*
X036676Y009439D01*
X036622Y009450D01*
X036570Y009466D01*
X036519Y009485D01*
X036469Y009507D01*
X036421Y009532D01*
X036375Y009561D01*
X036331Y009592D01*
X036289Y009627D01*
X036249Y009664D01*
X036212Y009704D01*
X036214Y009706D02*
X036195Y009730D01*
X036179Y009755D01*
X036166Y009783D01*
X036156Y009811D01*
X036149Y009841D01*
X036145Y009871D01*
X036145Y009901D01*
X036149Y009932D01*
X036156Y009961D01*
X036166Y009990D01*
X036179Y010017D01*
X036195Y010043D01*
X036214Y010066D01*
X036236Y010088D01*
D14*
X021496Y011302D02*
X021256Y011302D01*
X021376Y011302D02*
X021376Y011663D01*
X021256Y011543D01*
X021128Y011663D02*
X021008Y011663D01*
X021068Y011663D02*
X021068Y011362D01*
X021008Y011302D01*
X020948Y011302D01*
X020888Y011362D01*
X007037Y005175D02*
X006796Y005416D01*
X006736Y005416D01*
X006736Y005175D01*
X006796Y005047D02*
X007037Y004807D01*
X007097Y004867D01*
X007097Y004987D01*
X007037Y005047D01*
X006796Y005047D01*
X006736Y004987D01*
X006736Y004867D01*
X006796Y004807D01*
X007037Y004807D01*
X007097Y004679D02*
X007097Y004439D01*
X006857Y004679D01*
X006796Y004679D01*
X006736Y004619D01*
X006736Y004499D01*
X006796Y004439D01*
X006736Y004311D02*
X006736Y004191D01*
X006736Y004251D02*
X007037Y004251D01*
X007097Y004191D01*
X007097Y004130D01*
X007037Y004070D01*
X007037Y005175D02*
X007097Y005175D01*
X012799Y004978D02*
X012859Y004858D01*
X012979Y004738D01*
X012979Y004918D01*
X013039Y004978D01*
X013099Y004978D01*
X013159Y004918D01*
X013159Y004798D01*
X013099Y004738D01*
X012979Y004738D01*
X012859Y004610D02*
X013099Y004370D01*
X013159Y004430D01*
X013159Y004550D01*
X013099Y004610D01*
X012859Y004610D01*
X012799Y004550D01*
X012799Y004430D01*
X012859Y004370D01*
X013099Y004370D01*
X013159Y004241D02*
X013159Y004001D01*
X012919Y004241D01*
X012859Y004241D01*
X012799Y004181D01*
X012799Y004061D01*
X012859Y004001D01*
X012799Y003873D02*
X012799Y003753D01*
X012799Y003813D02*
X013099Y003813D01*
X013159Y003753D01*
X013159Y003693D01*
X013099Y003633D01*
X013570Y003097D02*
X013570Y002857D01*
X013750Y002857D01*
X013690Y002977D01*
X013690Y003037D01*
X013750Y003097D01*
X013870Y003097D01*
X013930Y003037D01*
X013930Y002917D01*
X013870Y002857D01*
X013870Y002729D02*
X013930Y002669D01*
X013930Y002549D01*
X013870Y002489D01*
X013630Y002729D01*
X013870Y002729D01*
X013630Y002729D02*
X013570Y002669D01*
X013570Y002549D01*
X013630Y002489D01*
X013870Y002489D01*
X013930Y002361D02*
X013930Y002121D01*
X013690Y002361D01*
X013630Y002361D01*
X013570Y002301D01*
X013570Y002181D01*
X013630Y002121D01*
X013570Y001993D02*
X013570Y001872D01*
X013570Y001932D02*
X013870Y001932D01*
X013930Y001872D01*
X013930Y001812D01*
X013870Y001752D01*
X017570Y001872D02*
X017570Y001993D01*
X017570Y001932D02*
X017870Y001932D01*
X017930Y001872D01*
X017930Y001812D01*
X017870Y001752D01*
X017930Y002121D02*
X017690Y002361D01*
X017630Y002361D01*
X017570Y002301D01*
X017570Y002181D01*
X017630Y002121D01*
X017930Y002121D02*
X017930Y002361D01*
X017870Y002489D02*
X017630Y002489D01*
X017570Y002549D01*
X017570Y002669D01*
X017630Y002729D01*
X017870Y002489D01*
X017930Y002549D01*
X017930Y002669D01*
X017870Y002729D01*
X017630Y002729D01*
X017750Y002857D02*
X017750Y003097D01*
X017570Y003037D02*
X017750Y002857D01*
X017930Y003037D02*
X017570Y003037D01*
D15*
X018090Y002722D02*
X018090Y004722D01*
X019240Y004722D01*
X020390Y004722D01*
X020390Y004472D01*
X020140Y004472D01*
X020140Y003972D01*
X020390Y003972D01*
X020390Y003472D01*
X020140Y003472D01*
X020140Y002972D01*
X020390Y002972D01*
X020390Y002472D01*
X020390Y001972D01*
X020140Y001972D01*
X020140Y002472D01*
X020390Y002472D01*
X020390Y002972D02*
X020390Y003472D01*
X020390Y003972D02*
X020390Y004472D01*
X018690Y004122D02*
X018490Y004222D01*
X018090Y004222D01*
X018090Y004122D02*
X018490Y004122D01*
X018490Y004222D01*
X018490Y004122D02*
X018490Y002322D01*
X018090Y002322D01*
X018090Y002222D02*
X018490Y002222D01*
X018690Y002322D01*
X018690Y004122D01*
X016390Y003972D02*
X016390Y003472D01*
X016140Y003472D01*
X016140Y002972D01*
X016390Y002972D01*
X016390Y002472D01*
X016390Y001972D01*
X016140Y001972D01*
X016140Y002472D01*
X016390Y002472D01*
X016390Y002972D02*
X016390Y003472D01*
X016390Y003972D02*
X016140Y003972D01*
X016140Y004472D01*
X016390Y004472D01*
X016390Y004722D01*
X015240Y004722D01*
X014090Y004722D01*
X014090Y002722D01*
X014090Y002222D01*
X014490Y002222D01*
X014690Y002322D01*
X014690Y004122D01*
X014490Y004222D01*
X014090Y004222D01*
X014090Y004122D02*
X014490Y004122D01*
X014490Y004222D01*
X014490Y004122D02*
X014490Y002322D01*
X014090Y002322D01*
X014090Y002222D02*
X014090Y001722D01*
X015240Y001722D01*
X016390Y001722D01*
X016390Y001822D02*
X016390Y001972D01*
X018090Y001722D02*
X018090Y002222D01*
X018090Y002722D01*
X018490Y002322D02*
X018490Y002222D01*
X018090Y001722D02*
X019240Y001722D01*
X020390Y001722D01*
X020390Y001822D02*
X020390Y001972D01*
X016390Y003972D02*
X016390Y004472D01*
X012640Y004497D02*
X012240Y004497D01*
X012240Y002697D01*
X012640Y002697D01*
X012640Y002597D02*
X012240Y002597D01*
X012040Y002697D01*
X012040Y004497D01*
X012240Y004597D01*
X012240Y004497D01*
X012240Y004597D02*
X012640Y004597D01*
X012640Y004097D01*
X012640Y002097D01*
X011490Y002097D01*
X010340Y002097D01*
X010340Y002347D01*
X010590Y002347D01*
X010590Y002847D01*
X010340Y002847D01*
X010340Y003347D01*
X010590Y003347D01*
X010590Y003847D01*
X010340Y003847D01*
X010340Y004347D01*
X010340Y004847D01*
X010590Y004847D01*
X010590Y004347D01*
X010340Y004347D01*
X010340Y003847D02*
X010340Y003347D01*
X010340Y002847D02*
X010340Y002347D01*
X012240Y002597D02*
X012240Y002697D01*
X014490Y002322D02*
X014490Y002222D01*
X012640Y004597D02*
X012640Y005097D01*
X011490Y005097D01*
X010340Y005097D01*
X010340Y004997D02*
X010340Y004847D01*
X006577Y004934D02*
X006177Y004934D01*
X006177Y003134D01*
X006577Y003134D01*
X006577Y003034D02*
X006177Y003034D01*
X005977Y003134D01*
X005977Y004934D01*
X006177Y005034D01*
X006177Y004934D01*
X006177Y005034D02*
X006577Y005034D01*
X006577Y004534D01*
X006577Y002534D01*
X005427Y002534D01*
X004277Y002534D01*
X004277Y002784D01*
X004527Y002784D01*
X004527Y003284D01*
X004277Y003284D01*
X004277Y003784D01*
X004527Y003784D01*
X004527Y004284D01*
X004277Y004284D01*
X004277Y004784D01*
X004277Y005284D01*
X004527Y005284D01*
X004527Y004784D01*
X004277Y004784D01*
X004277Y004284D02*
X004277Y003784D01*
X004277Y003284D02*
X004277Y002784D01*
X006177Y003034D02*
X006177Y003134D01*
X006577Y005034D02*
X006577Y005534D01*
X005427Y005534D01*
X004277Y005534D01*
X004277Y005434D02*
X004277Y005284D01*
X018615Y011822D02*
X020615Y011822D01*
X021115Y011822D01*
X021115Y012222D01*
X021015Y012422D01*
X019215Y012422D01*
X019115Y012222D01*
X019115Y011822D01*
X019215Y011822D02*
X019215Y012222D01*
X019115Y012222D01*
X019215Y012222D02*
X021015Y012222D01*
X021015Y011822D01*
X021115Y011822D02*
X021615Y011822D01*
X021615Y012972D01*
X021615Y014122D01*
X021515Y014122D02*
X021365Y014122D01*
X020865Y014122D01*
X020365Y014122D01*
X020365Y013872D01*
X019865Y013872D01*
X019865Y014122D01*
X019365Y014122D01*
X019365Y013872D01*
X018865Y013872D01*
X018865Y014122D01*
X018615Y014122D01*
X018615Y012972D01*
X018615Y011822D01*
X021015Y012222D02*
X021115Y012222D01*
X021365Y013872D02*
X020865Y013872D01*
X020865Y014122D01*
X021365Y014122D02*
X021365Y013872D01*
X020365Y014122D02*
X019865Y014122D01*
X019365Y014122D02*
X018865Y014122D01*
D16*
X013302Y009065D02*
X012865Y009065D01*
X013302Y009065D02*
X013302Y008378D01*
X012865Y008378D01*
X012840Y008363D02*
X012902Y008301D01*
X012655Y008054D01*
X012717Y007992D01*
X012840Y007992D01*
X012902Y008054D01*
X012902Y008301D01*
X012840Y008363D02*
X012717Y008363D01*
X012655Y008301D01*
X012655Y008054D01*
X012534Y008054D02*
X012534Y008116D01*
X012472Y008177D01*
X012287Y008177D01*
X012287Y008054D01*
X012349Y007992D01*
X012472Y007992D01*
X012534Y008054D01*
X012287Y008177D02*
X012410Y008301D01*
X012534Y008363D01*
X012365Y008378D02*
X011927Y008378D01*
X011927Y009065D01*
X012365Y009065D01*
X012104Y008363D02*
X011980Y008363D01*
X011919Y008301D01*
X011797Y008301D02*
X011735Y008363D01*
X011550Y008363D01*
X011550Y007992D01*
X011550Y008116D02*
X011735Y008116D01*
X011797Y008177D01*
X011797Y008301D01*
X011674Y008116D02*
X011797Y007992D01*
X011919Y007992D02*
X012165Y008239D01*
X012165Y008301D01*
X012104Y008363D01*
X012165Y007992D02*
X011919Y007992D01*
X011927Y007815D02*
X012365Y007815D01*
X011927Y007815D02*
X011927Y007128D01*
X012365Y007128D01*
X012410Y007051D02*
X012534Y007113D01*
X012410Y007051D02*
X012287Y006927D01*
X012472Y006927D01*
X012534Y006866D01*
X012534Y006804D01*
X012472Y006742D01*
X012349Y006742D01*
X012287Y006804D01*
X012287Y006927D01*
X012165Y006989D02*
X011919Y006742D01*
X012165Y006742D01*
X011797Y006742D02*
X011674Y006866D01*
X011735Y006866D02*
X011550Y006866D01*
X011550Y006742D02*
X011550Y007113D01*
X011735Y007113D01*
X011797Y007051D01*
X011797Y006927D01*
X011735Y006866D01*
X011919Y007051D02*
X011980Y007113D01*
X012104Y007113D01*
X012165Y007051D01*
X012165Y006989D01*
X012655Y006989D02*
X012779Y007113D01*
X012779Y006742D01*
X012902Y006742D02*
X012655Y006742D01*
X012865Y007128D02*
X013302Y007128D01*
X013302Y007815D01*
X012865Y007815D01*
X013021Y004159D02*
X013021Y003722D01*
X013709Y003722D02*
X013709Y004159D01*
X013021Y004159D01*
X013724Y003636D02*
X014094Y003636D01*
X014094Y003759D02*
X014094Y003512D01*
X014033Y003391D02*
X014094Y003329D01*
X014094Y003206D01*
X014033Y003144D01*
X013786Y003144D01*
X013724Y003206D01*
X013724Y003329D01*
X013786Y003391D01*
X013847Y003512D02*
X013724Y003636D01*
X013709Y003222D02*
X013709Y002784D01*
X013021Y002784D01*
X013021Y003222D01*
M02*
