%
M48
M72
T01C0.0197
T02C0.0236
T03C0.0320
T04C0.0360
T05C0.0400
T06C0.0440
T07C0.0520
T08C0.1220
%
T01
X18615Y6022
X21615Y5622
X22015Y6422
X18615Y7622
X17615Y8022
X12615Y8022
X27215Y1822
X36815Y4022
X38615Y2422
X41215Y2222
X35615Y8022
X34415Y8422
T02
X35115Y5472
X35115Y2722
X43115Y5372
T03
X20565Y9972
X19165Y9972
X9065Y2222
X7665Y2222
X3190Y2097
X1790Y2097
T04
X22865Y6472
X23865Y6472
X24865Y6472
X25865Y6472
X26865Y6472
X27865Y6472
X28865Y6472
X29865Y6472
X30865Y6472
X31865Y6472
X32865Y6472
X33865Y6472
X31615Y3472
X30615Y3472
X29615Y3472
X28615Y3472
X27615Y3472
X26615Y3472
X25615Y3472
X25615Y2472
X26615Y2472
X27615Y2472
X28615Y2472
X29615Y2472
X30615Y2472
X31615Y2472
X31865Y12472
X30865Y12472
X29865Y12472
X28865Y12472
X27865Y12472
X26865Y12472
X25865Y12472
X24865Y12472
X23865Y12472
X22865Y12472
X32865Y12472
X33865Y12472
T05
X26865Y10972
X25865Y10972
X22115Y10472
X22865Y8472
X22865Y7472
X29365Y7472
X30365Y7472
X19240Y4222
X19240Y3222
X19240Y2222
X15240Y2222
X15240Y3222
X15240Y4222
X11490Y4597
X11490Y3597
X11490Y2597
X5427Y3034
X5427Y4034
X5427Y5034
X19115Y12972
X20115Y12972
X21115Y12972
T06
X17115Y13222
X1740Y13222
X1740Y6972
X17115Y6972
T07
X36834Y11696
X38794Y11696
X40774Y11696
X42734Y11696
T08
X5315Y1422
X40247Y1422
X5315Y13172
M30
