G75*
G70*
%OFA0B0*%
%FSLAX24Y24*%
%IPPOS*%
%LPD*%
%AMOC8*
5,1,8,0,0,1.08239X$1,22.5*
%
%ADD10C,0.0000*%
D10*
X000615Y000222D02*
X000615Y014472D01*
X045415Y014472D01*
X045415Y000222D01*
X045415Y000222D01*
X000615Y000222D01*
X004705Y001422D02*
X004707Y001471D01*
X004713Y001520D01*
X004723Y001568D01*
X004736Y001615D01*
X004754Y001661D01*
X004775Y001705D01*
X004799Y001748D01*
X004827Y001788D01*
X004858Y001827D01*
X004892Y001862D01*
X004929Y001895D01*
X004968Y001924D01*
X005010Y001950D01*
X005053Y001973D01*
X005099Y001992D01*
X005145Y002008D01*
X005193Y002020D01*
X005241Y002028D01*
X005290Y002032D01*
X005340Y002032D01*
X005389Y002028D01*
X005437Y002020D01*
X005485Y002008D01*
X005531Y001992D01*
X005577Y001973D01*
X005620Y001950D01*
X005662Y001924D01*
X005701Y001895D01*
X005738Y001862D01*
X005772Y001827D01*
X005803Y001788D01*
X005831Y001748D01*
X005855Y001705D01*
X005876Y001661D01*
X005894Y001615D01*
X005907Y001568D01*
X005917Y001520D01*
X005923Y001471D01*
X005925Y001422D01*
X005923Y001373D01*
X005917Y001324D01*
X005907Y001276D01*
X005894Y001229D01*
X005876Y001183D01*
X005855Y001139D01*
X005831Y001096D01*
X005803Y001056D01*
X005772Y001017D01*
X005738Y000982D01*
X005701Y000949D01*
X005662Y000920D01*
X005620Y000894D01*
X005577Y000871D01*
X005531Y000852D01*
X005485Y000836D01*
X005437Y000824D01*
X005389Y000816D01*
X005340Y000812D01*
X005290Y000812D01*
X005241Y000816D01*
X005193Y000824D01*
X005145Y000836D01*
X005099Y000852D01*
X005053Y000871D01*
X005010Y000894D01*
X004968Y000920D01*
X004929Y000949D01*
X004892Y000982D01*
X004858Y001017D01*
X004827Y001056D01*
X004799Y001096D01*
X004775Y001139D01*
X004754Y001183D01*
X004736Y001229D01*
X004723Y001276D01*
X004713Y001324D01*
X004707Y001373D01*
X004705Y001422D01*
X004705Y013172D02*
X004707Y013221D01*
X004713Y013270D01*
X004723Y013318D01*
X004736Y013365D01*
X004754Y013411D01*
X004775Y013455D01*
X004799Y013498D01*
X004827Y013538D01*
X004858Y013577D01*
X004892Y013612D01*
X004929Y013645D01*
X004968Y013674D01*
X005010Y013700D01*
X005053Y013723D01*
X005099Y013742D01*
X005145Y013758D01*
X005193Y013770D01*
X005241Y013778D01*
X005290Y013782D01*
X005340Y013782D01*
X005389Y013778D01*
X005437Y013770D01*
X005485Y013758D01*
X005531Y013742D01*
X005577Y013723D01*
X005620Y013700D01*
X005662Y013674D01*
X005701Y013645D01*
X005738Y013612D01*
X005772Y013577D01*
X005803Y013538D01*
X005831Y013498D01*
X005855Y013455D01*
X005876Y013411D01*
X005894Y013365D01*
X005907Y013318D01*
X005917Y013270D01*
X005923Y013221D01*
X005925Y013172D01*
X005923Y013123D01*
X005917Y013074D01*
X005907Y013026D01*
X005894Y012979D01*
X005876Y012933D01*
X005855Y012889D01*
X005831Y012846D01*
X005803Y012806D01*
X005772Y012767D01*
X005738Y012732D01*
X005701Y012699D01*
X005662Y012670D01*
X005620Y012644D01*
X005577Y012621D01*
X005531Y012602D01*
X005485Y012586D01*
X005437Y012574D01*
X005389Y012566D01*
X005340Y012562D01*
X005290Y012562D01*
X005241Y012566D01*
X005193Y012574D01*
X005145Y012586D01*
X005099Y012602D01*
X005053Y012621D01*
X005010Y012644D01*
X004968Y012670D01*
X004929Y012699D01*
X004892Y012732D01*
X004858Y012767D01*
X004827Y012806D01*
X004799Y012846D01*
X004775Y012889D01*
X004754Y012933D01*
X004736Y012979D01*
X004723Y013026D01*
X004713Y013074D01*
X004707Y013123D01*
X004705Y013172D01*
X039637Y001422D02*
X039639Y001471D01*
X039645Y001520D01*
X039655Y001568D01*
X039668Y001615D01*
X039686Y001661D01*
X039707Y001705D01*
X039731Y001748D01*
X039759Y001788D01*
X039790Y001827D01*
X039824Y001862D01*
X039861Y001895D01*
X039900Y001924D01*
X039942Y001950D01*
X039985Y001973D01*
X040031Y001992D01*
X040077Y002008D01*
X040125Y002020D01*
X040173Y002028D01*
X040222Y002032D01*
X040272Y002032D01*
X040321Y002028D01*
X040369Y002020D01*
X040417Y002008D01*
X040463Y001992D01*
X040509Y001973D01*
X040552Y001950D01*
X040594Y001924D01*
X040633Y001895D01*
X040670Y001862D01*
X040704Y001827D01*
X040735Y001788D01*
X040763Y001748D01*
X040787Y001705D01*
X040808Y001661D01*
X040826Y001615D01*
X040839Y001568D01*
X040849Y001520D01*
X040855Y001471D01*
X040857Y001422D01*
X040855Y001373D01*
X040849Y001324D01*
X040839Y001276D01*
X040826Y001229D01*
X040808Y001183D01*
X040787Y001139D01*
X040763Y001096D01*
X040735Y001056D01*
X040704Y001017D01*
X040670Y000982D01*
X040633Y000949D01*
X040594Y000920D01*
X040552Y000894D01*
X040509Y000871D01*
X040463Y000852D01*
X040417Y000836D01*
X040369Y000824D01*
X040321Y000816D01*
X040272Y000812D01*
X040222Y000812D01*
X040173Y000816D01*
X040125Y000824D01*
X040077Y000836D01*
X040031Y000852D01*
X039985Y000871D01*
X039942Y000894D01*
X039900Y000920D01*
X039861Y000949D01*
X039824Y000982D01*
X039790Y001017D01*
X039759Y001056D01*
X039731Y001096D01*
X039707Y001139D01*
X039686Y001183D01*
X039668Y001229D01*
X039655Y001276D01*
X039645Y001324D01*
X039639Y001373D01*
X039637Y001422D01*
M02*
