%
M48
M72
T01C0.0197
T02C0.0320
T03C0.0360
T04C0.0400
T05C0.0440
T06C0.0520
T07C0.1220
%
T01
X12461Y23697
X11961Y24697
T02
X12461Y13697
X12461Y12697
X12461Y11697
X12461Y10697
X12461Y9697
X12461Y8697
X12461Y7697
X12461Y6697
X7461Y6697
X7461Y7697
X7461Y8697
X7461Y9697
X7461Y10697
X7461Y11697
X7461Y12697
X7461Y13697
T03
X9461Y16197
X9461Y17197
X10461Y17197
X10461Y16197
X11461Y16197
X11461Y17197
X12461Y17197
X12461Y16197
X13461Y16197
X13461Y17197
X14461Y17197
X14461Y16197
X15461Y16197
X15461Y17197
T04
X15461Y13697
X15461Y11697
X15461Y9697
X15461Y8697
X15461Y7697
X14461Y7697
X14461Y8697
X14461Y9697
X4961Y5697
X2961Y5697
X3961Y23197
X3961Y25197
X5461Y26697
X5461Y27697
X5461Y28697
X5461Y29697
X7961Y29197
X8961Y29197
X9961Y29197
X10961Y29197
X13461Y29197
X14461Y29197
X15461Y29197
X19336Y29447
X21336Y29447
T05
X23461Y26572
X23461Y20447
X8086Y20447
X8086Y26697
T06
X3961Y20687
X3961Y18717
X3956Y15646
X3960Y13686
X3963Y11707
X3967Y9747
X8486Y3697
X10486Y3697
X14686Y3697
X16686Y3697
X19481Y3697
X21451Y3697
X18774Y11384
X18774Y14134
T07
X3036Y2771
X23509Y2771
X23509Y29866
X3036Y29866
M30
