G75*
G70*
%OFA0B0*%
%FSLAX24Y24*%
%IPPOS*%
%LPD*%
%AMOC8*
5,1,8,0,0,1.08239X$1,22.5*
%
%ADD10C,0.0000*%
D10*
X001461Y001697D02*
X025083Y001697D01*
X025083Y031441D01*
X001461Y031441D01*
X001461Y001697D01*
X002426Y002771D02*
X002428Y002820D01*
X002434Y002869D01*
X002444Y002917D01*
X002457Y002964D01*
X002475Y003010D01*
X002496Y003054D01*
X002520Y003097D01*
X002548Y003137D01*
X002579Y003176D01*
X002613Y003211D01*
X002650Y003244D01*
X002689Y003273D01*
X002731Y003299D01*
X002774Y003322D01*
X002820Y003341D01*
X002866Y003357D01*
X002914Y003369D01*
X002962Y003377D01*
X003011Y003381D01*
X003061Y003381D01*
X003110Y003377D01*
X003158Y003369D01*
X003206Y003357D01*
X003252Y003341D01*
X003298Y003322D01*
X003341Y003299D01*
X003383Y003273D01*
X003422Y003244D01*
X003459Y003211D01*
X003493Y003176D01*
X003524Y003137D01*
X003552Y003097D01*
X003576Y003054D01*
X003597Y003010D01*
X003615Y002964D01*
X003628Y002917D01*
X003638Y002869D01*
X003644Y002820D01*
X003646Y002771D01*
X003644Y002722D01*
X003638Y002673D01*
X003628Y002625D01*
X003615Y002578D01*
X003597Y002532D01*
X003576Y002488D01*
X003552Y002445D01*
X003524Y002405D01*
X003493Y002366D01*
X003459Y002331D01*
X003422Y002298D01*
X003383Y002269D01*
X003341Y002243D01*
X003298Y002220D01*
X003252Y002201D01*
X003206Y002185D01*
X003158Y002173D01*
X003110Y002165D01*
X003061Y002161D01*
X003011Y002161D01*
X002962Y002165D01*
X002914Y002173D01*
X002866Y002185D01*
X002820Y002201D01*
X002774Y002220D01*
X002731Y002243D01*
X002689Y002269D01*
X002650Y002298D01*
X002613Y002331D01*
X002579Y002366D01*
X002548Y002405D01*
X002520Y002445D01*
X002496Y002488D01*
X002475Y002532D01*
X002457Y002578D01*
X002444Y002625D01*
X002434Y002673D01*
X002428Y002722D01*
X002426Y002771D01*
X022899Y002771D02*
X022901Y002820D01*
X022907Y002869D01*
X022917Y002917D01*
X022930Y002964D01*
X022948Y003010D01*
X022969Y003054D01*
X022993Y003097D01*
X023021Y003137D01*
X023052Y003176D01*
X023086Y003211D01*
X023123Y003244D01*
X023162Y003273D01*
X023204Y003299D01*
X023247Y003322D01*
X023293Y003341D01*
X023339Y003357D01*
X023387Y003369D01*
X023435Y003377D01*
X023484Y003381D01*
X023534Y003381D01*
X023583Y003377D01*
X023631Y003369D01*
X023679Y003357D01*
X023725Y003341D01*
X023771Y003322D01*
X023814Y003299D01*
X023856Y003273D01*
X023895Y003244D01*
X023932Y003211D01*
X023966Y003176D01*
X023997Y003137D01*
X024025Y003097D01*
X024049Y003054D01*
X024070Y003010D01*
X024088Y002964D01*
X024101Y002917D01*
X024111Y002869D01*
X024117Y002820D01*
X024119Y002771D01*
X024117Y002722D01*
X024111Y002673D01*
X024101Y002625D01*
X024088Y002578D01*
X024070Y002532D01*
X024049Y002488D01*
X024025Y002445D01*
X023997Y002405D01*
X023966Y002366D01*
X023932Y002331D01*
X023895Y002298D01*
X023856Y002269D01*
X023814Y002243D01*
X023771Y002220D01*
X023725Y002201D01*
X023679Y002185D01*
X023631Y002173D01*
X023583Y002165D01*
X023534Y002161D01*
X023484Y002161D01*
X023435Y002165D01*
X023387Y002173D01*
X023339Y002185D01*
X023293Y002201D01*
X023247Y002220D01*
X023204Y002243D01*
X023162Y002269D01*
X023123Y002298D01*
X023086Y002331D01*
X023052Y002366D01*
X023021Y002405D01*
X022993Y002445D01*
X022969Y002488D01*
X022948Y002532D01*
X022930Y002578D01*
X022917Y002625D01*
X022907Y002673D01*
X022901Y002722D01*
X022899Y002771D01*
X022899Y029866D02*
X022901Y029915D01*
X022907Y029964D01*
X022917Y030012D01*
X022930Y030059D01*
X022948Y030105D01*
X022969Y030149D01*
X022993Y030192D01*
X023021Y030232D01*
X023052Y030271D01*
X023086Y030306D01*
X023123Y030339D01*
X023162Y030368D01*
X023204Y030394D01*
X023247Y030417D01*
X023293Y030436D01*
X023339Y030452D01*
X023387Y030464D01*
X023435Y030472D01*
X023484Y030476D01*
X023534Y030476D01*
X023583Y030472D01*
X023631Y030464D01*
X023679Y030452D01*
X023725Y030436D01*
X023771Y030417D01*
X023814Y030394D01*
X023856Y030368D01*
X023895Y030339D01*
X023932Y030306D01*
X023966Y030271D01*
X023997Y030232D01*
X024025Y030192D01*
X024049Y030149D01*
X024070Y030105D01*
X024088Y030059D01*
X024101Y030012D01*
X024111Y029964D01*
X024117Y029915D01*
X024119Y029866D01*
X024117Y029817D01*
X024111Y029768D01*
X024101Y029720D01*
X024088Y029673D01*
X024070Y029627D01*
X024049Y029583D01*
X024025Y029540D01*
X023997Y029500D01*
X023966Y029461D01*
X023932Y029426D01*
X023895Y029393D01*
X023856Y029364D01*
X023814Y029338D01*
X023771Y029315D01*
X023725Y029296D01*
X023679Y029280D01*
X023631Y029268D01*
X023583Y029260D01*
X023534Y029256D01*
X023484Y029256D01*
X023435Y029260D01*
X023387Y029268D01*
X023339Y029280D01*
X023293Y029296D01*
X023247Y029315D01*
X023204Y029338D01*
X023162Y029364D01*
X023123Y029393D01*
X023086Y029426D01*
X023052Y029461D01*
X023021Y029500D01*
X022993Y029540D01*
X022969Y029583D01*
X022948Y029627D01*
X022930Y029673D01*
X022917Y029720D01*
X022907Y029768D01*
X022901Y029817D01*
X022899Y029866D01*
X002426Y029866D02*
X002428Y029915D01*
X002434Y029964D01*
X002444Y030012D01*
X002457Y030059D01*
X002475Y030105D01*
X002496Y030149D01*
X002520Y030192D01*
X002548Y030232D01*
X002579Y030271D01*
X002613Y030306D01*
X002650Y030339D01*
X002689Y030368D01*
X002731Y030394D01*
X002774Y030417D01*
X002820Y030436D01*
X002866Y030452D01*
X002914Y030464D01*
X002962Y030472D01*
X003011Y030476D01*
X003061Y030476D01*
X003110Y030472D01*
X003158Y030464D01*
X003206Y030452D01*
X003252Y030436D01*
X003298Y030417D01*
X003341Y030394D01*
X003383Y030368D01*
X003422Y030339D01*
X003459Y030306D01*
X003493Y030271D01*
X003524Y030232D01*
X003552Y030192D01*
X003576Y030149D01*
X003597Y030105D01*
X003615Y030059D01*
X003628Y030012D01*
X003638Y029964D01*
X003644Y029915D01*
X003646Y029866D01*
X003644Y029817D01*
X003638Y029768D01*
X003628Y029720D01*
X003615Y029673D01*
X003597Y029627D01*
X003576Y029583D01*
X003552Y029540D01*
X003524Y029500D01*
X003493Y029461D01*
X003459Y029426D01*
X003422Y029393D01*
X003383Y029364D01*
X003341Y029338D01*
X003298Y029315D01*
X003252Y029296D01*
X003206Y029280D01*
X003158Y029268D01*
X003110Y029260D01*
X003061Y029256D01*
X003011Y029256D01*
X002962Y029260D01*
X002914Y029268D01*
X002866Y029280D01*
X002820Y029296D01*
X002774Y029315D01*
X002731Y029338D01*
X002689Y029364D01*
X002650Y029393D01*
X002613Y029426D01*
X002579Y029461D01*
X002548Y029500D01*
X002520Y029540D01*
X002496Y029583D01*
X002475Y029627D01*
X002457Y029673D01*
X002444Y029720D01*
X002434Y029768D01*
X002428Y029817D01*
X002426Y029866D01*
M02*
