G75*
G70*
%OFA0B0*%
%FSLAX24Y24*%
%IPPOS*%
%LPD*%
%AMOC8*
5,1,8,0,0,1.08239X$1,22.5*
%
%ADD10C,0.0100*%
%ADD11C,0.0050*%
%ADD12C,0.0030*%
%ADD13OC8,0.0560*%
%ADD14R,0.0411X0.0630*%
%ADD15R,0.0866X0.0709*%
%ADD16R,0.1496X0.1102*%
%ADD17OC8,0.1500*%
%ADD18C,0.0600*%
%ADD19R,0.0630X0.0411*%
%ADD20C,0.0394*%
%ADD21C,0.0780*%
%ADD22C,0.0560*%
%ADD23OC8,0.0630*%
%ADD24C,0.0630*%
%ADD25OC8,0.0600*%
%ADD26OC8,0.0520*%
%ADD27R,0.0300X0.0600*%
%ADD28C,0.0200*%
%ADD29C,0.0240*%
%ADD30C,0.0500*%
%ADD31C,0.0120*%
%ADD32C,0.0400*%
%ADD33C,0.0160*%
%ADD34C,0.0150*%
%ADD35C,0.0320*%
D10*
X001677Y018092D02*
X001777Y018192D01*
X001727Y018192D02*
X001877Y018192D01*
X001877Y018092D02*
X001877Y018392D01*
X001727Y018392D01*
X001677Y018342D01*
X001677Y018242D01*
X001727Y018192D01*
X002045Y018092D02*
X002245Y018092D01*
X002245Y018392D01*
X002045Y018392D01*
X002145Y018242D02*
X002245Y018242D01*
X002414Y018242D02*
X002414Y018342D01*
X002464Y018392D01*
X002614Y018392D01*
X002614Y018092D01*
X002614Y018192D02*
X002464Y018192D01*
X002414Y018242D01*
X002782Y018242D02*
X002832Y018192D01*
X002982Y018192D01*
X002982Y018092D02*
X002982Y018392D01*
X002832Y018392D01*
X002782Y018342D01*
X002782Y018242D01*
X003150Y018142D02*
X003200Y018092D01*
X003300Y018092D01*
X003350Y018142D01*
X003350Y018342D01*
X003300Y018392D01*
X003200Y018392D01*
X003150Y018342D01*
X003150Y018142D01*
X003518Y018142D02*
X003568Y018092D01*
X003669Y018092D01*
X003719Y018142D01*
X003719Y018342D01*
X003669Y018392D01*
X003568Y018392D01*
X003518Y018342D01*
X004255Y018392D02*
X004255Y018092D01*
X004455Y018092D02*
X004455Y018392D01*
X004355Y018292D01*
X004255Y018392D01*
X004623Y018342D02*
X004623Y018142D01*
X004673Y018092D01*
X004773Y018092D01*
X004824Y018142D01*
X004824Y018342D01*
X004773Y018392D01*
X004673Y018392D01*
X004623Y018342D01*
X004992Y018392D02*
X005192Y018392D01*
X005092Y018392D02*
X005092Y018092D01*
X005460Y018092D02*
X005460Y018392D01*
X005560Y018392D02*
X005360Y018392D01*
X005728Y018342D02*
X005728Y018142D01*
X005778Y018092D01*
X005878Y018092D01*
X005928Y018142D01*
X005928Y018342D01*
X005878Y018392D01*
X005778Y018392D01*
X005728Y018342D01*
X006097Y018342D02*
X006097Y018292D01*
X006147Y018242D01*
X006297Y018242D01*
X006297Y018092D02*
X006147Y018092D01*
X006097Y018142D01*
X006097Y018192D01*
X006147Y018242D01*
X006097Y018342D02*
X006147Y018392D01*
X006297Y018392D01*
X006297Y018092D01*
X037397Y016640D02*
X037797Y016640D01*
X037597Y016440D01*
X037597Y016707D01*
X037397Y016246D02*
X037397Y015979D01*
X037397Y016113D02*
X037797Y016113D01*
X037664Y015979D01*
X037730Y015786D02*
X037463Y015786D01*
X037397Y015719D01*
X037397Y015586D01*
X037463Y015519D01*
X037730Y015786D01*
X037797Y015719D01*
X037797Y015586D01*
X037730Y015519D01*
X037463Y015519D01*
X037397Y015325D02*
X037397Y015059D01*
X037664Y015325D01*
X037730Y015325D01*
X037797Y015259D01*
X037797Y015125D01*
X037730Y015059D01*
X037730Y014865D02*
X037463Y014865D01*
X037397Y014798D01*
X037397Y014665D01*
X037463Y014598D01*
X037597Y014665D02*
X037664Y014598D01*
X037730Y014598D01*
X037797Y014665D01*
X037797Y014798D01*
X037730Y014865D01*
X037597Y014865D02*
X037597Y014665D01*
X037730Y014405D02*
X037463Y014405D01*
X037397Y014338D01*
X037397Y014205D01*
X037463Y014138D01*
X037730Y014405D01*
X037797Y014338D01*
X037797Y014205D01*
X037730Y014138D01*
X037463Y014138D01*
X037730Y013944D02*
X037463Y013678D01*
X037397Y013678D01*
X037397Y013484D02*
X037397Y013217D01*
X037664Y013484D01*
X037730Y013484D01*
X037797Y013417D01*
X037797Y013284D01*
X037730Y013217D01*
X037797Y013678D02*
X037797Y013944D01*
X037730Y013944D01*
D11*
X038526Y015067D02*
X038434Y015159D01*
X038434Y015342D01*
X038526Y015434D01*
X038709Y015434D01*
X038709Y015251D01*
X038526Y015067D02*
X038893Y015067D01*
X038985Y015159D01*
X038985Y015342D01*
X038893Y015434D01*
X038985Y015620D02*
X038434Y015987D01*
X038985Y015987D01*
X038985Y016172D02*
X038985Y016447D01*
X038893Y016539D01*
X038526Y016539D01*
X038434Y016447D01*
X038434Y016172D01*
X038985Y016172D01*
X038985Y015620D02*
X038434Y015620D01*
X034135Y015593D02*
X033584Y015593D01*
X033859Y015962D02*
X033859Y016329D01*
X033859Y016515D02*
X033859Y016790D01*
X033768Y016882D01*
X033676Y016882D01*
X033584Y016790D01*
X033584Y016606D01*
X033676Y016515D01*
X033859Y016515D01*
X034043Y016698D01*
X034135Y016882D01*
X034043Y016146D02*
X033676Y016146D01*
X034135Y015777D02*
X034135Y015410D01*
X034135Y015224D02*
X033676Y015224D01*
X033584Y015132D01*
X033584Y014949D01*
X033676Y014857D01*
X034135Y014857D01*
X034043Y014672D02*
X034135Y014580D01*
X034135Y014397D01*
X034043Y014305D01*
X033676Y014305D01*
X033584Y014397D01*
X033584Y014580D01*
X033676Y014672D01*
X034043Y014672D01*
X036684Y004289D02*
X036684Y003922D01*
X037051Y004289D01*
X037143Y004289D01*
X037235Y004197D01*
X037235Y004014D01*
X037143Y003922D01*
X036684Y003737D02*
X036684Y003370D01*
X036684Y003553D02*
X037235Y003553D01*
X037051Y003370D01*
X036959Y003184D02*
X036959Y002817D01*
X036776Y003001D02*
X037143Y003001D01*
D12*
X007457Y010432D02*
X007210Y010432D01*
X007333Y010432D02*
X007333Y010802D01*
X007457Y010679D01*
D13*
X012097Y010667D03*
X013097Y010667D03*
X013097Y009667D03*
X012097Y009667D03*
X012097Y008667D03*
X013097Y008667D03*
X013097Y007667D03*
X012097Y007667D03*
X012097Y006667D03*
X013097Y006667D03*
X013097Y005667D03*
X012097Y005667D03*
X012097Y004667D03*
X013097Y004667D03*
D14*
X034903Y005667D03*
X035790Y005667D03*
X035790Y006917D03*
X034903Y006917D03*
X035528Y001855D03*
X036415Y001855D03*
X004915Y015917D03*
X004028Y015917D03*
X027153Y017917D03*
X028040Y017917D03*
D15*
X036659Y012421D03*
X036659Y010413D03*
D16*
X033909Y009835D03*
X033909Y012749D03*
D17*
X032159Y017667D03*
X038409Y017667D03*
X038409Y002292D03*
X032159Y002292D03*
D18*
X030147Y006767D02*
X029547Y006767D01*
X029547Y007667D02*
X030147Y007667D01*
X030147Y008567D02*
X029547Y008567D01*
X027272Y008417D02*
X026672Y008417D01*
X026672Y007417D02*
X027272Y007417D01*
X027272Y009417D02*
X026672Y009417D01*
X026672Y012167D02*
X027272Y012167D01*
X027272Y013167D02*
X026672Y013167D01*
X026672Y014167D02*
X027272Y014167D01*
X029547Y014067D02*
X030147Y014067D01*
X030147Y013167D02*
X029547Y013167D01*
X029547Y012267D02*
X030147Y012267D01*
X024147Y015792D02*
X023547Y015792D01*
X023547Y016792D02*
X024147Y016792D01*
X024147Y017792D02*
X023547Y017792D01*
X019334Y017792D02*
X018734Y017792D01*
X018734Y016792D02*
X019334Y016792D01*
X019334Y015792D02*
X018734Y015792D01*
X018847Y013717D02*
X018847Y013117D01*
X017847Y013117D02*
X017847Y013717D01*
X011397Y015917D02*
X010797Y015917D01*
X010797Y016917D02*
X011397Y016917D01*
X011397Y017917D02*
X010797Y017917D01*
D19*
X012847Y017986D03*
X012847Y017098D03*
X020722Y010111D03*
X020722Y009223D03*
D20*
X004472Y017417D03*
X038659Y003667D03*
D21*
X007502Y003833D02*
X007502Y003053D01*
X005542Y003053D02*
X005542Y003833D01*
X003562Y003833D02*
X003562Y003053D01*
X001602Y003053D02*
X001602Y003833D01*
D22*
X016567Y003417D02*
X017127Y003417D01*
X017127Y002417D02*
X016567Y002417D01*
X016567Y004417D02*
X017127Y004417D01*
X017127Y005417D02*
X016567Y005417D01*
X016567Y006417D02*
X017127Y006417D01*
X017127Y007417D02*
X016567Y007417D01*
X016567Y008417D02*
X017127Y008417D01*
X017127Y009417D02*
X016567Y009417D01*
X016567Y010417D02*
X017127Y010417D01*
X017127Y011417D02*
X016567Y011417D01*
X016567Y012417D02*
X017127Y012417D01*
X017127Y013417D02*
X016567Y013417D01*
X022567Y013417D02*
X023127Y013417D01*
X023127Y012417D02*
X022567Y012417D01*
X022567Y011417D02*
X023127Y011417D01*
X023127Y010417D02*
X022567Y010417D01*
X022567Y009417D02*
X023127Y009417D01*
X023127Y008417D02*
X022567Y008417D01*
X022567Y007417D02*
X023127Y007417D01*
X023127Y006417D02*
X022567Y006417D01*
X022567Y005417D02*
X023127Y005417D01*
X023127Y004417D02*
X022567Y004417D01*
X022567Y003417D02*
X023127Y003417D01*
X023127Y002417D02*
X022567Y002417D01*
D23*
X026597Y003617D03*
X004972Y007417D03*
X004972Y008417D03*
X004972Y009417D03*
X004972Y010417D03*
X004972Y011417D03*
X004972Y012417D03*
X004972Y013417D03*
X004972Y014417D03*
X001972Y014417D03*
X001972Y013417D03*
X001972Y012417D03*
X001972Y011417D03*
X001972Y010417D03*
X001972Y009417D03*
X001972Y008417D03*
X001972Y007417D03*
X015347Y016217D03*
X026522Y017042D03*
D24*
X027922Y017042D03*
X015347Y017617D03*
X026597Y002217D03*
D25*
X029097Y001667D03*
X029847Y004667D03*
X020847Y006167D03*
X017847Y005917D03*
X017847Y006917D03*
X011347Y001667D03*
X029847Y010917D03*
X021097Y016167D03*
X013347Y014667D03*
X030034Y017980D03*
D26*
X038347Y012417D03*
X038347Y010417D03*
X037347Y006917D03*
X037347Y005667D03*
X033347Y005667D03*
X033347Y006917D03*
X020722Y007667D03*
X020722Y011667D03*
X008722Y015917D03*
X006472Y015917D03*
X002472Y015917D03*
X008722Y017917D03*
X009784Y003667D03*
X009784Y001667D03*
D27*
X009722Y007787D03*
X010222Y007787D03*
X009222Y007787D03*
X008722Y007787D03*
X008222Y007787D03*
X007722Y007787D03*
X007222Y007787D03*
X006722Y007787D03*
X006722Y011547D03*
X007222Y011547D03*
X007722Y011547D03*
X008222Y011547D03*
X008722Y011547D03*
X009222Y011547D03*
X009722Y011547D03*
X010222Y011547D03*
D28*
X008722Y011547D02*
X008722Y010417D01*
X008722Y007787D01*
X009222Y007787D02*
X009222Y007917D01*
X009722Y007917D01*
X009722Y007787D01*
X007222Y011547D02*
X007222Y011667D01*
X006722Y011667D01*
X006722Y011547D01*
X006472Y014417D02*
X004972Y014417D01*
X006472Y014417D02*
X006472Y015917D01*
X004915Y015917D01*
X004028Y015917D02*
X003722Y015917D01*
X002472Y015917D01*
X002472Y014417D01*
X001972Y014417D01*
X008722Y017917D02*
X008822Y017917D01*
X008822Y017717D01*
X011022Y017717D02*
X011022Y017917D01*
X011097Y017917D01*
X012672Y017917D01*
X012672Y018117D01*
X012847Y018117D01*
X012847Y017986D01*
X012847Y018105D01*
X012847Y017986D02*
X012847Y017917D01*
X015347Y017717D02*
X015347Y017617D01*
X015347Y017717D02*
X018822Y017717D01*
X018822Y017917D01*
X019022Y017917D01*
X019022Y017792D01*
X019034Y017792D01*
X020722Y009223D02*
X020722Y007667D01*
X012097Y003667D02*
X009784Y003667D01*
X007502Y003443D02*
X007502Y003417D01*
X007472Y003417D01*
X007472Y001417D01*
X009722Y001417D01*
X009722Y001667D01*
X009784Y001667D01*
X010972Y001667D01*
X010972Y001917D01*
X011222Y001917D01*
X011222Y001667D01*
X011347Y001667D01*
D29*
X000542Y001237D02*
X000542Y018347D01*
X001307Y018347D01*
X001307Y018316D01*
X001307Y018169D01*
X001308Y018167D01*
X001307Y018166D01*
X001307Y018019D01*
X001323Y017979D01*
X001145Y017906D01*
X000883Y017644D01*
X000741Y017302D01*
X000741Y016932D01*
X000883Y016590D01*
X001145Y016328D01*
X001486Y016187D01*
X001857Y016187D01*
X001967Y016232D01*
X001892Y016157D01*
X001892Y015677D01*
X002052Y015517D01*
X002052Y015052D01*
X001709Y015052D01*
X001337Y014680D01*
X001337Y014154D01*
X001574Y013917D01*
X001337Y013680D01*
X001337Y013154D01*
X001574Y012917D01*
X001337Y012680D01*
X001337Y012547D01*
X001146Y012547D01*
X001006Y012489D01*
X000900Y012382D01*
X000842Y012243D01*
X000842Y012092D01*
X000842Y006243D01*
X000842Y006092D01*
X000900Y005952D01*
X001006Y005845D01*
X001146Y005787D01*
X009146Y005787D01*
X009297Y005787D01*
X009437Y005845D01*
X009544Y005952D01*
X009602Y006092D01*
X009602Y006784D01*
X009642Y006767D01*
X009801Y006767D01*
X011497Y006767D01*
X011497Y006419D01*
X011527Y006389D01*
X011527Y005946D01*
X011497Y005916D01*
X011497Y005419D01*
X011527Y005389D01*
X011527Y004946D01*
X011497Y004916D01*
X011497Y004419D01*
X011527Y004389D01*
X011527Y004087D01*
X010184Y004087D01*
X010024Y004247D01*
X009544Y004247D01*
X009204Y003907D01*
X009204Y003427D01*
X009544Y003087D01*
X010024Y003087D01*
X010184Y003247D01*
X011592Y003247D01*
X011614Y003194D01*
X011774Y003034D01*
X011983Y002947D01*
X012210Y002947D01*
X013652Y002947D01*
X013652Y002631D01*
X013652Y002404D01*
X013739Y002194D01*
X013899Y002034D01*
X014108Y001947D01*
X016188Y001947D01*
X016227Y001909D01*
X016447Y001817D01*
X017246Y001817D01*
X017467Y001909D01*
X017635Y002077D01*
X017727Y002298D01*
X017727Y002536D01*
X017635Y002757D01*
X017475Y002917D01*
X017635Y003077D01*
X017727Y003298D01*
X017727Y003536D01*
X017726Y003537D01*
X020842Y003537D01*
X020842Y002493D01*
X020842Y002342D01*
X020900Y002202D01*
X021006Y002095D01*
X021146Y002037D01*
X022098Y002037D01*
X022227Y001909D01*
X022447Y001817D01*
X023246Y001817D01*
X023467Y001909D01*
X023635Y002077D01*
X023727Y002298D01*
X023727Y002536D01*
X023635Y002757D01*
X023475Y002917D01*
X023635Y003077D01*
X023727Y003298D01*
X023727Y003536D01*
X023635Y003757D01*
X023475Y003917D01*
X023635Y004077D01*
X023727Y004298D01*
X023727Y004536D01*
X023635Y004757D01*
X023467Y004926D01*
X023355Y004972D01*
X029275Y004972D01*
X029227Y004924D02*
X029227Y004410D01*
X029590Y004047D01*
X030103Y004047D01*
X030328Y004272D01*
X034818Y004272D01*
X034565Y004019D01*
X034423Y003677D01*
X034423Y003307D01*
X034565Y002965D01*
X034827Y002703D01*
X035168Y002562D01*
X035539Y002562D01*
X035880Y002703D01*
X036142Y002965D01*
X036284Y003307D01*
X036284Y003677D01*
X036142Y004019D01*
X035880Y004281D01*
X035850Y004293D01*
X035945Y004332D01*
X036057Y004443D01*
X036117Y004589D01*
X036117Y004746D01*
X036117Y005056D01*
X036177Y005081D01*
X036267Y005171D01*
X036309Y005272D01*
X036921Y005272D01*
X037106Y005087D01*
X037587Y005087D01*
X037927Y005427D01*
X037927Y005907D01*
X037587Y006247D01*
X037106Y006247D01*
X036922Y006062D01*
X036309Y006062D01*
X036267Y006163D01*
X036177Y006253D01*
X036084Y006292D01*
X036177Y006331D01*
X036267Y006421D01*
X036309Y006522D01*
X036921Y006522D01*
X037106Y006337D01*
X037587Y006337D01*
X037927Y006677D01*
X037927Y007157D01*
X037587Y007497D01*
X037106Y007497D01*
X036921Y007312D01*
X036309Y007312D01*
X036267Y007413D01*
X036177Y007503D01*
X036060Y007552D01*
X035521Y007552D01*
X035404Y007503D01*
X035347Y007446D01*
X035290Y007503D01*
X035172Y007552D01*
X034634Y007552D01*
X034516Y007503D01*
X034426Y007413D01*
X034384Y007312D01*
X033772Y007312D01*
X033587Y007497D01*
X033106Y007497D01*
X032921Y007312D01*
X032893Y007312D01*
X032748Y007252D01*
X032637Y007141D01*
X032058Y006562D01*
X030733Y006562D01*
X030767Y006644D01*
X030767Y006890D01*
X030672Y007118D01*
X030573Y007217D01*
X030672Y007316D01*
X030767Y007544D01*
X030767Y007790D01*
X030672Y008018D01*
X030503Y008188D01*
X030543Y008228D01*
X030591Y008295D01*
X030629Y008368D01*
X030654Y008445D01*
X030667Y008526D01*
X030667Y008567D01*
X029847Y008567D01*
X029847Y008567D01*
X030667Y008567D01*
X030667Y008608D01*
X030654Y008689D01*
X030629Y008767D01*
X030591Y008840D01*
X030543Y008906D01*
X030485Y008964D01*
X030419Y009012D01*
X030346Y009049D01*
X030268Y009074D01*
X030188Y009087D01*
X029847Y009087D01*
X029847Y008568D01*
X029846Y008568D01*
X029846Y009087D01*
X029506Y009087D01*
X029425Y009074D01*
X029347Y009049D01*
X029274Y009012D01*
X029208Y008964D01*
X029150Y008906D01*
X029102Y008840D01*
X029065Y008767D01*
X029039Y008689D01*
X029027Y008608D01*
X029027Y008567D01*
X029027Y008526D01*
X029039Y008445D01*
X029065Y008368D01*
X029102Y008295D01*
X029150Y008228D01*
X029191Y008188D01*
X029021Y008018D01*
X028927Y007790D01*
X028927Y007544D01*
X029021Y007316D01*
X029120Y007217D01*
X029021Y007118D01*
X028927Y006890D01*
X028927Y006644D01*
X028961Y006562D01*
X026385Y006562D01*
X025925Y007022D01*
X026190Y007022D01*
X026320Y006892D01*
X026548Y006797D01*
X027395Y006797D01*
X027623Y006892D01*
X027797Y007066D01*
X027892Y007294D01*
X027892Y007540D01*
X027797Y007768D01*
X027648Y007917D01*
X027668Y007937D01*
X028147Y007937D01*
X028243Y007897D01*
X028450Y007897D01*
X028641Y007976D01*
X028787Y008123D01*
X028867Y008314D01*
X028867Y009447D01*
X032841Y009447D01*
X032841Y009221D01*
X032890Y009103D01*
X032980Y009013D01*
X033097Y008964D01*
X034721Y008964D01*
X034838Y009013D01*
X034928Y009103D01*
X034977Y009221D01*
X034977Y009222D01*
X036417Y009222D01*
X036501Y009187D01*
X036692Y009187D01*
X038442Y009187D01*
X038619Y009260D01*
X038754Y009395D01*
X038827Y009572D01*
X038827Y009763D01*
X038827Y010077D01*
X038927Y010177D01*
X038927Y010657D01*
X038587Y010997D01*
X038106Y010997D01*
X037767Y010657D01*
X037767Y010177D01*
X037797Y010147D01*
X037412Y010147D01*
X037412Y010718D01*
X037430Y010736D01*
X037479Y010853D01*
X037479Y012106D01*
X037430Y012223D01*
X037340Y012313D01*
X037312Y012325D01*
X037312Y012364D01*
X036717Y012364D01*
X036717Y012478D01*
X037312Y012478D01*
X037312Y012804D01*
X037298Y012858D01*
X037323Y012847D01*
X037470Y012847D01*
X037564Y012886D01*
X037657Y012847D01*
X037804Y012847D01*
X037940Y012903D01*
X038007Y012970D01*
X038024Y012987D01*
X038111Y013074D01*
X038111Y013074D01*
X038132Y013127D01*
X038167Y013210D01*
X038167Y013210D01*
X038167Y013210D01*
X038167Y013283D01*
X038167Y013357D01*
X038167Y013357D01*
X038167Y013491D01*
X038144Y013547D01*
X038167Y013604D01*
X038167Y013871D01*
X038167Y014018D01*
X038144Y014074D01*
X038167Y014131D01*
X038167Y014205D01*
X038167Y014278D01*
X038167Y014278D01*
X038167Y014412D01*
X038130Y014501D01*
X038132Y014508D01*
X038167Y014591D01*
X038167Y014591D01*
X038167Y014591D01*
X038167Y014664D01*
X038167Y014738D01*
X038167Y014738D01*
X038167Y014872D01*
X038130Y014962D01*
X038132Y014968D01*
X038136Y014977D01*
X038142Y014963D01*
X038239Y014866D01*
X038330Y014775D01*
X038457Y014722D01*
X038595Y014722D01*
X038961Y014722D01*
X039088Y014775D01*
X039185Y014872D01*
X039277Y014963D01*
X039330Y015090D01*
X039330Y015228D01*
X039330Y015411D01*
X039303Y015475D01*
X039310Y015485D01*
X039316Y015519D01*
X039330Y015551D01*
X039330Y015586D01*
X039336Y015620D01*
X039330Y015654D01*
X039330Y015688D01*
X039316Y015720D01*
X039309Y015755D01*
X039290Y015783D01*
X039282Y015803D01*
X039330Y015918D01*
X039330Y016055D01*
X039320Y016079D01*
X039330Y016103D01*
X039330Y016241D01*
X039330Y016516D01*
X039298Y016591D01*
X039277Y016643D01*
X039276Y016644D01*
X039185Y016734D01*
X039184Y016736D01*
X039088Y016831D01*
X039068Y016840D01*
X038987Y016873D01*
X039379Y017265D01*
X039379Y017667D01*
X038410Y017667D01*
X038410Y017667D01*
X039379Y017667D01*
X039379Y018069D01*
X039101Y018347D01*
X039452Y018347D01*
X039452Y002763D01*
X038969Y003246D01*
X039097Y003374D01*
X039176Y003564D01*
X039176Y003770D01*
X039097Y003960D01*
X038952Y004105D01*
X038762Y004184D01*
X038556Y004184D01*
X038366Y004105D01*
X038221Y003960D01*
X038142Y003770D01*
X038142Y003564D01*
X038221Y003374D01*
X038233Y003362D01*
X037966Y003362D01*
X037454Y002850D01*
X037488Y002932D01*
X037488Y003069D01*
X037435Y003196D01*
X037400Y003231D01*
X037430Y003261D01*
X037527Y003358D01*
X037580Y003484D01*
X037580Y003622D01*
X037527Y003748D01*
X037492Y003783D01*
X037527Y003818D01*
X037580Y003945D01*
X037580Y004082D01*
X037580Y004266D01*
X037548Y004341D01*
X037527Y004393D01*
X037526Y004394D01*
X037435Y004484D01*
X037434Y004486D01*
X037338Y004581D01*
X037318Y004590D01*
X037212Y004634D01*
X037074Y004634D01*
X036982Y004634D01*
X036868Y004586D01*
X036753Y004634D01*
X036616Y004634D01*
X036489Y004581D01*
X036392Y004484D01*
X036339Y004358D01*
X036339Y003991D01*
X036339Y003853D01*
X036349Y003829D01*
X036339Y003805D01*
X036339Y003301D01*
X036392Y003174D01*
X036450Y003116D01*
X036431Y003069D01*
X036431Y002932D01*
X036483Y002805D01*
X036580Y002708D01*
X036642Y002683D01*
X036667Y002622D01*
X036764Y002525D01*
X036891Y002472D01*
X037028Y002472D01*
X037155Y002525D01*
X037252Y002622D01*
X037277Y002683D01*
X037338Y002708D01*
X037339Y002709D01*
X037339Y001849D01*
X037951Y001237D01*
X035839Y001237D01*
X035915Y001268D01*
X036005Y001358D01*
X036028Y001415D01*
X036034Y001405D01*
X036075Y001364D01*
X036125Y001335D01*
X036181Y001320D01*
X036415Y001320D01*
X036415Y001854D01*
X036416Y001854D01*
X036416Y001855D01*
X036841Y001855D01*
X036841Y002199D01*
X036826Y002255D01*
X036797Y002305D01*
X036756Y002346D01*
X036706Y002375D01*
X036650Y002390D01*
X036416Y002390D01*
X036416Y001855D01*
X036415Y001855D01*
X036415Y002390D01*
X036181Y002390D01*
X036125Y002375D01*
X036075Y002346D01*
X036034Y002305D01*
X036028Y002295D01*
X036005Y002351D01*
X035915Y002441D01*
X035797Y002490D01*
X035259Y002490D01*
X035141Y002441D01*
X035112Y002412D01*
X033229Y002412D01*
X033229Y002735D01*
X032602Y003362D01*
X031716Y003362D01*
X031089Y002735D01*
X031089Y001849D01*
X031701Y001237D01*
X029543Y001237D01*
X029717Y001410D01*
X029717Y001924D01*
X029353Y002287D01*
X028840Y002287D01*
X028477Y001924D01*
X028477Y001410D01*
X028650Y001237D01*
X011652Y001237D01*
X011867Y001452D01*
X011867Y001667D01*
X011347Y001667D01*
X011347Y001667D01*
X011347Y001237D01*
X011346Y001237D01*
X011346Y001667D01*
X010827Y001667D01*
X010827Y001452D01*
X011041Y001237D01*
X010033Y001237D01*
X010264Y001468D01*
X010264Y001667D01*
X009785Y001667D01*
X009785Y001667D01*
X010264Y001667D01*
X010264Y001866D01*
X009983Y002147D01*
X009784Y002147D01*
X009585Y002147D01*
X009304Y001866D01*
X009304Y001667D01*
X009304Y001468D01*
X009535Y001237D01*
X000542Y001237D01*
X000542Y001394D02*
X009378Y001394D01*
X009304Y001633D02*
X000542Y001633D01*
X000542Y001871D02*
X009310Y001871D01*
X009304Y001667D02*
X009784Y001667D01*
X009304Y001667D01*
X009784Y001667D02*
X009784Y001667D01*
X009784Y001668D02*
X009784Y002147D01*
X009784Y001668D01*
X009784Y001668D01*
X009784Y001871D02*
X009784Y001871D01*
X009784Y002110D02*
X009784Y002110D01*
X009548Y002110D02*
X000542Y002110D01*
X000542Y002348D02*
X001447Y002348D01*
X001461Y002343D02*
X001744Y002343D01*
X002005Y002451D01*
X002204Y002651D01*
X002312Y002911D01*
X002312Y003974D01*
X002204Y004235D01*
X002005Y004435D01*
X001744Y004543D01*
X001461Y004543D01*
X001200Y004435D01*
X001001Y004235D01*
X000892Y003974D01*
X000892Y002911D01*
X001001Y002651D01*
X001200Y002451D01*
X001461Y002343D01*
X001757Y002348D02*
X003407Y002348D01*
X003421Y002343D02*
X003704Y002343D01*
X003965Y002451D01*
X004164Y002651D01*
X004272Y002911D01*
X004272Y003974D01*
X004164Y004235D01*
X003965Y004435D01*
X003704Y004543D01*
X003421Y004543D01*
X003160Y004435D01*
X002961Y004235D01*
X002852Y003974D01*
X002852Y002911D01*
X002961Y002651D01*
X003160Y002451D01*
X003421Y002343D01*
X003717Y002348D02*
X005387Y002348D01*
X005401Y002343D02*
X005684Y002343D01*
X005945Y002451D01*
X006144Y002651D01*
X006252Y002911D01*
X006252Y003974D01*
X006144Y004235D01*
X005945Y004435D01*
X005684Y004543D01*
X005401Y004543D01*
X005140Y004435D01*
X004941Y004235D01*
X004832Y003974D01*
X004832Y002911D01*
X004941Y002651D01*
X005140Y002451D01*
X005401Y002343D01*
X005697Y002348D02*
X013675Y002348D01*
X013652Y002587D02*
X007899Y002587D01*
X007900Y002587D02*
X007968Y002655D01*
X008024Y002733D01*
X008068Y002819D01*
X008097Y002910D01*
X008112Y003005D01*
X008112Y003433D01*
X007513Y003433D01*
X007513Y003453D01*
X008112Y003453D01*
X008112Y003881D01*
X008097Y003976D01*
X008068Y004067D01*
X008024Y004152D01*
X007968Y004230D01*
X007900Y004298D01*
X007822Y004354D01*
X007737Y004398D01*
X007645Y004428D01*
X007550Y004443D01*
X007512Y004443D01*
X007512Y003453D01*
X007492Y003453D01*
X007492Y003433D01*
X006892Y003433D01*
X006892Y003005D01*
X006907Y002910D01*
X006937Y002819D01*
X006981Y002733D01*
X007037Y002655D01*
X007105Y002587D01*
X007183Y002531D01*
X007268Y002487D01*
X007360Y002458D01*
X007454Y002443D01*
X007492Y002443D01*
X007492Y003432D01*
X007512Y003432D01*
X007512Y002443D01*
X007550Y002443D01*
X007645Y002458D01*
X007737Y002487D01*
X007822Y002531D01*
X007900Y002587D01*
X008070Y002826D02*
X013652Y002826D01*
X013823Y002110D02*
X011639Y002110D01*
X011562Y002187D02*
X011347Y002187D01*
X011347Y001668D01*
X011346Y001668D01*
X011346Y002187D01*
X011131Y002187D01*
X010827Y001883D01*
X010827Y001667D01*
X011346Y001667D01*
X011346Y001667D01*
X011347Y001667D01*
X011867Y001667D01*
X011867Y001883D01*
X011562Y002187D01*
X011347Y002110D02*
X011346Y002110D01*
X011346Y001871D02*
X011347Y001871D01*
X011346Y001633D02*
X011347Y001633D01*
X011346Y001394D02*
X011347Y001394D01*
X011809Y001394D02*
X028493Y001394D01*
X028477Y001633D02*
X026845Y001633D01*
X026956Y001679D02*
X026723Y001582D01*
X026470Y001582D01*
X026237Y001679D01*
X026058Y001857D01*
X025962Y002091D01*
X025962Y002343D01*
X026058Y002577D01*
X026237Y002755D01*
X026470Y002852D01*
X026723Y002852D01*
X026956Y002755D01*
X027135Y002577D01*
X027232Y002343D01*
X027232Y002091D01*
X027135Y001857D01*
X026956Y001679D01*
X027141Y001871D02*
X028477Y001871D01*
X028663Y002110D02*
X027232Y002110D01*
X027230Y002348D02*
X031089Y002348D01*
X031089Y002587D02*
X027125Y002587D01*
X026787Y002826D02*
X031179Y002826D01*
X031418Y003064D02*
X023622Y003064D01*
X023567Y002826D02*
X026406Y002826D01*
X026375Y003082D02*
X026062Y003396D01*
X026062Y003617D01*
X026596Y003617D01*
X026596Y003617D01*
X026062Y003617D01*
X026062Y003839D01*
X026375Y004152D01*
X026596Y004152D01*
X026596Y003618D01*
X026597Y003618D01*
X026597Y004152D01*
X026818Y004152D01*
X027132Y003839D01*
X027132Y003617D01*
X026597Y003617D01*
X026597Y003617D01*
X027132Y003617D01*
X027132Y003396D01*
X026818Y003082D01*
X026597Y003082D01*
X026597Y003617D01*
X026596Y003617D01*
X026596Y003082D01*
X026375Y003082D01*
X026155Y003303D02*
X023727Y003303D01*
X023725Y003541D02*
X026062Y003541D01*
X026062Y003780D02*
X023613Y003780D01*
X023576Y004018D02*
X026241Y004018D01*
X026596Y004018D02*
X026597Y004018D01*
X026596Y003780D02*
X026597Y003780D01*
X026596Y003541D02*
X026597Y003541D01*
X027132Y003541D02*
X034423Y003541D01*
X034466Y003780D02*
X027132Y003780D01*
X026952Y004018D02*
X034565Y004018D01*
X034803Y004257D02*
X030313Y004257D01*
X029380Y004257D02*
X023710Y004257D01*
X023727Y004495D02*
X029227Y004495D01*
X029227Y004734D02*
X023645Y004734D01*
X023452Y005036D02*
X023508Y005091D01*
X023554Y005155D01*
X023590Y005225D01*
X023614Y005300D01*
X023627Y005378D01*
X023627Y005417D01*
X022847Y005417D01*
X022847Y005417D01*
X023627Y005417D01*
X023627Y005456D01*
X023614Y005534D01*
X023590Y005609D01*
X023554Y005679D01*
X023508Y005743D01*
X023452Y005799D01*
X023389Y005845D01*
X023355Y005862D01*
X023467Y005909D01*
X023635Y006077D01*
X023727Y006298D01*
X023727Y006522D01*
X024782Y006522D01*
X025628Y005464D01*
X025637Y005443D01*
X025677Y005403D01*
X025712Y005359D01*
X025732Y005348D01*
X025748Y005332D01*
X025801Y005311D01*
X025850Y005283D01*
X025872Y005281D01*
X025893Y005272D01*
X025950Y005272D01*
X026006Y005266D01*
X026028Y005272D01*
X029575Y005272D01*
X029227Y004924D01*
X029514Y005211D02*
X023583Y005211D01*
X023452Y005036D02*
X023389Y004990D01*
X023355Y004972D01*
X023627Y005449D02*
X025634Y005449D01*
X025449Y005688D02*
X023548Y005688D01*
X023485Y005927D02*
X025258Y005927D01*
X025068Y006165D02*
X023672Y006165D01*
X023727Y006404D02*
X024877Y006404D01*
X026067Y006881D02*
X026346Y006881D01*
X026305Y006642D02*
X028927Y006642D01*
X028927Y006881D02*
X027597Y006881D01*
X027819Y007119D02*
X029022Y007119D01*
X029004Y007358D02*
X027892Y007358D01*
X027869Y007596D02*
X028927Y007596D01*
X028945Y007835D02*
X027731Y007835D01*
X028738Y008073D02*
X029076Y008073D01*
X029093Y008312D02*
X028866Y008312D01*
X028867Y008551D02*
X029027Y008551D01*
X029027Y008567D02*
X029846Y008567D01*
X029846Y008567D01*
X029027Y008567D01*
X029076Y008789D02*
X028867Y008789D01*
X028867Y009028D02*
X029305Y009028D01*
X028867Y009266D02*
X032841Y009266D01*
X032965Y009028D02*
X030388Y009028D01*
X030617Y008789D02*
X039452Y008789D01*
X039452Y009028D02*
X034853Y009028D01*
X034977Y010362D02*
X034977Y010450D01*
X034928Y010568D01*
X034838Y010658D01*
X034721Y010707D01*
X033097Y010707D01*
X032980Y010658D01*
X032890Y010568D01*
X032856Y010487D01*
X030293Y010487D01*
X030467Y010660D01*
X030467Y011174D01*
X030103Y011537D01*
X029590Y011537D01*
X029227Y011174D01*
X029227Y010660D01*
X029400Y010487D01*
X028867Y010487D01*
X028867Y013271D01*
X028867Y017271D01*
X028788Y017460D01*
X029677Y017460D01*
X029777Y017360D01*
X030291Y017360D01*
X030654Y017723D01*
X030654Y018236D01*
X030543Y018347D01*
X031326Y018347D01*
X031089Y018110D01*
X031089Y017224D01*
X031716Y016597D01*
X031739Y016597D01*
X031739Y012629D01*
X031826Y012419D01*
X031986Y012259D01*
X032196Y012172D01*
X032423Y012172D01*
X032841Y012172D01*
X032841Y012134D01*
X032890Y012016D01*
X032980Y011926D01*
X033097Y011878D01*
X034721Y011878D01*
X034838Y011926D01*
X034928Y012016D01*
X034977Y012134D01*
X034977Y013364D01*
X034928Y013481D01*
X034838Y013571D01*
X034721Y013620D01*
X033097Y013620D01*
X032980Y013571D01*
X032890Y013481D01*
X032879Y013455D01*
X032879Y016874D01*
X033229Y017224D01*
X033229Y018110D01*
X032992Y018347D01*
X037717Y018347D01*
X037439Y018069D01*
X037439Y017667D01*
X037439Y017265D01*
X037628Y017076D01*
X037523Y017076D01*
X037387Y017020D01*
X037377Y017010D01*
X037323Y017010D01*
X037187Y016953D01*
X037083Y016849D01*
X037027Y016713D01*
X037027Y016566D01*
X037078Y016443D01*
X037027Y016320D01*
X037027Y015906D01*
X037050Y015849D01*
X037037Y015817D01*
X037027Y015793D01*
X037027Y015793D01*
X037027Y015793D01*
X037027Y015720D01*
X037027Y015659D01*
X037027Y015512D01*
X037050Y015456D01*
X037027Y015399D01*
X037027Y015132D01*
X037027Y014985D01*
X037050Y014929D01*
X037036Y014894D01*
X037027Y014872D01*
X037027Y014872D01*
X037027Y014872D01*
X037027Y014797D01*
X037027Y014591D01*
X037064Y014501D01*
X037037Y014436D01*
X037027Y014412D01*
X037027Y014412D01*
X037027Y014411D01*
X037027Y014339D01*
X037027Y014278D01*
X037027Y014131D01*
X037083Y013995D01*
X037137Y013941D01*
X037083Y013887D01*
X037027Y013751D01*
X037027Y013604D01*
X037036Y013581D01*
X037027Y013558D01*
X037027Y013291D01*
X037027Y013144D01*
X037083Y013008D01*
X037095Y012995D01*
X036716Y012995D01*
X036716Y012479D01*
X036602Y012479D01*
X036602Y012995D01*
X036197Y012995D01*
X036141Y012980D01*
X036091Y012951D01*
X036050Y012910D01*
X036021Y012860D01*
X036006Y012804D01*
X036006Y012478D01*
X036602Y012478D01*
X036602Y012364D01*
X036006Y012364D01*
X036006Y012038D01*
X036021Y011982D01*
X036050Y011932D01*
X036091Y011891D01*
X036141Y011862D01*
X036197Y011847D01*
X036214Y011847D01*
X036214Y011088D01*
X036162Y011088D01*
X036045Y011039D01*
X035955Y010949D01*
X035906Y010831D01*
X035906Y010362D01*
X034977Y010362D01*
X034974Y010459D02*
X035906Y010459D01*
X035906Y010697D02*
X034743Y010697D01*
X035949Y010936D02*
X030467Y010936D01*
X030466Y011175D02*
X036214Y011175D01*
X036214Y011413D02*
X030228Y011413D01*
X030270Y011647D02*
X030498Y011742D01*
X030672Y011916D01*
X030767Y012144D01*
X030767Y012390D01*
X030672Y012618D01*
X030573Y012717D01*
X030672Y012816D01*
X030767Y013044D01*
X030767Y013290D01*
X030672Y013518D01*
X030503Y013688D01*
X030543Y013728D01*
X030591Y013795D01*
X030629Y013868D01*
X030654Y013945D01*
X030667Y014026D01*
X030667Y014067D01*
X029847Y014067D01*
X029847Y014067D01*
X030667Y014067D01*
X030667Y014108D01*
X030654Y014189D01*
X030629Y014267D01*
X030591Y014340D01*
X030543Y014406D01*
X030485Y014464D01*
X030419Y014512D01*
X030346Y014549D01*
X030268Y014574D01*
X030188Y014587D01*
X029847Y014587D01*
X029847Y014068D01*
X029846Y014068D01*
X029846Y014587D01*
X029506Y014587D01*
X029425Y014574D01*
X029347Y014549D01*
X029274Y014512D01*
X029208Y014464D01*
X029150Y014406D01*
X029102Y014340D01*
X029065Y014267D01*
X029039Y014189D01*
X029027Y014108D01*
X029027Y014067D01*
X029027Y014026D01*
X029039Y013945D01*
X029065Y013868D01*
X029102Y013795D01*
X029150Y013728D01*
X029191Y013688D01*
X029021Y013518D01*
X028927Y013290D01*
X028927Y013044D01*
X029021Y012816D01*
X029120Y012717D01*
X029021Y012618D01*
X028927Y012390D01*
X028927Y012144D01*
X029021Y011916D01*
X029195Y011742D01*
X029423Y011647D01*
X030270Y011647D01*
X030281Y011652D02*
X036214Y011652D01*
X036092Y011890D02*
X034751Y011890D01*
X034975Y012129D02*
X036006Y012129D01*
X036006Y012606D02*
X034977Y012606D01*
X034977Y012844D02*
X036017Y012844D01*
X036602Y012844D02*
X036716Y012844D01*
X036716Y012606D02*
X036602Y012606D01*
X036602Y012367D02*
X034977Y012367D01*
X034977Y013083D02*
X037052Y013083D01*
X037027Y013321D02*
X034977Y013321D01*
X034850Y013560D02*
X037028Y013560D01*
X037046Y013799D02*
X032879Y013799D01*
X032879Y013560D02*
X032969Y013560D01*
X033480Y014012D02*
X033607Y013960D01*
X033745Y013960D01*
X034111Y013960D01*
X034238Y014012D01*
X034335Y014109D01*
X034427Y014201D01*
X034480Y014328D01*
X034480Y014465D01*
X034480Y014649D01*
X034451Y014719D01*
X034480Y014789D01*
X034480Y014926D01*
X034432Y015041D01*
X034480Y015156D01*
X034480Y015293D01*
X034470Y015317D01*
X034480Y015341D01*
X034480Y015845D01*
X034427Y015972D01*
X034369Y016031D01*
X034388Y016077D01*
X034388Y016214D01*
X034335Y016341D01*
X034254Y016422D01*
X034278Y016445D01*
X034321Y016482D01*
X034326Y016494D01*
X034335Y016503D01*
X034357Y016555D01*
X034474Y016789D01*
X034484Y016926D01*
X034440Y017056D01*
X034350Y017159D01*
X034227Y017221D01*
X034091Y017231D01*
X033960Y017187D01*
X033951Y017179D01*
X033943Y017182D01*
X033836Y017227D01*
X033699Y017227D01*
X033607Y017227D01*
X033504Y017184D01*
X033480Y017174D01*
X033387Y017081D01*
X033383Y017077D01*
X033292Y016985D01*
X033269Y016932D01*
X033239Y016858D01*
X033239Y016721D01*
X033239Y016538D01*
X033292Y016411D01*
X033377Y016326D01*
X033331Y016214D01*
X033331Y016077D01*
X033383Y015950D01*
X033431Y015903D01*
X033389Y015886D01*
X033292Y015789D01*
X033239Y015662D01*
X033239Y015525D01*
X033292Y015398D01*
X033327Y015363D01*
X033292Y015328D01*
X033269Y015274D01*
X033239Y015201D01*
X033239Y015064D01*
X033239Y014880D01*
X033287Y014765D01*
X033269Y014722D01*
X033239Y014649D01*
X033239Y014649D01*
X033239Y014511D01*
X033239Y014465D01*
X033239Y014328D01*
X033292Y014201D01*
X033480Y014012D01*
X033456Y014037D02*
X032879Y014037D01*
X032879Y014276D02*
X033261Y014276D01*
X033239Y014514D02*
X032879Y014514D01*
X032879Y014753D02*
X033282Y014753D01*
X033239Y014991D02*
X032879Y014991D01*
X032879Y015230D02*
X033251Y015230D01*
X033239Y015201D02*
X033239Y015201D01*
X033262Y015468D02*
X032879Y015468D01*
X032879Y015707D02*
X033258Y015707D01*
X033388Y015945D02*
X032879Y015945D01*
X032879Y016184D02*
X033331Y016184D01*
X033287Y016422D02*
X032879Y016422D01*
X032879Y016661D02*
X033239Y016661D01*
X033239Y016858D02*
X033239Y016858D01*
X033256Y016900D02*
X032905Y016900D01*
X033143Y017138D02*
X033445Y017138D01*
X033480Y017174D02*
X033480Y017174D01*
X033480Y017174D01*
X033607Y017227D02*
X033607Y017227D01*
X033229Y017377D02*
X034429Y017377D01*
X034429Y017552D02*
X034429Y017182D01*
X034570Y016840D01*
X034832Y016578D01*
X035174Y016437D01*
X035544Y016437D01*
X035886Y016578D01*
X036148Y016840D01*
X036289Y017182D01*
X036289Y017552D01*
X036148Y017894D01*
X035886Y018156D01*
X035544Y018297D01*
X035174Y018297D01*
X034832Y018156D01*
X034570Y017894D01*
X034429Y017552D01*
X034455Y017615D02*
X033229Y017615D01*
X033229Y017854D02*
X034554Y017854D01*
X034769Y018092D02*
X033229Y018092D01*
X033009Y018331D02*
X037701Y018331D01*
X037463Y018092D02*
X035949Y018092D01*
X036164Y017854D02*
X037439Y017854D01*
X037439Y017667D02*
X038409Y017667D01*
X037439Y017667D01*
X037439Y017615D02*
X036263Y017615D01*
X036289Y017377D02*
X037439Y017377D01*
X037566Y017138D02*
X036271Y017138D01*
X036172Y016900D02*
X037133Y016900D01*
X037027Y016661D02*
X035969Y016661D01*
X037069Y016422D02*
X034255Y016422D01*
X034388Y016184D02*
X037027Y016184D01*
X037027Y015945D02*
X034438Y015945D01*
X034480Y015707D02*
X037027Y015707D01*
X037045Y015468D02*
X034480Y015468D01*
X034480Y015230D02*
X037027Y015230D01*
X037027Y014991D02*
X034453Y014991D01*
X034465Y014753D02*
X037027Y014753D01*
X037059Y014514D02*
X034480Y014514D01*
X034458Y014276D02*
X037027Y014276D01*
X037066Y014037D02*
X034263Y014037D01*
X031739Y014037D02*
X030667Y014037D01*
X030624Y014276D02*
X031739Y014276D01*
X031739Y014514D02*
X030415Y014514D01*
X029847Y014514D02*
X029846Y014514D01*
X029846Y014276D02*
X029847Y014276D01*
X029846Y014067D02*
X029846Y014067D01*
X029027Y014067D01*
X029846Y014067D01*
X029279Y014514D02*
X028867Y014514D01*
X028867Y014276D02*
X029069Y014276D01*
X029027Y014037D02*
X028867Y014037D01*
X028867Y013799D02*
X029100Y013799D01*
X029063Y013560D02*
X028867Y013560D01*
X028867Y013321D02*
X028940Y013321D01*
X028927Y013083D02*
X028867Y013083D01*
X028867Y012844D02*
X029009Y012844D01*
X029016Y012606D02*
X028867Y012606D01*
X028867Y012367D02*
X028927Y012367D01*
X028933Y012129D02*
X028867Y012129D01*
X028867Y011890D02*
X029047Y011890D01*
X028867Y011652D02*
X029413Y011652D01*
X029466Y011413D02*
X028867Y011413D01*
X028867Y011175D02*
X029227Y011175D01*
X029227Y010936D02*
X028867Y010936D01*
X028867Y010697D02*
X029227Y010697D01*
X030467Y010697D02*
X033075Y010697D01*
X033067Y011890D02*
X030646Y011890D01*
X030760Y012129D02*
X032843Y012129D01*
X031878Y012367D02*
X030767Y012367D01*
X030678Y012606D02*
X031749Y012606D01*
X031739Y012844D02*
X030684Y012844D01*
X030767Y013083D02*
X031739Y013083D01*
X031739Y013321D02*
X030754Y013321D01*
X030631Y013560D02*
X031739Y013560D01*
X031739Y013799D02*
X030593Y013799D01*
X031739Y014753D02*
X028867Y014753D01*
X028867Y014991D02*
X031739Y014991D01*
X031739Y015230D02*
X028867Y015230D01*
X028867Y015468D02*
X031739Y015468D01*
X031739Y015707D02*
X028867Y015707D01*
X028867Y015945D02*
X031739Y015945D01*
X031739Y016184D02*
X028867Y016184D01*
X028867Y016422D02*
X031739Y016422D01*
X031652Y016661D02*
X028867Y016661D01*
X028867Y016900D02*
X031414Y016900D01*
X031175Y017138D02*
X028867Y017138D01*
X028823Y017377D02*
X029760Y017377D01*
X030308Y017377D02*
X031089Y017377D01*
X031089Y017615D02*
X030547Y017615D01*
X030654Y017854D02*
X031089Y017854D01*
X031089Y018092D02*
X030654Y018092D01*
X030560Y018331D02*
X031310Y018331D01*
X034369Y017138D02*
X034447Y017138D01*
X034482Y016900D02*
X034546Y016900D01*
X034410Y016661D02*
X034749Y016661D01*
X038409Y017667D02*
X038409Y017667D01*
X039252Y017138D02*
X039452Y017138D01*
X039452Y017377D02*
X039379Y017377D01*
X039379Y017615D02*
X039452Y017615D01*
X039452Y017854D02*
X039379Y017854D01*
X039356Y018092D02*
X039452Y018092D01*
X039452Y018331D02*
X039117Y018331D01*
X039013Y016900D02*
X039452Y016900D01*
X039452Y016661D02*
X039259Y016661D01*
X039277Y016643D02*
X039277Y016643D01*
X039277Y016643D01*
X039185Y016734D02*
X039185Y016734D01*
X039088Y016831D02*
X039088Y016831D01*
X039088Y016831D01*
X039330Y016422D02*
X039452Y016422D01*
X039452Y016184D02*
X039330Y016184D01*
X039330Y015945D02*
X039452Y015945D01*
X039452Y015707D02*
X039322Y015707D01*
X039306Y015468D02*
X039452Y015468D01*
X039452Y015230D02*
X039330Y015230D01*
X039289Y014991D02*
X039452Y014991D01*
X039452Y014753D02*
X039035Y014753D01*
X039452Y014514D02*
X038135Y014514D01*
X038167Y014276D02*
X039452Y014276D01*
X039452Y014037D02*
X038159Y014037D01*
X038167Y014131D02*
X038167Y014131D01*
X038167Y014131D01*
X038167Y013799D02*
X039452Y013799D01*
X039452Y013560D02*
X038149Y013560D01*
X038167Y013321D02*
X039452Y013321D01*
X039452Y013083D02*
X038114Y013083D01*
X038111Y013074D02*
X038111Y013074D01*
X038007Y012970D02*
X038007Y012970D01*
X038095Y012844D02*
X037301Y012844D01*
X037312Y012606D02*
X037867Y012606D01*
X037867Y012616D02*
X037867Y012417D01*
X037867Y012218D01*
X038148Y011937D01*
X038346Y011937D01*
X038346Y012417D01*
X037867Y012417D01*
X038346Y012417D01*
X038346Y012417D01*
X038347Y012417D01*
X038347Y012417D01*
X038827Y012417D01*
X038827Y012218D01*
X038545Y011937D01*
X038347Y011937D01*
X038347Y012417D01*
X038827Y012417D01*
X038827Y012616D01*
X038545Y012897D01*
X038347Y012897D01*
X038347Y012418D01*
X038346Y012418D01*
X038346Y012897D01*
X038148Y012897D01*
X037867Y012616D01*
X037867Y012367D02*
X036717Y012367D01*
X037470Y012129D02*
X037956Y012129D01*
X038346Y012129D02*
X038347Y012129D01*
X038346Y012367D02*
X038347Y012367D01*
X038346Y012606D02*
X038347Y012606D01*
X038346Y012844D02*
X038347Y012844D01*
X038598Y012844D02*
X039452Y012844D01*
X039452Y012606D02*
X038827Y012606D01*
X038827Y012367D02*
X039452Y012367D01*
X039452Y012129D02*
X038737Y012129D01*
X039452Y011890D02*
X037479Y011890D01*
X037479Y011652D02*
X039452Y011652D01*
X039452Y011413D02*
X037479Y011413D01*
X037479Y011175D02*
X039452Y011175D01*
X039452Y010936D02*
X038648Y010936D01*
X038887Y010697D02*
X039452Y010697D01*
X039452Y010459D02*
X038927Y010459D01*
X038927Y010220D02*
X039452Y010220D01*
X039452Y009982D02*
X038827Y009982D01*
X038827Y009743D02*
X039452Y009743D01*
X039452Y009505D02*
X038799Y009505D01*
X038625Y009266D02*
X039452Y009266D01*
X039452Y008551D02*
X030667Y008551D01*
X030600Y008312D02*
X039452Y008312D01*
X039452Y008073D02*
X030617Y008073D01*
X030748Y007835D02*
X039452Y007835D01*
X039452Y007596D02*
X030767Y007596D01*
X030690Y007358D02*
X032967Y007358D01*
X032615Y007119D02*
X030671Y007119D01*
X030767Y006881D02*
X032377Y006881D01*
X032138Y006642D02*
X030766Y006642D01*
X033726Y007358D02*
X034403Y007358D01*
X036290Y007358D02*
X036967Y007358D01*
X037726Y007358D02*
X039452Y007358D01*
X039452Y007119D02*
X037927Y007119D01*
X037927Y006881D02*
X039452Y006881D01*
X039452Y006642D02*
X037892Y006642D01*
X037653Y006404D02*
X039452Y006404D01*
X039452Y006165D02*
X037669Y006165D01*
X037907Y005927D02*
X039452Y005927D01*
X039452Y005688D02*
X037927Y005688D01*
X037927Y005449D02*
X039452Y005449D01*
X039452Y005211D02*
X037711Y005211D01*
X036983Y005211D02*
X036284Y005211D01*
X036117Y004972D02*
X039452Y004972D01*
X039452Y004734D02*
X036117Y004734D01*
X036078Y004495D02*
X036403Y004495D01*
X036339Y004257D02*
X035904Y004257D01*
X036142Y004018D02*
X036339Y004018D01*
X036339Y003780D02*
X036241Y003780D01*
X036284Y003541D02*
X036339Y003541D01*
X036339Y003303D02*
X036282Y003303D01*
X036183Y003064D02*
X036431Y003064D01*
X036475Y002826D02*
X036003Y002826D01*
X035599Y002587D02*
X036702Y002587D01*
X036751Y002348D02*
X037339Y002348D01*
X037339Y002587D02*
X037217Y002587D01*
X037488Y003064D02*
X037668Y003064D01*
X037472Y003303D02*
X037906Y003303D01*
X038152Y003541D02*
X037580Y003541D01*
X037496Y003780D02*
X038146Y003780D01*
X038279Y004018D02*
X037580Y004018D01*
X037580Y004257D02*
X039452Y004257D01*
X039452Y004018D02*
X039039Y004018D01*
X039172Y003780D02*
X039452Y003780D01*
X039452Y003541D02*
X039166Y003541D01*
X039026Y003303D02*
X039452Y003303D01*
X039452Y003064D02*
X039150Y003064D01*
X039389Y002826D02*
X039452Y002826D01*
X037339Y002110D02*
X036841Y002110D01*
X036841Y001871D02*
X037339Y001871D01*
X037555Y001633D02*
X036841Y001633D01*
X036841Y001511D02*
X036841Y001854D01*
X036416Y001854D01*
X036416Y001320D01*
X036650Y001320D01*
X036706Y001335D01*
X036756Y001364D01*
X036797Y001405D01*
X036826Y001455D01*
X036841Y001511D01*
X036787Y001394D02*
X037794Y001394D01*
X036416Y001394D02*
X036415Y001394D01*
X036415Y001633D02*
X036416Y001633D01*
X036415Y001871D02*
X036416Y001871D01*
X036415Y002110D02*
X036416Y002110D01*
X036415Y002348D02*
X036416Y002348D01*
X036080Y002348D02*
X036006Y002348D01*
X035108Y002587D02*
X033229Y002587D01*
X033139Y002826D02*
X034704Y002826D01*
X034524Y003064D02*
X032900Y003064D01*
X032662Y003303D02*
X034425Y003303D01*
X031656Y003303D02*
X027039Y003303D01*
X026597Y003303D02*
X026596Y003303D01*
X026068Y002587D02*
X023706Y002587D01*
X023727Y002348D02*
X025964Y002348D01*
X025962Y002110D02*
X023649Y002110D01*
X023377Y001871D02*
X026053Y001871D01*
X026348Y001633D02*
X011867Y001633D01*
X011867Y001871D02*
X016317Y001871D01*
X017377Y001871D02*
X022317Y001871D01*
X020992Y002110D02*
X017649Y002110D01*
X017727Y002348D02*
X020842Y002348D01*
X020842Y002587D02*
X017706Y002587D01*
X017567Y002826D02*
X020842Y002826D01*
X020842Y003064D02*
X017622Y003064D01*
X017727Y003303D02*
X020842Y003303D01*
X029531Y002110D02*
X031089Y002110D01*
X031089Y001871D02*
X029717Y001871D01*
X029717Y001633D02*
X031305Y001633D01*
X031544Y001394D02*
X029701Y001394D01*
X036020Y001394D02*
X036044Y001394D01*
X037527Y004393D02*
X037527Y004393D01*
X037424Y004495D02*
X039452Y004495D01*
X037338Y004581D02*
X037338Y004581D01*
X037338Y004581D01*
X037025Y006165D02*
X036265Y006165D01*
X036250Y006404D02*
X037040Y006404D01*
X029847Y008789D02*
X029846Y008789D01*
X029846Y009028D02*
X029847Y009028D01*
X026234Y012606D02*
X025842Y012606D01*
X025885Y012562D02*
X023195Y015252D01*
X023050Y015312D01*
X022893Y015312D01*
X019731Y015312D01*
X019860Y015441D01*
X019954Y015669D01*
X019954Y015915D01*
X019860Y016143D01*
X019685Y016318D01*
X019609Y016349D01*
X019673Y016396D01*
X019731Y016453D01*
X019779Y016520D01*
X019816Y016593D01*
X019841Y016670D01*
X019854Y016751D01*
X019854Y016792D01*
X019035Y016792D01*
X019035Y016792D01*
X019854Y016792D01*
X019854Y016833D01*
X019841Y016914D01*
X019816Y016992D01*
X019779Y017065D01*
X019731Y017131D01*
X019673Y017189D01*
X019609Y017235D01*
X019685Y017267D01*
X019860Y017441D01*
X019954Y017669D01*
X019954Y017915D01*
X019860Y018143D01*
X019685Y018318D01*
X019614Y018347D01*
X023267Y018347D01*
X023196Y018318D01*
X023021Y018143D01*
X022927Y017915D01*
X022927Y017669D01*
X023021Y017441D01*
X023196Y017267D01*
X023272Y017235D01*
X023208Y017189D01*
X023150Y017131D01*
X023102Y017065D01*
X023065Y016992D01*
X023040Y016914D01*
X023027Y016833D01*
X023027Y016792D01*
X023027Y016751D01*
X023040Y016670D01*
X023065Y016593D01*
X023102Y016520D01*
X023150Y016453D01*
X023208Y016396D01*
X023272Y016349D01*
X023196Y016318D01*
X023021Y016143D01*
X022927Y015915D01*
X022927Y015669D01*
X023021Y015441D01*
X023196Y015267D01*
X023423Y015172D01*
X024270Y015172D01*
X024498Y015267D01*
X024672Y015441D01*
X024767Y015669D01*
X024767Y015915D01*
X024672Y016143D01*
X024498Y016318D01*
X024422Y016349D01*
X024486Y016396D01*
X024543Y016453D01*
X024591Y016520D01*
X024629Y016593D01*
X024654Y016670D01*
X024667Y016751D01*
X024667Y016792D01*
X023847Y016792D01*
X023847Y016792D01*
X024667Y016792D01*
X024667Y016833D01*
X024654Y016914D01*
X024629Y016992D01*
X024591Y017065D01*
X024543Y017131D01*
X024486Y017189D01*
X024422Y017235D01*
X024498Y017267D01*
X024672Y017441D01*
X024767Y017669D01*
X024767Y017915D01*
X024672Y018143D01*
X024498Y018318D01*
X024427Y018347D01*
X026760Y018347D01*
X026743Y018317D01*
X026728Y018261D01*
X026728Y017917D01*
X026728Y017577D01*
X026522Y017577D01*
X026522Y017043D01*
X026521Y017043D01*
X026521Y017577D01*
X026300Y017577D01*
X025987Y017264D01*
X025987Y017042D01*
X025987Y016821D01*
X026300Y016507D01*
X026521Y016507D01*
X026521Y017042D01*
X025987Y017042D01*
X026521Y017042D01*
X026521Y017042D01*
X026522Y017042D01*
X026522Y017042D01*
X027057Y017042D01*
X027057Y016821D01*
X026743Y016507D01*
X026522Y016507D01*
X026522Y017042D01*
X027057Y017042D01*
X027057Y017264D01*
X026938Y017382D01*
X027153Y017382D01*
X027375Y017382D01*
X027361Y017348D01*
X027350Y017337D01*
X027270Y017146D01*
X027270Y016939D01*
X027350Y016748D01*
X027361Y016736D01*
X027383Y016682D01*
X027562Y016504D01*
X027795Y016407D01*
X027827Y016407D01*
X027827Y014447D01*
X027797Y014518D01*
X027623Y014693D01*
X027395Y014787D01*
X026548Y014787D01*
X026320Y014693D01*
X026146Y014518D01*
X026052Y014290D01*
X026052Y014044D01*
X026146Y013816D01*
X026295Y013667D01*
X026146Y013518D01*
X026052Y013290D01*
X026052Y013044D01*
X026146Y012816D01*
X026295Y012667D01*
X026190Y012562D01*
X025885Y012562D01*
X026134Y012844D02*
X025603Y012844D01*
X025365Y013083D02*
X026052Y013083D01*
X026065Y013321D02*
X025126Y013321D01*
X024888Y013560D02*
X026188Y013560D01*
X026164Y013799D02*
X024649Y013799D01*
X024410Y014037D02*
X026054Y014037D01*
X026052Y014276D02*
X024172Y014276D01*
X023933Y014514D02*
X026144Y014514D01*
X026465Y014753D02*
X023695Y014753D01*
X023456Y014991D02*
X027827Y014991D01*
X027827Y015230D02*
X024409Y015230D01*
X024684Y015468D02*
X027827Y015468D01*
X027827Y015707D02*
X024767Y015707D01*
X024754Y015945D02*
X027827Y015945D01*
X027827Y016184D02*
X024632Y016184D01*
X024512Y016422D02*
X027758Y016422D01*
X027405Y016661D02*
X026897Y016661D01*
X027057Y016900D02*
X027287Y016900D01*
X027270Y017138D02*
X027057Y017138D01*
X027153Y017382D02*
X027153Y017917D01*
X027153Y017382D01*
X026944Y017377D02*
X027373Y017377D01*
X027153Y017615D02*
X027153Y017615D01*
X027153Y017854D02*
X027153Y017854D01*
X027153Y017917D02*
X027153Y017917D01*
X026728Y017917D01*
X027153Y017917D01*
X027153Y017917D01*
X026728Y017854D02*
X024767Y017854D01*
X024744Y017615D02*
X026728Y017615D01*
X026522Y017377D02*
X026521Y017377D01*
X026521Y017138D02*
X026522Y017138D01*
X026100Y017377D02*
X024608Y017377D01*
X024536Y017138D02*
X025987Y017138D01*
X025987Y016900D02*
X024656Y016900D01*
X024651Y016661D02*
X026146Y016661D01*
X026521Y016661D02*
X026522Y016661D01*
X026521Y016900D02*
X026522Y016900D01*
X026728Y018092D02*
X024694Y018092D01*
X024466Y018331D02*
X026750Y018331D01*
X023846Y016792D02*
X023846Y016792D01*
X023027Y016792D01*
X023846Y016792D01*
X023181Y016422D02*
X021717Y016422D01*
X021717Y016424D02*
X021353Y016787D01*
X020840Y016787D01*
X020477Y016424D01*
X020477Y015910D01*
X020840Y015547D01*
X021353Y015547D01*
X021717Y015910D01*
X021717Y016424D01*
X021717Y016184D02*
X023062Y016184D01*
X022939Y015945D02*
X021717Y015945D01*
X021513Y015707D02*
X022927Y015707D01*
X023010Y015468D02*
X019871Y015468D01*
X019954Y015707D02*
X020680Y015707D01*
X020477Y015945D02*
X019942Y015945D01*
X019819Y016184D02*
X020477Y016184D01*
X020477Y016422D02*
X019700Y016422D01*
X019838Y016661D02*
X020714Y016661D01*
X021480Y016661D02*
X023043Y016661D01*
X023037Y016900D02*
X019844Y016900D01*
X019724Y017138D02*
X023157Y017138D01*
X023085Y017377D02*
X019796Y017377D01*
X019932Y017615D02*
X022949Y017615D01*
X022927Y017854D02*
X019954Y017854D01*
X019881Y018092D02*
X023000Y018092D01*
X023227Y018331D02*
X019654Y018331D01*
X018454Y018347D02*
X018383Y018318D01*
X018209Y018143D01*
X018206Y018137D01*
X015725Y018137D01*
X015706Y018155D01*
X015473Y018252D01*
X015220Y018252D01*
X014987Y018155D01*
X014808Y017977D01*
X014712Y017743D01*
X014712Y017491D01*
X014808Y017257D01*
X014987Y017079D01*
X015220Y016982D01*
X015473Y016982D01*
X015706Y017079D01*
X015885Y017257D01*
X015901Y017297D01*
X018352Y017297D01*
X018383Y017267D01*
X018459Y017235D01*
X018395Y017189D01*
X018338Y017131D01*
X018289Y017065D01*
X018252Y016992D01*
X018227Y016914D01*
X018214Y016833D01*
X018214Y016792D01*
X018214Y016751D01*
X018227Y016670D01*
X018252Y016593D01*
X018289Y016520D01*
X018338Y016453D01*
X018395Y016396D01*
X018459Y016349D01*
X018383Y016318D01*
X018209Y016143D01*
X018114Y015915D01*
X018114Y015669D01*
X018209Y015441D01*
X018337Y015312D01*
X016893Y015312D01*
X016748Y015252D01*
X016637Y015141D01*
X016577Y014996D01*
X016577Y014839D01*
X016577Y014017D01*
X016447Y014017D01*
X016227Y013926D01*
X016058Y013757D01*
X015967Y013536D01*
X015967Y013298D01*
X016058Y013077D01*
X016218Y012917D01*
X016118Y012817D01*
X012176Y012817D01*
X012017Y012817D01*
X011870Y012756D01*
X011758Y012644D01*
X011697Y012497D01*
X011697Y011116D01*
X011497Y010916D01*
X011497Y010419D01*
X011819Y010096D01*
X011597Y009874D01*
X011597Y009667D01*
X011597Y009460D01*
X011890Y009167D01*
X011597Y008874D01*
X011597Y008667D01*
X011597Y008460D01*
X011890Y008167D01*
X011597Y007874D01*
X011597Y007667D01*
X011597Y007567D01*
X010692Y007567D01*
X010692Y008151D01*
X010643Y008268D01*
X010617Y008295D01*
X010617Y010550D01*
X010695Y010582D01*
X011445Y011332D01*
X011557Y011443D01*
X011617Y011589D01*
X011617Y015337D01*
X011748Y015392D01*
X011922Y015566D01*
X012017Y015794D01*
X012017Y016040D01*
X011922Y016268D01*
X011748Y016443D01*
X011672Y016474D01*
X011735Y016521D01*
X011793Y016578D01*
X011841Y016645D01*
X011879Y016718D01*
X011904Y016795D01*
X011917Y016876D01*
X011917Y016917D01*
X011097Y016917D01*
X011097Y016917D01*
X011917Y016917D01*
X011917Y016958D01*
X011904Y017039D01*
X011879Y017117D01*
X011841Y017190D01*
X011793Y017256D01*
X011735Y017314D01*
X011672Y017360D01*
X011748Y017392D01*
X011854Y017497D01*
X012379Y017497D01*
X012407Y017486D01*
X012397Y017480D01*
X012356Y017439D01*
X012327Y017389D01*
X012312Y017333D01*
X012312Y017099D01*
X012846Y017099D01*
X012846Y017098D01*
X012312Y017098D01*
X012312Y016864D01*
X012327Y016808D01*
X012356Y016758D01*
X012397Y016717D01*
X012447Y016688D01*
X012503Y016673D01*
X012846Y016673D01*
X012846Y017098D01*
X012847Y017098D01*
X012847Y016673D01*
X013191Y016673D01*
X013247Y016688D01*
X013297Y016717D01*
X013338Y016758D01*
X013367Y016808D01*
X013382Y016864D01*
X013382Y017098D01*
X012847Y017098D01*
X012847Y017099D01*
X013382Y017099D01*
X013382Y017333D01*
X013367Y017389D01*
X013338Y017439D01*
X013297Y017480D01*
X013287Y017486D01*
X013343Y017509D01*
X013433Y017599D01*
X013482Y017717D01*
X013482Y018255D01*
X013443Y018347D01*
X018454Y018347D01*
X018415Y018331D02*
X013450Y018331D01*
X013482Y018092D02*
X014924Y018092D01*
X014757Y017854D02*
X013482Y017854D01*
X013440Y017615D02*
X014712Y017615D01*
X014759Y017377D02*
X013370Y017377D01*
X013382Y017138D02*
X014928Y017138D01*
X015125Y016752D02*
X014812Y016439D01*
X014812Y016217D01*
X014812Y015996D01*
X015125Y015682D01*
X015346Y015682D01*
X015346Y016217D01*
X014812Y016217D01*
X015346Y016217D01*
X015346Y016217D01*
X015347Y016217D01*
X015347Y016217D01*
X015882Y016217D01*
X015882Y015996D01*
X015568Y015682D01*
X015347Y015682D01*
X015347Y016217D01*
X015882Y016217D01*
X015882Y016439D01*
X015568Y016752D01*
X015347Y016752D01*
X015347Y016218D01*
X015346Y016218D01*
X015346Y016752D01*
X015125Y016752D01*
X015034Y016661D02*
X011850Y016661D01*
X011917Y016900D02*
X012312Y016900D01*
X012312Y017138D02*
X011868Y017138D01*
X011712Y017377D02*
X012323Y017377D01*
X012846Y016900D02*
X012847Y016900D01*
X013382Y016900D02*
X018225Y016900D01*
X018214Y016792D02*
X019034Y016792D01*
X018214Y016792D01*
X018230Y016661D02*
X015659Y016661D01*
X015347Y016661D02*
X015346Y016661D01*
X015346Y016422D02*
X015347Y016422D01*
X015346Y016184D02*
X015347Y016184D01*
X015882Y016184D02*
X018249Y016184D01*
X018368Y016422D02*
X015882Y016422D01*
X015831Y015945D02*
X018127Y015945D01*
X018114Y015707D02*
X015593Y015707D01*
X015347Y015707D02*
X015346Y015707D01*
X015346Y015945D02*
X015347Y015945D01*
X015100Y015707D02*
X011981Y015707D01*
X012017Y015945D02*
X014862Y015945D01*
X014812Y016184D02*
X011957Y016184D01*
X011768Y016422D02*
X014812Y016422D01*
X015766Y017138D02*
X018345Y017138D01*
X019034Y016792D02*
X019034Y016792D01*
X018197Y015468D02*
X011825Y015468D01*
X011617Y015230D02*
X013033Y015230D01*
X013090Y015287D02*
X012727Y014924D01*
X012727Y014410D01*
X013090Y014047D01*
X013603Y014047D01*
X013967Y014410D01*
X013967Y014924D01*
X013603Y015287D01*
X013090Y015287D01*
X012794Y014991D02*
X011617Y014991D01*
X011617Y014753D02*
X012727Y014753D01*
X012727Y014514D02*
X011617Y014514D01*
X011617Y014276D02*
X012861Y014276D01*
X013832Y014276D02*
X016577Y014276D01*
X016577Y014514D02*
X013967Y014514D01*
X013967Y014753D02*
X016577Y014753D01*
X016577Y014991D02*
X013899Y014991D01*
X013661Y015230D02*
X016726Y015230D01*
X016577Y014037D02*
X011617Y014037D01*
X011617Y013799D02*
X016100Y013799D01*
X015976Y013560D02*
X011617Y013560D01*
X011617Y013321D02*
X015967Y013321D01*
X016056Y013083D02*
X011617Y013083D01*
X011617Y012844D02*
X016145Y012844D01*
X011742Y012606D02*
X011617Y012606D01*
X011617Y012367D02*
X011697Y012367D01*
X011697Y012129D02*
X011617Y012129D01*
X011617Y011890D02*
X011697Y011890D01*
X011697Y011652D02*
X011617Y011652D01*
X011697Y011413D02*
X011526Y011413D01*
X011697Y011175D02*
X011288Y011175D01*
X011517Y010936D02*
X011049Y010936D01*
X010811Y010697D02*
X011497Y010697D01*
X011497Y010459D02*
X010617Y010459D01*
X010617Y010220D02*
X011695Y010220D01*
X011704Y009982D02*
X010617Y009982D01*
X010617Y009743D02*
X011597Y009743D01*
X011597Y009667D02*
X012096Y009667D01*
X011597Y009667D01*
X011597Y009505D02*
X010617Y009505D01*
X010617Y009266D02*
X011791Y009266D01*
X011890Y009167D02*
X012096Y009167D01*
X011890Y009167D01*
X011750Y009028D02*
X010617Y009028D01*
X010617Y008789D02*
X011597Y008789D01*
X011597Y008667D02*
X012096Y008667D01*
X011597Y008667D01*
X011597Y008551D02*
X010617Y008551D01*
X010617Y008312D02*
X011745Y008312D01*
X011890Y008167D02*
X012096Y008167D01*
X011890Y008167D01*
X011796Y008073D02*
X010692Y008073D01*
X010692Y007835D02*
X011597Y007835D01*
X011597Y007667D02*
X012096Y007667D01*
X011597Y007667D01*
X011597Y007596D02*
X010692Y007596D01*
X009827Y008407D02*
X009508Y008407D01*
X009472Y008392D01*
X009435Y008407D01*
X009008Y008407D01*
X008890Y008358D01*
X008839Y008307D01*
X008722Y008307D01*
X008722Y007788D01*
X008721Y007788D01*
X008721Y008307D01*
X008604Y008307D01*
X008553Y008358D01*
X008435Y008407D01*
X008008Y008407D01*
X007972Y008392D01*
X007935Y008407D01*
X007508Y008407D01*
X007472Y008392D01*
X007435Y008407D01*
X007008Y008407D01*
X006972Y008392D01*
X006935Y008407D01*
X006508Y008407D01*
X006390Y008358D01*
X006336Y008304D01*
X006352Y008342D01*
X006352Y008537D01*
X006797Y008537D01*
X006937Y008595D01*
X007044Y008702D01*
X007102Y008842D01*
X007102Y008993D01*
X007102Y010114D01*
X007143Y010097D01*
X007523Y010097D01*
X007646Y010148D01*
X007741Y010242D01*
X007792Y010366D01*
X007792Y010499D01*
X007768Y010556D01*
X007792Y010612D01*
X007792Y010746D01*
X007741Y010869D01*
X007593Y011016D01*
X007604Y011027D01*
X007721Y011027D01*
X007721Y011547D01*
X007722Y011547D01*
X007722Y011027D01*
X007839Y011027D01*
X007890Y010976D01*
X008008Y010927D01*
X008435Y010927D01*
X008553Y010976D01*
X008604Y011027D01*
X008721Y011027D01*
X008721Y011547D01*
X008722Y011547D01*
X008722Y011027D01*
X008839Y011027D01*
X008890Y010976D01*
X009008Y010927D01*
X009435Y010927D01*
X009472Y010942D01*
X009508Y010927D01*
X009827Y010927D01*
X009827Y008407D01*
X009827Y008551D02*
X006830Y008551D01*
X007080Y008789D02*
X009827Y008789D01*
X009827Y009028D02*
X007102Y009028D01*
X007102Y009266D02*
X009827Y009266D01*
X009827Y009505D02*
X007102Y009505D01*
X007102Y009743D02*
X009827Y009743D01*
X009827Y009982D02*
X007102Y009982D01*
X007719Y010220D02*
X009827Y010220D01*
X009827Y010459D02*
X007792Y010459D01*
X007792Y010697D02*
X009827Y010697D01*
X009487Y010936D02*
X009457Y010936D01*
X008987Y010936D02*
X008457Y010936D01*
X008721Y011175D02*
X008722Y011175D01*
X008721Y011413D02*
X008722Y011413D01*
X008721Y011548D02*
X008721Y012067D01*
X008604Y012067D01*
X008602Y012070D01*
X008602Y012243D01*
X008544Y012382D01*
X008437Y012489D01*
X008321Y012537D01*
X008842Y012537D01*
X008842Y012070D01*
X008839Y012067D01*
X008722Y012067D01*
X008722Y011548D01*
X008721Y011548D01*
X008721Y011652D02*
X008722Y011652D01*
X008721Y011890D02*
X008722Y011890D01*
X008602Y012129D02*
X008842Y012129D01*
X008842Y012367D02*
X008550Y012367D01*
X007721Y011413D02*
X007722Y011413D01*
X007721Y011175D02*
X007722Y011175D01*
X007673Y010936D02*
X007987Y010936D01*
X006342Y010056D02*
X006342Y009297D01*
X006047Y009297D01*
X005896Y009297D01*
X005756Y009239D01*
X005650Y009132D01*
X005592Y008993D01*
X005592Y008797D01*
X005490Y008797D01*
X005299Y008988D01*
X005507Y009196D01*
X005507Y009417D01*
X004972Y009417D01*
X004972Y009417D01*
X005507Y009417D01*
X005507Y009639D01*
X005299Y009846D01*
X005490Y010037D01*
X006146Y010037D01*
X006297Y010037D01*
X006342Y010056D01*
X006342Y009982D02*
X005434Y009982D01*
X005402Y009743D02*
X006342Y009743D01*
X006342Y009505D02*
X005507Y009505D01*
X005507Y009266D02*
X005821Y009266D01*
X005606Y009028D02*
X005339Y009028D01*
X004971Y009417D02*
X004437Y009417D01*
X004437Y009196D01*
X004644Y008988D01*
X004352Y008695D01*
X004352Y010037D01*
X004454Y010037D01*
X004644Y009846D01*
X004437Y009639D01*
X004437Y009417D01*
X004971Y009417D01*
X004971Y009417D01*
X004437Y009505D02*
X004352Y009505D01*
X004352Y009266D02*
X004437Y009266D01*
X004352Y009028D02*
X004605Y009028D01*
X004446Y008789D02*
X004352Y008789D01*
X003592Y008789D02*
X002498Y008789D01*
X002607Y008680D02*
X002370Y008917D01*
X002607Y009154D01*
X002607Y009680D01*
X002370Y009917D01*
X002607Y010154D01*
X002607Y010680D01*
X002299Y010988D01*
X002507Y011196D01*
X002507Y011417D01*
X001972Y011417D01*
X001972Y011417D01*
X002507Y011417D01*
X002507Y011639D01*
X002299Y011846D01*
X002607Y012154D01*
X002607Y012680D01*
X002370Y012917D01*
X002607Y013154D01*
X002607Y013680D01*
X002370Y013917D01*
X002450Y013997D01*
X002555Y013997D01*
X002710Y014061D01*
X002828Y014179D01*
X002892Y014334D01*
X002892Y015497D01*
X003520Y015497D01*
X003551Y015421D01*
X003641Y015331D01*
X003759Y015282D01*
X004297Y015282D01*
X004415Y015331D01*
X004472Y015388D01*
X004529Y015331D01*
X004646Y015282D01*
X005185Y015282D01*
X005302Y015331D01*
X005392Y015421D01*
X005424Y015497D01*
X006052Y015497D01*
X006052Y014837D01*
X005450Y014837D01*
X005235Y015052D01*
X004709Y015052D01*
X004337Y014680D01*
X004337Y014154D01*
X004574Y013917D01*
X004337Y013680D01*
X004337Y013154D01*
X004574Y012917D01*
X004337Y012680D01*
X004337Y012154D01*
X004644Y011846D01*
X004437Y011639D01*
X004437Y011417D01*
X004437Y011196D01*
X004644Y010988D01*
X004454Y010797D01*
X004047Y010797D01*
X003896Y010797D01*
X003756Y010739D01*
X003650Y010632D01*
X003592Y010493D01*
X003592Y008297D01*
X002607Y008297D01*
X002607Y008680D01*
X002607Y008551D02*
X003592Y008551D01*
X003592Y008312D02*
X002607Y008312D01*
X002480Y009028D02*
X003592Y009028D01*
X003592Y009266D02*
X002607Y009266D01*
X002607Y009505D02*
X003592Y009505D01*
X003592Y009743D02*
X002544Y009743D01*
X002434Y009982D02*
X003592Y009982D01*
X003592Y010220D02*
X002607Y010220D01*
X002607Y010459D02*
X003592Y010459D01*
X003715Y010697D02*
X002589Y010697D01*
X002351Y010936D02*
X004593Y010936D01*
X004458Y011175D02*
X002486Y011175D01*
X002507Y011413D02*
X004437Y011413D01*
X004437Y011417D02*
X004971Y011417D01*
X004971Y011417D01*
X004437Y011417D01*
X004450Y011652D02*
X002494Y011652D01*
X002343Y011890D02*
X004601Y011890D01*
X004362Y012129D02*
X002581Y012129D01*
X002607Y012367D02*
X004337Y012367D01*
X004337Y012606D02*
X002607Y012606D01*
X002443Y012844D02*
X004501Y012844D01*
X004408Y013083D02*
X002535Y013083D01*
X002607Y013321D02*
X004337Y013321D01*
X004337Y013560D02*
X002607Y013560D01*
X002488Y013799D02*
X004455Y013799D01*
X004454Y014037D02*
X002652Y014037D01*
X002868Y014276D02*
X004337Y014276D01*
X004337Y014514D02*
X002892Y014514D01*
X002892Y014753D02*
X004409Y014753D01*
X004648Y014991D02*
X002892Y014991D01*
X002892Y015230D02*
X006052Y015230D01*
X006052Y015468D02*
X005412Y015468D01*
X005296Y014991D02*
X006052Y014991D01*
X008002Y015945D02*
X008242Y015945D01*
X008242Y015917D02*
X008721Y015917D01*
X008242Y015917D01*
X008242Y015812D01*
X008135Y015812D01*
X007307Y016641D01*
X007195Y016752D01*
X007050Y016812D01*
X004300Y016812D01*
X004143Y016812D01*
X003998Y016752D01*
X003798Y016552D01*
X003759Y016552D01*
X003641Y016503D01*
X003551Y016413D01*
X003520Y016337D01*
X002872Y016337D01*
X002712Y016497D01*
X002367Y016497D01*
X002460Y016590D01*
X002602Y016932D01*
X002602Y017302D01*
X002460Y017644D01*
X002363Y017741D01*
X002429Y017768D01*
X002540Y017722D01*
X002687Y017722D01*
X002798Y017768D01*
X002908Y017722D01*
X003056Y017722D01*
X003091Y017737D01*
X003127Y017722D01*
X003274Y017722D01*
X003374Y017722D01*
X003434Y017747D01*
X003495Y017722D01*
X003642Y017722D01*
X003742Y017722D01*
X003878Y017779D01*
X003962Y017862D01*
X004045Y017779D01*
X004086Y017762D01*
X004034Y017710D01*
X003955Y017520D01*
X003955Y017314D01*
X004034Y017124D01*
X004179Y016979D01*
X004369Y016900D01*
X004575Y016900D01*
X004764Y016979D01*
X004910Y017124D01*
X004989Y017314D01*
X004989Y017520D01*
X004910Y017710D01*
X004883Y017737D01*
X004933Y017758D01*
X005018Y017722D01*
X005165Y017722D01*
X005276Y017768D01*
X005386Y017722D01*
X005534Y017722D01*
X005619Y017758D01*
X005705Y017722D01*
X005852Y017722D01*
X005952Y017722D01*
X006012Y017747D01*
X006073Y017722D01*
X006370Y017722D01*
X006506Y017779D01*
X006610Y017883D01*
X006667Y018019D01*
X006667Y018166D01*
X006667Y018169D01*
X006667Y018316D01*
X006667Y018319D01*
X006667Y018347D01*
X008332Y018347D01*
X008142Y018157D01*
X008142Y017677D01*
X008481Y017337D01*
X008642Y017337D01*
X008738Y017297D01*
X008905Y017297D01*
X009060Y017361D01*
X009178Y017479D01*
X009230Y017605D01*
X009302Y017677D01*
X009302Y018157D01*
X009112Y018347D01*
X010350Y018347D01*
X010271Y018268D01*
X010177Y018040D01*
X010177Y017794D01*
X010271Y017566D01*
X010446Y017392D01*
X010522Y017360D01*
X010458Y017314D01*
X010400Y017256D01*
X010352Y017190D01*
X010315Y017117D01*
X010290Y017039D01*
X010277Y016958D01*
X010277Y016917D01*
X010277Y016876D01*
X010290Y016795D01*
X010315Y016718D01*
X010352Y016645D01*
X010400Y016578D01*
X010458Y016521D01*
X010522Y016474D01*
X010446Y016443D01*
X010271Y016268D01*
X010177Y016040D01*
X010177Y015812D01*
X009202Y015812D01*
X009202Y015917D01*
X008722Y015917D01*
X008722Y015917D01*
X009202Y015917D01*
X009202Y016116D01*
X008921Y016397D01*
X008722Y016397D01*
X008722Y015918D01*
X008721Y015918D01*
X008721Y016397D01*
X008523Y016397D01*
X008242Y016116D01*
X008242Y015917D01*
X008721Y015917D02*
X008721Y015917D01*
X008721Y015945D02*
X008722Y015945D01*
X009202Y015945D02*
X010177Y015945D01*
X010236Y016184D02*
X009134Y016184D01*
X008722Y016184D02*
X008721Y016184D01*
X008310Y016184D02*
X007764Y016184D01*
X007525Y016422D02*
X010425Y016422D01*
X010344Y016661D02*
X007286Y016661D01*
X008442Y017377D02*
X004989Y017377D01*
X004949Y017615D02*
X008203Y017615D01*
X008142Y017854D02*
X006582Y017854D01*
X006667Y018092D02*
X008142Y018092D01*
X008315Y018331D02*
X006667Y018331D01*
X004916Y017138D02*
X010326Y017138D01*
X010481Y017377D02*
X009075Y017377D01*
X009240Y017615D02*
X010251Y017615D01*
X010177Y017854D02*
X009302Y017854D01*
X009302Y018092D02*
X010198Y018092D01*
X010334Y018331D02*
X009128Y018331D01*
X010277Y016917D02*
X011096Y016917D01*
X010277Y016917D01*
X010277Y016900D02*
X002588Y016900D01*
X002490Y016661D02*
X003907Y016661D01*
X003560Y016422D02*
X002787Y016422D01*
X001918Y016184D02*
X000542Y016184D01*
X000542Y016422D02*
X001050Y016422D01*
X000853Y016661D02*
X000542Y016661D01*
X000542Y016900D02*
X000755Y016900D01*
X000741Y017138D02*
X000542Y017138D01*
X000542Y017377D02*
X000772Y017377D01*
X000871Y017615D02*
X000542Y017615D01*
X000542Y017854D02*
X001093Y017854D01*
X001307Y018092D02*
X000542Y018092D01*
X000542Y018331D02*
X001307Y018331D01*
X002472Y017615D02*
X003994Y017615D01*
X003970Y017854D02*
X003953Y017854D01*
X003955Y017377D02*
X002571Y017377D01*
X002602Y017138D02*
X004028Y017138D01*
X001892Y015945D02*
X000542Y015945D01*
X000542Y015707D02*
X001892Y015707D01*
X002052Y015468D02*
X000542Y015468D01*
X000542Y015230D02*
X002052Y015230D01*
X001648Y014991D02*
X000542Y014991D01*
X000542Y014753D02*
X001409Y014753D01*
X001337Y014514D02*
X000542Y014514D01*
X000542Y014276D02*
X001337Y014276D01*
X001454Y014037D02*
X000542Y014037D01*
X000542Y013799D02*
X001455Y013799D01*
X001337Y013560D02*
X000542Y013560D01*
X000542Y013321D02*
X001337Y013321D01*
X001408Y013083D02*
X000542Y013083D01*
X000542Y012844D02*
X001501Y012844D01*
X001337Y012606D02*
X000542Y012606D01*
X000542Y012367D02*
X000893Y012367D01*
X000842Y012129D02*
X000542Y012129D01*
X000542Y011890D02*
X000842Y011890D01*
X000842Y011652D02*
X000542Y011652D01*
X000542Y011413D02*
X000842Y011413D01*
X000842Y011175D02*
X000542Y011175D01*
X000542Y010936D02*
X000842Y010936D01*
X000842Y010697D02*
X000542Y010697D01*
X000542Y010459D02*
X000842Y010459D01*
X000842Y010220D02*
X000542Y010220D01*
X000542Y009982D02*
X000842Y009982D01*
X000842Y009743D02*
X000542Y009743D01*
X000542Y009505D02*
X000842Y009505D01*
X000842Y009266D02*
X000542Y009266D01*
X000542Y009028D02*
X000842Y009028D01*
X000842Y008789D02*
X000542Y008789D01*
X000542Y008551D02*
X000842Y008551D01*
X000842Y008312D02*
X000542Y008312D01*
X000542Y008073D02*
X000842Y008073D01*
X000842Y007835D02*
X000542Y007835D01*
X000542Y007596D02*
X000842Y007596D01*
X000842Y007358D02*
X000542Y007358D01*
X000542Y007119D02*
X000842Y007119D01*
X000842Y006881D02*
X000542Y006881D01*
X000542Y006642D02*
X000842Y006642D01*
X001602Y006642D02*
X008842Y006642D01*
X008842Y006547D02*
X001602Y006547D01*
X001602Y006889D01*
X001709Y006782D01*
X002235Y006782D01*
X002490Y007037D01*
X002547Y007037D01*
X002687Y007095D01*
X002794Y007202D01*
X002852Y007342D01*
X002852Y007537D01*
X003896Y007537D01*
X004337Y007537D01*
X004337Y007154D01*
X004709Y006782D01*
X005235Y006782D01*
X005607Y007154D01*
X005607Y007537D01*
X006252Y007537D01*
X006252Y007423D01*
X006300Y007306D01*
X006390Y007216D01*
X006508Y007167D01*
X006935Y007167D01*
X006972Y007182D01*
X007008Y007167D01*
X007435Y007167D01*
X007472Y007182D01*
X007508Y007167D01*
X007935Y007167D01*
X007972Y007182D01*
X008008Y007167D01*
X008435Y007167D01*
X008553Y007216D01*
X008604Y007267D01*
X008721Y007267D01*
X008721Y007787D01*
X008722Y007787D01*
X008722Y007267D01*
X008839Y007267D01*
X008842Y007265D01*
X008842Y006547D01*
X009602Y006642D02*
X011497Y006642D01*
X011512Y006404D02*
X009602Y006404D01*
X009602Y006165D02*
X011527Y006165D01*
X011508Y005927D02*
X009519Y005927D01*
X008842Y006881D02*
X005333Y006881D01*
X005572Y007119D02*
X008842Y007119D01*
X008721Y007358D02*
X008722Y007358D01*
X008721Y007596D02*
X008722Y007596D01*
X008721Y007835D02*
X008722Y007835D01*
X008721Y008073D02*
X008722Y008073D01*
X008599Y008312D02*
X008844Y008312D01*
X006344Y008312D02*
X006339Y008312D01*
X006279Y007358D02*
X005607Y007358D01*
X004610Y006881D02*
X002333Y006881D01*
X002711Y007119D02*
X004372Y007119D01*
X004337Y007358D02*
X002852Y007358D01*
X001610Y006881D02*
X001602Y006881D01*
X000842Y006404D02*
X000542Y006404D01*
X000542Y006165D02*
X000842Y006165D01*
X000925Y005927D02*
X000542Y005927D01*
X000542Y005688D02*
X011497Y005688D01*
X011497Y005449D02*
X000542Y005449D01*
X000542Y005211D02*
X011527Y005211D01*
X011527Y004972D02*
X000542Y004972D01*
X000542Y004734D02*
X011497Y004734D01*
X011497Y004495D02*
X005798Y004495D01*
X005287Y004495D02*
X003818Y004495D01*
X003307Y004495D02*
X001858Y004495D01*
X001347Y004495D02*
X000542Y004495D01*
X000542Y004257D02*
X001022Y004257D01*
X000911Y004018D02*
X000542Y004018D01*
X000542Y003780D02*
X000892Y003780D01*
X000892Y003541D02*
X000542Y003541D01*
X000542Y003303D02*
X000892Y003303D01*
X000892Y003064D02*
X000542Y003064D01*
X000542Y002826D02*
X000928Y002826D01*
X001064Y002587D02*
X000542Y002587D01*
X002141Y002587D02*
X003024Y002587D01*
X002888Y002826D02*
X002277Y002826D01*
X002312Y003064D02*
X002852Y003064D01*
X002852Y003303D02*
X002312Y003303D01*
X002312Y003541D02*
X002852Y003541D01*
X002852Y003780D02*
X002312Y003780D01*
X002294Y004018D02*
X002871Y004018D01*
X002982Y004257D02*
X002182Y004257D01*
X004142Y004257D02*
X004962Y004257D01*
X004851Y004018D02*
X004254Y004018D01*
X004272Y003780D02*
X004832Y003780D01*
X004832Y003541D02*
X004272Y003541D01*
X004272Y003303D02*
X004832Y003303D01*
X004832Y003064D02*
X004272Y003064D01*
X004237Y002826D02*
X004868Y002826D01*
X005004Y002587D02*
X004101Y002587D01*
X006081Y002587D02*
X007106Y002587D01*
X006935Y002826D02*
X006217Y002826D01*
X006252Y003064D02*
X006892Y003064D01*
X006892Y003303D02*
X006252Y003303D01*
X006252Y003541D02*
X006892Y003541D01*
X006892Y003453D02*
X007492Y003453D01*
X007492Y004443D01*
X007454Y004443D01*
X007360Y004428D01*
X007268Y004398D01*
X007183Y004354D01*
X007105Y004298D01*
X007037Y004230D01*
X006981Y004152D01*
X006937Y004067D01*
X006907Y003976D01*
X006892Y003881D01*
X006892Y003453D01*
X007492Y003541D02*
X007512Y003541D01*
X007492Y003780D02*
X007512Y003780D01*
X007492Y004018D02*
X007512Y004018D01*
X007492Y004257D02*
X007512Y004257D01*
X007941Y004257D02*
X011527Y004257D01*
X009315Y004018D02*
X008084Y004018D01*
X008112Y003780D02*
X009204Y003780D01*
X009204Y003541D02*
X008112Y003541D01*
X008112Y003303D02*
X009329Y003303D01*
X008112Y003064D02*
X011744Y003064D01*
X011054Y002110D02*
X010020Y002110D01*
X010259Y001871D02*
X010827Y001871D01*
X010827Y001633D02*
X010264Y001633D01*
X010190Y001394D02*
X010884Y001394D01*
X007512Y002587D02*
X007492Y002587D01*
X007492Y002826D02*
X007512Y002826D01*
X007492Y003064D02*
X007512Y003064D01*
X007492Y003303D02*
X007512Y003303D01*
X006892Y003780D02*
X006252Y003780D01*
X006234Y004018D02*
X006921Y004018D01*
X007064Y004257D02*
X006122Y004257D01*
X012096Y007667D02*
X012096Y007667D01*
X012096Y007668D02*
X012096Y008167D01*
X012096Y008667D01*
X012096Y008667D01*
X012097Y008667D01*
X012097Y008167D01*
X012097Y007668D01*
X012096Y007668D01*
X012096Y007835D02*
X012097Y007835D01*
X012096Y008073D02*
X012097Y008073D01*
X012097Y008167D02*
X012304Y008167D01*
X012437Y008034D01*
X012517Y008067D01*
X012648Y008067D01*
X012748Y008167D01*
X012526Y008389D01*
X012304Y008167D01*
X012097Y008167D01*
X012096Y008312D02*
X012097Y008312D01*
X012096Y008551D02*
X012097Y008551D01*
X012096Y008668D02*
X012096Y009167D01*
X012096Y009667D01*
X012096Y009667D01*
X012097Y009667D01*
X012097Y009167D01*
X012097Y008668D01*
X012096Y008668D01*
X012096Y008789D02*
X012097Y008789D01*
X012096Y009028D02*
X012097Y009028D01*
X012097Y009167D02*
X012304Y009167D01*
X012526Y008945D01*
X012748Y009167D01*
X012526Y009389D01*
X012304Y009167D01*
X012097Y009167D01*
X012096Y009266D02*
X012097Y009266D01*
X012096Y009505D02*
X012097Y009505D01*
X012403Y009266D02*
X012649Y009266D01*
X012609Y009028D02*
X012443Y009028D01*
X012449Y008312D02*
X012603Y008312D01*
X012654Y008073D02*
X012397Y008073D01*
X005842Y010797D02*
X005842Y012056D01*
X005797Y012037D01*
X005646Y012037D01*
X005490Y012037D01*
X005299Y011846D01*
X005507Y011639D01*
X005507Y011417D01*
X004972Y011417D01*
X004972Y011417D01*
X005507Y011417D01*
X005507Y011196D01*
X005299Y010988D01*
X005490Y010797D01*
X005842Y010797D01*
X005842Y010936D02*
X005351Y010936D01*
X005486Y011175D02*
X005842Y011175D01*
X005842Y011413D02*
X005507Y011413D01*
X005494Y011652D02*
X005842Y011652D01*
X005842Y011890D02*
X005343Y011890D01*
X004509Y009982D02*
X004352Y009982D01*
X004352Y009743D02*
X004541Y009743D01*
X003532Y015468D02*
X002892Y015468D01*
X011096Y016917D02*
X011096Y016917D01*
X023218Y015230D02*
X023284Y015230D01*
X027478Y014753D02*
X027827Y014753D01*
X027827Y014514D02*
X027799Y014514D01*
X037479Y010936D02*
X038045Y010936D01*
X037807Y010697D02*
X037412Y010697D01*
X037412Y010459D02*
X037767Y010459D01*
X037767Y010220D02*
X037412Y010220D01*
X038167Y014753D02*
X038384Y014753D01*
D30*
X033909Y012749D02*
X033909Y012742D01*
X032309Y012742D01*
X032309Y017667D01*
X032159Y017667D01*
X036659Y017667D02*
X036659Y012421D01*
X036659Y010413D02*
X036659Y009792D01*
X036597Y009792D01*
X033909Y009792D01*
X033909Y009835D01*
X024347Y005417D02*
X022847Y005417D01*
X024347Y005417D02*
X024347Y001417D01*
X011347Y001417D01*
X014222Y002517D02*
X016847Y002517D01*
X016847Y002417D01*
X016697Y002417D01*
X014222Y002517D02*
X014222Y003517D01*
X012097Y003517D01*
X012097Y003667D01*
X012097Y004605D01*
X012097Y005667D01*
X012097Y006667D01*
X012097Y007667D02*
X012097Y008667D01*
X012097Y009667D01*
X012097Y004667D02*
X012097Y004605D01*
X012097Y004617D02*
X012097Y004667D01*
X032109Y002292D02*
X032159Y002292D01*
X032159Y001842D01*
X035509Y001842D01*
X035509Y001855D01*
X035528Y001855D01*
X032109Y002142D02*
X032109Y002292D01*
X036659Y017667D02*
X038409Y017667D01*
D31*
X013722Y005667D02*
X013722Y004917D01*
X021722Y004917D01*
X021722Y003417D01*
X022847Y003417D01*
X021222Y003917D02*
X021222Y002417D01*
X022847Y002417D01*
X021222Y003917D02*
X013097Y003917D01*
X013097Y004667D01*
X013097Y005667D02*
X013722Y005667D01*
X009222Y006167D02*
X009222Y007787D01*
X006722Y007787D02*
X006722Y007917D01*
X003972Y007917D01*
X003972Y010417D01*
X004972Y010417D01*
X006222Y010417D01*
X006222Y012167D01*
X008222Y012167D01*
X008222Y011547D01*
X008722Y011547D02*
X008722Y012417D01*
X005972Y012417D01*
X005972Y011417D01*
X004972Y011417D01*
X001972Y011417D01*
X001972Y012167D02*
X001222Y012167D01*
X001222Y006167D01*
X009222Y006167D01*
X005972Y008417D02*
X004972Y008417D01*
X005972Y008417D02*
X005972Y008917D01*
X006722Y008917D01*
X006722Y011547D01*
X007722Y011547D02*
X007722Y010417D01*
X008722Y010417D01*
X009222Y011547D02*
X009222Y012917D01*
X005722Y012917D01*
X005722Y012417D01*
X004972Y012417D01*
X004972Y013417D02*
X009722Y013417D01*
X009722Y011547D01*
X010222Y011547D02*
X010222Y013667D01*
X006472Y013667D01*
X006472Y014417D01*
X001972Y013417D02*
X001972Y012417D01*
X001972Y012167D01*
X002472Y007917D02*
X002472Y007417D01*
X001972Y007417D01*
X002472Y007917D02*
X003972Y007917D01*
X011347Y001417D02*
X011347Y001417D01*
X011472Y001417D01*
D32*
X012097Y005667D02*
X012097Y005667D01*
X012097Y006667D02*
X012097Y006667D01*
X026972Y013167D02*
X028347Y013167D01*
X028347Y009967D01*
X028347Y008417D01*
X028347Y009967D02*
X033697Y009967D01*
X028347Y013167D02*
X028347Y017167D01*
X027922Y017167D01*
X027922Y017042D02*
X028040Y017042D01*
X028040Y017917D01*
X028040Y017980D01*
X030034Y017980D01*
X027922Y017042D02*
X027790Y017042D01*
X026597Y017042D02*
X026522Y017042D01*
D33*
X019597Y014417D02*
X017972Y014417D01*
X019597Y014417D02*
X019597Y005917D01*
X017847Y005917D01*
X013847Y005917D01*
X013847Y006667D01*
X013097Y006667D01*
X014472Y006417D02*
X016847Y006417D01*
X015847Y006917D02*
X017847Y006917D01*
X018847Y006917D01*
X018847Y009917D01*
X018847Y009917D01*
X018847Y013417D01*
X016847Y012417D02*
X012097Y012417D01*
X012097Y010667D01*
X013097Y010667D02*
X013847Y010667D01*
X013847Y011417D01*
X016847Y011417D01*
X016847Y010417D02*
X014347Y010417D01*
X014347Y009667D01*
X013097Y009667D01*
X013097Y007667D02*
X012597Y007667D01*
X013097Y007667D02*
X015847Y007667D01*
X015847Y006917D01*
X014472Y007167D02*
X014472Y006417D01*
X014472Y007167D02*
X009722Y007167D01*
X009722Y007787D01*
D34*
X010222Y007787D02*
X010222Y010917D01*
X010472Y010917D01*
X011222Y011667D01*
X011222Y015417D01*
X007972Y015417D01*
X006972Y016417D01*
X004222Y016417D01*
X003722Y015917D01*
X016972Y014917D02*
X016972Y013417D01*
X016847Y013417D01*
X017847Y013417D02*
X017972Y013417D01*
X017972Y014417D01*
X016972Y014917D02*
X022972Y014917D01*
X025722Y012167D01*
X026972Y012167D01*
X025472Y010917D02*
X025472Y007417D01*
X026972Y007417D01*
X025972Y005667D02*
X024972Y006917D01*
X021472Y006917D01*
X021472Y010417D01*
X022847Y010417D01*
X022847Y009417D02*
X022972Y009417D01*
X026222Y006167D01*
X032222Y006167D01*
X032972Y006917D01*
X033347Y006917D01*
X034903Y006917D01*
X035790Y006917D02*
X037347Y006917D01*
X037347Y005667D02*
X037222Y005667D01*
X035972Y005667D01*
X035790Y005667D01*
X035722Y005667D01*
X035722Y004667D01*
X029847Y004667D01*
X033347Y005667D02*
X033472Y005667D01*
X025972Y005667D01*
X022847Y006417D02*
X021722Y006417D01*
X021722Y005417D01*
X022722Y004417D01*
X022847Y004417D01*
X033472Y005667D02*
X034722Y005667D01*
X034903Y005667D01*
X025472Y010917D02*
X022972Y013417D01*
X022847Y013417D01*
X020722Y011667D02*
X020722Y010917D01*
X021222Y011417D01*
X022847Y011417D01*
X020722Y010917D02*
X020722Y010111D01*
D35*
X026972Y008417D02*
X028347Y008417D01*
X033697Y009835D02*
X033697Y009967D01*
X033697Y009835D02*
X033909Y009835D01*
X033909Y009792D02*
X033909Y009567D01*
X034497Y009567D01*
X036597Y009667D02*
X036597Y009792D01*
X036597Y009667D02*
X038347Y009667D01*
X038347Y010417D01*
X038347Y010367D01*
X038297Y010367D01*
X027922Y017042D02*
X027922Y017167D01*
M02*
