%
M48
M72
T01C0.0320
T02C0.0360
T03C0.0400
T04C0.0440
T05C0.0520
T06C0.1220
%
T01
X9784Y1667
X9784Y3667
X4972Y7417
X4972Y8417
X4972Y9417
X4972Y10417
X4972Y11417
X4972Y12417
X4972Y13417
X4972Y14417
X6472Y15917
X8722Y15917
X8722Y17917
X2472Y15917
X1972Y14417
X1972Y13417
X1972Y12417
X1972Y11417
X1972Y10417
X1972Y9417
X1972Y8417
X1972Y7417
X15347Y16217
X15347Y17617
X26522Y17042
X27922Y17042
X38347Y12417
X38347Y10417
X37347Y6917
X37347Y5667
X33347Y5667
X33347Y6917
X26597Y3617
X26597Y2217
X20722Y7667
X20722Y11667
T02
X22847Y11417
X22847Y10417
X22847Y9417
X22847Y8417
X22847Y7417
X22847Y6417
X22847Y5417
X22847Y4417
X22847Y3417
X22847Y2417
X16847Y2417
X16847Y3417
X16847Y4417
X16847Y5417
X16847Y6417
X16847Y7417
X16847Y8417
X16847Y9417
X16847Y10417
X16847Y11417
X16847Y12417
X16847Y13417
X13097Y10667
X12097Y10667
X12097Y9667
X13097Y9667
X13097Y8667
X12097Y8667
X12097Y7667
X13097Y7667
X13097Y6667
X12097Y6667
X12097Y5667
X13097Y5667
X13097Y4667
X12097Y4667
X22847Y12417
X22847Y13417
T03
X18847Y13417
X17847Y13417
X13347Y14667
X11097Y15917
X11097Y16917
X11097Y17917
X19034Y17792
X19034Y16792
X19034Y15792
X21097Y16167
X23847Y15792
X23847Y16792
X23847Y17792
X30034Y17980
X29847Y14067
X29847Y13167
X29847Y12267
X29847Y10917
X26972Y12167
X26972Y13167
X26972Y14167
X26972Y9417
X26972Y8417
X26972Y7417
X29847Y7667
X29847Y6767
X29847Y8567
X29847Y4667
X29097Y1667
X20847Y6167
X17847Y5917
X17847Y6917
X11347Y1667
T04
X32159Y2292
X38409Y2292
X38409Y17667
X32159Y17667
T05
X1602Y3443
X3562Y3443
X5542Y3443
X7502Y3443
T06
X1672Y17117
X35359Y17367
X35354Y3492
M30
