G75*
G70*
%OFA0B0*%
%FSLAX24Y24*%
%IPPOS*%
%LPD*%
%AMOC8*
5,1,8,0,0,1.08239X$1,22.5*
%
%ADD10C,0.0000*%
D10*
X000222Y000917D02*
X000222Y018667D01*
X039772Y018667D01*
X039772Y000917D01*
X000222Y000917D01*
X001062Y017117D02*
X001064Y017166D01*
X001070Y017215D01*
X001080Y017263D01*
X001093Y017310D01*
X001111Y017356D01*
X001132Y017400D01*
X001156Y017443D01*
X001184Y017483D01*
X001215Y017522D01*
X001249Y017557D01*
X001286Y017590D01*
X001325Y017619D01*
X001367Y017645D01*
X001410Y017668D01*
X001456Y017687D01*
X001502Y017703D01*
X001550Y017715D01*
X001598Y017723D01*
X001647Y017727D01*
X001697Y017727D01*
X001746Y017723D01*
X001794Y017715D01*
X001842Y017703D01*
X001888Y017687D01*
X001934Y017668D01*
X001977Y017645D01*
X002019Y017619D01*
X002058Y017590D01*
X002095Y017557D01*
X002129Y017522D01*
X002160Y017483D01*
X002188Y017443D01*
X002212Y017400D01*
X002233Y017356D01*
X002251Y017310D01*
X002264Y017263D01*
X002274Y017215D01*
X002280Y017166D01*
X002282Y017117D01*
X002280Y017068D01*
X002274Y017019D01*
X002264Y016971D01*
X002251Y016924D01*
X002233Y016878D01*
X002212Y016834D01*
X002188Y016791D01*
X002160Y016751D01*
X002129Y016712D01*
X002095Y016677D01*
X002058Y016644D01*
X002019Y016615D01*
X001977Y016589D01*
X001934Y016566D01*
X001888Y016547D01*
X001842Y016531D01*
X001794Y016519D01*
X001746Y016511D01*
X001697Y016507D01*
X001647Y016507D01*
X001598Y016511D01*
X001550Y016519D01*
X001502Y016531D01*
X001456Y016547D01*
X001410Y016566D01*
X001367Y016589D01*
X001325Y016615D01*
X001286Y016644D01*
X001249Y016677D01*
X001215Y016712D01*
X001184Y016751D01*
X001156Y016791D01*
X001132Y016834D01*
X001111Y016878D01*
X001093Y016924D01*
X001080Y016971D01*
X001070Y017019D01*
X001064Y017068D01*
X001062Y017117D01*
X034749Y017367D02*
X034751Y017416D01*
X034757Y017465D01*
X034767Y017513D01*
X034780Y017560D01*
X034798Y017606D01*
X034819Y017650D01*
X034843Y017693D01*
X034871Y017733D01*
X034902Y017772D01*
X034936Y017807D01*
X034973Y017840D01*
X035012Y017869D01*
X035054Y017895D01*
X035097Y017918D01*
X035143Y017937D01*
X035189Y017953D01*
X035237Y017965D01*
X035285Y017973D01*
X035334Y017977D01*
X035384Y017977D01*
X035433Y017973D01*
X035481Y017965D01*
X035529Y017953D01*
X035575Y017937D01*
X035621Y017918D01*
X035664Y017895D01*
X035706Y017869D01*
X035745Y017840D01*
X035782Y017807D01*
X035816Y017772D01*
X035847Y017733D01*
X035875Y017693D01*
X035899Y017650D01*
X035920Y017606D01*
X035938Y017560D01*
X035951Y017513D01*
X035961Y017465D01*
X035967Y017416D01*
X035969Y017367D01*
X035967Y017318D01*
X035961Y017269D01*
X035951Y017221D01*
X035938Y017174D01*
X035920Y017128D01*
X035899Y017084D01*
X035875Y017041D01*
X035847Y017001D01*
X035816Y016962D01*
X035782Y016927D01*
X035745Y016894D01*
X035706Y016865D01*
X035664Y016839D01*
X035621Y016816D01*
X035575Y016797D01*
X035529Y016781D01*
X035481Y016769D01*
X035433Y016761D01*
X035384Y016757D01*
X035334Y016757D01*
X035285Y016761D01*
X035237Y016769D01*
X035189Y016781D01*
X035143Y016797D01*
X035097Y016816D01*
X035054Y016839D01*
X035012Y016865D01*
X034973Y016894D01*
X034936Y016927D01*
X034902Y016962D01*
X034871Y017001D01*
X034843Y017041D01*
X034819Y017084D01*
X034798Y017128D01*
X034780Y017174D01*
X034767Y017221D01*
X034757Y017269D01*
X034751Y017318D01*
X034749Y017367D01*
X034744Y003492D02*
X034746Y003541D01*
X034752Y003590D01*
X034762Y003638D01*
X034775Y003685D01*
X034793Y003731D01*
X034814Y003775D01*
X034838Y003818D01*
X034866Y003858D01*
X034897Y003897D01*
X034931Y003932D01*
X034968Y003965D01*
X035007Y003994D01*
X035049Y004020D01*
X035092Y004043D01*
X035138Y004062D01*
X035184Y004078D01*
X035232Y004090D01*
X035280Y004098D01*
X035329Y004102D01*
X035379Y004102D01*
X035428Y004098D01*
X035476Y004090D01*
X035524Y004078D01*
X035570Y004062D01*
X035616Y004043D01*
X035659Y004020D01*
X035701Y003994D01*
X035740Y003965D01*
X035777Y003932D01*
X035811Y003897D01*
X035842Y003858D01*
X035870Y003818D01*
X035894Y003775D01*
X035915Y003731D01*
X035933Y003685D01*
X035946Y003638D01*
X035956Y003590D01*
X035962Y003541D01*
X035964Y003492D01*
X035962Y003443D01*
X035956Y003394D01*
X035946Y003346D01*
X035933Y003299D01*
X035915Y003253D01*
X035894Y003209D01*
X035870Y003166D01*
X035842Y003126D01*
X035811Y003087D01*
X035777Y003052D01*
X035740Y003019D01*
X035701Y002990D01*
X035659Y002964D01*
X035616Y002941D01*
X035570Y002922D01*
X035524Y002906D01*
X035476Y002894D01*
X035428Y002886D01*
X035379Y002882D01*
X035329Y002882D01*
X035280Y002886D01*
X035232Y002894D01*
X035184Y002906D01*
X035138Y002922D01*
X035092Y002941D01*
X035049Y002964D01*
X035007Y002990D01*
X034968Y003019D01*
X034931Y003052D01*
X034897Y003087D01*
X034866Y003126D01*
X034838Y003166D01*
X034814Y003209D01*
X034793Y003253D01*
X034775Y003299D01*
X034762Y003346D01*
X034752Y003394D01*
X034746Y003443D01*
X034744Y003492D01*
M02*
