G75*
G70*
%OFA0B0*%
%FSLAX24Y24*%
%IPPOS*%
%LPD*%
%AMOC8*
5,1,8,0,0,1.08239X$1,22.5*
%
%ADD10C,0.0050*%
%ADD11C,0.0060*%
%ADD12C,0.0100*%
%ADD13C,0.0120*%
%ADD14C,0.0030*%
%ADD15OC8,0.0560*%
%ADD16OC8,0.1500*%
%ADD17C,0.0600*%
%ADD18C,0.0394*%
%ADD19C,0.0780*%
%ADD20C,0.0560*%
%ADD21OC8,0.0630*%
%ADD22C,0.0630*%
%ADD23OC8,0.0600*%
%ADD24OC8,0.0520*%
%ADD25C,0.0200*%
%ADD26C,0.0240*%
%ADD27C,0.0500*%
%ADD28C,0.0150*%
D10*
X014247Y014442D02*
X014247Y014792D01*
X014247Y014617D02*
X014480Y014617D01*
X014480Y014792D02*
X014480Y014442D01*
X014615Y014442D02*
X014849Y014442D01*
X014615Y014442D02*
X014615Y014501D01*
X014849Y014734D01*
X014849Y014792D01*
X014615Y014792D01*
X013099Y016192D02*
X012865Y016542D01*
X012730Y016542D02*
X012730Y016192D01*
X012865Y016192D02*
X013099Y016542D01*
X012730Y016367D02*
X012497Y016367D01*
X012497Y016192D02*
X012497Y016542D01*
D11*
X020501Y016947D02*
X020942Y016947D01*
X020722Y016947D02*
X020722Y017241D01*
X020942Y017241D02*
X020501Y017241D01*
X020501Y017408D02*
X020575Y017408D01*
X020722Y017554D01*
X020942Y017554D01*
X020722Y017554D02*
X020575Y017701D01*
X020501Y017701D01*
X021251Y017701D02*
X021251Y017408D01*
X021692Y017408D01*
X021692Y017701D01*
X021692Y017868D02*
X021251Y017868D01*
X021251Y018088D01*
X021325Y018161D01*
X021618Y018161D01*
X021692Y018088D01*
X021692Y017868D01*
X021472Y017554D02*
X021472Y017408D01*
X021692Y017241D02*
X021692Y016947D01*
X021251Y016947D01*
X026575Y011388D02*
X026502Y011314D01*
X026502Y011241D01*
X026575Y011167D01*
X026722Y011167D01*
X026795Y011094D01*
X026795Y011021D01*
X026722Y010947D01*
X026575Y010947D01*
X026502Y011021D01*
X026962Y011021D02*
X026962Y010947D01*
X027256Y010947D01*
X026962Y011021D02*
X027256Y011314D01*
X027256Y011388D01*
X026962Y011388D01*
X026795Y011314D02*
X026722Y011388D01*
X026575Y011388D01*
X026575Y006638D02*
X026502Y006564D01*
X026502Y006491D01*
X026575Y006417D01*
X026722Y006417D01*
X026795Y006344D01*
X026795Y006271D01*
X026722Y006197D01*
X026575Y006197D01*
X026502Y006271D01*
X026795Y006564D02*
X026722Y006638D01*
X026575Y006638D01*
X026962Y006638D02*
X026962Y006564D01*
X027109Y006417D01*
X027109Y006197D01*
X027109Y006417D02*
X027256Y006564D01*
X027256Y006638D01*
D12*
X006291Y018067D02*
X006191Y018167D01*
X006241Y018167D02*
X006091Y018167D01*
X006091Y018067D02*
X006091Y018367D01*
X006241Y018367D01*
X006291Y018317D01*
X006291Y018217D01*
X006241Y018167D01*
X005923Y018067D02*
X005723Y018067D01*
X005723Y018367D01*
X005923Y018367D01*
X005823Y018217D02*
X005723Y018217D01*
X005554Y018217D02*
X005554Y018317D01*
X005504Y018367D01*
X005354Y018367D01*
X005354Y018067D01*
X005354Y018167D02*
X005504Y018167D01*
X005554Y018217D01*
X005186Y018217D02*
X005186Y018317D01*
X005136Y018367D01*
X004986Y018367D01*
X004986Y018067D01*
X004986Y018167D02*
X005136Y018167D01*
X005186Y018217D01*
X004818Y018117D02*
X004818Y018317D01*
X004768Y018367D01*
X004668Y018367D01*
X004618Y018317D01*
X004618Y018117D01*
X004668Y018067D01*
X004768Y018067D01*
X004818Y018117D01*
X004449Y018117D02*
X004399Y018067D01*
X004299Y018067D01*
X004249Y018117D01*
X004249Y018317D01*
X004299Y018367D01*
X004399Y018367D01*
X004449Y018317D01*
X003713Y018317D02*
X003713Y018217D01*
X003663Y018167D01*
X003513Y018167D01*
X003513Y018067D02*
X003513Y018367D01*
X003663Y018367D01*
X003713Y018317D01*
X003345Y018317D02*
X003345Y018117D01*
X003295Y018067D01*
X003194Y018067D01*
X003144Y018117D01*
X003144Y018317D01*
X003194Y018367D01*
X003295Y018367D01*
X003345Y018317D01*
X002976Y018367D02*
X002776Y018367D01*
X002876Y018367D02*
X002876Y018067D01*
D13*
X005969Y013583D02*
X006209Y013583D01*
X006289Y013502D01*
X006289Y013422D01*
X006209Y013342D01*
X005969Y013342D01*
X005969Y013102D02*
X006209Y013102D01*
X006289Y013182D01*
X006289Y013262D01*
X006209Y013342D01*
X006522Y013342D02*
X006842Y013342D01*
X006842Y013422D02*
X006842Y013102D01*
X007074Y013102D02*
X007074Y013583D01*
X007314Y013583D01*
X007394Y013502D01*
X007394Y013342D01*
X007314Y013262D01*
X007074Y013262D01*
X007234Y013262D02*
X007394Y013102D01*
X007626Y013182D02*
X007707Y013102D01*
X007867Y013102D01*
X007947Y013182D01*
X007947Y013502D01*
X007867Y013583D01*
X007707Y013583D01*
X007626Y013502D01*
X007626Y013182D01*
X008179Y013102D02*
X008419Y013102D01*
X008499Y013182D01*
X008499Y013262D01*
X008419Y013342D01*
X008179Y013342D01*
X008179Y013102D02*
X008179Y013583D01*
X008419Y013583D01*
X008499Y013502D01*
X008499Y013422D01*
X008419Y013342D01*
X008731Y013182D02*
X008811Y013102D01*
X008972Y013102D01*
X009052Y013182D01*
X009052Y013502D01*
X008972Y013583D01*
X008811Y013583D01*
X008731Y013502D01*
X008731Y013182D01*
X009284Y013583D02*
X009604Y013583D01*
X009444Y013583D02*
X009444Y013102D01*
X010389Y013102D02*
X010709Y013102D01*
X010549Y013102D02*
X010549Y013583D01*
X010389Y013422D01*
X010941Y013182D02*
X011021Y013182D01*
X011021Y013102D01*
X010941Y013102D01*
X010941Y013182D01*
X011217Y013102D02*
X011538Y013422D01*
X011538Y013502D01*
X011458Y013583D01*
X011297Y013583D01*
X011217Y013502D01*
X011217Y013102D02*
X011538Y013102D01*
X006842Y013422D02*
X006682Y013583D01*
X006522Y013422D01*
X006522Y013102D01*
X005969Y013102D02*
X005969Y013583D01*
X004972Y012417D02*
X003222Y012417D01*
X003222Y003667D01*
X003472Y003667D01*
X003472Y003443D01*
X003562Y003443D01*
X004472Y009417D02*
X004472Y011417D01*
X004972Y011417D01*
X004972Y009417D02*
X004472Y009417D01*
D14*
X000860Y007552D02*
X000737Y007429D01*
X000860Y007552D02*
X000860Y007182D01*
X000737Y007182D02*
X000984Y007182D01*
D15*
X012097Y007667D03*
X013097Y007667D03*
X013097Y006667D03*
X012097Y006667D03*
X012097Y005667D03*
X013097Y005667D03*
X013097Y004667D03*
X012097Y004667D03*
X012097Y008667D03*
X013097Y008667D03*
X013097Y009667D03*
X012097Y009667D03*
X012097Y010667D03*
X013097Y010667D03*
D16*
X032159Y017667D03*
X038409Y017667D03*
X038409Y002292D03*
X032159Y002292D03*
D17*
X030147Y006767D02*
X029547Y006767D01*
X029547Y007667D02*
X030147Y007667D01*
X030147Y008567D02*
X029547Y008567D01*
X027272Y008417D02*
X026672Y008417D01*
X026672Y007417D02*
X027272Y007417D01*
X027272Y009417D02*
X026672Y009417D01*
X026672Y012167D02*
X027272Y012167D01*
X027272Y013167D02*
X026672Y013167D01*
X026672Y014167D02*
X027272Y014167D01*
X029547Y014067D02*
X030147Y014067D01*
X030147Y013167D02*
X029547Y013167D01*
X029547Y012267D02*
X030147Y012267D01*
X024147Y015792D02*
X023547Y015792D01*
X023547Y016792D02*
X024147Y016792D01*
X024147Y017792D02*
X023547Y017792D01*
X019334Y017792D02*
X018734Y017792D01*
X018734Y016792D02*
X019334Y016792D01*
X019334Y015792D02*
X018734Y015792D01*
X018847Y013717D02*
X018847Y013117D01*
X017847Y013117D02*
X017847Y013717D01*
X011397Y015917D02*
X010797Y015917D01*
X010797Y016917D02*
X011397Y016917D01*
X011397Y017917D02*
X010797Y017917D01*
D18*
X004472Y017417D03*
X038659Y003667D03*
D19*
X007502Y003833D02*
X007502Y003053D01*
X005542Y003053D02*
X005542Y003833D01*
X003562Y003833D02*
X003562Y003053D01*
X001602Y003053D02*
X001602Y003833D01*
D20*
X016567Y003417D02*
X017127Y003417D01*
X017127Y002417D02*
X016567Y002417D01*
X016567Y004417D02*
X017127Y004417D01*
X017127Y005417D02*
X016567Y005417D01*
X016567Y006417D02*
X017127Y006417D01*
X017127Y007417D02*
X016567Y007417D01*
X016567Y008417D02*
X017127Y008417D01*
X017127Y009417D02*
X016567Y009417D01*
X016567Y010417D02*
X017127Y010417D01*
X017127Y011417D02*
X016567Y011417D01*
X016567Y012417D02*
X017127Y012417D01*
X017127Y013417D02*
X016567Y013417D01*
X022567Y013417D02*
X023127Y013417D01*
X023127Y012417D02*
X022567Y012417D01*
X022567Y011417D02*
X023127Y011417D01*
X023127Y010417D02*
X022567Y010417D01*
X022567Y009417D02*
X023127Y009417D01*
X023127Y008417D02*
X022567Y008417D01*
X022567Y007417D02*
X023127Y007417D01*
X023127Y006417D02*
X022567Y006417D01*
X022567Y005417D02*
X023127Y005417D01*
X023127Y004417D02*
X022567Y004417D01*
X022567Y003417D02*
X023127Y003417D01*
X023127Y002417D02*
X022567Y002417D01*
D21*
X026597Y003617D03*
X004972Y007417D03*
X004972Y008417D03*
X004972Y009417D03*
X004972Y010417D03*
X004972Y011417D03*
X004972Y012417D03*
X004972Y013417D03*
X004972Y014417D03*
X001972Y014417D03*
X001972Y013417D03*
X001972Y012417D03*
X001972Y011417D03*
X001972Y010417D03*
X001972Y009417D03*
X001972Y008417D03*
X001972Y007417D03*
X015347Y016217D03*
X026522Y017042D03*
D22*
X027922Y017042D03*
X015347Y017617D03*
X026597Y002217D03*
D23*
X029097Y001667D03*
X029847Y004667D03*
X020847Y006167D03*
X017847Y005917D03*
X017847Y006917D03*
X011347Y001667D03*
X029847Y010917D03*
X021097Y016167D03*
X013347Y014667D03*
X030034Y017980D03*
D24*
X038347Y012417D03*
X038347Y010417D03*
X037347Y006917D03*
X037347Y005667D03*
X033347Y005667D03*
X033347Y006917D03*
X020722Y007667D03*
X020722Y011667D03*
X008722Y015917D03*
X006472Y015917D03*
X002472Y015917D03*
X008722Y017917D03*
X009784Y003667D03*
X009784Y001667D03*
D25*
X009722Y003667D02*
X009784Y003667D01*
X009722Y003667D02*
X009722Y006667D01*
X004972Y006667D01*
X004972Y007417D01*
X004972Y008417D01*
X001972Y007417D02*
X001972Y003443D01*
X002722Y001667D02*
X002722Y013417D01*
X004972Y013417D01*
X008722Y017917D02*
X011097Y017917D01*
X015222Y017917D01*
X015222Y017717D01*
X015422Y017717D01*
X015422Y017617D01*
X015347Y017617D01*
X015272Y017917D02*
X015222Y017917D01*
X019034Y017917D02*
X019034Y017792D01*
X019034Y017917D02*
X019972Y017917D01*
X019972Y012417D01*
X019722Y012417D01*
X019722Y007667D01*
X020722Y007667D01*
X019722Y007667D02*
X019722Y005417D01*
X016847Y005417D01*
X016847Y005517D01*
X005542Y003443D02*
X005542Y003417D01*
X005472Y003417D01*
X005472Y001667D01*
X002722Y001667D01*
X020722Y011667D02*
X020722Y015917D01*
X020972Y015917D01*
X020972Y016167D01*
X021097Y016167D01*
X023847Y017792D02*
X023847Y017917D01*
X021972Y017917D01*
X021972Y012417D01*
X022847Y012417D01*
X011097Y017917D02*
X011097Y018167D01*
D26*
X000542Y006903D02*
X000542Y001237D01*
X009535Y001237D01*
X009304Y001468D01*
X009304Y001667D01*
X009784Y001667D01*
X009784Y001667D01*
X009304Y001667D01*
X009304Y001866D01*
X009585Y002147D01*
X009784Y002147D01*
X009784Y001668D01*
X009784Y001668D01*
X009784Y002147D01*
X009983Y002147D01*
X010264Y001866D01*
X010264Y001667D01*
X009785Y001667D01*
X009785Y001667D01*
X010264Y001667D01*
X010264Y001468D01*
X010033Y001237D01*
X011041Y001237D01*
X010827Y001452D01*
X010827Y001667D01*
X011346Y001667D01*
X011346Y001667D01*
X010827Y001667D01*
X010827Y001883D01*
X011131Y002187D01*
X011346Y002187D01*
X011346Y001668D01*
X011347Y001668D01*
X011347Y002187D01*
X011562Y002187D01*
X011867Y001883D01*
X011867Y001667D01*
X011347Y001667D01*
X011347Y001667D01*
X011867Y001667D01*
X011867Y001452D01*
X011652Y001237D01*
X016304Y001237D01*
X016277Y001304D01*
X016277Y001531D01*
X016277Y001888D01*
X016227Y001909D01*
X016058Y002077D01*
X015967Y002298D01*
X015967Y002536D01*
X016058Y002757D01*
X016218Y002917D01*
X016058Y003077D01*
X015967Y003298D01*
X015967Y003536D01*
X016058Y003757D01*
X016218Y003917D01*
X016058Y004077D01*
X015967Y004298D01*
X015967Y004522D01*
X015050Y004522D01*
X014893Y004522D01*
X014748Y004582D01*
X014637Y004693D01*
X014577Y004839D01*
X014577Y006519D01*
X013697Y007525D01*
X013697Y007419D01*
X013445Y007167D01*
X013697Y006916D01*
X013697Y006419D01*
X013445Y006167D01*
X013697Y005916D01*
X013697Y005419D01*
X013445Y005167D01*
X013697Y004916D01*
X013697Y004419D01*
X013345Y004067D01*
X012848Y004067D01*
X012621Y004294D01*
X012580Y004194D01*
X012420Y004034D01*
X012210Y003947D01*
X011983Y003947D01*
X011774Y004034D01*
X011614Y004194D01*
X011537Y004378D01*
X011497Y004419D01*
X011497Y004916D01*
X011527Y004946D01*
X011527Y005389D01*
X011497Y005419D01*
X011497Y005916D01*
X011527Y005946D01*
X011527Y006389D01*
X011497Y006419D01*
X011497Y006916D01*
X011608Y007027D01*
X011613Y007040D01*
X011774Y007200D01*
X011787Y007206D01*
X011819Y007238D01*
X011597Y007460D01*
X011597Y007667D01*
X012096Y007667D01*
X012096Y007667D01*
X011597Y007667D01*
X011597Y007874D01*
X011890Y008167D01*
X012096Y008167D01*
X012096Y007668D01*
X012097Y007668D01*
X012097Y008167D01*
X012304Y008167D01*
X012526Y007945D01*
X012748Y008167D01*
X012526Y008389D01*
X012304Y008167D01*
X012097Y008167D01*
X012097Y008667D01*
X012096Y008667D01*
X011597Y008667D01*
X011597Y008460D01*
X011890Y008167D01*
X012096Y008167D01*
X012096Y008667D01*
X012096Y008667D01*
X011597Y008667D01*
X011597Y008874D01*
X011890Y009167D01*
X012096Y009167D01*
X012096Y008668D01*
X012097Y008668D01*
X012097Y009167D01*
X012304Y009167D01*
X012526Y008945D01*
X012748Y009167D01*
X012526Y009389D01*
X012304Y009167D01*
X012097Y009167D01*
X012097Y009667D01*
X012096Y009667D01*
X011597Y009667D01*
X011597Y009460D01*
X011890Y009167D01*
X012096Y009167D01*
X012096Y009667D01*
X012096Y009667D01*
X011597Y009667D01*
X011597Y009874D01*
X011819Y010096D01*
X011497Y010419D01*
X011497Y010916D01*
X011848Y011267D01*
X012345Y011267D01*
X012597Y011016D01*
X012848Y011267D01*
X013345Y011267D01*
X013697Y010916D01*
X013697Y010419D01*
X013445Y010167D01*
X013697Y009916D01*
X013697Y009419D01*
X013445Y009167D01*
X013697Y008916D01*
X013697Y008724D01*
X014577Y007718D01*
X014577Y011004D01*
X010998Y014582D01*
X010887Y014693D01*
X010827Y014839D01*
X010827Y015297D01*
X010673Y015297D01*
X010446Y015392D01*
X010271Y015566D01*
X010177Y015794D01*
X010177Y016040D01*
X010271Y016268D01*
X010446Y016443D01*
X010522Y016474D01*
X010458Y016521D01*
X010400Y016578D01*
X010352Y016645D01*
X010315Y016718D01*
X010290Y016795D01*
X010277Y016876D01*
X010277Y016917D01*
X011096Y016917D01*
X011096Y016917D01*
X010277Y016917D01*
X010277Y016958D01*
X010290Y017039D01*
X010315Y017117D01*
X010352Y017190D01*
X010400Y017256D01*
X010458Y017314D01*
X010522Y017360D01*
X010446Y017392D01*
X010340Y017497D01*
X009122Y017497D01*
X008962Y017337D01*
X008481Y017337D01*
X008142Y017677D01*
X008142Y018157D01*
X008332Y018347D01*
X006661Y018347D01*
X006661Y018291D01*
X006661Y018144D01*
X006660Y018142D01*
X006661Y018141D01*
X006661Y017994D01*
X006605Y017858D01*
X006501Y017754D01*
X006365Y017697D01*
X006217Y017697D01*
X006191Y017708D01*
X006164Y017697D01*
X006017Y017697D01*
X006007Y017702D01*
X005996Y017697D01*
X005649Y017697D01*
X005538Y017743D01*
X005428Y017697D01*
X005281Y017697D01*
X005170Y017743D01*
X005060Y017697D01*
X004915Y017697D01*
X004989Y017520D01*
X004989Y017314D01*
X004910Y017124D01*
X004764Y016979D01*
X004575Y016900D01*
X004369Y016900D01*
X004179Y016979D01*
X004034Y017124D01*
X003955Y017314D01*
X003955Y017520D01*
X004034Y017710D01*
X004083Y017760D01*
X003936Y017908D01*
X003933Y017914D01*
X003872Y017854D01*
X003873Y017854D02*
X003990Y017854D01*
X003872Y017854D02*
X003787Y017818D01*
X003722Y017754D01*
X003586Y017697D01*
X003439Y017697D01*
X003404Y017712D01*
X003368Y017697D01*
X003221Y017697D01*
X003121Y017697D01*
X003035Y017733D01*
X002950Y017697D01*
X002803Y017697D01*
X002667Y017754D01*
X002563Y017858D01*
X002506Y017994D01*
X002506Y018114D01*
X002462Y018158D01*
X002406Y018294D01*
X002406Y018347D01*
X000542Y018347D01*
X000542Y007708D01*
X000670Y007836D01*
X000670Y007836D01*
X000670Y007836D01*
X000693Y007846D01*
X000793Y007887D01*
X000794Y007887D01*
X000927Y007887D01*
X000979Y007866D01*
X001050Y007836D01*
X001050Y007836D01*
X001050Y007836D01*
X001051Y007835D01*
X001144Y007742D01*
X001144Y007742D01*
X001144Y007742D01*
X001153Y007720D01*
X001195Y007619D01*
X001195Y007619D01*
X001195Y007444D01*
X001268Y007372D01*
X001319Y007249D01*
X001319Y007116D01*
X001268Y006992D01*
X001173Y006898D01*
X001050Y006847D01*
X000670Y006847D01*
X000547Y006898D01*
X000542Y006903D01*
X000542Y006881D02*
X000589Y006881D01*
X000542Y006642D02*
X001552Y006642D01*
X001552Y006881D02*
X001131Y006881D01*
X001319Y007119D02*
X001372Y007119D01*
X001337Y007154D02*
X001552Y006939D01*
X001552Y004543D01*
X001461Y004543D01*
X001200Y004435D01*
X001001Y004235D01*
X000892Y003974D01*
X000892Y002911D01*
X001001Y002651D01*
X001200Y002451D01*
X001461Y002343D01*
X001744Y002343D01*
X002005Y002451D01*
X002204Y002651D01*
X002302Y002886D01*
X002302Y001751D01*
X002302Y001584D01*
X002366Y001429D01*
X002484Y001311D01*
X002638Y001247D01*
X005388Y001247D01*
X005555Y001247D01*
X005710Y001311D01*
X005828Y001429D01*
X005892Y001584D01*
X005892Y002429D01*
X005945Y002451D01*
X006144Y002651D01*
X006252Y002911D01*
X006252Y003974D01*
X006144Y004235D01*
X005945Y004435D01*
X005684Y004543D01*
X005401Y004543D01*
X005140Y004435D01*
X004941Y004235D01*
X004832Y003974D01*
X004832Y002911D01*
X004941Y002651D01*
X005052Y002539D01*
X005052Y002087D01*
X003142Y002087D01*
X003142Y002469D01*
X003160Y002451D01*
X003421Y002343D01*
X003704Y002343D01*
X003965Y002451D01*
X004164Y002651D01*
X004272Y002911D01*
X004272Y003974D01*
X004164Y004235D01*
X003965Y004435D01*
X003704Y004543D01*
X003602Y004543D01*
X003602Y012037D01*
X004454Y012037D01*
X004644Y011846D01*
X004437Y011639D01*
X004437Y011417D01*
X004437Y011196D01*
X004644Y010988D01*
X004337Y010680D01*
X004337Y010154D01*
X004644Y009846D01*
X004437Y009639D01*
X004437Y009417D01*
X004437Y009196D01*
X004644Y008988D01*
X004337Y008680D01*
X004337Y008154D01*
X004552Y007939D01*
X004552Y007895D01*
X004337Y007680D01*
X004337Y007154D01*
X004552Y006939D01*
X004552Y006584D01*
X004616Y006429D01*
X004734Y006311D01*
X004888Y006247D01*
X005055Y006247D01*
X009302Y006247D01*
X009302Y004005D01*
X009204Y003907D01*
X009204Y003427D01*
X009544Y003087D01*
X010024Y003087D01*
X010364Y003427D01*
X010364Y003907D01*
X010142Y004130D01*
X010142Y006584D01*
X010142Y006751D01*
X010078Y006905D01*
X009960Y007023D01*
X009805Y007087D01*
X005548Y007087D01*
X005555Y007094D01*
X005561Y007108D01*
X005607Y007154D01*
X005607Y007219D01*
X005642Y007304D01*
X005642Y007531D01*
X005642Y007631D01*
X005555Y007840D01*
X005424Y007971D01*
X005607Y008154D01*
X005607Y008680D01*
X005299Y008988D01*
X005507Y009196D01*
X005507Y009417D01*
X004972Y009417D01*
X004972Y009417D01*
X005507Y009417D01*
X005507Y009639D01*
X005299Y009846D01*
X005607Y010154D01*
X005607Y010680D01*
X005299Y010988D01*
X005507Y011196D01*
X005507Y011417D01*
X004972Y011417D01*
X004972Y011417D01*
X005507Y011417D01*
X005507Y011639D01*
X005299Y011846D01*
X005607Y012154D01*
X005607Y012680D01*
X005370Y012917D01*
X005589Y013137D01*
X005589Y013027D01*
X005647Y012887D01*
X005754Y012780D01*
X005894Y012722D01*
X006045Y012722D01*
X006285Y012722D01*
X006365Y012756D01*
X006446Y012722D01*
X006597Y012722D01*
X006682Y012757D01*
X006766Y012722D01*
X006917Y012722D01*
X006958Y012739D01*
X006998Y012722D01*
X007150Y012722D01*
X007234Y012757D01*
X007319Y012722D01*
X007470Y012722D01*
X007550Y012756D01*
X007631Y012722D01*
X007791Y012722D01*
X007942Y012722D01*
X008023Y012756D01*
X008103Y012722D01*
X008495Y012722D01*
X008615Y012772D01*
X008736Y012722D01*
X008896Y012722D01*
X009047Y012722D01*
X009187Y012780D01*
X009208Y012801D01*
X009229Y012780D01*
X009368Y012722D01*
X009520Y012722D01*
X009659Y012780D01*
X009766Y012887D01*
X009824Y013027D01*
X009824Y013265D01*
X009926Y013367D01*
X009984Y013507D01*
X009984Y013658D01*
X009926Y013798D01*
X009819Y013905D01*
X009680Y013963D01*
X009208Y013963D01*
X009128Y013929D01*
X009111Y013936D01*
X009047Y013963D01*
X008896Y013963D01*
X008887Y013963D01*
X008736Y013963D01*
X008677Y013938D01*
X008615Y013913D01*
X008553Y013938D01*
X008495Y013963D01*
X008344Y013963D01*
X008103Y013963D01*
X008023Y013929D01*
X008006Y013936D01*
X007942Y013963D01*
X007791Y013963D01*
X007782Y013963D01*
X007631Y013963D01*
X007572Y013938D01*
X007510Y013913D01*
X007449Y013938D01*
X007390Y013963D01*
X007239Y013963D01*
X006998Y013963D01*
X006878Y013913D01*
X006875Y013914D01*
X006757Y013963D01*
X006606Y013963D01*
X006492Y013915D01*
X006466Y013905D01*
X006446Y013884D01*
X006426Y013903D01*
X006425Y013905D01*
X006344Y013938D01*
X006285Y013963D01*
X006134Y013963D01*
X005894Y013963D01*
X005754Y013905D01*
X005647Y013798D01*
X005601Y013686D01*
X005370Y013917D01*
X005607Y014154D01*
X005607Y014680D01*
X005235Y015052D01*
X004709Y015052D01*
X004337Y014680D01*
X004337Y014154D01*
X004574Y013917D01*
X004494Y013837D01*
X002638Y013837D01*
X002505Y013782D01*
X002370Y013917D01*
X002607Y014154D01*
X002607Y014680D01*
X002235Y015052D01*
X001709Y015052D01*
X001337Y014680D01*
X001337Y014154D01*
X001574Y013917D01*
X001337Y013680D01*
X001337Y013154D01*
X001574Y012917D01*
X001337Y012680D01*
X001337Y012154D01*
X001644Y011846D01*
X001437Y011639D01*
X001437Y011417D01*
X001437Y011196D01*
X001644Y010988D01*
X001337Y010680D01*
X001337Y010154D01*
X001574Y009917D01*
X001337Y009680D01*
X001337Y009154D01*
X001574Y008917D01*
X001337Y008680D01*
X001337Y008154D01*
X001574Y007917D01*
X001337Y007680D01*
X001337Y007154D01*
X001337Y007358D02*
X001273Y007358D01*
X001337Y007596D02*
X001195Y007596D01*
X001051Y007835D02*
X001491Y007835D01*
X001417Y008073D02*
X000542Y008073D01*
X000542Y007835D02*
X000669Y007835D01*
X000542Y008312D02*
X001337Y008312D01*
X001337Y008551D02*
X000542Y008551D01*
X000542Y008789D02*
X001446Y008789D01*
X001463Y009028D02*
X000542Y009028D01*
X000542Y009266D02*
X001337Y009266D01*
X001337Y009505D02*
X000542Y009505D01*
X000542Y009743D02*
X001400Y009743D01*
X001509Y009982D02*
X000542Y009982D01*
X000542Y010220D02*
X001337Y010220D01*
X001337Y010459D02*
X000542Y010459D01*
X000542Y010697D02*
X001354Y010697D01*
X001593Y010936D02*
X000542Y010936D01*
X000542Y011175D02*
X001458Y011175D01*
X001437Y011413D02*
X000542Y011413D01*
X000542Y011652D02*
X001450Y011652D01*
X001437Y011417D02*
X001971Y011417D01*
X001437Y011417D01*
X001971Y011417D02*
X001971Y011417D01*
X001601Y011890D02*
X000542Y011890D01*
X000542Y012129D02*
X001362Y012129D01*
X001337Y012367D02*
X000542Y012367D01*
X000542Y012606D02*
X001337Y012606D01*
X001501Y012844D02*
X000542Y012844D01*
X000542Y013083D02*
X001408Y013083D01*
X001337Y013321D02*
X000542Y013321D01*
X000542Y013560D02*
X001337Y013560D01*
X001455Y013799D02*
X000542Y013799D01*
X000542Y014037D02*
X001454Y014037D01*
X001337Y014276D02*
X000542Y014276D01*
X000542Y014514D02*
X001337Y014514D01*
X001409Y014753D02*
X000542Y014753D01*
X000542Y014991D02*
X001648Y014991D01*
X002296Y014991D02*
X004648Y014991D01*
X004409Y014753D02*
X002534Y014753D01*
X002607Y014514D02*
X004337Y014514D01*
X004337Y014276D02*
X002607Y014276D01*
X002490Y014037D02*
X004454Y014037D01*
X005490Y014037D02*
X011543Y014037D01*
X011533Y013963D02*
X011373Y013963D01*
X011222Y013963D01*
X011163Y013938D01*
X011082Y013905D01*
X011082Y013905D01*
X011081Y013903D01*
X010975Y013798D01*
X010975Y013798D01*
X010901Y013724D01*
X010871Y013798D01*
X010764Y013905D01*
X010624Y013963D01*
X010473Y013963D01*
X010417Y013939D01*
X010334Y013905D01*
X010227Y013798D01*
X010227Y013798D01*
X010067Y013638D01*
X010009Y013498D01*
X010009Y013347D01*
X010044Y013262D01*
X010009Y013178D01*
X010009Y013027D01*
X010067Y012887D01*
X010173Y012780D01*
X010313Y012722D01*
X010785Y012722D01*
X010825Y012739D01*
X010866Y012722D01*
X011097Y012722D01*
X011119Y012731D01*
X011142Y012722D01*
X011293Y012722D01*
X011613Y012722D01*
X011753Y012780D01*
X011860Y012887D01*
X011918Y013027D01*
X011918Y013178D01*
X011883Y013262D01*
X011918Y013347D01*
X011918Y013427D01*
X011918Y013578D01*
X011867Y013699D01*
X011860Y013718D01*
X011780Y013798D01*
X011673Y013905D01*
X011590Y013939D01*
X011533Y013963D01*
X011533Y013963D01*
X011779Y013799D02*
X011782Y013799D01*
X011780Y013798D02*
X011780Y013798D01*
X011860Y013718D02*
X011860Y013718D01*
X011860Y013718D01*
X011918Y013578D02*
X011918Y013578D01*
X011918Y013560D02*
X012020Y013560D01*
X011907Y013321D02*
X012259Y013321D01*
X012497Y013083D02*
X011918Y013083D01*
X011817Y012844D02*
X012736Y012844D01*
X012974Y012606D02*
X005607Y012606D01*
X005607Y012367D02*
X013213Y012367D01*
X013452Y012129D02*
X005581Y012129D01*
X005343Y011890D02*
X013690Y011890D01*
X013929Y011652D02*
X005494Y011652D01*
X005507Y011413D02*
X014167Y011413D01*
X014406Y011175D02*
X013438Y011175D01*
X013676Y010936D02*
X014577Y010936D01*
X014577Y010697D02*
X013697Y010697D01*
X013697Y010459D02*
X014577Y010459D01*
X014577Y010220D02*
X013498Y010220D01*
X013631Y009982D02*
X014577Y009982D01*
X014577Y009743D02*
X013697Y009743D01*
X013697Y009505D02*
X014577Y009505D01*
X014577Y009266D02*
X013544Y009266D01*
X013585Y009028D02*
X014577Y009028D01*
X014577Y008789D02*
X013697Y008789D01*
X013849Y008551D02*
X014577Y008551D01*
X014577Y008312D02*
X014057Y008312D01*
X014266Y008073D02*
X014577Y008073D01*
X014577Y007835D02*
X014475Y007835D01*
X013843Y007358D02*
X013636Y007358D01*
X013493Y007119D02*
X014051Y007119D01*
X014260Y006881D02*
X013697Y006881D01*
X013697Y006642D02*
X014469Y006642D01*
X014577Y006404D02*
X013682Y006404D01*
X013447Y006165D02*
X014577Y006165D01*
X014577Y005927D02*
X013686Y005927D01*
X013697Y005688D02*
X014577Y005688D01*
X014577Y005449D02*
X013697Y005449D01*
X013489Y005211D02*
X014577Y005211D01*
X014577Y004972D02*
X013640Y004972D01*
X013697Y004734D02*
X014620Y004734D01*
X013697Y004495D02*
X015967Y004495D01*
X015984Y004257D02*
X013535Y004257D01*
X012659Y004257D02*
X012606Y004257D01*
X012382Y004018D02*
X016117Y004018D01*
X016081Y003780D02*
X010364Y003780D01*
X010364Y003541D02*
X015969Y003541D01*
X015967Y003303D02*
X010240Y003303D01*
X009329Y003303D02*
X008112Y003303D01*
X008112Y003433D02*
X008112Y003005D01*
X008097Y002910D01*
X008068Y002819D01*
X008024Y002733D01*
X007968Y002655D01*
X007900Y002587D01*
X007822Y002531D01*
X007737Y002487D01*
X007645Y002458D01*
X007550Y002443D01*
X007512Y002443D01*
X007512Y003432D01*
X007492Y003432D01*
X007492Y002443D01*
X007454Y002443D01*
X007360Y002458D01*
X007268Y002487D01*
X007183Y002531D01*
X007105Y002587D01*
X007037Y002655D01*
X006981Y002733D01*
X006937Y002819D01*
X006907Y002910D01*
X006892Y003005D01*
X006892Y003433D01*
X007492Y003433D01*
X007492Y003453D01*
X006892Y003453D01*
X006892Y003881D01*
X006907Y003976D01*
X006937Y004067D01*
X006981Y004152D01*
X007037Y004230D01*
X007105Y004298D01*
X007183Y004354D01*
X007268Y004398D01*
X007360Y004428D01*
X007454Y004443D01*
X007492Y004443D01*
X007492Y003453D01*
X007512Y003453D01*
X007512Y004443D01*
X007550Y004443D01*
X007645Y004428D01*
X007737Y004398D01*
X007822Y004354D01*
X007900Y004298D01*
X007968Y004230D01*
X008024Y004152D01*
X008068Y004067D01*
X008097Y003976D01*
X008112Y003881D01*
X008112Y003453D01*
X007513Y003453D01*
X007513Y003433D01*
X008112Y003433D01*
X008112Y003541D02*
X009204Y003541D01*
X009204Y003780D02*
X008112Y003780D01*
X008084Y004018D02*
X009302Y004018D01*
X009302Y004257D02*
X007941Y004257D01*
X007512Y004257D02*
X007492Y004257D01*
X007492Y004018D02*
X007512Y004018D01*
X007492Y003780D02*
X007512Y003780D01*
X007492Y003541D02*
X007512Y003541D01*
X006892Y003541D02*
X006252Y003541D01*
X006252Y003780D02*
X006892Y003780D01*
X006921Y004018D02*
X006234Y004018D01*
X006122Y004257D02*
X007064Y004257D01*
X005798Y004495D02*
X009302Y004495D01*
X009302Y004734D02*
X003602Y004734D01*
X003602Y004972D02*
X009302Y004972D01*
X009302Y005211D02*
X003602Y005211D01*
X003602Y005449D02*
X009302Y005449D01*
X009302Y005688D02*
X003602Y005688D01*
X003602Y005927D02*
X009302Y005927D01*
X009302Y006165D02*
X003602Y006165D01*
X003602Y006404D02*
X004641Y006404D01*
X004552Y006642D02*
X003602Y006642D01*
X003602Y006881D02*
X004552Y006881D01*
X004372Y007119D02*
X003602Y007119D01*
X003602Y007358D02*
X004337Y007358D01*
X004337Y007596D02*
X003602Y007596D01*
X003602Y007835D02*
X004492Y007835D01*
X004417Y008073D02*
X003602Y008073D01*
X003602Y008312D02*
X004337Y008312D01*
X004337Y008551D02*
X003602Y008551D01*
X003602Y008789D02*
X004446Y008789D01*
X004605Y009028D02*
X003602Y009028D01*
X003602Y009266D02*
X004437Y009266D01*
X004437Y009417D02*
X004971Y009417D01*
X004971Y009417D01*
X004437Y009417D01*
X004437Y009505D02*
X003602Y009505D01*
X003602Y009743D02*
X004541Y009743D01*
X004509Y009982D02*
X003602Y009982D01*
X003602Y010220D02*
X004337Y010220D01*
X004337Y010459D02*
X003602Y010459D01*
X003602Y010697D02*
X004354Y010697D01*
X004593Y010936D02*
X003602Y010936D01*
X003602Y011175D02*
X004458Y011175D01*
X004437Y011413D02*
X003602Y011413D01*
X003602Y011652D02*
X004450Y011652D01*
X004437Y011417D02*
X004971Y011417D01*
X004437Y011417D01*
X004971Y011417D02*
X004971Y011417D01*
X005486Y011175D02*
X011756Y011175D01*
X011517Y010936D02*
X005351Y010936D01*
X005589Y010697D02*
X011497Y010697D01*
X011497Y010459D02*
X005607Y010459D01*
X005607Y010220D02*
X011695Y010220D01*
X011704Y009982D02*
X005434Y009982D01*
X005402Y009743D02*
X011597Y009743D01*
X011597Y009505D02*
X005507Y009505D01*
X005507Y009266D02*
X011791Y009266D01*
X011750Y009028D02*
X005339Y009028D01*
X005498Y008789D02*
X011597Y008789D01*
X011597Y008551D02*
X005607Y008551D01*
X005607Y008312D02*
X011745Y008312D01*
X011796Y008073D02*
X005526Y008073D01*
X005557Y007835D02*
X011597Y007835D01*
X011597Y007596D02*
X005642Y007596D01*
X005642Y007358D02*
X011699Y007358D01*
X011693Y007119D02*
X005572Y007119D01*
X001552Y006404D02*
X000542Y006404D01*
X000542Y006165D02*
X001552Y006165D01*
X001552Y005927D02*
X000542Y005927D01*
X000542Y005688D02*
X001552Y005688D01*
X001552Y005449D02*
X000542Y005449D01*
X000542Y005211D02*
X001552Y005211D01*
X001552Y004972D02*
X000542Y004972D01*
X000542Y004734D02*
X001552Y004734D01*
X001347Y004495D02*
X000542Y004495D01*
X000542Y004257D02*
X001022Y004257D01*
X000911Y004018D02*
X000542Y004018D01*
X000542Y003780D02*
X000892Y003780D01*
X000892Y003541D02*
X000542Y003541D01*
X000542Y003303D02*
X000892Y003303D01*
X000892Y003064D02*
X000542Y003064D01*
X000542Y002826D02*
X000928Y002826D01*
X001064Y002587D02*
X000542Y002587D01*
X000542Y002348D02*
X001447Y002348D01*
X001757Y002348D02*
X002302Y002348D01*
X002302Y002587D02*
X002141Y002587D01*
X002277Y002826D02*
X002302Y002826D01*
X003142Y002348D02*
X003407Y002348D01*
X003717Y002348D02*
X005052Y002348D01*
X005004Y002587D02*
X004101Y002587D01*
X004237Y002826D02*
X004868Y002826D01*
X004832Y003064D02*
X004272Y003064D01*
X004272Y003303D02*
X004832Y003303D01*
X004832Y003541D02*
X004272Y003541D01*
X004272Y003780D02*
X004832Y003780D01*
X004851Y004018D02*
X004254Y004018D01*
X004142Y004257D02*
X004962Y004257D01*
X005287Y004495D02*
X003818Y004495D01*
X006252Y003303D02*
X006892Y003303D01*
X006892Y003064D02*
X006252Y003064D01*
X006217Y002826D02*
X006935Y002826D01*
X007106Y002587D02*
X006081Y002587D01*
X005892Y002348D02*
X015967Y002348D01*
X015988Y002587D02*
X007899Y002587D01*
X008070Y002826D02*
X016127Y002826D01*
X016071Y003064D02*
X008112Y003064D01*
X007512Y003064D02*
X007492Y003064D01*
X007492Y002826D02*
X007512Y002826D01*
X007492Y002587D02*
X007512Y002587D01*
X007492Y003303D02*
X007512Y003303D01*
X005892Y002110D02*
X009548Y002110D01*
X009784Y002110D02*
X009784Y002110D01*
X010020Y002110D02*
X011054Y002110D01*
X011346Y002110D02*
X011347Y002110D01*
X011346Y001871D02*
X011347Y001871D01*
X011639Y002110D02*
X016045Y002110D01*
X016277Y001871D02*
X011867Y001871D01*
X011867Y001633D02*
X016277Y001633D01*
X016277Y001394D02*
X011809Y001394D01*
X010884Y001394D02*
X010190Y001394D01*
X010264Y001633D02*
X010827Y001633D01*
X010827Y001871D02*
X010259Y001871D01*
X009784Y001871D02*
X009784Y001871D01*
X009310Y001871D02*
X005892Y001871D01*
X005892Y001633D02*
X009304Y001633D01*
X009378Y001394D02*
X005793Y001394D01*
X005052Y002110D02*
X003142Y002110D01*
X002302Y002110D02*
X000542Y002110D01*
X000542Y001871D02*
X002302Y001871D01*
X002302Y001633D02*
X000542Y001633D01*
X000542Y001394D02*
X002401Y001394D01*
X010142Y004257D02*
X011588Y004257D01*
X011812Y004018D02*
X010253Y004018D01*
X010142Y004495D02*
X011497Y004495D01*
X011497Y004734D02*
X010142Y004734D01*
X010142Y004972D02*
X011527Y004972D01*
X011527Y005211D02*
X010142Y005211D01*
X010142Y005449D02*
X011497Y005449D01*
X011497Y005688D02*
X010142Y005688D01*
X010142Y005927D02*
X011508Y005927D01*
X011527Y006165D02*
X010142Y006165D01*
X010142Y006404D02*
X011512Y006404D01*
X011497Y006642D02*
X010142Y006642D01*
X010088Y006881D02*
X011497Y006881D01*
X012096Y007835D02*
X012097Y007835D01*
X012096Y008073D02*
X012097Y008073D01*
X012096Y008312D02*
X012097Y008312D01*
X012096Y008551D02*
X012097Y008551D01*
X012449Y008312D02*
X012603Y008312D01*
X012654Y008073D02*
X012397Y008073D01*
X012096Y008789D02*
X012097Y008789D01*
X012096Y009028D02*
X012097Y009028D01*
X012096Y009266D02*
X012097Y009266D01*
X012096Y009505D02*
X012097Y009505D01*
X012403Y009266D02*
X012649Y009266D01*
X012609Y009028D02*
X012443Y009028D01*
X015867Y009028D02*
X016108Y009028D01*
X016058Y009077D02*
X016218Y008917D01*
X016113Y008812D01*
X015867Y008812D01*
X015867Y012352D01*
X015871Y012365D01*
X015867Y012430D01*
X015867Y012496D01*
X015861Y012508D01*
X015861Y012522D01*
X015832Y012580D01*
X015807Y012641D01*
X015797Y012651D01*
X015791Y012663D01*
X015742Y012706D01*
X015695Y012752D01*
X015683Y012757D01*
X014128Y014118D01*
X014178Y014097D01*
X014315Y014097D01*
X014363Y014117D01*
X014412Y014097D01*
X014546Y014097D01*
X014917Y014097D01*
X015044Y014150D01*
X015141Y014247D01*
X015194Y014374D01*
X015194Y014511D01*
X015161Y014588D01*
X015194Y014665D01*
X015194Y014665D01*
X015194Y014803D01*
X015194Y014861D01*
X015141Y014988D01*
X015044Y015085D01*
X014917Y015137D01*
X014780Y015137D01*
X014546Y015137D01*
X014412Y015137D01*
X014363Y015117D01*
X014315Y015137D01*
X014178Y015137D01*
X014051Y015085D01*
X013954Y014988D01*
X013939Y014951D01*
X013603Y015287D01*
X013090Y015287D01*
X012727Y014924D01*
X012727Y014410D01*
X013090Y014047D01*
X013090Y014047D01*
X013112Y014004D01*
X013137Y013943D01*
X013146Y013934D01*
X013152Y013922D01*
X013202Y013879D01*
X013248Y013832D01*
X013261Y013827D01*
X015077Y012238D01*
X015077Y011621D01*
X011617Y015081D01*
X011617Y015337D01*
X011748Y015392D01*
X011922Y015566D01*
X012017Y015794D01*
X012017Y016040D01*
X011922Y016268D01*
X011748Y016443D01*
X011672Y016474D01*
X011735Y016521D01*
X011793Y016578D01*
X011841Y016645D01*
X011879Y016718D01*
X011904Y016795D01*
X011917Y016876D01*
X011917Y016917D01*
X011097Y016917D01*
X011097Y016917D01*
X011917Y016917D01*
X011917Y016958D01*
X011904Y017039D01*
X011879Y017117D01*
X011841Y017190D01*
X011793Y017256D01*
X011735Y017314D01*
X011672Y017360D01*
X011748Y017392D01*
X011854Y017497D01*
X014712Y017497D01*
X014712Y017491D01*
X014808Y017257D01*
X014987Y017079D01*
X015220Y016982D01*
X015473Y016982D01*
X015706Y017079D01*
X015885Y017257D01*
X015982Y017491D01*
X015982Y017743D01*
X015885Y017977D01*
X015706Y018155D01*
X015571Y018211D01*
X015510Y018273D01*
X015355Y018337D01*
X015138Y018337D01*
X011854Y018337D01*
X011843Y018347D01*
X018454Y018347D01*
X018383Y018318D01*
X018209Y018143D01*
X018114Y017915D01*
X018114Y017669D01*
X018209Y017441D01*
X018383Y017267D01*
X018459Y017235D01*
X018395Y017189D01*
X018338Y017131D01*
X018289Y017065D01*
X018252Y016992D01*
X018227Y016914D01*
X018214Y016833D01*
X018214Y016792D01*
X018214Y016751D01*
X018227Y016670D01*
X018252Y016593D01*
X018289Y016520D01*
X018338Y016453D01*
X018395Y016396D01*
X018459Y016349D01*
X018383Y016318D01*
X018209Y016143D01*
X018114Y015915D01*
X018114Y015669D01*
X018209Y015441D01*
X018383Y015267D01*
X018611Y015172D01*
X019077Y015172D01*
X019077Y014293D01*
X018970Y014337D01*
X018723Y014337D01*
X018495Y014243D01*
X018347Y014094D01*
X018198Y014243D01*
X017970Y014337D01*
X017723Y014337D01*
X017495Y014243D01*
X017321Y014068D01*
X017292Y013998D01*
X017246Y014017D01*
X016447Y014017D01*
X016227Y013926D01*
X016058Y013757D01*
X015967Y013536D01*
X015967Y013298D01*
X016058Y013077D01*
X016218Y012917D01*
X016058Y012757D01*
X015967Y012536D01*
X015967Y012298D01*
X016058Y012077D01*
X016218Y011917D01*
X016058Y011757D01*
X015967Y011536D01*
X015967Y011298D01*
X016058Y011077D01*
X016218Y010917D01*
X016058Y010757D01*
X015967Y010536D01*
X015967Y010298D01*
X016058Y010077D01*
X016218Y009917D01*
X016058Y009757D01*
X015967Y009536D01*
X015967Y009298D01*
X016058Y009077D01*
X015980Y009266D02*
X015867Y009266D01*
X015867Y009505D02*
X015967Y009505D01*
X016052Y009743D02*
X015867Y009743D01*
X015867Y009982D02*
X016154Y009982D01*
X015999Y010220D02*
X015867Y010220D01*
X015867Y010459D02*
X015967Y010459D01*
X016033Y010697D02*
X015867Y010697D01*
X015867Y010936D02*
X016199Y010936D01*
X016018Y011175D02*
X015867Y011175D01*
X015867Y011413D02*
X015967Y011413D01*
X016014Y011652D02*
X015867Y011652D01*
X015867Y011890D02*
X016191Y011890D01*
X016037Y012129D02*
X015867Y012129D01*
X015871Y012367D02*
X015967Y012367D01*
X015995Y012606D02*
X015821Y012606D01*
X015583Y012844D02*
X016145Y012844D01*
X016056Y013083D02*
X015311Y013083D01*
X015038Y013321D02*
X015967Y013321D01*
X015976Y013560D02*
X014765Y013560D01*
X014493Y013799D02*
X016100Y013799D01*
X015153Y014276D02*
X017575Y014276D01*
X017308Y014037D02*
X014220Y014037D01*
X013293Y013799D02*
X012899Y013799D01*
X013138Y013560D02*
X013566Y013560D01*
X013376Y013321D02*
X013838Y013321D01*
X013615Y013083D02*
X014111Y013083D01*
X013853Y012844D02*
X014384Y012844D01*
X014656Y012606D02*
X014092Y012606D01*
X014330Y012367D02*
X014929Y012367D01*
X015077Y012129D02*
X014569Y012129D01*
X014807Y011890D02*
X015077Y011890D01*
X015077Y011652D02*
X015046Y011652D01*
X012756Y011175D02*
X012438Y011175D01*
X010109Y012844D02*
X009724Y012844D01*
X009824Y013083D02*
X010009Y013083D01*
X010019Y013321D02*
X009880Y013321D01*
X009984Y013560D02*
X010034Y013560D01*
X009925Y013799D02*
X010227Y013799D01*
X010473Y013963D02*
X010473Y013963D01*
X010870Y013799D02*
X010976Y013799D01*
X011305Y014276D02*
X005607Y014276D01*
X005607Y014514D02*
X011066Y014514D01*
X010862Y014753D02*
X005534Y014753D01*
X005296Y014991D02*
X010827Y014991D01*
X010827Y015230D02*
X000542Y015230D01*
X000542Y015468D02*
X002100Y015468D01*
X002231Y015337D02*
X001892Y015677D01*
X001892Y016157D01*
X001967Y016232D01*
X001857Y016187D01*
X001486Y016187D01*
X001145Y016328D01*
X000883Y016590D01*
X000741Y016932D01*
X000741Y017302D01*
X000883Y017644D01*
X001145Y017906D01*
X001486Y018047D01*
X001857Y018047D01*
X002198Y017906D01*
X002460Y017644D01*
X002602Y017302D01*
X002602Y016932D01*
X002460Y016590D01*
X002367Y016497D01*
X002712Y016497D01*
X003052Y016157D01*
X003052Y015677D01*
X002712Y015337D01*
X002231Y015337D01*
X001892Y015707D02*
X000542Y015707D01*
X000542Y015945D02*
X001892Y015945D01*
X001918Y016184D02*
X000542Y016184D01*
X000542Y016422D02*
X001050Y016422D01*
X000853Y016661D02*
X000542Y016661D01*
X000542Y016900D02*
X000755Y016900D01*
X000741Y017138D02*
X000542Y017138D01*
X000542Y017377D02*
X000772Y017377D01*
X000871Y017615D02*
X000542Y017615D01*
X000542Y017854D02*
X001093Y017854D01*
X000542Y018092D02*
X002506Y018092D01*
X002566Y017854D02*
X002250Y017854D01*
X002472Y017615D02*
X003994Y017615D01*
X003955Y017377D02*
X002571Y017377D01*
X002602Y017138D02*
X004028Y017138D01*
X004916Y017138D02*
X010326Y017138D01*
X010481Y017377D02*
X009001Y017377D01*
X008442Y017377D02*
X004989Y017377D01*
X004949Y017615D02*
X008203Y017615D01*
X008142Y017854D02*
X006601Y017854D01*
X006661Y018092D02*
X008142Y018092D01*
X008315Y018331D02*
X006661Y018331D01*
X010277Y016900D02*
X002588Y016900D01*
X002490Y016661D02*
X010344Y016661D01*
X010425Y016422D02*
X006787Y016422D01*
X006712Y016497D02*
X006231Y016497D01*
X005892Y016157D01*
X005892Y015677D01*
X006231Y015337D01*
X006712Y015337D01*
X007052Y015677D01*
X007052Y016157D01*
X006712Y016497D01*
X007025Y016184D02*
X008310Y016184D01*
X008242Y016116D02*
X008242Y015917D01*
X008242Y015718D01*
X008523Y015437D01*
X008721Y015437D01*
X008721Y015917D01*
X008242Y015917D01*
X008721Y015917D01*
X008721Y015917D01*
X008722Y015917D01*
X008722Y015917D01*
X009202Y015917D01*
X009202Y015718D01*
X008921Y015437D01*
X008722Y015437D01*
X008722Y015917D01*
X009202Y015917D01*
X009202Y016116D01*
X008921Y016397D01*
X008722Y016397D01*
X008722Y015918D01*
X008721Y015918D01*
X008721Y016397D01*
X008523Y016397D01*
X008242Y016116D01*
X008242Y015945D02*
X007052Y015945D01*
X007052Y015707D02*
X008253Y015707D01*
X008492Y015468D02*
X006843Y015468D01*
X006100Y015468D02*
X002843Y015468D01*
X003052Y015707D02*
X005892Y015707D01*
X005892Y015945D02*
X003052Y015945D01*
X003025Y016184D02*
X005918Y016184D01*
X006157Y016422D02*
X002787Y016422D01*
X002406Y018331D02*
X000542Y018331D01*
X008721Y016184D02*
X008722Y016184D01*
X009134Y016184D02*
X010236Y016184D01*
X010177Y015945D02*
X009202Y015945D01*
X009190Y015707D02*
X010213Y015707D01*
X010369Y015468D02*
X008952Y015468D01*
X008722Y015468D02*
X008721Y015468D01*
X008721Y015707D02*
X008722Y015707D01*
X008721Y015945D02*
X008722Y015945D01*
X011617Y015230D02*
X013033Y015230D01*
X012794Y014991D02*
X011706Y014991D01*
X011945Y014753D02*
X012727Y014753D01*
X012727Y014514D02*
X012183Y014514D01*
X012422Y014276D02*
X012861Y014276D01*
X012660Y014037D02*
X013095Y014037D01*
X013899Y014991D02*
X013958Y014991D01*
X013661Y015230D02*
X018472Y015230D01*
X018197Y015468D02*
X011825Y015468D01*
X011981Y015707D02*
X015100Y015707D01*
X015125Y015682D02*
X014812Y015996D01*
X014812Y016217D01*
X015346Y016217D01*
X015346Y016217D01*
X014812Y016217D01*
X014812Y016439D01*
X015125Y016752D01*
X015346Y016752D01*
X015346Y016218D01*
X015347Y016218D01*
X015347Y016752D01*
X015568Y016752D01*
X015882Y016439D01*
X015882Y016217D01*
X015347Y016217D01*
X015347Y016217D01*
X015882Y016217D01*
X015882Y015996D01*
X015568Y015682D01*
X015347Y015682D01*
X015347Y016217D01*
X015346Y016217D01*
X015346Y015682D01*
X015125Y015682D01*
X015346Y015707D02*
X015347Y015707D01*
X015346Y015945D02*
X015347Y015945D01*
X015593Y015707D02*
X018114Y015707D01*
X018127Y015945D02*
X015831Y015945D01*
X015882Y016184D02*
X018249Y016184D01*
X018368Y016422D02*
X015882Y016422D01*
X015659Y016661D02*
X018230Y016661D01*
X018214Y016792D02*
X019034Y016792D01*
X019034Y016792D01*
X018214Y016792D01*
X018225Y016900D02*
X011917Y016900D01*
X011850Y016661D02*
X012172Y016661D01*
X012152Y016611D02*
X012204Y016738D01*
X012301Y016835D01*
X012428Y016887D01*
X012565Y016887D01*
X012613Y016867D01*
X012662Y016887D01*
X012799Y016887D01*
X012809Y016883D01*
X012865Y016894D01*
X012982Y016871D01*
X013098Y016894D01*
X013233Y016868D01*
X013347Y016791D01*
X013423Y016677D01*
X013450Y016543D01*
X013424Y016408D01*
X013396Y016367D01*
X013424Y016326D01*
X013450Y016192D01*
X013423Y016057D01*
X013347Y015943D01*
X013233Y015867D01*
X013098Y015840D01*
X012982Y015864D01*
X012865Y015840D01*
X012809Y015852D01*
X012799Y015847D01*
X012662Y015847D01*
X012613Y015867D01*
X012565Y015847D01*
X012428Y015847D01*
X012301Y015900D01*
X012204Y015997D01*
X012152Y016124D01*
X012152Y016299D01*
X012152Y016436D01*
X012152Y016611D01*
X012152Y016422D02*
X011768Y016422D01*
X011957Y016184D02*
X012152Y016184D01*
X012256Y015945D02*
X012017Y015945D01*
X013348Y015945D02*
X014862Y015945D01*
X014812Y016184D02*
X013449Y016184D01*
X013426Y016422D02*
X014812Y016422D01*
X015034Y016661D02*
X013427Y016661D01*
X014759Y017377D02*
X011712Y017377D01*
X011868Y017138D02*
X014928Y017138D01*
X015766Y017138D02*
X018345Y017138D01*
X018273Y017377D02*
X015934Y017377D01*
X015982Y017615D02*
X018136Y017615D01*
X018114Y017854D02*
X015936Y017854D01*
X015770Y018092D02*
X018187Y018092D01*
X018415Y018331D02*
X015371Y018331D01*
X015346Y016661D02*
X015347Y016661D01*
X015346Y016422D02*
X015347Y016422D01*
X015346Y016184D02*
X015347Y016184D01*
X015138Y014991D02*
X019077Y014991D01*
X019077Y014753D02*
X015194Y014753D01*
X015192Y014514D02*
X019077Y014514D01*
X018575Y014276D02*
X018119Y014276D01*
X022392Y014276D02*
X023402Y014276D01*
X023402Y014514D02*
X022392Y014514D01*
X022392Y014753D02*
X023402Y014753D01*
X023402Y014991D02*
X022392Y014991D01*
X022392Y015230D02*
X023284Y015230D01*
X023196Y015267D02*
X023021Y015441D01*
X022927Y015669D01*
X022927Y015915D01*
X023021Y016143D01*
X023196Y016318D01*
X023272Y016349D01*
X023208Y016396D01*
X023150Y016453D01*
X023102Y016520D01*
X023065Y016593D01*
X023040Y016670D01*
X023027Y016751D01*
X023027Y016792D01*
X023846Y016792D01*
X023846Y016792D01*
X023027Y016792D01*
X023027Y016833D01*
X023040Y016914D01*
X023065Y016992D01*
X023102Y017065D01*
X023150Y017131D01*
X023208Y017189D01*
X023272Y017235D01*
X023196Y017267D01*
X023021Y017441D01*
X022998Y017497D01*
X022392Y017497D01*
X022392Y013994D01*
X022447Y014017D01*
X023246Y014017D01*
X023402Y013953D01*
X023402Y015181D01*
X023196Y015267D01*
X023010Y015468D02*
X022392Y015468D01*
X022392Y015707D02*
X022927Y015707D01*
X022939Y015945D02*
X022392Y015945D01*
X022392Y016184D02*
X023062Y016184D01*
X023181Y016422D02*
X022392Y016422D01*
X022392Y016661D02*
X023043Y016661D01*
X023037Y016900D02*
X022392Y016900D01*
X022392Y017138D02*
X023157Y017138D01*
X023085Y017377D02*
X022392Y017377D01*
X023847Y016792D02*
X024667Y016792D01*
X023847Y016792D01*
X023847Y016792D01*
X024422Y016349D02*
X024486Y016396D01*
X024543Y016453D01*
X024591Y016520D01*
X024629Y016593D01*
X024654Y016670D01*
X024667Y016751D01*
X024667Y016792D01*
X024667Y016833D01*
X024654Y016914D01*
X024629Y016992D01*
X024591Y017065D01*
X024543Y017131D01*
X024486Y017189D01*
X024422Y017235D01*
X024498Y017267D01*
X024672Y017441D01*
X024767Y017669D01*
X024767Y017915D01*
X024672Y018143D01*
X024498Y018318D01*
X024427Y018347D01*
X029525Y018347D01*
X029414Y018236D01*
X029414Y017723D01*
X029777Y017360D01*
X030291Y017360D01*
X030654Y017723D01*
X030654Y018236D01*
X030543Y018347D01*
X031326Y018347D01*
X031089Y018110D01*
X031089Y017224D01*
X031716Y016597D01*
X032602Y016597D01*
X033229Y017224D01*
X033229Y018110D01*
X032992Y018347D01*
X037717Y018347D01*
X037439Y018069D01*
X037439Y017667D01*
X037439Y017265D01*
X038007Y016697D01*
X038409Y016697D01*
X038409Y017667D01*
X038409Y017667D01*
X037439Y017667D01*
X038409Y017667D01*
X038409Y017667D01*
X038409Y016697D01*
X038811Y016697D01*
X039379Y017265D01*
X039379Y017667D01*
X038410Y017667D01*
X038410Y017667D01*
X039379Y017667D01*
X039379Y018069D01*
X039101Y018347D01*
X039452Y018347D01*
X039452Y002763D01*
X038969Y003246D01*
X039097Y003374D01*
X039176Y003564D01*
X039176Y003770D01*
X039097Y003960D01*
X038952Y004105D01*
X038762Y004184D01*
X038556Y004184D01*
X038366Y004105D01*
X038221Y003960D01*
X038142Y003770D01*
X038142Y003564D01*
X038221Y003374D01*
X038233Y003362D01*
X037966Y003362D01*
X037339Y002735D01*
X037339Y001849D01*
X037951Y001237D01*
X032702Y001237D01*
X032729Y001304D01*
X032729Y001349D01*
X033229Y001849D01*
X033229Y002735D01*
X032602Y003362D01*
X031716Y003362D01*
X031089Y002735D01*
X031089Y001987D01*
X029653Y001987D01*
X029353Y002287D01*
X028840Y002287D01*
X027232Y002287D01*
X027232Y002343D01*
X027135Y002577D01*
X026956Y002755D01*
X026723Y002852D01*
X026470Y002852D01*
X026237Y002755D01*
X026138Y002656D01*
X026124Y002650D01*
X025963Y002490D01*
X025877Y002281D01*
X025877Y001987D01*
X024542Y001987D01*
X024542Y015310D01*
X024672Y015441D01*
X024767Y015669D01*
X024767Y015915D01*
X024672Y016143D01*
X024498Y016318D01*
X024422Y016349D01*
X024512Y016422D02*
X027758Y016422D01*
X027795Y016407D02*
X028048Y016407D01*
X028281Y016504D01*
X028460Y016682D01*
X028557Y016916D01*
X028557Y017168D01*
X028460Y017402D01*
X028281Y017580D01*
X028048Y017677D01*
X027795Y017677D01*
X027562Y017580D01*
X027383Y017402D01*
X027287Y017168D01*
X027287Y016916D01*
X027383Y016682D01*
X027562Y016504D01*
X027795Y016407D01*
X028085Y016422D02*
X039452Y016422D01*
X039452Y016184D02*
X024632Y016184D01*
X024754Y015945D02*
X039452Y015945D01*
X039452Y015707D02*
X024767Y015707D01*
X024684Y015468D02*
X039452Y015468D01*
X039452Y015230D02*
X024542Y015230D01*
X024542Y014991D02*
X039452Y014991D01*
X039452Y014753D02*
X027478Y014753D01*
X027395Y014787D02*
X026548Y014787D01*
X026320Y014693D01*
X026146Y014518D01*
X026052Y014290D01*
X026052Y014044D01*
X026146Y013816D01*
X026295Y013667D01*
X026146Y013518D01*
X026052Y013290D01*
X026052Y013044D01*
X026146Y012816D01*
X026295Y012667D01*
X026146Y012518D01*
X026052Y012290D01*
X026052Y012044D01*
X026146Y011816D01*
X026320Y011642D01*
X026330Y011638D01*
X026303Y011611D01*
X026205Y011512D01*
X026152Y011384D01*
X026152Y011310D01*
X026152Y011171D01*
X026169Y011131D01*
X026152Y011090D01*
X026152Y010951D01*
X026205Y010822D01*
X026377Y010650D01*
X026505Y010597D01*
X026645Y010597D01*
X026791Y010597D01*
X026842Y010618D01*
X026892Y010597D01*
X027325Y010597D01*
X027454Y010650D01*
X027552Y010749D01*
X027606Y010878D01*
X027606Y011017D01*
X027558Y011131D01*
X027606Y011244D01*
X027606Y011384D01*
X027606Y011457D01*
X027552Y011586D01*
X027534Y011605D01*
X027623Y011642D01*
X027797Y011816D01*
X027892Y012044D01*
X027892Y012290D01*
X027797Y012518D01*
X027648Y012667D01*
X027797Y012816D01*
X027892Y013044D01*
X027892Y013290D01*
X027797Y013518D01*
X027648Y013667D01*
X027754Y013772D01*
X028604Y013772D01*
X028637Y013693D01*
X028960Y013370D01*
X028927Y013290D01*
X028927Y013044D01*
X029021Y012816D01*
X029120Y012717D01*
X029021Y012618D01*
X028927Y012390D01*
X028927Y012144D01*
X029021Y011916D01*
X029195Y011742D01*
X029423Y011647D01*
X029577Y011647D01*
X029577Y011524D01*
X029227Y011174D01*
X029227Y010660D01*
X029577Y010310D01*
X029577Y009589D01*
X029637Y009443D01*
X029748Y009332D01*
X029893Y009272D01*
X030050Y009272D01*
X034308Y009272D01*
X036767Y006814D01*
X036767Y006677D01*
X037106Y006337D01*
X037587Y006337D01*
X037927Y006677D01*
X037927Y007157D01*
X037587Y007497D01*
X037200Y007497D01*
X034807Y009891D01*
X034695Y010002D01*
X034550Y010062D01*
X030367Y010062D01*
X030367Y010560D01*
X030467Y010660D01*
X030467Y011174D01*
X030367Y011274D01*
X030367Y011687D01*
X030498Y011742D01*
X030672Y011916D01*
X030767Y012144D01*
X030767Y012390D01*
X030672Y012618D01*
X030573Y012717D01*
X030672Y012816D01*
X030767Y013044D01*
X030767Y013290D01*
X030672Y013518D01*
X030503Y013688D01*
X030543Y013728D01*
X030591Y013795D01*
X030629Y013868D01*
X030654Y013945D01*
X030667Y014026D01*
X030667Y014067D01*
X029847Y014067D01*
X029847Y014067D01*
X030667Y014067D01*
X030667Y014108D01*
X030654Y014189D01*
X030629Y014267D01*
X030591Y014340D01*
X030543Y014406D01*
X030485Y014464D01*
X030419Y014512D01*
X030346Y014549D01*
X030268Y014574D01*
X030188Y014587D01*
X029847Y014587D01*
X029847Y014068D01*
X029846Y014068D01*
X029846Y014587D01*
X029506Y014587D01*
X029425Y014574D01*
X029347Y014549D01*
X029274Y014512D01*
X029223Y014475D01*
X029195Y014502D01*
X029050Y014562D01*
X028893Y014562D01*
X027754Y014562D01*
X027623Y014693D01*
X027395Y014787D01*
X026465Y014753D02*
X024542Y014753D01*
X024542Y014514D02*
X026144Y014514D01*
X026052Y014276D02*
X024542Y014276D01*
X024542Y014037D02*
X026054Y014037D01*
X026164Y013799D02*
X024542Y013799D01*
X024542Y013560D02*
X026188Y013560D01*
X026065Y013321D02*
X024542Y013321D01*
X024542Y013083D02*
X026052Y013083D01*
X026134Y012844D02*
X024542Y012844D01*
X024542Y012606D02*
X026234Y012606D01*
X026084Y012367D02*
X024542Y012367D01*
X024542Y012129D02*
X026052Y012129D01*
X026115Y011890D02*
X024542Y011890D01*
X024542Y011652D02*
X026310Y011652D01*
X026164Y011413D02*
X024542Y011413D01*
X024542Y011175D02*
X026152Y011175D01*
X026152Y011171D02*
X026152Y011171D01*
X026158Y010936D02*
X024542Y010936D01*
X024542Y010697D02*
X026330Y010697D01*
X026548Y010037D02*
X026320Y009943D01*
X026146Y009768D01*
X026052Y009540D01*
X026052Y009294D01*
X026146Y009066D01*
X026295Y008917D01*
X026146Y008768D01*
X026052Y008540D01*
X026052Y008294D01*
X026146Y008066D01*
X026295Y007917D01*
X026146Y007768D01*
X026052Y007540D01*
X026052Y007294D01*
X026146Y007066D01*
X026320Y006892D01*
X026330Y006888D01*
X026304Y006861D01*
X026303Y006861D01*
X026205Y006762D01*
X026152Y006634D01*
X026152Y006560D01*
X026152Y006421D01*
X026169Y006381D01*
X026152Y006340D01*
X026152Y006201D01*
X026205Y006072D01*
X026377Y005900D01*
X026505Y005847D01*
X026645Y005847D01*
X026791Y005847D01*
X026899Y005892D01*
X026915Y005898D01*
X027039Y005847D01*
X027178Y005847D01*
X027307Y005900D01*
X027406Y005999D01*
X027459Y006128D01*
X027459Y006272D01*
X027552Y006366D01*
X027606Y006494D01*
X027606Y006707D01*
X027552Y006836D01*
X027534Y006855D01*
X027623Y006892D01*
X027797Y007066D01*
X027892Y007294D01*
X027892Y007540D01*
X027797Y007768D01*
X027648Y007917D01*
X027797Y008066D01*
X027892Y008294D01*
X027892Y008540D01*
X027797Y008768D01*
X027648Y008917D01*
X027754Y009022D01*
X028577Y009022D01*
X028577Y008496D01*
X028577Y008339D01*
X028637Y008193D01*
X028960Y007870D01*
X028927Y007790D01*
X028927Y007544D01*
X029021Y007316D01*
X029120Y007217D01*
X029021Y007118D01*
X028927Y006890D01*
X028927Y006644D01*
X029021Y006416D01*
X029195Y006242D01*
X029423Y006147D01*
X029577Y006147D01*
X029577Y005274D01*
X029227Y004924D01*
X029227Y004410D01*
X029590Y004047D01*
X030103Y004047D01*
X030467Y004410D01*
X030467Y004924D01*
X030367Y005024D01*
X030367Y006187D01*
X030498Y006242D01*
X030672Y006416D01*
X030767Y006644D01*
X030767Y006890D01*
X030672Y007118D01*
X030573Y007217D01*
X030672Y007316D01*
X030767Y007544D01*
X030767Y007790D01*
X030672Y008018D01*
X030503Y008188D01*
X030543Y008228D01*
X030591Y008295D01*
X030629Y008368D01*
X030654Y008445D01*
X030667Y008526D01*
X030667Y008567D01*
X029847Y008567D01*
X029847Y008567D01*
X030667Y008567D01*
X030667Y008608D01*
X030654Y008689D01*
X030629Y008767D01*
X030591Y008840D01*
X030543Y008906D01*
X030485Y008964D01*
X030419Y009012D01*
X030346Y009049D01*
X030268Y009074D01*
X030188Y009087D01*
X029847Y009087D01*
X029847Y008568D01*
X029846Y008568D01*
X029846Y009087D01*
X029506Y009087D01*
X029425Y009074D01*
X029367Y009055D01*
X029367Y009496D01*
X029307Y009641D01*
X029195Y009752D01*
X029050Y009812D01*
X028893Y009812D01*
X027754Y009812D01*
X027623Y009943D01*
X027395Y010037D01*
X026548Y010037D01*
X026415Y009982D02*
X024542Y009982D01*
X024542Y010220D02*
X029577Y010220D01*
X029577Y009982D02*
X027529Y009982D01*
X027501Y010697D02*
X029227Y010697D01*
X029428Y010459D02*
X024542Y010459D01*
X024542Y009743D02*
X026136Y009743D01*
X026052Y009505D02*
X024542Y009505D01*
X024542Y009266D02*
X026063Y009266D01*
X026184Y009028D02*
X024542Y009028D01*
X024542Y008789D02*
X026167Y008789D01*
X026056Y008551D02*
X024542Y008551D01*
X024542Y008312D02*
X026052Y008312D01*
X026143Y008073D02*
X024542Y008073D01*
X024542Y007835D02*
X026213Y007835D01*
X026075Y007596D02*
X024542Y007596D01*
X024542Y007358D02*
X026052Y007358D01*
X026124Y007119D02*
X024542Y007119D01*
X024542Y006881D02*
X026323Y006881D01*
X026155Y006642D02*
X024542Y006642D01*
X024542Y006404D02*
X026159Y006404D01*
X026152Y006421D02*
X026152Y006421D01*
X026167Y006165D02*
X024542Y006165D01*
X024542Y005927D02*
X026351Y005927D01*
X027333Y005927D02*
X029577Y005927D01*
X029577Y005688D02*
X024542Y005688D01*
X024542Y005449D02*
X029577Y005449D01*
X029514Y005211D02*
X024542Y005211D01*
X024542Y004972D02*
X029275Y004972D01*
X029227Y004734D02*
X024542Y004734D01*
X024542Y004495D02*
X029227Y004495D01*
X029380Y004257D02*
X024542Y004257D01*
X024542Y004018D02*
X026241Y004018D01*
X026375Y004152D02*
X026062Y003839D01*
X026062Y003617D01*
X026062Y003396D01*
X026375Y003082D01*
X026596Y003082D01*
X026596Y003617D01*
X026062Y003617D01*
X026596Y003617D01*
X026596Y003617D01*
X026597Y003617D01*
X026597Y003617D01*
X027132Y003617D01*
X027132Y003396D01*
X026818Y003082D01*
X026597Y003082D01*
X026597Y003617D01*
X027132Y003617D01*
X027132Y003839D01*
X026818Y004152D01*
X026597Y004152D01*
X026597Y003618D01*
X026596Y003618D01*
X026596Y004152D01*
X026375Y004152D01*
X026596Y004018D02*
X026597Y004018D01*
X026596Y003780D02*
X026597Y003780D01*
X026596Y003541D02*
X026597Y003541D01*
X027132Y003541D02*
X034423Y003541D01*
X034423Y003677D02*
X034423Y003307D01*
X034565Y002965D01*
X034827Y002703D01*
X035168Y002562D01*
X035539Y002562D01*
X035880Y002703D01*
X036142Y002965D01*
X036284Y003307D01*
X036284Y003677D01*
X036142Y004019D01*
X035880Y004281D01*
X035539Y004422D01*
X035168Y004422D01*
X034827Y004281D01*
X034565Y004019D01*
X034423Y003677D01*
X034466Y003780D02*
X027132Y003780D01*
X026952Y004018D02*
X034565Y004018D01*
X034803Y004257D02*
X030313Y004257D01*
X030467Y004495D02*
X039452Y004495D01*
X039452Y004734D02*
X030467Y004734D01*
X030418Y004972D02*
X039452Y004972D01*
X039452Y005211D02*
X037711Y005211D01*
X037587Y005087D02*
X037927Y005427D01*
X037927Y005907D01*
X037587Y006247D01*
X037106Y006247D01*
X036767Y005907D01*
X036767Y005427D01*
X037106Y005087D01*
X037587Y005087D01*
X037927Y005449D02*
X039452Y005449D01*
X039452Y005688D02*
X037927Y005688D01*
X037907Y005927D02*
X039452Y005927D01*
X039452Y006165D02*
X037669Y006165D01*
X037653Y006404D02*
X039452Y006404D01*
X039452Y006642D02*
X037892Y006642D01*
X037927Y006881D02*
X039452Y006881D01*
X039452Y007119D02*
X037927Y007119D01*
X037726Y007358D02*
X039452Y007358D01*
X039452Y007596D02*
X037101Y007596D01*
X036863Y007835D02*
X039452Y007835D01*
X039452Y008073D02*
X036624Y008073D01*
X036385Y008312D02*
X039452Y008312D01*
X039452Y008551D02*
X036147Y008551D01*
X035908Y008789D02*
X039452Y008789D01*
X039452Y009028D02*
X035670Y009028D01*
X035431Y009266D02*
X039452Y009266D01*
X039452Y009505D02*
X035193Y009505D01*
X034954Y009743D02*
X039452Y009743D01*
X039452Y009982D02*
X038732Y009982D01*
X038587Y009837D02*
X038106Y009837D01*
X037767Y010177D01*
X037767Y010657D01*
X038106Y010997D01*
X038587Y010997D01*
X038927Y010657D01*
X038927Y010177D01*
X038587Y009837D01*
X038927Y010220D02*
X039452Y010220D01*
X039452Y010459D02*
X038927Y010459D01*
X038887Y010697D02*
X039452Y010697D01*
X039452Y010936D02*
X038648Y010936D01*
X038045Y010936D02*
X030467Y010936D01*
X030466Y011175D02*
X039452Y011175D01*
X039452Y011413D02*
X030367Y011413D01*
X030367Y011652D02*
X039452Y011652D01*
X039452Y011890D02*
X030646Y011890D01*
X030760Y012129D02*
X037956Y012129D01*
X037867Y012218D02*
X038148Y011937D01*
X038346Y011937D01*
X038346Y012417D01*
X037867Y012417D01*
X037867Y012218D01*
X037867Y012367D02*
X030767Y012367D01*
X030678Y012606D02*
X037867Y012606D01*
X037867Y012616D02*
X037867Y012417D01*
X038346Y012417D01*
X038346Y012417D01*
X038347Y012417D01*
X038347Y012417D01*
X038827Y012417D01*
X038827Y012218D01*
X038545Y011937D01*
X038347Y011937D01*
X038347Y012417D01*
X038827Y012417D01*
X038827Y012616D01*
X038545Y012897D01*
X038347Y012897D01*
X038347Y012418D01*
X038346Y012418D01*
X038346Y012897D01*
X038148Y012897D01*
X037867Y012616D01*
X038095Y012844D02*
X030684Y012844D01*
X030767Y013083D02*
X039452Y013083D01*
X039452Y013321D02*
X030754Y013321D01*
X030631Y013560D02*
X039452Y013560D01*
X039452Y013799D02*
X030593Y013799D01*
X030667Y014037D02*
X039452Y014037D01*
X039452Y014276D02*
X030624Y014276D01*
X030415Y014514D02*
X039452Y014514D01*
X039452Y012844D02*
X038598Y012844D01*
X038347Y012844D02*
X038346Y012844D01*
X038346Y012606D02*
X038347Y012606D01*
X038346Y012367D02*
X038347Y012367D01*
X038346Y012129D02*
X038347Y012129D01*
X038737Y012129D02*
X039452Y012129D01*
X039452Y012367D02*
X038827Y012367D01*
X038827Y012606D02*
X039452Y012606D01*
X037807Y010697D02*
X030467Y010697D01*
X030367Y010459D02*
X037767Y010459D01*
X037767Y010220D02*
X030367Y010220D01*
X029577Y009743D02*
X029204Y009743D01*
X029363Y009505D02*
X029611Y009505D01*
X029367Y009266D02*
X034314Y009266D01*
X034553Y009028D02*
X030388Y009028D01*
X030617Y008789D02*
X034791Y008789D01*
X035030Y008551D02*
X030667Y008551D01*
X030600Y008312D02*
X035268Y008312D01*
X035507Y008073D02*
X030617Y008073D01*
X030748Y007835D02*
X035745Y007835D01*
X035984Y007596D02*
X030767Y007596D01*
X030690Y007358D02*
X032967Y007358D01*
X033106Y007497D02*
X032767Y007157D01*
X032767Y006677D01*
X033106Y006337D01*
X033587Y006337D01*
X033927Y006677D01*
X033927Y007157D01*
X033587Y007497D01*
X033106Y007497D01*
X032767Y007119D02*
X030671Y007119D01*
X030767Y006881D02*
X032767Y006881D01*
X032801Y006642D02*
X030766Y006642D01*
X030660Y006404D02*
X033040Y006404D01*
X033106Y006247D02*
X032767Y005907D01*
X032767Y005427D01*
X033106Y005087D01*
X033587Y005087D01*
X033927Y005427D01*
X033927Y005907D01*
X033587Y006247D01*
X033106Y006247D01*
X033025Y006165D02*
X030367Y006165D01*
X030367Y005927D02*
X032786Y005927D01*
X032767Y005688D02*
X030367Y005688D01*
X030367Y005449D02*
X032767Y005449D01*
X032983Y005211D02*
X030367Y005211D01*
X029380Y006165D02*
X027459Y006165D01*
X027568Y006404D02*
X029033Y006404D01*
X028927Y006642D02*
X027606Y006642D01*
X027597Y006881D02*
X028927Y006881D01*
X029022Y007119D02*
X027819Y007119D01*
X027892Y007358D02*
X029004Y007358D01*
X028927Y007596D02*
X027869Y007596D01*
X027731Y007835D02*
X028945Y007835D01*
X028757Y008073D02*
X027800Y008073D01*
X027892Y008312D02*
X028588Y008312D01*
X028577Y008551D02*
X027887Y008551D01*
X027777Y008789D02*
X028577Y008789D01*
X029846Y008789D02*
X029847Y008789D01*
X029846Y009028D02*
X029847Y009028D01*
X029227Y010936D02*
X027606Y010936D01*
X027577Y011175D02*
X029227Y011175D01*
X029466Y011413D02*
X027606Y011413D01*
X027633Y011652D02*
X029413Y011652D01*
X029047Y011890D02*
X027828Y011890D01*
X027892Y012129D02*
X028933Y012129D01*
X028927Y012367D02*
X027860Y012367D01*
X027710Y012606D02*
X029016Y012606D01*
X029009Y012844D02*
X027809Y012844D01*
X027892Y013083D02*
X028927Y013083D01*
X028940Y013321D02*
X027879Y013321D01*
X027756Y013560D02*
X028770Y013560D01*
X029846Y014276D02*
X029847Y014276D01*
X029846Y014514D02*
X029847Y014514D01*
X029279Y014514D02*
X029166Y014514D01*
X027057Y016821D02*
X026743Y016507D01*
X026522Y016507D01*
X026522Y017042D01*
X026522Y017042D01*
X027057Y017042D01*
X027057Y016821D01*
X027057Y016900D02*
X027293Y016900D01*
X027405Y016661D02*
X026897Y016661D01*
X026522Y016661D02*
X026521Y016661D01*
X026521Y016507D02*
X026300Y016507D01*
X025987Y016821D01*
X025987Y017042D01*
X026521Y017042D01*
X026521Y017042D01*
X025987Y017042D01*
X025987Y017264D01*
X026300Y017577D01*
X026521Y017577D01*
X026521Y017043D01*
X026522Y017043D01*
X026522Y017577D01*
X026743Y017577D01*
X027057Y017264D01*
X027057Y017042D01*
X026522Y017042D01*
X026521Y017042D01*
X026521Y016507D01*
X026146Y016661D02*
X024651Y016661D01*
X024656Y016900D02*
X025987Y016900D01*
X025987Y017138D02*
X024536Y017138D01*
X024608Y017377D02*
X026100Y017377D01*
X026521Y017377D02*
X026522Y017377D01*
X026521Y017138D02*
X026522Y017138D01*
X026944Y017377D02*
X027373Y017377D01*
X027287Y017138D02*
X027057Y017138D01*
X026522Y016900D02*
X026521Y016900D01*
X027646Y017615D02*
X024744Y017615D01*
X024767Y017854D02*
X029414Y017854D01*
X029414Y018092D02*
X024694Y018092D01*
X024466Y018331D02*
X029509Y018331D01*
X030560Y018331D02*
X031310Y018331D01*
X031089Y018092D02*
X030654Y018092D01*
X030654Y017854D02*
X031089Y017854D01*
X031089Y017615D02*
X030547Y017615D01*
X030308Y017377D02*
X031089Y017377D01*
X031175Y017138D02*
X028557Y017138D01*
X028470Y017377D02*
X029760Y017377D01*
X029522Y017615D02*
X028198Y017615D01*
X028550Y016900D02*
X031414Y016900D01*
X031652Y016661D02*
X028439Y016661D01*
X032666Y016661D02*
X034749Y016661D01*
X034832Y016578D02*
X035174Y016437D01*
X035544Y016437D01*
X035886Y016578D01*
X036148Y016840D01*
X036289Y017182D01*
X036289Y017552D01*
X036148Y017894D01*
X035886Y018156D01*
X035544Y018297D01*
X035174Y018297D01*
X034832Y018156D01*
X034570Y017894D01*
X034429Y017552D01*
X034429Y017182D01*
X034570Y016840D01*
X034832Y016578D01*
X034546Y016900D02*
X032905Y016900D01*
X033143Y017138D02*
X034447Y017138D01*
X034429Y017377D02*
X033229Y017377D01*
X033229Y017615D02*
X034455Y017615D01*
X034554Y017854D02*
X033229Y017854D01*
X033229Y018092D02*
X034769Y018092D01*
X035949Y018092D02*
X037463Y018092D01*
X037439Y017854D02*
X036164Y017854D01*
X036263Y017615D02*
X037439Y017615D01*
X037439Y017377D02*
X036289Y017377D01*
X036271Y017138D02*
X037566Y017138D01*
X037805Y016900D02*
X036172Y016900D01*
X035969Y016661D02*
X039452Y016661D01*
X039452Y016900D02*
X039013Y016900D01*
X039252Y017138D02*
X039452Y017138D01*
X039452Y017377D02*
X039379Y017377D01*
X039379Y017615D02*
X039452Y017615D01*
X039452Y017854D02*
X039379Y017854D01*
X039356Y018092D02*
X039452Y018092D01*
X039452Y018331D02*
X039117Y018331D01*
X037701Y018331D02*
X033009Y018331D01*
X038409Y017615D02*
X038409Y017615D01*
X038409Y017377D02*
X038409Y017377D01*
X038409Y017138D02*
X038409Y017138D01*
X038409Y016900D02*
X038409Y016900D01*
X037962Y009982D02*
X034716Y009982D01*
X033726Y007358D02*
X036222Y007358D01*
X036461Y007119D02*
X033927Y007119D01*
X033927Y006881D02*
X036699Y006881D01*
X036801Y006642D02*
X033892Y006642D01*
X033653Y006404D02*
X037040Y006404D01*
X037025Y006165D02*
X033669Y006165D01*
X033907Y005927D02*
X036786Y005927D01*
X036767Y005688D02*
X033927Y005688D01*
X033927Y005449D02*
X036767Y005449D01*
X036983Y005211D02*
X033711Y005211D01*
X035904Y004257D02*
X039452Y004257D01*
X039452Y004018D02*
X039039Y004018D01*
X039172Y003780D02*
X039452Y003780D01*
X039452Y003541D02*
X039166Y003541D01*
X039026Y003303D02*
X039452Y003303D01*
X039452Y003064D02*
X039150Y003064D01*
X039389Y002826D02*
X039452Y002826D01*
X038152Y003541D02*
X036284Y003541D01*
X036241Y003780D02*
X038146Y003780D01*
X038279Y004018D02*
X036142Y004018D01*
X036282Y003303D02*
X037906Y003303D01*
X037668Y003064D02*
X036183Y003064D01*
X036003Y002826D02*
X037429Y002826D01*
X037339Y002587D02*
X035599Y002587D01*
X035108Y002587D02*
X033229Y002587D01*
X033229Y002348D02*
X037339Y002348D01*
X037339Y002110D02*
X033229Y002110D01*
X033229Y001871D02*
X037339Y001871D01*
X037555Y001633D02*
X033013Y001633D01*
X032774Y001394D02*
X037794Y001394D01*
X034704Y002826D02*
X033139Y002826D01*
X032900Y003064D02*
X034524Y003064D01*
X034425Y003303D02*
X032662Y003303D01*
X031656Y003303D02*
X027039Y003303D01*
X026597Y003303D02*
X026596Y003303D01*
X026155Y003303D02*
X024542Y003303D01*
X024542Y003064D02*
X031418Y003064D01*
X031179Y002826D02*
X026787Y002826D01*
X026406Y002826D02*
X024542Y002826D01*
X024542Y002587D02*
X026060Y002587D01*
X025905Y002348D02*
X024542Y002348D01*
X024542Y002110D02*
X025877Y002110D01*
X027125Y002587D02*
X031089Y002587D01*
X031089Y002348D02*
X027230Y002348D01*
X026062Y003541D02*
X024542Y003541D01*
X024542Y003780D02*
X026062Y003780D01*
X029531Y002110D02*
X031089Y002110D01*
X006606Y013963D02*
X006606Y013963D01*
X006466Y013905D02*
X006466Y013905D01*
X006466Y013905D01*
X006425Y013905D02*
X006425Y013905D01*
X005648Y013799D02*
X005488Y013799D01*
X005535Y013083D02*
X005589Y013083D01*
X005690Y012844D02*
X005443Y012844D01*
X004601Y011890D02*
X003602Y011890D01*
X002545Y013799D02*
X002488Y013799D01*
X022392Y014037D02*
X023402Y014037D01*
D27*
X023847Y015667D02*
X023847Y015792D01*
X023847Y015667D02*
X023972Y015667D01*
X023972Y001417D01*
X026447Y001417D01*
X032159Y001417D01*
X032159Y002292D01*
X029097Y001717D02*
X026447Y001717D01*
X026447Y002167D01*
X026597Y002167D01*
X026597Y002217D01*
X026447Y001717D02*
X026447Y001417D01*
X023972Y001417D02*
X016847Y001417D01*
X016847Y002417D01*
X012097Y004517D02*
X012097Y006517D01*
X012097Y006667D01*
X012097Y006717D01*
X012097Y007667D02*
X012097Y009667D01*
X005072Y007517D02*
X005072Y007417D01*
X004972Y007417D01*
X012097Y005667D02*
X012097Y005617D01*
X012147Y005617D01*
X012097Y005667D02*
X012222Y005667D01*
X012147Y004667D02*
X012097Y004667D01*
X029097Y001717D02*
X029097Y001667D01*
D28*
X029847Y004667D02*
X029972Y004667D01*
X029972Y006667D01*
X029847Y006767D01*
X029847Y007667D02*
X029722Y007667D01*
X028972Y008417D01*
X028972Y009417D01*
X026972Y009417D01*
X026972Y009417D01*
X029972Y009667D02*
X029972Y010917D01*
X029847Y010917D01*
X029972Y010917D02*
X029972Y012167D01*
X029847Y012267D01*
X029847Y013167D02*
X029722Y013167D01*
X028972Y013917D01*
X028972Y014167D01*
X026972Y014167D01*
X026972Y014167D01*
X019472Y012917D02*
X019472Y015667D01*
X019222Y015917D01*
X019034Y015792D01*
X015472Y012417D02*
X013472Y014167D01*
X013472Y014667D01*
X013347Y014667D01*
X011222Y014917D02*
X011222Y015917D01*
X011097Y015917D01*
X011222Y014917D02*
X014972Y011167D01*
X014972Y007417D01*
X016847Y007417D01*
X016847Y008417D02*
X015472Y008417D01*
X015472Y012417D01*
X019222Y012667D02*
X019472Y012917D01*
X019222Y012667D02*
X019222Y009417D01*
X016847Y009417D01*
X014972Y006667D02*
X013222Y008667D01*
X013097Y008667D01*
X014972Y006667D02*
X014972Y004917D01*
X021722Y004917D01*
X021722Y006667D01*
X022722Y007417D01*
X022847Y007417D01*
X022722Y008417D02*
X021222Y006917D01*
X021222Y006167D01*
X020847Y006167D01*
X022722Y008417D02*
X022847Y008417D01*
X029972Y009667D02*
X034472Y009667D01*
X037222Y006917D01*
X037347Y006917D01*
X001972Y003443D02*
X001972Y003417D01*
X001722Y003417D01*
X001602Y003443D01*
M02*
