G75*
G70*
%OFA0B0*%
%FSLAX24Y24*%
%IPPOS*%
%LPD*%
%AMOC8*
5,1,8,0,0,1.08239X$1,22.5*
%
%ADD10C,0.1300*%
%ADD11OC8,0.0640*%
%ADD12OC8,0.1580*%
%ADD13C,0.0680*%
%ADD14R,0.0750X0.0750*%
%ADD15C,0.0860*%
%ADD16C,0.0640*%
%ADD17OC8,0.0710*%
%ADD18C,0.0710*%
%ADD19OC8,0.0680*%
%ADD20OC8,0.0600*%
D10*
X001672Y017117D03*
X035359Y017367D03*
X035354Y003492D03*
D11*
X013097Y004667D03*
X012097Y004667D03*
X012097Y005667D03*
X013097Y005667D03*
X013097Y006667D03*
X012097Y006667D03*
X012097Y007667D03*
X013097Y007667D03*
X013097Y008667D03*
X012097Y008667D03*
X012097Y009667D03*
X013097Y009667D03*
X013097Y010667D03*
X012097Y010667D03*
D12*
X032159Y017667D03*
X038409Y017667D03*
X038409Y002292D03*
X032159Y002292D03*
D13*
X030147Y006767D02*
X029547Y006767D01*
X029547Y007667D02*
X030147Y007667D01*
X030147Y008567D02*
X029547Y008567D01*
X027272Y008417D02*
X026672Y008417D01*
X026672Y007417D02*
X027272Y007417D01*
X027272Y009417D02*
X026672Y009417D01*
X026672Y012167D02*
X027272Y012167D01*
X027272Y013167D02*
X026672Y013167D01*
X026672Y014167D02*
X027272Y014167D01*
X029547Y014067D02*
X030147Y014067D01*
X030147Y013167D02*
X029547Y013167D01*
X029547Y012267D02*
X030147Y012267D01*
X024147Y015792D02*
X023547Y015792D01*
X023547Y016792D02*
X024147Y016792D01*
X024147Y017792D02*
X023547Y017792D01*
X019334Y017792D02*
X018734Y017792D01*
X018734Y016792D02*
X019334Y016792D01*
X019334Y015792D02*
X018734Y015792D01*
X018847Y013717D02*
X018847Y013117D01*
X017847Y013117D02*
X017847Y013717D01*
X011397Y015917D02*
X010797Y015917D01*
X010797Y016917D02*
X011397Y016917D01*
X011397Y017917D02*
X010797Y017917D01*
D14*
X004472Y017417D03*
X038659Y003667D03*
D15*
X001602Y003833D02*
X001602Y003053D01*
X003562Y003053D02*
X003562Y003833D01*
X005542Y003833D02*
X005542Y003053D01*
X007502Y003053D02*
X007502Y003833D01*
D16*
X016567Y003417D02*
X017127Y003417D01*
X017127Y002417D02*
X016567Y002417D01*
X016567Y004417D02*
X017127Y004417D01*
X017127Y005417D02*
X016567Y005417D01*
X016567Y006417D02*
X017127Y006417D01*
X017127Y007417D02*
X016567Y007417D01*
X016567Y008417D02*
X017127Y008417D01*
X017127Y009417D02*
X016567Y009417D01*
X016567Y010417D02*
X017127Y010417D01*
X017127Y011417D02*
X016567Y011417D01*
X016567Y012417D02*
X017127Y012417D01*
X017127Y013417D02*
X016567Y013417D01*
X022567Y013417D02*
X023127Y013417D01*
X023127Y012417D02*
X022567Y012417D01*
X022567Y011417D02*
X023127Y011417D01*
X023127Y010417D02*
X022567Y010417D01*
X022567Y009417D02*
X023127Y009417D01*
X023127Y008417D02*
X022567Y008417D01*
X022567Y007417D02*
X023127Y007417D01*
X023127Y006417D02*
X022567Y006417D01*
X022567Y005417D02*
X023127Y005417D01*
X023127Y004417D02*
X022567Y004417D01*
X022567Y003417D02*
X023127Y003417D01*
X023127Y002417D02*
X022567Y002417D01*
D17*
X026597Y003617D03*
X004972Y007417D03*
X004972Y008417D03*
X004972Y009417D03*
X004972Y010417D03*
X004972Y011417D03*
X004972Y012417D03*
X004972Y013417D03*
X004972Y014417D03*
X001972Y014417D03*
X001972Y013417D03*
X001972Y012417D03*
X001972Y011417D03*
X001972Y010417D03*
X001972Y009417D03*
X001972Y008417D03*
X001972Y007417D03*
X015347Y016217D03*
X026522Y017042D03*
D18*
X027922Y017042D03*
X015347Y017617D03*
X026597Y002217D03*
D19*
X029097Y001667D03*
X029847Y004667D03*
X020847Y006167D03*
X017847Y005917D03*
X017847Y006917D03*
X011347Y001667D03*
X029847Y010917D03*
X021097Y016167D03*
X013347Y014667D03*
X030034Y017980D03*
D20*
X038347Y012417D03*
X038347Y010417D03*
X037347Y006917D03*
X037347Y005667D03*
X033347Y005667D03*
X033347Y006917D03*
X020722Y007667D03*
X020722Y011667D03*
X008722Y015917D03*
X006472Y015917D03*
X002472Y015917D03*
X008722Y017917D03*
X009784Y003667D03*
X009784Y001667D03*
M02*
