G75*
G70*
%OFA0B0*%
%FSLAX24Y24*%
%IPPOS*%
%LPD*%
%AMOC8*
5,1,8,0,0,1.08239X$1,22.5*
%
%ADD10C,0.0050*%
%ADD11C,0.0020*%
%ADD12C,0.0070*%
%ADD13C,0.0060*%
%ADD14C,0.0040*%
%ADD15C,0.0100*%
%ADD16R,0.0150X0.0300*%
%ADD17R,0.0150X0.0200*%
%ADD18R,0.0340X0.0240*%
%ADD19C,0.0120*%
%ADD20R,0.0240X0.0340*%
D10*
X000827Y003968D02*
X001128Y003968D01*
X000978Y003968D02*
X000978Y004418D01*
X000827Y004268D01*
X002827Y004343D02*
X002902Y004418D01*
X003053Y004418D01*
X003128Y004343D01*
X003128Y004268D01*
X002827Y003968D01*
X003128Y003968D01*
X004827Y004043D02*
X004902Y003968D01*
X005053Y003968D01*
X005128Y004043D01*
X005128Y004118D01*
X005053Y004193D01*
X004978Y004193D01*
X005053Y004193D02*
X005128Y004268D01*
X005128Y004343D01*
X005053Y004418D01*
X004902Y004418D01*
X004827Y004343D01*
X006827Y004193D02*
X007128Y004193D01*
X007053Y004418D02*
X006827Y004193D01*
X007053Y003968D02*
X007053Y004418D01*
X004837Y006192D02*
X004536Y006192D01*
X004837Y006492D01*
X004837Y006567D01*
X004761Y006643D01*
X004611Y006643D01*
X004536Y006567D01*
X004376Y006567D02*
X004301Y006643D01*
X004151Y006643D01*
X004076Y006567D01*
X004076Y006267D01*
X004151Y006192D01*
X004301Y006192D01*
X004376Y006267D01*
X003919Y006192D02*
X003769Y006192D01*
X003844Y006192D02*
X003844Y006643D01*
X003769Y006643D02*
X003919Y006643D01*
X010559Y003932D02*
X010559Y003632D01*
X010634Y003472D02*
X010559Y003397D01*
X010559Y003246D01*
X010634Y003171D01*
X010934Y003171D01*
X011009Y003246D01*
X011009Y003397D01*
X010934Y003472D01*
X010934Y003632D02*
X011009Y003632D01*
X010934Y003632D02*
X010634Y003932D01*
X010559Y003932D01*
X010847Y004517D02*
X011047Y004667D01*
X011047Y004867D01*
X011047Y005467D01*
X011047Y005667D01*
X010847Y005817D01*
X010847Y006867D01*
X011247Y006867D01*
X011347Y006867D01*
X011347Y005467D01*
X011347Y004867D01*
X011247Y004867D01*
X011047Y004867D01*
X011347Y004867D02*
X011347Y003167D01*
X013847Y003167D01*
X013847Y012167D01*
X011347Y012167D01*
X011347Y008467D01*
X011247Y008467D01*
X010847Y008467D01*
X010847Y010367D01*
X010897Y010367D01*
X010897Y010967D01*
X010847Y010967D01*
X010847Y012667D01*
X014347Y012667D01*
X014347Y012167D01*
X014447Y012167D01*
X014447Y011667D01*
X014347Y011667D01*
X014347Y007917D01*
X014447Y007917D01*
X014447Y007417D01*
X014347Y007417D01*
X014347Y003667D01*
X014447Y003667D01*
X014447Y003167D01*
X014347Y003167D01*
X014347Y002667D01*
X010847Y002667D01*
X010847Y004517D01*
X011047Y005467D02*
X011247Y005467D01*
X011347Y005467D01*
X011347Y006867D02*
X011647Y006867D01*
X011647Y008467D01*
X011347Y008467D01*
X010847Y008467D02*
X010847Y006867D01*
X011171Y007171D02*
X011021Y007322D01*
X011472Y007322D01*
X011472Y007472D02*
X011472Y007171D01*
X011247Y007632D02*
X011247Y007932D01*
X011472Y007857D02*
X011021Y007857D01*
X011247Y007632D01*
X012021Y011232D02*
X011871Y011382D01*
X012322Y011382D01*
X012322Y011232D02*
X012322Y011532D01*
X012871Y011457D02*
X012871Y011307D01*
X012946Y011232D01*
X012871Y011457D02*
X012946Y011532D01*
X013021Y011532D01*
X013322Y011232D01*
X013322Y011532D01*
X017242Y013242D02*
X017469Y013242D01*
X017355Y013242D02*
X017355Y013582D01*
X017242Y013469D01*
X018031Y013607D02*
X018257Y013382D01*
X018257Y013682D01*
X018482Y013607D02*
X018031Y013607D01*
X018482Y013222D02*
X018482Y012921D01*
X018031Y012921D01*
X018106Y012761D02*
X018031Y012686D01*
X018031Y012536D01*
X018106Y012461D01*
X018181Y012461D01*
X018257Y012536D01*
X018257Y012686D01*
X018332Y012761D01*
X018407Y012761D01*
X018482Y012686D01*
X018482Y012536D01*
X018407Y012461D01*
X018262Y014162D02*
X018563Y014462D01*
X018563Y014537D01*
X018488Y014613D01*
X018337Y014613D01*
X018262Y014537D01*
X018102Y014537D02*
X018102Y014387D01*
X018027Y014312D01*
X017802Y014312D01*
X017802Y014162D02*
X017802Y014613D01*
X018027Y014613D01*
X018102Y014537D01*
X017642Y014613D02*
X017492Y014613D01*
X017567Y014613D02*
X017567Y014237D01*
X017492Y014162D01*
X017417Y014162D01*
X017342Y014237D01*
X016847Y014721D02*
X016546Y014721D01*
X016471Y014796D01*
X016471Y014947D01*
X016546Y015022D01*
X016546Y015182D02*
X016471Y015257D01*
X016471Y015407D01*
X016546Y015482D01*
X016621Y015482D01*
X016697Y015407D01*
X016772Y015482D01*
X016847Y015482D01*
X016922Y015407D01*
X016922Y015257D01*
X016847Y015182D01*
X016847Y015022D02*
X016922Y014947D01*
X016922Y014796D01*
X016847Y014721D01*
X016697Y015332D02*
X016697Y015407D01*
X014523Y015412D02*
X014223Y015412D01*
X014373Y015412D02*
X014373Y015863D01*
X014223Y015712D01*
X014063Y015712D02*
X014063Y015412D01*
X014063Y015637D02*
X013762Y015637D01*
X013762Y015712D02*
X013913Y015863D01*
X014063Y015712D01*
X013762Y015712D02*
X013762Y015412D01*
X013602Y015637D02*
X013527Y015562D01*
X013302Y015562D01*
X013302Y015412D02*
X013302Y015863D01*
X013527Y015863D01*
X013602Y015787D01*
X013602Y015637D01*
X013142Y015863D02*
X012992Y015863D01*
X013067Y015863D02*
X013067Y015487D01*
X012992Y015412D01*
X012917Y015412D01*
X012842Y015487D01*
X009947Y017167D02*
X009947Y017417D01*
X009947Y018417D01*
X009872Y018182D02*
X009797Y018182D01*
X009722Y018107D01*
X009722Y017882D01*
X009872Y017882D01*
X009947Y017957D01*
X009947Y018107D01*
X009872Y018182D01*
X009722Y017882D02*
X009571Y018032D01*
X009496Y018182D01*
X009571Y017722D02*
X009496Y017647D01*
X009496Y017496D01*
X009571Y017421D01*
X009872Y017421D01*
X009947Y017496D01*
X009947Y017647D01*
X009872Y017722D01*
X012097Y017917D02*
X012247Y017917D01*
X012247Y017817D01*
X017884Y018292D02*
X017884Y017292D01*
X017884Y017042D01*
X020034Y017792D02*
X020184Y017792D01*
X020184Y017692D01*
X021841Y016562D02*
X021916Y016562D01*
X022217Y016262D01*
X022292Y016262D01*
X022217Y016102D02*
X021916Y016102D01*
X021841Y016026D01*
X021841Y015801D01*
X022292Y015801D01*
X022292Y016026D01*
X022217Y016102D01*
X021841Y016262D02*
X021841Y016562D01*
X022697Y017042D02*
X022697Y017292D01*
X022697Y018292D01*
X024847Y017792D02*
X024997Y017792D01*
X024997Y017692D01*
X025101Y015918D02*
X025026Y015842D01*
X025026Y015542D01*
X025101Y015467D01*
X025251Y015467D01*
X025326Y015542D01*
X025486Y015692D02*
X025787Y015692D01*
X025711Y015467D02*
X025711Y015918D01*
X025486Y015692D01*
X025326Y015842D02*
X025251Y015918D01*
X025101Y015918D01*
X025822Y014667D02*
X025822Y013667D01*
X025822Y013417D01*
X024482Y013382D02*
X024181Y013682D01*
X024106Y013682D01*
X024031Y013607D01*
X024031Y013457D01*
X024106Y013382D01*
X024482Y013382D02*
X024482Y013682D01*
X024482Y013222D02*
X024482Y012921D01*
X024031Y012921D01*
X024106Y012761D02*
X024031Y012686D01*
X024031Y012536D01*
X024106Y012461D01*
X024181Y012461D01*
X024257Y012536D01*
X024257Y012686D01*
X024332Y012761D01*
X024407Y012761D01*
X024482Y012686D01*
X024482Y012536D01*
X024407Y012461D01*
X023469Y013242D02*
X023242Y013242D01*
X023355Y013242D02*
X023355Y013582D01*
X023242Y013469D01*
X022217Y014881D02*
X022292Y014956D01*
X022292Y015031D01*
X022217Y015106D01*
X021841Y015106D01*
X021841Y015031D02*
X021841Y015181D01*
X021841Y015341D02*
X021841Y015566D01*
X021916Y015641D01*
X022067Y015641D01*
X022142Y015566D01*
X022142Y015341D01*
X022292Y015341D02*
X021841Y015341D01*
X018563Y014162D02*
X018262Y014162D01*
X021346Y010732D02*
X021421Y010582D01*
X021572Y010432D01*
X021572Y010657D01*
X021647Y010732D01*
X021722Y010732D01*
X021797Y010657D01*
X021797Y010507D01*
X021722Y010432D01*
X021572Y010432D01*
X021572Y010272D02*
X021647Y010197D01*
X021647Y009971D01*
X021797Y009971D02*
X021346Y009971D01*
X021346Y010197D01*
X021421Y010272D01*
X021572Y010272D01*
X021647Y010122D02*
X021797Y010272D01*
X025822Y009917D02*
X025822Y008917D01*
X025822Y008667D01*
X027972Y009417D02*
X028122Y009417D01*
X028122Y009317D01*
X028581Y008942D02*
X029032Y008942D01*
X029032Y008792D02*
X029032Y009092D01*
X028731Y008792D02*
X028581Y008942D01*
X028656Y008632D02*
X028957Y008632D01*
X029032Y008557D01*
X029032Y008406D01*
X028957Y008331D01*
X028656Y008331D01*
X028581Y008406D01*
X028581Y008557D01*
X028656Y008632D01*
X028882Y008482D02*
X029032Y008632D01*
X029492Y005863D02*
X029642Y005863D01*
X029567Y005863D02*
X029567Y005487D01*
X029492Y005412D01*
X029417Y005412D01*
X029342Y005487D01*
X029802Y005412D02*
X029802Y005863D01*
X030027Y005863D01*
X030102Y005787D01*
X030102Y005637D01*
X030027Y005562D01*
X029802Y005562D01*
X030262Y005412D02*
X030488Y005412D01*
X030563Y005487D01*
X030563Y005787D01*
X030488Y005863D01*
X030262Y005863D01*
X030262Y005412D01*
X030723Y005487D02*
X030798Y005412D01*
X030948Y005412D01*
X031023Y005487D01*
X031023Y005562D01*
X030948Y005637D01*
X030723Y005637D01*
X030723Y005487D01*
X030723Y005637D02*
X030873Y005787D01*
X031023Y005863D01*
X035651Y005842D02*
X035651Y006293D01*
X035876Y006293D01*
X035951Y006217D01*
X035951Y006067D01*
X035876Y005992D01*
X035651Y005992D01*
X035801Y005992D02*
X035951Y005842D01*
X036111Y005917D02*
X036186Y005842D01*
X036336Y005842D01*
X036411Y005917D01*
X036411Y005992D01*
X036336Y006067D01*
X036261Y006067D01*
X036336Y006067D02*
X036411Y006142D01*
X036411Y006217D01*
X036336Y006293D01*
X036186Y006293D01*
X036111Y006217D01*
X036336Y005042D02*
X036111Y004817D01*
X036412Y004817D01*
X036336Y004592D02*
X036336Y005042D01*
X035951Y004967D02*
X035951Y004817D01*
X035876Y004742D01*
X035651Y004742D01*
X035651Y004592D02*
X035651Y005042D01*
X035876Y005042D01*
X035951Y004967D01*
X035801Y004742D02*
X035951Y004592D01*
X033534Y002907D02*
X033534Y002607D01*
X033534Y002757D02*
X033084Y002757D01*
X033234Y002607D01*
X033159Y002446D02*
X033459Y002146D01*
X033534Y002221D01*
X033534Y002371D01*
X033459Y002446D01*
X033159Y002446D01*
X033084Y002371D01*
X033084Y002221D01*
X033159Y002146D01*
X033459Y002146D01*
X033534Y001986D02*
X033534Y001686D01*
X033234Y001986D01*
X033159Y001986D01*
X033084Y001911D01*
X033084Y001761D01*
X033159Y001686D01*
X033159Y001526D02*
X033084Y001451D01*
X033084Y001226D01*
X033534Y001226D01*
X033534Y001451D01*
X033459Y001526D01*
X033159Y001526D01*
X033234Y001065D02*
X033534Y001065D01*
X033309Y001065D02*
X033309Y000765D01*
X033234Y000765D02*
X033534Y000765D01*
X033309Y000605D02*
X033384Y000530D01*
X033384Y000305D01*
X033534Y000305D02*
X033084Y000305D01*
X033084Y000530D01*
X033159Y000605D01*
X033309Y000605D01*
X033234Y000765D02*
X033084Y000915D01*
X033234Y001065D01*
X030733Y002562D02*
X030583Y002412D01*
X030433Y002562D01*
X030433Y002863D01*
X030273Y002787D02*
X030198Y002863D01*
X030048Y002863D01*
X029973Y002787D01*
X030273Y002787D02*
X030273Y002712D01*
X029973Y002412D01*
X030273Y002412D01*
X029813Y002412D02*
X029512Y002412D01*
X029663Y002412D02*
X029663Y002863D01*
X029512Y002712D01*
X029352Y002637D02*
X029277Y002562D01*
X029052Y002562D01*
X029052Y002412D02*
X029052Y002863D01*
X029277Y002863D01*
X029352Y002787D01*
X029352Y002637D01*
X028892Y002863D02*
X028742Y002863D01*
X028817Y002863D02*
X028817Y002487D01*
X028742Y002412D01*
X028667Y002412D01*
X028592Y002487D01*
X030733Y002562D02*
X030733Y002863D01*
X025472Y004317D02*
X025397Y004242D01*
X025096Y004242D01*
X025021Y004317D01*
X025021Y004467D01*
X025096Y004542D01*
X025096Y004703D02*
X025021Y004778D01*
X025021Y004928D01*
X025096Y005003D01*
X025171Y005003D01*
X025472Y004703D01*
X025472Y005003D01*
X025397Y004542D02*
X025472Y004467D01*
X025472Y004317D01*
X022042Y004956D02*
X022042Y005031D01*
X021967Y005106D01*
X021591Y005106D01*
X021591Y005031D02*
X021591Y005181D01*
X021591Y005341D02*
X021591Y005566D01*
X021666Y005641D01*
X021817Y005641D01*
X021892Y005566D01*
X021892Y005341D01*
X022042Y005341D02*
X021591Y005341D01*
X021591Y005801D02*
X021591Y006026D01*
X021666Y006102D01*
X021967Y006102D01*
X022042Y006026D01*
X022042Y005801D01*
X021591Y005801D01*
X021817Y006262D02*
X021817Y006562D01*
X022042Y006487D02*
X021591Y006487D01*
X021817Y006262D01*
X022042Y004956D02*
X021967Y004881D01*
X019042Y005166D02*
X019042Y005241D01*
X018967Y005316D01*
X018591Y005316D01*
X018591Y005241D02*
X018591Y005391D01*
X018591Y005551D02*
X018591Y005777D01*
X018666Y005852D01*
X018817Y005852D01*
X018892Y005777D01*
X018892Y005551D01*
X019042Y005551D02*
X018591Y005551D01*
X018817Y006012D02*
X018817Y006237D01*
X018892Y006312D01*
X018967Y006312D01*
X019042Y006237D01*
X019042Y006087D01*
X018967Y006012D01*
X018817Y006012D01*
X018666Y006162D01*
X018591Y006312D01*
X018591Y006316D02*
X018967Y006316D01*
X019042Y006241D01*
X019042Y006166D01*
X018967Y006091D01*
X018591Y006241D02*
X018591Y006391D01*
X018591Y006551D02*
X018591Y006777D01*
X018666Y006852D01*
X018817Y006852D01*
X018892Y006777D01*
X018892Y006551D01*
X019042Y006551D02*
X018591Y006551D01*
X018591Y007012D02*
X018591Y007312D01*
X018666Y007312D01*
X018967Y007012D01*
X019042Y007012D01*
X019042Y005166D02*
X018967Y005091D01*
X012063Y002787D02*
X012063Y002487D01*
X011988Y002412D01*
X011837Y002412D01*
X011762Y002487D01*
X012063Y002787D01*
X011988Y002863D01*
X011837Y002863D01*
X011762Y002787D01*
X011762Y002487D01*
X011602Y002637D02*
X011527Y002562D01*
X011302Y002562D01*
X011302Y002412D02*
X011302Y002863D01*
X011527Y002863D01*
X011602Y002787D01*
X011602Y002637D01*
X011142Y002863D02*
X010992Y002863D01*
X011067Y002863D02*
X011067Y002487D01*
X010992Y002412D01*
X010917Y002412D01*
X010842Y002487D01*
X029342Y011737D02*
X029417Y011662D01*
X029492Y011662D01*
X029567Y011737D01*
X029567Y012113D01*
X029492Y012113D02*
X029642Y012113D01*
X029802Y012113D02*
X030027Y012113D01*
X030102Y012037D01*
X030102Y011887D01*
X030027Y011812D01*
X029802Y011812D01*
X029802Y011662D02*
X029802Y012113D01*
X030262Y012113D02*
X030488Y012113D01*
X030563Y012037D01*
X030563Y011737D01*
X030488Y011662D01*
X030262Y011662D01*
X030262Y012113D01*
X030723Y012113D02*
X030723Y011887D01*
X030873Y011962D01*
X030948Y011962D01*
X031023Y011887D01*
X031023Y011737D01*
X030948Y011662D01*
X030798Y011662D01*
X030723Y011737D01*
X030723Y012113D02*
X031023Y012113D01*
X029032Y013906D02*
X028957Y013831D01*
X028656Y013831D01*
X028581Y013906D01*
X028581Y014057D01*
X028656Y014132D01*
X028957Y014132D01*
X029032Y014057D01*
X029032Y013906D01*
X028882Y013982D02*
X029032Y014132D01*
X029032Y014292D02*
X028731Y014592D01*
X028656Y014592D01*
X028581Y014517D01*
X028581Y014367D01*
X028656Y014292D01*
X029032Y014292D02*
X029032Y014592D01*
X028122Y014167D02*
X028122Y014067D01*
X028122Y014167D02*
X027972Y014167D01*
X033084Y015680D02*
X033084Y015905D01*
X033159Y015980D01*
X033309Y015980D01*
X033384Y015905D01*
X033384Y015680D01*
X033534Y015680D02*
X033084Y015680D01*
X033234Y016140D02*
X033084Y016290D01*
X033234Y016440D01*
X033534Y016440D01*
X033534Y016601D02*
X033084Y016601D01*
X033084Y016826D01*
X033159Y016901D01*
X033459Y016901D01*
X033534Y016826D01*
X033534Y016601D01*
X033309Y016440D02*
X033309Y016140D01*
X033234Y016140D02*
X033534Y016140D01*
X033534Y017061D02*
X033234Y017361D01*
X033159Y017361D01*
X033084Y017286D01*
X033084Y017136D01*
X033159Y017061D01*
X033534Y017061D02*
X033534Y017361D01*
X033459Y017521D02*
X033159Y017821D01*
X033459Y017821D01*
X033534Y017746D01*
X033534Y017596D01*
X033459Y017521D01*
X033159Y017521D01*
X033084Y017596D01*
X033084Y017746D01*
X033159Y017821D01*
X033159Y017982D02*
X033084Y018057D01*
X033084Y018207D01*
X033159Y018282D01*
X033234Y018282D01*
X033534Y017982D01*
X033534Y018282D01*
X031211Y018875D02*
X031211Y019175D01*
X030910Y019175D02*
X030910Y018875D01*
X031060Y018725D01*
X031211Y018875D01*
X030750Y018875D02*
X030675Y018950D01*
X030450Y018950D01*
X030450Y018800D01*
X030525Y018725D01*
X030675Y018725D01*
X030750Y018800D01*
X030750Y018875D01*
X030600Y019100D02*
X030450Y018950D01*
X030290Y018950D02*
X030215Y018875D01*
X029990Y018875D01*
X029990Y018725D02*
X029990Y019175D01*
X030215Y019175D01*
X030290Y019100D01*
X030290Y018950D01*
X030600Y019100D02*
X030750Y019175D01*
X029829Y019175D02*
X029679Y019175D01*
X029754Y019175D02*
X029754Y018800D01*
X029679Y018725D01*
X029604Y018725D01*
X029529Y018800D01*
X039334Y018207D02*
X039334Y018057D01*
X039409Y017982D01*
X039409Y017821D02*
X039709Y017521D01*
X039784Y017596D01*
X039784Y017746D01*
X039709Y017821D01*
X039409Y017821D01*
X039334Y017746D01*
X039334Y017596D01*
X039409Y017521D01*
X039709Y017521D01*
X039784Y017361D02*
X039784Y017061D01*
X039484Y017361D01*
X039409Y017361D01*
X039334Y017286D01*
X039334Y017136D01*
X039409Y017061D01*
X039409Y016901D02*
X039334Y016826D01*
X039334Y016601D01*
X039784Y016601D01*
X039784Y016826D01*
X039709Y016901D01*
X039409Y016901D01*
X039484Y016440D02*
X039784Y016440D01*
X039559Y016440D02*
X039559Y016140D01*
X039484Y016140D02*
X039334Y016290D01*
X039484Y016440D01*
X039484Y016140D02*
X039784Y016140D01*
X039559Y015980D02*
X039634Y015905D01*
X039634Y015680D01*
X039784Y015680D02*
X039334Y015680D01*
X039334Y015905D01*
X039409Y015980D01*
X039559Y015980D01*
X039709Y017982D02*
X039784Y018057D01*
X039784Y018207D01*
X039709Y018282D01*
X039634Y018282D01*
X039559Y018207D01*
X039559Y018132D01*
X039559Y018207D02*
X039484Y018282D01*
X039409Y018282D01*
X039334Y018207D01*
X037497Y010803D02*
X037572Y010728D01*
X037572Y010578D01*
X037497Y010503D01*
X037347Y010503D02*
X037271Y010653D01*
X037271Y010728D01*
X037347Y010803D01*
X037497Y010803D01*
X037121Y010803D02*
X037121Y010503D01*
X037347Y010503D01*
X037497Y010342D02*
X037572Y010267D01*
X037572Y010117D01*
X037497Y010042D01*
X037196Y010042D01*
X037121Y010117D01*
X037121Y010267D01*
X037196Y010342D01*
X039559Y002907D02*
X039559Y002607D01*
X039334Y002832D01*
X039784Y002832D01*
X039709Y002446D02*
X039409Y002446D01*
X039709Y002146D01*
X039784Y002221D01*
X039784Y002371D01*
X039709Y002446D01*
X039709Y002146D02*
X039409Y002146D01*
X039334Y002221D01*
X039334Y002371D01*
X039409Y002446D01*
X039409Y001986D02*
X039334Y001911D01*
X039334Y001761D01*
X039409Y001686D01*
X039409Y001526D02*
X039334Y001451D01*
X039334Y001226D01*
X039784Y001226D01*
X039784Y001451D01*
X039709Y001526D01*
X039409Y001526D01*
X039784Y001686D02*
X039484Y001986D01*
X039409Y001986D01*
X039784Y001986D02*
X039784Y001686D01*
X039784Y001065D02*
X039484Y001065D01*
X039334Y000915D01*
X039484Y000765D01*
X039784Y000765D01*
X039559Y000765D02*
X039559Y001065D01*
X039559Y000605D02*
X039634Y000530D01*
X039634Y000305D01*
X039784Y000305D02*
X039334Y000305D01*
X039334Y000530D01*
X039409Y000605D01*
X039559Y000605D01*
X004057Y016617D02*
X003982Y016542D01*
X003832Y016542D01*
X003757Y016617D01*
X003757Y016692D01*
X003832Y016767D01*
X003982Y016767D01*
X004057Y016692D01*
X004057Y016617D01*
X003982Y016767D02*
X004057Y016842D01*
X004057Y016917D01*
X003982Y016993D01*
X003832Y016993D01*
X003757Y016917D01*
X003757Y016842D01*
X003832Y016767D01*
X003597Y016767D02*
X003522Y016692D01*
X003297Y016692D01*
X003447Y016692D02*
X003597Y016542D01*
X003297Y016542D02*
X003297Y016993D01*
X003522Y016993D01*
X003597Y016917D01*
X003597Y016767D01*
D11*
X004097Y017042D02*
X004097Y017792D01*
X004847Y017792D01*
X004847Y017042D01*
X004097Y017042D01*
X011247Y012267D02*
X011247Y008467D01*
X011247Y006867D02*
X011247Y005467D01*
X011247Y004867D02*
X011247Y003067D01*
X013947Y003067D01*
X013947Y012267D01*
X011247Y012267D01*
X038284Y004042D02*
X038284Y003292D01*
X039034Y003292D01*
X039034Y004042D01*
X038284Y004042D01*
D12*
X027146Y006252D02*
X027146Y006539D01*
X027146Y006396D02*
X026716Y006396D01*
X026859Y006252D01*
X026807Y009952D02*
X026736Y010024D01*
X026736Y010168D01*
X026807Y010239D01*
X026879Y010239D01*
X026951Y010168D01*
X027023Y010239D01*
X027094Y010239D01*
X027166Y010168D01*
X027166Y010024D01*
X027094Y009952D01*
X026951Y010096D02*
X026951Y010168D01*
X026859Y011002D02*
X026716Y011146D01*
X027146Y011146D01*
X027146Y011289D02*
X027146Y011002D01*
X027094Y014702D02*
X027166Y014774D01*
X027166Y014918D01*
X027094Y014989D01*
X027023Y014989D01*
X026951Y014918D01*
X026951Y014846D01*
X026951Y014918D02*
X026879Y014989D01*
X026807Y014989D01*
X026736Y014918D01*
X026736Y014774D01*
X026807Y014702D01*
X024021Y014771D02*
X023591Y014771D01*
X023734Y014627D01*
X024021Y014627D02*
X024021Y014914D01*
X019209Y014914D02*
X019209Y014627D01*
X019209Y014771D02*
X018778Y014771D01*
X018922Y014627D01*
X015262Y012373D02*
X015157Y012478D01*
X015052Y012478D01*
X014946Y012373D01*
X014946Y012163D01*
X014841Y012058D01*
X014736Y012058D01*
X014631Y012163D01*
X014631Y012373D01*
X014736Y012478D01*
X014841Y012478D01*
X014946Y012373D01*
X014946Y012163D02*
X015052Y012058D01*
X015157Y012058D01*
X015262Y012163D01*
X015262Y012373D01*
X015157Y011833D02*
X014736Y011833D01*
X015157Y011413D01*
X015262Y011518D01*
X015262Y011728D01*
X015157Y011833D01*
X014736Y011833D02*
X014631Y011728D01*
X014631Y011518D01*
X014736Y011413D01*
X015157Y011413D01*
X015262Y011189D02*
X015262Y010769D01*
X014841Y011189D01*
X014736Y011189D01*
X014631Y011084D01*
X014631Y010874D01*
X014736Y010769D01*
X014631Y010544D02*
X014631Y010334D01*
X014631Y010439D02*
X015157Y010439D01*
X015262Y010334D01*
X015262Y010229D01*
X015157Y010124D01*
X011271Y014752D02*
X011271Y015039D01*
X011271Y014896D02*
X010841Y014896D01*
X010984Y014752D01*
X010933Y018452D02*
X010861Y018524D01*
X010861Y018668D01*
X010933Y018739D01*
X011004Y018739D01*
X011076Y018668D01*
X011148Y018739D01*
X011219Y018739D01*
X011291Y018668D01*
X011291Y018524D01*
X011219Y018452D01*
X011076Y018596D02*
X011076Y018668D01*
X018798Y018543D02*
X018798Y018399D01*
X018870Y018327D01*
X019013Y018471D02*
X019013Y018543D01*
X019085Y018614D01*
X019157Y018614D01*
X019229Y018543D01*
X019229Y018399D01*
X019157Y018327D01*
X019013Y018543D02*
X018942Y018614D01*
X018870Y018614D01*
X018798Y018543D01*
X023611Y018543D02*
X023611Y018399D01*
X023683Y018327D01*
X023826Y018471D02*
X023826Y018543D01*
X023898Y018614D01*
X023969Y018614D01*
X024041Y018543D01*
X024041Y018399D01*
X023969Y018327D01*
X023826Y018543D02*
X023754Y018614D01*
X023683Y018614D01*
X023611Y018543D01*
X002971Y006653D02*
X002866Y006758D01*
X002656Y006758D01*
X002551Y006653D01*
X002327Y006653D02*
X001906Y006233D01*
X002012Y006128D01*
X002222Y006128D01*
X002327Y006233D01*
X002327Y006653D01*
X002222Y006758D01*
X002012Y006758D01*
X001906Y006653D01*
X001906Y006233D01*
X001682Y006128D02*
X001262Y006128D01*
X001682Y006548D01*
X001682Y006653D01*
X001577Y006758D01*
X001367Y006758D01*
X001262Y006653D01*
X001038Y006758D02*
X000828Y006758D01*
X000933Y006758D02*
X000933Y006233D01*
X000828Y006128D01*
X000723Y006128D01*
X000617Y006233D01*
X002551Y006128D02*
X002971Y006548D01*
X002971Y006653D01*
X002971Y006128D02*
X002551Y006128D01*
D13*
X000582Y003693D02*
X000582Y000993D01*
X000782Y000993D01*
X000782Y001743D01*
X002382Y001743D01*
X002382Y003543D01*
X002232Y003543D01*
X002232Y003693D02*
X002932Y003693D01*
X002932Y003543D02*
X002782Y003543D01*
X002782Y001743D01*
X004382Y001743D01*
X004382Y000993D01*
X004552Y000993D01*
X004722Y000993D01*
X004722Y001743D01*
X006322Y001743D01*
X006322Y003543D01*
X006172Y003543D01*
X006172Y003693D02*
X006872Y003693D01*
X006872Y003543D02*
X006722Y003543D01*
X006722Y001743D01*
X008322Y001743D01*
X008322Y000993D01*
X008522Y000993D01*
X008522Y001393D01*
X008522Y001843D01*
X008522Y003693D01*
X008122Y003693D01*
X008122Y003543D02*
X008322Y003543D01*
X008322Y001743D01*
X008522Y001843D02*
X008722Y001943D01*
X008722Y001293D01*
X008522Y001393D01*
X009184Y001317D02*
X009184Y004017D01*
X009186Y004034D01*
X009190Y004051D01*
X009197Y004067D01*
X009207Y004081D01*
X009220Y004094D01*
X009234Y004104D01*
X009250Y004111D01*
X009267Y004115D01*
X009284Y004117D01*
X010284Y004117D01*
X010301Y004115D01*
X010318Y004111D01*
X010334Y004104D01*
X010348Y004094D01*
X010361Y004081D01*
X010371Y004067D01*
X010378Y004051D01*
X010382Y004034D01*
X010384Y004017D01*
X010384Y001317D01*
X010382Y001300D01*
X010378Y001283D01*
X010371Y001267D01*
X010361Y001253D01*
X010348Y001240D01*
X010334Y001230D01*
X010318Y001223D01*
X010301Y001219D01*
X010284Y001217D01*
X009284Y001217D01*
X009267Y001219D01*
X009250Y001223D01*
X009234Y001230D01*
X009220Y001240D01*
X009207Y001253D01*
X009197Y001267D01*
X009190Y001283D01*
X009186Y001300D01*
X009184Y001317D01*
X008322Y000993D02*
X006722Y000993D01*
X006322Y000993D01*
X004722Y000993D01*
X004552Y000993D02*
X004552Y003693D01*
X004182Y003693D01*
X004182Y003543D02*
X004382Y003543D01*
X004382Y001743D01*
X004722Y001743D02*
X004722Y003543D01*
X004922Y003543D01*
X004922Y003693D02*
X004552Y003693D01*
X004552Y004693D01*
X004552Y005893D01*
X008522Y005893D01*
X008722Y005893D01*
X008722Y003993D01*
X008522Y004093D01*
X008522Y004693D01*
X004552Y004693D01*
X000582Y004693D01*
X000582Y005893D01*
X004552Y005893D01*
X004382Y005793D02*
X004382Y004793D01*
X002782Y004793D01*
X002782Y005793D01*
X004382Y005793D01*
X004722Y005793D02*
X006322Y005793D01*
X006322Y004793D01*
X004722Y004793D01*
X004722Y005793D01*
X004902Y005433D02*
X004883Y005409D01*
X004867Y005384D01*
X004854Y005356D01*
X004845Y005327D01*
X004840Y005298D01*
X004839Y005267D01*
X004842Y005237D01*
X004848Y005208D01*
X004859Y005179D01*
X004873Y005152D01*
X004890Y005128D01*
X004910Y005105D01*
X004933Y005086D01*
X004959Y005069D01*
X004932Y005143D02*
X006132Y005393D01*
X006082Y005443D02*
X004882Y005193D01*
X004882Y005413D02*
X004917Y005454D01*
X004956Y005493D01*
X004997Y005529D01*
X005040Y005562D01*
X005085Y005592D01*
X005132Y005620D01*
X005181Y005643D01*
X005232Y005664D01*
X005283Y005681D01*
X005336Y005695D01*
X005389Y005705D01*
X005444Y005711D01*
X005498Y005714D01*
X005552Y005713D01*
X005607Y005708D01*
X005660Y005700D01*
X005714Y005689D01*
X005766Y005673D01*
X005817Y005654D01*
X005867Y005632D01*
X005915Y005607D01*
X005961Y005578D01*
X006005Y005547D01*
X006047Y005512D01*
X006087Y005475D01*
X006124Y005435D01*
X006122Y005433D02*
X006141Y005409D01*
X006157Y005384D01*
X006170Y005356D01*
X006180Y005328D01*
X006187Y005298D01*
X006191Y005268D01*
X006191Y005238D01*
X006187Y005207D01*
X006180Y005178D01*
X006170Y005149D01*
X006157Y005122D01*
X006141Y005096D01*
X006122Y005073D01*
X006100Y005051D01*
X006722Y004793D02*
X008322Y004793D01*
X008322Y005793D01*
X006722Y005793D01*
X006722Y004793D01*
X006932Y005143D02*
X008132Y005393D01*
X008082Y005443D02*
X006882Y005193D01*
X006959Y005069D02*
X006933Y005086D01*
X006910Y005105D01*
X006890Y005128D01*
X006873Y005152D01*
X006859Y005179D01*
X006848Y005208D01*
X006842Y005237D01*
X006839Y005267D01*
X006840Y005298D01*
X006845Y005327D01*
X006854Y005356D01*
X006867Y005384D01*
X006883Y005409D01*
X006902Y005433D01*
X006942Y005083D02*
X006991Y005047D01*
X007041Y005014D01*
X007093Y004984D01*
X007147Y004958D01*
X007203Y004935D01*
X007260Y004915D01*
X007318Y004899D01*
X007377Y004887D01*
X007437Y004879D01*
X007497Y004874D01*
X007557Y004873D01*
X007617Y004876D01*
X007677Y004883D01*
X007737Y004893D01*
X007795Y004907D01*
X007853Y004925D01*
X007909Y004946D01*
X007964Y004971D01*
X008017Y004999D01*
X008069Y005030D01*
X008118Y005065D01*
X008100Y005051D02*
X008122Y005073D01*
X008141Y005096D01*
X008157Y005122D01*
X008170Y005149D01*
X008180Y005178D01*
X008187Y005207D01*
X008191Y005238D01*
X008191Y005268D01*
X008187Y005298D01*
X008180Y005328D01*
X008170Y005356D01*
X008157Y005384D01*
X008141Y005409D01*
X008122Y005433D01*
X008124Y005435D02*
X008087Y005475D01*
X008047Y005512D01*
X008005Y005547D01*
X007961Y005578D01*
X007915Y005607D01*
X007867Y005632D01*
X007817Y005654D01*
X007766Y005673D01*
X007714Y005689D01*
X007660Y005700D01*
X007607Y005708D01*
X007552Y005713D01*
X007498Y005714D01*
X007444Y005711D01*
X007389Y005705D01*
X007336Y005695D01*
X007283Y005681D01*
X007232Y005664D01*
X007181Y005643D01*
X007132Y005620D01*
X007085Y005592D01*
X007040Y005562D01*
X006997Y005529D01*
X006956Y005493D01*
X006917Y005454D01*
X006882Y005413D01*
X006118Y005065D02*
X006069Y005030D01*
X006017Y004999D01*
X005964Y004971D01*
X005909Y004946D01*
X005853Y004925D01*
X005795Y004907D01*
X005737Y004893D01*
X005677Y004883D01*
X005617Y004876D01*
X005557Y004873D01*
X005497Y004874D01*
X005437Y004879D01*
X005377Y004887D01*
X005318Y004899D01*
X005260Y004915D01*
X005203Y004935D01*
X005147Y004958D01*
X005093Y004984D01*
X005041Y005014D01*
X004991Y005047D01*
X004942Y005083D01*
X004192Y005393D02*
X002992Y005143D01*
X002942Y005193D02*
X004142Y005443D01*
X004182Y005433D02*
X004201Y005409D01*
X004217Y005384D01*
X004230Y005356D01*
X004240Y005328D01*
X004247Y005298D01*
X004251Y005268D01*
X004251Y005238D01*
X004247Y005207D01*
X004240Y005178D01*
X004230Y005149D01*
X004217Y005122D01*
X004201Y005096D01*
X004182Y005073D01*
X004160Y005051D01*
X004184Y005435D02*
X004147Y005475D01*
X004107Y005512D01*
X004065Y005547D01*
X004021Y005578D01*
X003975Y005607D01*
X003927Y005632D01*
X003877Y005655D01*
X003826Y005673D01*
X003774Y005689D01*
X003720Y005700D01*
X003667Y005708D01*
X003612Y005713D01*
X003558Y005714D01*
X003503Y005711D01*
X003449Y005705D01*
X003396Y005695D01*
X003343Y005681D01*
X003292Y005664D01*
X003241Y005643D01*
X003192Y005620D01*
X003145Y005592D01*
X003100Y005562D01*
X003056Y005529D01*
X003016Y005493D01*
X002977Y005454D01*
X002942Y005413D01*
X002962Y005433D02*
X002943Y005409D01*
X002927Y005384D01*
X002914Y005356D01*
X002905Y005327D01*
X002900Y005298D01*
X002899Y005267D01*
X002902Y005237D01*
X002908Y005208D01*
X002919Y005179D01*
X002933Y005152D01*
X002950Y005128D01*
X002970Y005105D01*
X002993Y005086D01*
X003019Y005069D01*
X002382Y004793D02*
X000782Y004793D01*
X000782Y005793D01*
X002382Y005793D01*
X002382Y004793D01*
X002160Y005051D02*
X002182Y005073D01*
X002201Y005096D01*
X002217Y005122D01*
X002230Y005149D01*
X002240Y005178D01*
X002247Y005207D01*
X002251Y005238D01*
X002251Y005268D01*
X002247Y005298D01*
X002240Y005328D01*
X002230Y005356D01*
X002217Y005384D01*
X002201Y005409D01*
X002182Y005433D01*
X002142Y005443D02*
X000942Y005193D01*
X000992Y005143D02*
X002192Y005393D01*
X002179Y005064D02*
X002129Y005030D01*
X002078Y004998D01*
X002024Y004970D01*
X001969Y004945D01*
X001913Y004924D01*
X001855Y004906D01*
X001797Y004892D01*
X001737Y004882D01*
X001677Y004875D01*
X001617Y004872D01*
X001557Y004873D01*
X001497Y004878D01*
X001437Y004886D01*
X001378Y004898D01*
X001320Y004914D01*
X001263Y004934D01*
X001207Y004957D01*
X001153Y004983D01*
X001100Y005013D01*
X001050Y005046D01*
X001002Y005083D01*
X001019Y005069D02*
X000993Y005086D01*
X000970Y005105D01*
X000950Y005128D01*
X000933Y005152D01*
X000919Y005179D01*
X000908Y005208D01*
X000902Y005237D01*
X000899Y005267D01*
X000900Y005298D01*
X000905Y005327D01*
X000914Y005356D01*
X000927Y005384D01*
X000943Y005409D01*
X000962Y005433D01*
X000942Y005413D02*
X000977Y005454D01*
X001016Y005493D01*
X001056Y005529D01*
X001100Y005562D01*
X001145Y005592D01*
X001192Y005620D01*
X001241Y005643D01*
X001292Y005664D01*
X001343Y005681D01*
X001396Y005695D01*
X001449Y005705D01*
X001503Y005711D01*
X001558Y005714D01*
X001612Y005713D01*
X001667Y005708D01*
X001720Y005700D01*
X001774Y005689D01*
X001826Y005673D01*
X001877Y005655D01*
X001927Y005632D01*
X001975Y005607D01*
X002021Y005578D01*
X002065Y005547D01*
X002107Y005512D01*
X002147Y005475D01*
X002184Y005435D01*
X003002Y005083D02*
X003050Y005046D01*
X003100Y005013D01*
X003153Y004983D01*
X003207Y004957D01*
X003263Y004934D01*
X003320Y004914D01*
X003378Y004898D01*
X003437Y004886D01*
X003497Y004878D01*
X003557Y004873D01*
X003617Y004872D01*
X003677Y004875D01*
X003737Y004882D01*
X003797Y004892D01*
X003855Y004906D01*
X003913Y004924D01*
X003969Y004945D01*
X004024Y004970D01*
X004078Y004998D01*
X004129Y005030D01*
X004179Y005064D01*
X000982Y003693D02*
X000582Y003693D01*
X000582Y004693D01*
X000782Y003543D02*
X000982Y003543D01*
X000782Y003543D02*
X000782Y001743D01*
X000932Y001993D02*
X000932Y003243D01*
X002232Y003243D02*
X002232Y001993D01*
X000932Y001993D01*
X002382Y001743D02*
X002382Y000993D01*
X000782Y000993D01*
X002382Y000993D02*
X002782Y000993D01*
X004382Y000993D01*
X002782Y000993D02*
X002782Y001743D01*
X002932Y001993D02*
X002932Y003243D01*
X004232Y003243D02*
X004232Y001993D01*
X002932Y001993D01*
X004872Y001993D02*
X004872Y003243D01*
X006172Y003243D02*
X006172Y001993D01*
X004872Y001993D01*
X006322Y001743D02*
X006322Y000993D01*
X006722Y000993D02*
X006722Y001743D01*
X006872Y001993D02*
X006872Y003243D01*
X008172Y003243D02*
X008172Y001993D01*
X006872Y001993D01*
X009784Y002067D02*
X009784Y002537D01*
X009784Y002787D02*
X009784Y003267D01*
X008522Y003693D02*
X008522Y004093D01*
X008522Y004693D02*
X008522Y005893D01*
X005472Y006917D02*
X004472Y006917D01*
X003872Y006917D01*
X003870Y006956D01*
X003864Y006995D01*
X003855Y007033D01*
X003842Y007070D01*
X003825Y007106D01*
X003805Y007139D01*
X003781Y007171D01*
X003755Y007200D01*
X003726Y007226D01*
X003694Y007250D01*
X003661Y007270D01*
X003625Y007287D01*
X003588Y007300D01*
X003550Y007309D01*
X003511Y007315D01*
X003472Y007317D01*
X003433Y007315D01*
X003394Y007309D01*
X003356Y007300D01*
X003319Y007287D01*
X003283Y007270D01*
X003250Y007250D01*
X003218Y007226D01*
X003189Y007200D01*
X003163Y007171D01*
X003139Y007139D01*
X003119Y007106D01*
X003102Y007070D01*
X003089Y007033D01*
X003080Y006995D01*
X003074Y006956D01*
X003072Y006917D01*
X002472Y006917D01*
X002472Y014917D01*
X004472Y014917D01*
X005472Y014917D01*
X005472Y006917D01*
X004472Y006917D02*
X004472Y014917D01*
X005422Y015517D02*
X003522Y015517D01*
X003472Y015467D01*
X003322Y015467D01*
X003305Y015469D01*
X003288Y015473D01*
X003272Y015480D01*
X003258Y015490D01*
X003245Y015503D01*
X003235Y015517D01*
X003228Y015533D01*
X003224Y015550D01*
X003222Y015567D01*
X003222Y016267D01*
X003224Y016284D01*
X003228Y016301D01*
X003235Y016317D01*
X003245Y016331D01*
X003258Y016344D01*
X003272Y016354D01*
X003288Y016361D01*
X003305Y016365D01*
X003322Y016367D01*
X003472Y016367D01*
X003522Y016317D01*
X005422Y016317D01*
X005472Y016367D01*
X005622Y016367D01*
X005639Y016365D01*
X005656Y016361D01*
X005672Y016354D01*
X005686Y016344D01*
X005699Y016331D01*
X005709Y016317D01*
X005716Y016301D01*
X005720Y016284D01*
X005722Y016267D01*
X005722Y015567D01*
X005720Y015550D01*
X005716Y015533D01*
X005709Y015517D01*
X005699Y015503D01*
X005686Y015490D01*
X005672Y015480D01*
X005656Y015473D01*
X005639Y015469D01*
X005622Y015467D01*
X005472Y015467D01*
X005422Y015517D01*
X008122Y015567D02*
X008122Y018267D01*
X008124Y018284D01*
X008128Y018301D01*
X008135Y018317D01*
X008145Y018331D01*
X008158Y018344D01*
X008172Y018354D01*
X008188Y018361D01*
X008205Y018365D01*
X008222Y018367D01*
X009222Y018367D01*
X009239Y018365D01*
X009256Y018361D01*
X009272Y018354D01*
X009286Y018344D01*
X009299Y018331D01*
X009309Y018317D01*
X009316Y018301D01*
X009320Y018284D01*
X009322Y018267D01*
X009322Y015567D01*
X009320Y015550D01*
X009316Y015533D01*
X009309Y015517D01*
X009299Y015503D01*
X009286Y015490D01*
X009272Y015480D01*
X009256Y015473D01*
X009239Y015469D01*
X009222Y015467D01*
X008222Y015467D01*
X008205Y015469D01*
X008188Y015473D01*
X008172Y015480D01*
X008158Y015490D01*
X008145Y015503D01*
X008135Y015517D01*
X008128Y015533D01*
X008124Y015550D01*
X008122Y015567D01*
X008722Y016317D02*
X008722Y016787D01*
X008722Y017037D02*
X008722Y017517D01*
X012847Y014917D02*
X013097Y015167D01*
X013597Y015167D01*
X013847Y014917D01*
X013847Y014417D01*
X013597Y014167D01*
X013097Y014167D01*
X012847Y014417D01*
X012847Y014917D01*
X015947Y013817D02*
X016147Y013817D01*
X016247Y013817D01*
X016247Y013667D01*
X016347Y013667D01*
X016347Y013167D01*
X016247Y013167D01*
X016247Y013017D01*
X017497Y013017D01*
X017397Y012917D01*
X017497Y012817D01*
X016247Y012817D01*
X016247Y012667D01*
X016347Y012667D01*
X016347Y012167D01*
X016247Y012167D01*
X016247Y012017D01*
X017547Y012017D01*
X017547Y011817D01*
X017547Y011017D01*
X017547Y010817D01*
X017547Y010017D01*
X017547Y009817D01*
X017547Y009017D01*
X017547Y008817D01*
X017547Y008017D01*
X017547Y007817D01*
X017547Y007017D01*
X017547Y006817D01*
X017547Y006017D01*
X017547Y005817D01*
X017547Y005017D01*
X017547Y004817D01*
X017547Y004017D01*
X017547Y003817D01*
X017547Y003067D01*
X017497Y003017D01*
X016247Y003017D01*
X016247Y002817D01*
X017497Y002817D01*
X017547Y002767D01*
X017547Y002017D01*
X016247Y002017D01*
X016147Y002017D01*
X016147Y002167D01*
X016247Y002167D01*
X016347Y002167D01*
X016347Y002667D01*
X016247Y002667D01*
X016247Y002817D01*
X016247Y002667D02*
X016147Y002667D01*
X016147Y003167D01*
X016247Y003167D01*
X016247Y003017D01*
X016247Y003167D02*
X016347Y003167D01*
X016347Y003667D01*
X016247Y003667D01*
X016247Y003817D01*
X017547Y003817D01*
X017547Y004017D02*
X016247Y004017D01*
X016247Y003817D01*
X016247Y003667D02*
X016147Y003667D01*
X016147Y004167D01*
X016247Y004167D01*
X016247Y004017D01*
X016247Y004167D02*
X016347Y004167D01*
X016347Y004667D01*
X016247Y004667D01*
X016247Y004817D01*
X017547Y004817D01*
X017547Y005017D02*
X016247Y005017D01*
X016247Y004817D01*
X016247Y004667D02*
X016147Y004667D01*
X016147Y005167D01*
X016247Y005167D01*
X016247Y005017D01*
X016247Y005167D02*
X016347Y005167D01*
X016347Y005667D01*
X016247Y005667D01*
X016247Y005817D01*
X017547Y005817D01*
X017547Y006017D02*
X016247Y006017D01*
X016247Y005817D01*
X016247Y005667D02*
X016147Y005667D01*
X016147Y006167D01*
X016247Y006167D01*
X016247Y006017D01*
X016247Y006167D02*
X016347Y006167D01*
X016347Y006667D01*
X016247Y006667D01*
X016247Y006817D01*
X017547Y006817D01*
X017547Y007017D02*
X016247Y007017D01*
X016247Y006817D01*
X016247Y006667D02*
X016147Y006667D01*
X016147Y007167D01*
X016247Y007167D01*
X016247Y007017D01*
X016247Y007167D02*
X016347Y007167D01*
X016347Y007667D01*
X016247Y007667D01*
X016247Y007817D01*
X017547Y007817D01*
X017547Y008017D02*
X016247Y008017D01*
X016247Y007817D01*
X016247Y007667D02*
X016147Y007667D01*
X016147Y008167D01*
X016247Y008167D01*
X016247Y008017D01*
X016247Y008167D02*
X016347Y008167D01*
X016347Y008667D01*
X016247Y008667D01*
X016247Y008817D01*
X017547Y008817D01*
X017547Y009017D02*
X016247Y009017D01*
X016247Y008817D01*
X016247Y008667D02*
X016147Y008667D01*
X016147Y009167D01*
X016247Y009167D01*
X016247Y009017D01*
X016247Y009167D02*
X016347Y009167D01*
X016347Y009667D01*
X016247Y009667D01*
X016247Y009817D01*
X017547Y009817D01*
X017547Y010017D02*
X016247Y010017D01*
X016247Y009817D01*
X016247Y009667D02*
X016147Y009667D01*
X016147Y010167D01*
X016247Y010167D01*
X016247Y010017D01*
X016247Y010167D02*
X016347Y010167D01*
X016347Y010667D01*
X016247Y010667D01*
X016247Y010817D01*
X016247Y011017D01*
X016247Y011167D01*
X016347Y011167D01*
X016347Y011667D01*
X016247Y011667D01*
X016247Y011817D01*
X017547Y011817D01*
X017547Y012017D02*
X017547Y012767D01*
X017497Y012817D01*
X017597Y012917D02*
X018097Y012917D01*
X018347Y013167D01*
X018597Y012917D01*
X019097Y012917D01*
X019347Y013167D01*
X019347Y013667D01*
X019097Y013917D01*
X018597Y013917D01*
X018347Y013667D01*
X018347Y013167D01*
X017897Y013317D02*
X017897Y013517D01*
X017847Y013517D01*
X017847Y013817D01*
X017547Y013817D01*
X017547Y013067D01*
X017497Y013017D01*
X017597Y012917D02*
X017347Y013167D01*
X017347Y013667D01*
X017597Y013917D01*
X018097Y013917D01*
X018347Y013667D01*
X017897Y013317D02*
X017847Y013317D01*
X017847Y013017D01*
X017797Y013017D01*
X017797Y012817D01*
X017847Y012817D01*
X017847Y012517D01*
X017897Y012517D01*
X017897Y012317D01*
X017847Y012317D01*
X017847Y012017D01*
X017797Y012017D01*
X017797Y011817D01*
X017847Y011817D01*
X017847Y011517D01*
X017897Y011517D01*
X017897Y011317D01*
X017847Y011317D01*
X017847Y011017D01*
X017797Y011017D01*
X017797Y010817D01*
X017847Y010817D01*
X017847Y010517D01*
X017897Y010517D01*
X017897Y010317D01*
X017847Y010317D01*
X017847Y010017D01*
X017797Y010017D01*
X017797Y009817D01*
X017847Y009817D01*
X017847Y009517D01*
X017897Y009517D01*
X017897Y009317D01*
X017847Y009317D01*
X017847Y009017D01*
X017797Y009017D01*
X017797Y008817D01*
X017847Y008817D01*
X017847Y008517D01*
X017897Y008517D01*
X017897Y008317D01*
X017847Y008317D01*
X017847Y008017D01*
X017797Y008017D01*
X017797Y007817D01*
X017847Y007817D01*
X017847Y007517D01*
X017897Y007517D01*
X017897Y007317D01*
X017847Y007317D01*
X017847Y007017D01*
X017797Y007017D01*
X017797Y006817D01*
X017847Y006817D01*
X017847Y006517D01*
X017897Y006517D01*
X017897Y006317D01*
X017847Y006317D01*
X017847Y006017D01*
X017797Y006017D01*
X017797Y005817D01*
X017847Y005817D01*
X017847Y005517D01*
X017897Y005517D01*
X017897Y005317D01*
X017847Y005317D01*
X017847Y005017D01*
X017797Y005017D01*
X017797Y004817D01*
X017847Y004817D01*
X017847Y004517D01*
X017897Y004517D01*
X017897Y004317D01*
X017847Y004317D01*
X017847Y004017D01*
X017797Y004017D01*
X017797Y003817D01*
X017847Y003817D01*
X017847Y003517D01*
X017897Y003517D01*
X017897Y003317D01*
X017847Y003317D01*
X017847Y003017D01*
X017797Y003017D01*
X017797Y002817D01*
X017847Y002817D01*
X017847Y002517D01*
X017897Y002517D01*
X017897Y002317D01*
X017847Y002317D01*
X017847Y002017D01*
X017547Y002017D01*
X016247Y002017D02*
X016247Y002167D01*
X016147Y002017D02*
X015947Y002017D01*
X015947Y002817D01*
X015997Y002817D01*
X015997Y003017D01*
X015947Y003017D01*
X015947Y003817D01*
X015997Y003817D01*
X015997Y004017D01*
X015947Y004017D01*
X015947Y004817D01*
X015997Y004817D01*
X015997Y005017D01*
X015947Y005017D01*
X015947Y005817D01*
X015997Y005817D01*
X015997Y006017D01*
X015947Y006017D01*
X015947Y006817D01*
X015997Y006817D01*
X015997Y007017D01*
X015947Y007017D01*
X015947Y007817D01*
X015997Y007817D01*
X015997Y008017D01*
X015947Y008017D01*
X015947Y008817D01*
X015997Y008817D01*
X015997Y009017D01*
X015947Y009017D01*
X015947Y009817D01*
X015997Y009817D01*
X015997Y010017D01*
X015947Y010017D01*
X015947Y010817D01*
X015997Y010817D01*
X015997Y011017D01*
X015947Y011017D01*
X015947Y011817D01*
X015997Y011817D01*
X015997Y012017D01*
X015947Y012017D01*
X015947Y012817D01*
X015997Y012817D01*
X015997Y013017D01*
X015947Y013017D01*
X015947Y013817D01*
X016147Y013817D02*
X016147Y013667D01*
X016247Y013667D01*
X016247Y013817D02*
X017547Y013817D01*
X016247Y013167D02*
X016147Y013167D01*
X016147Y012667D01*
X016247Y012667D01*
X016247Y012817D02*
X016247Y013017D01*
X016247Y012167D02*
X016147Y012167D01*
X016147Y011667D01*
X016247Y011667D01*
X016247Y011817D02*
X016247Y012017D01*
X016247Y011167D02*
X016147Y011167D01*
X016147Y010667D01*
X016247Y010667D01*
X016247Y010817D02*
X017547Y010817D01*
X017547Y011017D02*
X016247Y011017D01*
X020272Y010817D02*
X020272Y010667D01*
X020322Y010617D01*
X020322Y008717D01*
X020272Y008667D01*
X020272Y008517D01*
X020274Y008500D01*
X020278Y008483D01*
X020285Y008467D01*
X020295Y008453D01*
X020308Y008440D01*
X020322Y008430D01*
X020338Y008423D01*
X020355Y008419D01*
X020372Y008417D01*
X021072Y008417D01*
X021089Y008419D01*
X021106Y008423D01*
X021122Y008430D01*
X021136Y008440D01*
X021149Y008453D01*
X021159Y008467D01*
X021166Y008483D01*
X021170Y008500D01*
X021172Y008517D01*
X021172Y008667D01*
X021122Y008717D01*
X021122Y010617D01*
X021172Y010667D01*
X021172Y010817D01*
X021170Y010834D01*
X021166Y010851D01*
X021159Y010867D01*
X021149Y010881D01*
X021136Y010894D01*
X021122Y010904D01*
X021106Y010911D01*
X021089Y010915D01*
X021072Y010917D01*
X020372Y010917D01*
X020355Y010915D01*
X020338Y010911D01*
X020322Y010904D01*
X020308Y010894D01*
X020295Y010881D01*
X020285Y010867D01*
X020278Y010851D01*
X020274Y010834D01*
X020272Y010817D01*
X021947Y010817D02*
X021947Y010017D01*
X021997Y010017D01*
X021997Y009817D01*
X021947Y009817D01*
X021947Y009017D01*
X021997Y009017D01*
X021997Y008817D01*
X021947Y008817D01*
X021947Y008017D01*
X021997Y008017D01*
X021997Y007817D01*
X021947Y007817D01*
X021947Y007017D01*
X021997Y007017D01*
X021997Y006817D01*
X021947Y006817D01*
X021947Y006017D01*
X021997Y006017D01*
X021997Y005817D01*
X021947Y005817D01*
X021947Y005017D01*
X021997Y005017D01*
X021997Y004817D01*
X021947Y004817D01*
X021947Y004017D01*
X021997Y004017D01*
X021997Y003817D01*
X021947Y003817D01*
X021947Y003017D01*
X021997Y003017D01*
X021997Y002817D01*
X021947Y002817D01*
X021947Y002017D01*
X022147Y002017D01*
X022247Y002017D01*
X022247Y002167D01*
X022347Y002167D01*
X022347Y002667D01*
X022247Y002667D01*
X022247Y002817D01*
X023497Y002817D01*
X023547Y002767D01*
X023547Y002017D01*
X022247Y002017D01*
X022147Y002017D02*
X022147Y002167D01*
X022247Y002167D01*
X022247Y002667D02*
X022147Y002667D01*
X022147Y003167D01*
X022247Y003167D01*
X022247Y003017D01*
X023497Y003017D01*
X023397Y002917D01*
X023497Y002817D01*
X023497Y003017D02*
X023547Y003067D01*
X023547Y003817D01*
X023547Y004017D01*
X022247Y004017D01*
X022247Y003817D01*
X023547Y003817D01*
X023547Y004017D02*
X023547Y004817D01*
X023547Y005017D01*
X022247Y005017D01*
X022247Y004817D01*
X023547Y004817D01*
X023547Y005017D02*
X023547Y005817D01*
X023547Y006017D01*
X022247Y006017D01*
X022247Y005817D01*
X023547Y005817D01*
X023547Y006017D02*
X023547Y006817D01*
X023547Y007017D01*
X022247Y007017D01*
X022247Y006817D01*
X023547Y006817D01*
X023547Y007017D02*
X023547Y007817D01*
X023547Y008017D01*
X022247Y008017D01*
X022247Y007817D01*
X023547Y007817D01*
X023547Y008017D02*
X023547Y008817D01*
X023547Y009017D01*
X022247Y009017D01*
X022247Y008817D01*
X023547Y008817D01*
X023547Y009017D02*
X023547Y009817D01*
X023547Y010017D01*
X022247Y010017D01*
X022247Y009817D01*
X023547Y009817D01*
X023547Y010017D02*
X023547Y010817D01*
X023547Y011017D01*
X023547Y011817D01*
X022247Y011817D01*
X022247Y011667D01*
X022347Y011667D01*
X022347Y011167D01*
X022247Y011167D01*
X022247Y011017D01*
X022247Y010817D01*
X022247Y010667D01*
X022347Y010667D01*
X022347Y010167D01*
X022247Y010167D01*
X022247Y010017D01*
X022247Y010167D02*
X022147Y010167D01*
X022147Y009667D01*
X022247Y009667D01*
X022247Y009817D01*
X022247Y009667D02*
X022347Y009667D01*
X022347Y009167D01*
X022247Y009167D01*
X022247Y009017D01*
X022247Y009167D02*
X022147Y009167D01*
X022147Y008667D01*
X022247Y008667D01*
X022247Y008817D01*
X022247Y008667D02*
X022347Y008667D01*
X022347Y008167D01*
X022247Y008167D01*
X022247Y008017D01*
X022247Y008167D02*
X022147Y008167D01*
X022147Y007667D01*
X022247Y007667D01*
X022247Y007817D01*
X022247Y007667D02*
X022347Y007667D01*
X022347Y007167D01*
X022247Y007167D01*
X022247Y007017D01*
X022247Y007167D02*
X022147Y007167D01*
X022147Y006667D01*
X022247Y006667D01*
X022247Y006817D01*
X022247Y006667D02*
X022347Y006667D01*
X022347Y006167D01*
X022247Y006167D01*
X022247Y006017D01*
X022247Y006167D02*
X022147Y006167D01*
X022147Y005667D01*
X022247Y005667D01*
X022247Y005817D01*
X022247Y005667D02*
X022347Y005667D01*
X022347Y005167D01*
X022247Y005167D01*
X022247Y005017D01*
X022247Y005167D02*
X022147Y005167D01*
X022147Y004667D01*
X022247Y004667D01*
X022247Y004817D01*
X022247Y004667D02*
X022347Y004667D01*
X022347Y004167D01*
X022247Y004167D01*
X022247Y004017D01*
X022247Y004167D02*
X022147Y004167D01*
X022147Y003667D01*
X022247Y003667D01*
X022247Y003817D01*
X022247Y003667D02*
X022347Y003667D01*
X022347Y003167D01*
X022247Y003167D01*
X022247Y003017D02*
X022247Y002817D01*
X023547Y002017D02*
X023847Y002017D01*
X023847Y002317D01*
X023897Y002317D01*
X023897Y002517D01*
X023847Y002517D01*
X023847Y002817D01*
X023797Y002817D01*
X023797Y003017D01*
X023847Y003017D01*
X023847Y003317D01*
X023897Y003317D01*
X023897Y003517D01*
X023847Y003517D01*
X023847Y003817D01*
X023797Y003817D01*
X023797Y004017D01*
X023847Y004017D01*
X023847Y004317D01*
X023897Y004317D01*
X023897Y004517D01*
X023847Y004517D01*
X023847Y004817D01*
X023797Y004817D01*
X023797Y005017D01*
X023847Y005017D01*
X023847Y005317D01*
X023897Y005317D01*
X023897Y005517D01*
X023847Y005517D01*
X023847Y005817D01*
X023797Y005817D01*
X023797Y006017D01*
X023847Y006017D01*
X023847Y006317D01*
X023897Y006317D01*
X023897Y006517D01*
X023847Y006517D01*
X023847Y006817D01*
X023797Y006817D01*
X023797Y007017D01*
X023847Y007017D01*
X023847Y007317D01*
X023897Y007317D01*
X023897Y007517D01*
X023847Y007517D01*
X023847Y007817D01*
X023797Y007817D01*
X023797Y008017D01*
X023847Y008017D01*
X023847Y008317D01*
X023897Y008317D01*
X023897Y008517D01*
X023847Y008517D01*
X023847Y008817D01*
X023797Y008817D01*
X023797Y009017D01*
X023847Y009017D01*
X023847Y009317D01*
X023897Y009317D01*
X023897Y009517D01*
X023847Y009517D01*
X023847Y009817D01*
X023797Y009817D01*
X023797Y010017D01*
X023847Y010017D01*
X023847Y010317D01*
X023897Y010317D01*
X023897Y010517D01*
X023847Y010517D01*
X023847Y010817D01*
X023797Y010817D01*
X023797Y011017D01*
X023847Y011017D01*
X023847Y011317D01*
X023897Y011317D01*
X023897Y011517D01*
X023847Y011517D01*
X023847Y011817D01*
X023797Y011817D01*
X023797Y012017D01*
X023847Y012017D01*
X023847Y012317D01*
X023897Y012317D01*
X023897Y012517D01*
X023847Y012517D01*
X023847Y012817D01*
X023797Y012817D01*
X023797Y013017D01*
X023847Y013017D01*
X023847Y013317D01*
X023897Y013317D01*
X023897Y013517D01*
X023847Y013517D01*
X023847Y013817D01*
X023547Y013817D01*
X023547Y013067D01*
X023497Y013017D01*
X022247Y013017D01*
X022247Y012817D01*
X023497Y012817D01*
X023547Y012767D01*
X023547Y012017D01*
X022247Y012017D01*
X022247Y011817D01*
X022247Y011667D02*
X022147Y011667D01*
X022147Y012167D01*
X022247Y012167D01*
X022247Y012017D01*
X022247Y012167D02*
X022347Y012167D01*
X022347Y012667D01*
X022247Y012667D01*
X022247Y012817D01*
X022247Y012667D02*
X022147Y012667D01*
X022147Y013167D01*
X022247Y013167D01*
X022247Y013017D01*
X022247Y013167D02*
X022347Y013167D01*
X022347Y013667D01*
X022247Y013667D01*
X022247Y013817D01*
X022147Y013817D01*
X022147Y013667D01*
X022247Y013667D01*
X022247Y013817D02*
X023547Y013817D01*
X022147Y013817D02*
X021947Y013817D01*
X021947Y013017D01*
X021997Y013017D01*
X021997Y012817D01*
X021947Y012817D01*
X021947Y012017D01*
X021997Y012017D01*
X021997Y011817D01*
X021947Y011817D01*
X021947Y011017D01*
X021997Y011017D01*
X021997Y010817D01*
X021947Y010817D01*
X022147Y010667D02*
X022147Y011167D01*
X022247Y011167D01*
X022247Y011017D02*
X023547Y011017D01*
X023547Y010817D02*
X022247Y010817D01*
X022247Y010667D02*
X022147Y010667D01*
X023547Y011817D02*
X023547Y012017D01*
X023497Y012817D02*
X023397Y012917D01*
X023497Y013017D01*
X021347Y015667D02*
X020847Y015667D01*
X020597Y015917D01*
X020597Y016417D01*
X020847Y016667D01*
X021347Y016667D01*
X021597Y016417D01*
X021597Y015917D01*
X021347Y015667D01*
X015947Y018117D02*
X015647Y018117D01*
X015797Y018267D02*
X015797Y017967D01*
X013747Y016917D02*
X013749Y016997D01*
X013755Y017076D01*
X013765Y017155D01*
X013779Y017234D01*
X013796Y017312D01*
X013818Y017389D01*
X013843Y017464D01*
X013873Y017538D01*
X013905Y017611D01*
X013942Y017682D01*
X013982Y017751D01*
X014025Y017818D01*
X014072Y017883D01*
X014121Y017945D01*
X014174Y018005D01*
X014230Y018062D01*
X014288Y018117D01*
X014349Y018168D01*
X014413Y018216D01*
X014479Y018261D01*
X014547Y018303D01*
X014617Y018341D01*
X014689Y018375D01*
X014762Y018406D01*
X014837Y018434D01*
X014914Y018457D01*
X014991Y018477D01*
X015069Y018493D01*
X015148Y018505D01*
X015227Y018513D01*
X015307Y018517D01*
X015387Y018517D01*
X015467Y018513D01*
X015546Y018505D01*
X015625Y018493D01*
X015703Y018477D01*
X015780Y018457D01*
X015857Y018434D01*
X015932Y018406D01*
X016005Y018375D01*
X016077Y018341D01*
X016147Y018303D01*
X016215Y018261D01*
X016281Y018216D01*
X016345Y018168D01*
X016406Y018117D01*
X016464Y018062D01*
X016520Y018005D01*
X016573Y017945D01*
X016622Y017883D01*
X016669Y017818D01*
X016712Y017751D01*
X016752Y017682D01*
X016789Y017611D01*
X016821Y017538D01*
X016851Y017464D01*
X016876Y017389D01*
X016898Y017312D01*
X016915Y017234D01*
X016929Y017155D01*
X016939Y017076D01*
X016945Y016997D01*
X016947Y016917D01*
X016945Y016837D01*
X016939Y016758D01*
X016929Y016679D01*
X016915Y016600D01*
X016898Y016522D01*
X016876Y016445D01*
X016851Y016370D01*
X016821Y016296D01*
X016789Y016223D01*
X016752Y016152D01*
X016712Y016083D01*
X016669Y016016D01*
X016622Y015951D01*
X016573Y015889D01*
X016520Y015829D01*
X016464Y015772D01*
X016406Y015717D01*
X016345Y015666D01*
X016281Y015618D01*
X016215Y015573D01*
X016147Y015531D01*
X016077Y015493D01*
X016005Y015459D01*
X015932Y015428D01*
X015857Y015400D01*
X015780Y015377D01*
X015703Y015357D01*
X015625Y015341D01*
X015546Y015329D01*
X015467Y015321D01*
X015387Y015317D01*
X015307Y015317D01*
X015227Y015321D01*
X015148Y015329D01*
X015069Y015341D01*
X014991Y015357D01*
X014914Y015377D01*
X014837Y015400D01*
X014762Y015428D01*
X014689Y015459D01*
X014617Y015493D01*
X014547Y015531D01*
X014479Y015573D01*
X014413Y015618D01*
X014349Y015666D01*
X014288Y015717D01*
X014230Y015772D01*
X014174Y015829D01*
X014121Y015889D01*
X014072Y015951D01*
X014025Y016016D01*
X013982Y016083D01*
X013942Y016152D01*
X013905Y016223D01*
X013873Y016296D01*
X013843Y016370D01*
X013818Y016445D01*
X013796Y016522D01*
X013779Y016600D01*
X013765Y016679D01*
X013755Y016758D01*
X013749Y016837D01*
X013747Y016917D01*
X002472Y014917D02*
X001472Y014917D01*
X001472Y006917D01*
X002472Y006917D01*
X010847Y001917D02*
X011097Y002167D01*
X011597Y002167D01*
X011847Y001917D01*
X011847Y001417D01*
X011597Y001167D01*
X011097Y001167D01*
X010847Y001417D01*
X010847Y001917D01*
X017397Y002917D02*
X017497Y003017D01*
X017397Y002917D02*
X017497Y002817D01*
X017597Y005417D02*
X017347Y005667D01*
X017347Y006167D01*
X017597Y006417D01*
X017347Y006667D01*
X017347Y007167D01*
X017597Y007417D01*
X018097Y007417D01*
X018347Y007167D01*
X018347Y006667D01*
X018097Y006417D01*
X017597Y006417D01*
X018097Y006417D01*
X018347Y006167D01*
X018347Y005667D01*
X018097Y005417D01*
X017597Y005417D01*
X020347Y005917D02*
X020347Y006417D01*
X020597Y006667D01*
X021097Y006667D01*
X021347Y006417D01*
X021347Y005917D01*
X021097Y005667D01*
X020597Y005667D01*
X020347Y005917D01*
X024997Y002917D02*
X024999Y002997D01*
X025005Y003076D01*
X025015Y003155D01*
X025029Y003234D01*
X025046Y003312D01*
X025068Y003389D01*
X025093Y003464D01*
X025123Y003538D01*
X025155Y003611D01*
X025192Y003682D01*
X025232Y003751D01*
X025275Y003818D01*
X025322Y003883D01*
X025371Y003945D01*
X025424Y004005D01*
X025480Y004062D01*
X025538Y004117D01*
X025599Y004168D01*
X025663Y004216D01*
X025729Y004261D01*
X025797Y004303D01*
X025867Y004341D01*
X025939Y004375D01*
X026012Y004406D01*
X026087Y004434D01*
X026164Y004457D01*
X026241Y004477D01*
X026319Y004493D01*
X026398Y004505D01*
X026477Y004513D01*
X026557Y004517D01*
X026637Y004517D01*
X026717Y004513D01*
X026796Y004505D01*
X026875Y004493D01*
X026953Y004477D01*
X027030Y004457D01*
X027107Y004434D01*
X027182Y004406D01*
X027255Y004375D01*
X027327Y004341D01*
X027397Y004303D01*
X027465Y004261D01*
X027531Y004216D01*
X027595Y004168D01*
X027656Y004117D01*
X027714Y004062D01*
X027770Y004005D01*
X027823Y003945D01*
X027872Y003883D01*
X027919Y003818D01*
X027962Y003751D01*
X028002Y003682D01*
X028039Y003611D01*
X028071Y003538D01*
X028101Y003464D01*
X028126Y003389D01*
X028148Y003312D01*
X028165Y003234D01*
X028179Y003155D01*
X028189Y003076D01*
X028195Y002997D01*
X028197Y002917D01*
X028195Y002837D01*
X028189Y002758D01*
X028179Y002679D01*
X028165Y002600D01*
X028148Y002522D01*
X028126Y002445D01*
X028101Y002370D01*
X028071Y002296D01*
X028039Y002223D01*
X028002Y002152D01*
X027962Y002083D01*
X027919Y002016D01*
X027872Y001951D01*
X027823Y001889D01*
X027770Y001829D01*
X027714Y001772D01*
X027656Y001717D01*
X027595Y001666D01*
X027531Y001618D01*
X027465Y001573D01*
X027397Y001531D01*
X027327Y001493D01*
X027255Y001459D01*
X027182Y001428D01*
X027107Y001400D01*
X027030Y001377D01*
X026953Y001357D01*
X026875Y001341D01*
X026796Y001329D01*
X026717Y001321D01*
X026637Y001317D01*
X026557Y001317D01*
X026477Y001321D01*
X026398Y001329D01*
X026319Y001341D01*
X026241Y001357D01*
X026164Y001377D01*
X026087Y001400D01*
X026012Y001428D01*
X025939Y001459D01*
X025867Y001493D01*
X025797Y001531D01*
X025729Y001573D01*
X025663Y001618D01*
X025599Y001666D01*
X025538Y001717D01*
X025480Y001772D01*
X025424Y001829D01*
X025371Y001889D01*
X025322Y001951D01*
X025275Y002016D01*
X025232Y002083D01*
X025192Y002152D01*
X025155Y002223D01*
X025123Y002296D01*
X025093Y002370D01*
X025068Y002445D01*
X025046Y002522D01*
X025029Y002600D01*
X025015Y002679D01*
X025005Y002758D01*
X024999Y002837D01*
X024997Y002917D01*
X026147Y001867D02*
X026147Y001567D01*
X026297Y001717D02*
X025997Y001717D01*
X028597Y001917D02*
X028597Y001417D01*
X028847Y001167D01*
X029347Y001167D01*
X029597Y001417D01*
X029597Y001917D01*
X029347Y002167D01*
X028847Y002167D01*
X028597Y001917D01*
X031409Y001792D02*
X031409Y001542D01*
X031659Y001542D01*
X032659Y001542D02*
X032909Y001542D01*
X032909Y001792D01*
X032909Y002792D02*
X032909Y003042D01*
X032659Y003042D01*
X031659Y003042D02*
X031409Y003042D01*
X031409Y002792D01*
X030097Y004167D02*
X029597Y004167D01*
X029347Y004417D01*
X029347Y004917D01*
X029597Y005167D01*
X030097Y005167D01*
X030347Y004917D01*
X030347Y004417D01*
X030097Y004167D01*
X030297Y006117D02*
X029847Y006117D01*
X029247Y006217D01*
X029247Y006567D01*
X029247Y006967D02*
X029247Y007467D01*
X029247Y007867D02*
X029247Y008367D01*
X029247Y008767D02*
X029247Y009117D01*
X029847Y009217D01*
X030297Y009217D01*
X030097Y010417D02*
X029597Y010417D01*
X029347Y010667D01*
X029347Y011167D01*
X029597Y011417D01*
X030097Y011417D01*
X030347Y011167D01*
X030347Y010667D01*
X030097Y010417D01*
X030297Y011617D02*
X029847Y011617D01*
X029247Y011717D01*
X029247Y012067D01*
X029247Y012467D02*
X029247Y012967D01*
X029247Y013367D02*
X029247Y013867D01*
X029247Y014267D02*
X029247Y014617D01*
X029847Y014717D01*
X030297Y014717D01*
X028422Y016442D02*
X028422Y016742D01*
X028572Y016592D02*
X028272Y016592D01*
X025622Y017042D02*
X025624Y017122D01*
X025630Y017201D01*
X025640Y017280D01*
X025654Y017359D01*
X025671Y017437D01*
X025693Y017514D01*
X025718Y017589D01*
X025748Y017663D01*
X025780Y017736D01*
X025817Y017807D01*
X025857Y017876D01*
X025900Y017943D01*
X025947Y018008D01*
X025996Y018070D01*
X026049Y018130D01*
X026105Y018187D01*
X026163Y018242D01*
X026224Y018293D01*
X026288Y018341D01*
X026354Y018386D01*
X026422Y018428D01*
X026492Y018466D01*
X026564Y018500D01*
X026637Y018531D01*
X026712Y018559D01*
X026789Y018582D01*
X026866Y018602D01*
X026944Y018618D01*
X027023Y018630D01*
X027102Y018638D01*
X027182Y018642D01*
X027262Y018642D01*
X027342Y018638D01*
X027421Y018630D01*
X027500Y018618D01*
X027578Y018602D01*
X027655Y018582D01*
X027732Y018559D01*
X027807Y018531D01*
X027880Y018500D01*
X027952Y018466D01*
X028022Y018428D01*
X028090Y018386D01*
X028156Y018341D01*
X028220Y018293D01*
X028281Y018242D01*
X028339Y018187D01*
X028395Y018130D01*
X028448Y018070D01*
X028497Y018008D01*
X028544Y017943D01*
X028587Y017876D01*
X028627Y017807D01*
X028664Y017736D01*
X028696Y017663D01*
X028726Y017589D01*
X028751Y017514D01*
X028773Y017437D01*
X028790Y017359D01*
X028804Y017280D01*
X028814Y017201D01*
X028820Y017122D01*
X028822Y017042D01*
X028820Y016962D01*
X028814Y016883D01*
X028804Y016804D01*
X028790Y016725D01*
X028773Y016647D01*
X028751Y016570D01*
X028726Y016495D01*
X028696Y016421D01*
X028664Y016348D01*
X028627Y016277D01*
X028587Y016208D01*
X028544Y016141D01*
X028497Y016076D01*
X028448Y016014D01*
X028395Y015954D01*
X028339Y015897D01*
X028281Y015842D01*
X028220Y015791D01*
X028156Y015743D01*
X028090Y015698D01*
X028022Y015656D01*
X027952Y015618D01*
X027880Y015584D01*
X027807Y015553D01*
X027732Y015525D01*
X027655Y015502D01*
X027578Y015482D01*
X027500Y015466D01*
X027421Y015454D01*
X027342Y015446D01*
X027262Y015442D01*
X027182Y015442D01*
X027102Y015446D01*
X027023Y015454D01*
X026944Y015466D01*
X026866Y015482D01*
X026789Y015502D01*
X026712Y015525D01*
X026637Y015553D01*
X026564Y015584D01*
X026492Y015618D01*
X026422Y015656D01*
X026354Y015698D01*
X026288Y015743D01*
X026224Y015791D01*
X026163Y015842D01*
X026105Y015897D01*
X026049Y015954D01*
X025996Y016014D01*
X025947Y016076D01*
X025900Y016141D01*
X025857Y016208D01*
X025817Y016277D01*
X025780Y016348D01*
X025748Y016421D01*
X025718Y016495D01*
X025693Y016570D01*
X025671Y016647D01*
X025654Y016725D01*
X025640Y016804D01*
X025630Y016883D01*
X025624Y016962D01*
X025622Y017042D01*
X029534Y017730D02*
X029784Y017480D01*
X030284Y017480D01*
X030534Y017730D01*
X030534Y018230D01*
X030284Y018480D01*
X029784Y018480D01*
X029534Y018230D01*
X029534Y017730D01*
X031409Y018167D02*
X031409Y018417D01*
X031659Y018417D01*
X032659Y018417D02*
X032909Y018417D01*
X032909Y018167D01*
X032909Y017167D02*
X032909Y016917D01*
X032659Y016917D01*
X031659Y016917D02*
X031409Y016917D01*
X031409Y017167D01*
X037659Y017167D02*
X037659Y016917D01*
X037909Y016917D01*
X038909Y016917D02*
X039159Y016917D01*
X039159Y017167D01*
X039159Y018167D02*
X039159Y018417D01*
X038909Y018417D01*
X037909Y018417D02*
X037659Y018417D01*
X037659Y018167D01*
X037847Y012867D02*
X038847Y012867D01*
X038864Y012865D01*
X038881Y012861D01*
X038897Y012854D01*
X038911Y012844D01*
X038924Y012831D01*
X038934Y012817D01*
X038941Y012801D01*
X038945Y012784D01*
X038947Y012767D01*
X038947Y010067D01*
X038945Y010050D01*
X038941Y010033D01*
X038934Y010017D01*
X038924Y010003D01*
X038911Y009990D01*
X038897Y009980D01*
X038881Y009973D01*
X038864Y009969D01*
X038847Y009967D01*
X037847Y009967D01*
X037830Y009969D01*
X037813Y009973D01*
X037797Y009980D01*
X037783Y009990D01*
X037770Y010003D01*
X037760Y010017D01*
X037753Y010033D01*
X037749Y010050D01*
X037747Y010067D01*
X037747Y012767D01*
X037749Y012784D01*
X037753Y012801D01*
X037760Y012817D01*
X037770Y012831D01*
X037783Y012844D01*
X037797Y012854D01*
X037813Y012861D01*
X037830Y012865D01*
X037847Y012867D01*
X038347Y012017D02*
X038347Y011547D01*
X038347Y011297D02*
X038347Y010817D01*
X036497Y007367D02*
X036347Y007367D01*
X036297Y007317D01*
X034397Y007317D01*
X034347Y007367D01*
X034197Y007367D01*
X034180Y007365D01*
X034163Y007361D01*
X034147Y007354D01*
X034133Y007344D01*
X034120Y007331D01*
X034110Y007317D01*
X034103Y007301D01*
X034099Y007284D01*
X034097Y007267D01*
X034097Y006567D01*
X034099Y006550D01*
X034103Y006533D01*
X034110Y006517D01*
X034120Y006503D01*
X034133Y006490D01*
X034147Y006480D01*
X034163Y006473D01*
X034180Y006469D01*
X034197Y006467D01*
X034347Y006467D01*
X034397Y006517D01*
X036297Y006517D01*
X036347Y006467D01*
X036497Y006467D01*
X036514Y006469D01*
X036531Y006473D01*
X036547Y006480D01*
X036561Y006490D01*
X036574Y006503D01*
X036584Y006517D01*
X036591Y006533D01*
X036595Y006550D01*
X036597Y006567D01*
X036597Y007267D01*
X036595Y007284D01*
X036591Y007301D01*
X036584Y007317D01*
X036574Y007331D01*
X036561Y007344D01*
X036547Y007354D01*
X036531Y007361D01*
X036514Y007365D01*
X036497Y007367D01*
X036497Y006117D02*
X036347Y006117D01*
X036297Y006067D01*
X034397Y006067D01*
X034347Y006117D01*
X034197Y006117D01*
X034180Y006115D01*
X034163Y006111D01*
X034147Y006104D01*
X034133Y006094D01*
X034120Y006081D01*
X034110Y006067D01*
X034103Y006051D01*
X034099Y006034D01*
X034097Y006017D01*
X034097Y005317D01*
X034099Y005300D01*
X034103Y005283D01*
X034110Y005267D01*
X034120Y005253D01*
X034133Y005240D01*
X034147Y005230D01*
X034163Y005223D01*
X034180Y005219D01*
X034197Y005217D01*
X034347Y005217D01*
X034397Y005267D01*
X036297Y005267D01*
X036347Y005217D01*
X036497Y005217D01*
X036514Y005219D01*
X036531Y005223D01*
X036547Y005230D01*
X036561Y005240D01*
X036574Y005253D01*
X036584Y005267D01*
X036591Y005283D01*
X036595Y005300D01*
X036597Y005317D01*
X036597Y006017D01*
X036595Y006034D01*
X036591Y006051D01*
X036584Y006067D01*
X036574Y006081D01*
X036561Y006094D01*
X036547Y006104D01*
X036531Y006111D01*
X036514Y006115D01*
X036497Y006117D01*
X037659Y003042D02*
X037909Y003042D01*
X037659Y003042D02*
X037659Y002792D01*
X038909Y003042D02*
X039159Y003042D01*
X039159Y002792D01*
X039159Y001792D02*
X039159Y001542D01*
X038909Y001542D01*
X037909Y001542D02*
X037659Y001542D01*
X037659Y001792D01*
D14*
X028641Y008513D02*
X028641Y008573D01*
X028581Y008633D01*
X028281Y008633D01*
X028281Y008573D02*
X028281Y008694D01*
X028341Y008822D02*
X028281Y008882D01*
X028281Y009002D01*
X028341Y009062D01*
X028401Y009062D01*
X028641Y008822D01*
X028641Y009062D01*
X028581Y009190D02*
X028341Y009190D01*
X028281Y009250D01*
X028281Y009370D01*
X028341Y009430D01*
X028581Y009190D01*
X028641Y009250D01*
X028641Y009370D01*
X028581Y009430D01*
X028341Y009430D01*
X028461Y009558D02*
X028461Y009798D01*
X028641Y009738D02*
X028281Y009738D01*
X028461Y009558D01*
X028641Y008513D02*
X028581Y008453D01*
X028581Y013203D02*
X028641Y013263D01*
X028641Y013323D01*
X028581Y013383D01*
X028281Y013383D01*
X028281Y013323D02*
X028281Y013444D01*
X028341Y013572D02*
X028281Y013632D01*
X028281Y013752D01*
X028341Y013812D01*
X028401Y013812D01*
X028641Y013572D01*
X028641Y013812D01*
X028581Y013940D02*
X028341Y013940D01*
X028281Y014000D01*
X028281Y014120D01*
X028341Y014180D01*
X028581Y013940D01*
X028641Y014000D01*
X028641Y014120D01*
X028581Y014180D01*
X028341Y014180D01*
X028281Y014308D02*
X028461Y014308D01*
X028401Y014428D01*
X028401Y014488D01*
X028461Y014548D01*
X028581Y014548D01*
X028641Y014488D01*
X028641Y014368D01*
X028581Y014308D01*
X028281Y014308D02*
X028281Y014548D01*
X025456Y017565D02*
X025516Y017625D01*
X025516Y017685D01*
X025456Y017745D01*
X025156Y017745D01*
X025156Y017685D02*
X025156Y017805D01*
X025276Y017933D02*
X025156Y018053D01*
X025516Y018053D01*
X025516Y017933D02*
X025516Y018173D01*
X020704Y017933D02*
X020644Y017933D01*
X020403Y018173D01*
X020343Y018173D01*
X020343Y017933D01*
X020403Y017805D02*
X020644Y017565D01*
X020704Y017625D01*
X020704Y017745D01*
X020644Y017805D01*
X020403Y017805D01*
X020343Y017745D01*
X020343Y017625D01*
X020403Y017565D01*
X020644Y017565D01*
X020704Y017437D02*
X020704Y017197D01*
X020463Y017437D01*
X020403Y017437D01*
X020343Y017377D01*
X020343Y017257D01*
X020403Y017197D01*
X020343Y017069D02*
X020343Y016948D01*
X020343Y017008D02*
X020644Y017008D01*
X020704Y016948D01*
X020704Y016888D01*
X020644Y016828D01*
X012766Y017013D02*
X012766Y017073D01*
X012706Y017133D01*
X012406Y017133D01*
X012406Y017073D02*
X012406Y017194D01*
X012466Y017322D02*
X012406Y017382D01*
X012406Y017502D01*
X012466Y017562D01*
X012526Y017562D01*
X012766Y017322D01*
X012766Y017562D01*
X012706Y017690D02*
X012466Y017930D01*
X012706Y017930D01*
X012766Y017870D01*
X012766Y017750D01*
X012706Y017690D01*
X012466Y017690D01*
X012406Y017750D01*
X012406Y017870D01*
X012466Y017930D01*
X012586Y018058D02*
X012586Y018238D01*
X012646Y018298D01*
X012706Y018298D01*
X012766Y018238D01*
X012766Y018118D01*
X012706Y018058D01*
X012586Y018058D01*
X012466Y018178D01*
X012406Y018298D01*
X012766Y017013D02*
X012706Y016953D01*
D15*
X012247Y017417D02*
X012247Y015417D01*
X011097Y015417D01*
X009947Y015417D01*
X009947Y015667D01*
X010197Y015667D01*
X010197Y016167D01*
X009947Y016167D01*
X009947Y016667D01*
X010197Y016667D01*
X010197Y017167D01*
X009947Y017167D01*
X009947Y017667D01*
X009947Y018167D01*
X010197Y018167D01*
X010197Y017667D01*
X009947Y017667D01*
X009947Y017167D02*
X009947Y016667D01*
X009947Y016167D02*
X009947Y015667D01*
X011647Y016017D02*
X011847Y015917D01*
X012247Y015917D01*
X012247Y016017D02*
X011847Y016017D01*
X011847Y015917D01*
X011847Y016017D02*
X011847Y017817D01*
X012247Y017817D01*
X012247Y017917D02*
X011847Y017917D01*
X011647Y017817D01*
X011647Y016017D01*
X012247Y017417D02*
X012247Y017917D01*
X012247Y018417D01*
X011097Y018417D01*
X009947Y018417D01*
X009947Y018317D02*
X009947Y018167D01*
X011847Y017917D02*
X011847Y017817D01*
X017884Y018042D02*
X017884Y017542D01*
X017884Y017042D01*
X018134Y017042D01*
X018134Y016542D01*
X017884Y016542D01*
X017884Y016042D01*
X018134Y016042D01*
X018134Y015542D01*
X017884Y015542D01*
X017884Y015292D01*
X019034Y015292D01*
X020184Y015292D01*
X020184Y017292D01*
X020184Y017792D01*
X019784Y017792D01*
X019584Y017692D01*
X019584Y015892D01*
X019784Y015792D01*
X020184Y015792D01*
X020184Y015892D02*
X019784Y015892D01*
X019784Y015792D01*
X019784Y015892D02*
X019784Y017692D01*
X020184Y017692D01*
X020184Y017792D02*
X020184Y018292D01*
X019034Y018292D01*
X017884Y018292D01*
X017884Y018192D02*
X017884Y018042D01*
X018134Y018042D01*
X018134Y017542D01*
X017884Y017542D01*
X017884Y017042D02*
X017884Y016542D01*
X017884Y016042D02*
X017884Y015542D01*
X019784Y017692D02*
X019784Y017792D01*
X022697Y017542D02*
X022697Y017042D01*
X022947Y017042D01*
X022947Y016542D01*
X022697Y016542D01*
X022697Y016042D01*
X022947Y016042D01*
X022947Y015542D01*
X022697Y015542D01*
X022697Y015292D01*
X023847Y015292D01*
X024997Y015292D01*
X024997Y017292D01*
X024997Y017792D01*
X024597Y017792D01*
X024397Y017692D01*
X024397Y015892D01*
X024597Y015792D01*
X024997Y015792D01*
X024997Y015892D02*
X024597Y015892D01*
X024597Y015792D01*
X024597Y015892D02*
X024597Y017692D01*
X024997Y017692D01*
X024997Y017792D02*
X024997Y018292D01*
X023847Y018292D01*
X022697Y018292D01*
X022697Y018192D02*
X022697Y018042D01*
X022697Y017542D01*
X022947Y017542D01*
X022947Y018042D01*
X022697Y018042D01*
X022697Y017042D02*
X022697Y016542D01*
X022697Y016042D02*
X022697Y015542D01*
X025822Y014667D02*
X026972Y014667D01*
X028122Y014667D01*
X028122Y014167D01*
X027722Y014167D01*
X027522Y014067D01*
X027522Y012267D01*
X027722Y012167D01*
X028122Y012167D01*
X028122Y012267D02*
X027722Y012267D01*
X027722Y012167D01*
X027722Y012267D02*
X027722Y014067D01*
X028122Y014067D01*
X028122Y014167D02*
X028122Y013667D01*
X028122Y011667D01*
X026972Y011667D01*
X025822Y011667D01*
X025822Y011917D01*
X026072Y011917D01*
X026072Y012417D01*
X025822Y012417D01*
X025822Y012917D01*
X026072Y012917D01*
X026072Y013417D01*
X025822Y013417D01*
X025822Y013917D01*
X025822Y014417D01*
X026072Y014417D01*
X026072Y013917D01*
X025822Y013917D01*
X025822Y013417D02*
X025822Y012917D01*
X025822Y012417D02*
X025822Y011917D01*
X025822Y009917D02*
X026972Y009917D01*
X028122Y009917D01*
X028122Y009417D01*
X027722Y009417D01*
X027522Y009317D01*
X027522Y007517D01*
X027722Y007417D01*
X028122Y007417D01*
X028122Y007517D02*
X027722Y007517D01*
X027722Y007417D01*
X027722Y007517D02*
X027722Y009317D01*
X028122Y009317D01*
X028122Y009417D02*
X028122Y008917D01*
X028122Y006917D01*
X026972Y006917D01*
X025822Y006917D01*
X025822Y007167D01*
X026072Y007167D01*
X026072Y007667D01*
X025822Y007667D01*
X025822Y008167D01*
X026072Y008167D01*
X026072Y008667D01*
X025822Y008667D01*
X025822Y009167D01*
X025822Y009667D01*
X026072Y009667D01*
X026072Y009167D01*
X025822Y009167D01*
X025822Y009667D02*
X025822Y009817D01*
X027722Y009417D02*
X027722Y009317D01*
X025822Y008667D02*
X025822Y008167D01*
X025822Y007667D02*
X025822Y007167D01*
X027722Y014067D02*
X027722Y014167D01*
X025822Y014417D02*
X025822Y014567D01*
X024597Y017692D02*
X024597Y017792D01*
D16*
X030272Y014567D03*
X030272Y011767D03*
X030272Y009067D03*
X030272Y006267D03*
D17*
X030272Y007217D03*
X030272Y008117D03*
X030272Y012717D03*
X030272Y013617D03*
D18*
X033927Y006917D03*
X033927Y005667D03*
X036767Y005667D03*
X036767Y006917D03*
X005892Y015917D03*
X003052Y015917D03*
D19*
X008472Y016787D02*
X008722Y016787D01*
X008972Y016787D01*
X008972Y017037D02*
X008722Y017037D01*
X008472Y017037D01*
X009534Y002787D02*
X009784Y002787D01*
X010034Y002787D01*
X010034Y002537D02*
X009784Y002537D01*
X009534Y002537D01*
X038097Y011297D02*
X038347Y011297D01*
X038597Y011297D01*
X038597Y011547D02*
X038347Y011547D01*
X038097Y011547D01*
D20*
X020722Y011087D03*
X020722Y008247D03*
M02*
