G75*
G70*
%OFA0B0*%
%FSLAX24Y24*%
%IPPOS*%
%LPD*%
%AMOC8*
5,1,8,0,0,1.08239X$1,22.5*
%
%ADD10C,0.0030*%
%ADD11C,0.0100*%
%ADD12R,0.0827X0.0118*%
%ADD13C,0.0050*%
%ADD14C,0.0040*%
%ADD15C,0.0080*%
%ADD16R,0.2441X0.0492*%
%ADD17C,0.0020*%
%ADD18C,0.0060*%
D10*
X019992Y009339D02*
X020363Y009339D01*
X020363Y009524D01*
X020301Y009586D01*
X020177Y009586D01*
X020116Y009524D01*
X020116Y009339D01*
X020116Y009463D02*
X019992Y009586D01*
X020054Y009708D02*
X019992Y009769D01*
X019992Y009893D01*
X020054Y009954D01*
X020177Y009954D01*
X020239Y009893D01*
X020239Y009831D01*
X020177Y009708D01*
X020363Y009708D01*
X020363Y009954D01*
X020378Y009917D02*
X020378Y010355D01*
X021065Y010355D01*
X021065Y009917D01*
X021065Y009417D02*
X021065Y008980D01*
X020378Y008980D01*
X020378Y009417D01*
X034659Y007261D02*
X034659Y006573D01*
X035097Y006573D01*
X035234Y006397D02*
X035234Y006027D01*
X035357Y006027D02*
X035110Y006027D01*
X035097Y006011D02*
X034659Y006011D01*
X034659Y005323D01*
X035097Y005323D01*
X035597Y005323D02*
X036034Y005323D01*
X036034Y006011D01*
X035597Y006011D01*
X035479Y006027D02*
X035602Y006150D01*
X035540Y006150D02*
X035725Y006150D01*
X035725Y006027D02*
X035725Y006397D01*
X035540Y006397D01*
X035479Y006335D01*
X035479Y006212D01*
X035540Y006150D01*
X035357Y006273D02*
X035234Y006397D01*
X035597Y006573D02*
X036034Y006573D01*
X036034Y007261D01*
X035597Y007261D01*
X035479Y007277D02*
X035602Y007400D01*
X035540Y007400D02*
X035725Y007400D01*
X035725Y007277D02*
X035725Y007647D01*
X035540Y007647D01*
X035479Y007585D01*
X035479Y007462D01*
X035540Y007400D01*
X035357Y007277D02*
X035110Y007277D01*
X035097Y007261D02*
X034659Y007261D01*
X035110Y007524D02*
X035110Y007585D01*
X035172Y007647D01*
X035295Y007647D01*
X035357Y007585D01*
X035110Y007524D02*
X035357Y007277D01*
X035284Y002198D02*
X035284Y001511D01*
X035722Y001511D01*
X036222Y001511D02*
X036659Y001511D01*
X036659Y002198D01*
X036222Y002198D01*
X035722Y002198D02*
X035284Y002198D01*
X034975Y002023D02*
X034975Y001776D01*
X034914Y001714D01*
X034790Y001714D01*
X034729Y001776D01*
X034607Y001714D02*
X034360Y001714D01*
X034239Y001776D02*
X034177Y001714D01*
X034054Y001714D01*
X033992Y001776D01*
X033992Y002023D01*
X034239Y001776D01*
X034239Y002023D01*
X034177Y002084D01*
X034054Y002084D01*
X033992Y002023D01*
X033870Y002023D02*
X033870Y001961D01*
X033809Y001899D01*
X033624Y001899D01*
X033624Y001776D02*
X033624Y002023D01*
X033685Y002084D01*
X033809Y002084D01*
X033870Y002023D01*
X033870Y001776D02*
X033809Y001714D01*
X033685Y001714D01*
X033624Y001776D01*
X034360Y001961D02*
X034360Y002023D01*
X034422Y002084D01*
X034545Y002084D01*
X034607Y002023D01*
X034729Y002023D02*
X034790Y002084D01*
X034914Y002084D01*
X034975Y002023D01*
X034607Y001714D02*
X034360Y001961D01*
X005159Y015573D02*
X005159Y016261D01*
X004722Y016261D01*
X004222Y016261D02*
X003784Y016261D01*
X003784Y015573D01*
X004222Y015573D01*
X004184Y015558D02*
X004184Y015496D01*
X004431Y015249D01*
X004431Y015188D01*
X004553Y015188D02*
X004676Y015311D01*
X004614Y015311D02*
X004800Y015311D01*
X004800Y015188D02*
X004800Y015558D01*
X004614Y015558D01*
X004553Y015496D01*
X004553Y015373D01*
X004614Y015311D01*
X004722Y015573D02*
X005159Y015573D01*
X004431Y015558D02*
X004184Y015558D01*
X012503Y016855D02*
X013190Y016855D01*
X013190Y017292D01*
X013617Y017280D02*
X013617Y017033D01*
X013864Y017280D01*
X013926Y017280D01*
X013988Y017219D01*
X013988Y017095D01*
X013926Y017033D01*
X013926Y016912D02*
X013988Y016850D01*
X013988Y016727D01*
X013926Y016665D01*
X013679Y016665D01*
X013617Y016727D01*
X013617Y016850D01*
X013679Y016912D01*
X013679Y017402D02*
X013617Y017463D01*
X013617Y017587D01*
X013679Y017649D01*
X013926Y017649D01*
X013679Y017402D01*
X013926Y017402D01*
X013988Y017463D01*
X013988Y017587D01*
X013926Y017649D01*
X013926Y017770D02*
X013864Y017770D01*
X013802Y017832D01*
X013802Y017955D01*
X013741Y018017D01*
X013679Y018017D01*
X013617Y017955D01*
X013617Y017832D01*
X013679Y017770D01*
X013741Y017770D01*
X013802Y017832D01*
X013802Y017955D02*
X013864Y018017D01*
X013926Y018017D01*
X013988Y017955D01*
X013988Y017832D01*
X013926Y017770D01*
X013190Y017792D02*
X013190Y018230D01*
X012503Y018230D01*
X012503Y017792D01*
X012503Y017292D02*
X012503Y016855D01*
X026909Y017573D02*
X027347Y017573D01*
X026909Y017573D02*
X026909Y018261D01*
X027347Y018261D01*
X027360Y018277D02*
X027607Y018277D01*
X027484Y018277D02*
X027484Y018647D01*
X027607Y018524D01*
X027729Y018585D02*
X027790Y018647D01*
X027914Y018647D01*
X027975Y018585D01*
X027975Y018338D01*
X027914Y018277D01*
X027790Y018277D01*
X027729Y018338D01*
X027847Y018261D02*
X028284Y018261D01*
X028284Y017573D01*
X027847Y017573D01*
D11*
X036384Y011437D02*
X036659Y010945D01*
X036935Y011437D01*
X036384Y011437D01*
D12*
X036659Y010925D03*
D13*
X037312Y010926D02*
X037612Y011226D01*
X037687Y011226D01*
X037762Y011151D01*
X037762Y011001D01*
X037687Y010926D01*
X037687Y010766D02*
X037387Y010766D01*
X037312Y010690D01*
X037312Y010465D01*
X037762Y010465D01*
X037762Y010690D01*
X037687Y010766D01*
X037312Y010926D02*
X037312Y011226D01*
X037312Y011386D02*
X037312Y011686D01*
X037312Y011536D02*
X037762Y011536D01*
X037612Y011386D01*
X037687Y011846D02*
X037387Y011846D01*
X037687Y012147D01*
X037387Y012147D01*
X037312Y012072D01*
X037312Y011921D01*
X037387Y011846D01*
X037687Y011846D02*
X037762Y011921D01*
X037762Y012072D01*
X037687Y012147D01*
X006247Y010882D02*
X005797Y010882D01*
X005797Y010732D02*
X005797Y011032D01*
X006097Y010732D02*
X006247Y010882D01*
X006172Y010572D02*
X006247Y010497D01*
X006247Y010346D01*
X006172Y010271D01*
X005872Y010271D01*
X005797Y010346D01*
X005797Y010497D01*
X005872Y010572D01*
X005797Y010115D02*
X005797Y009964D01*
X005797Y010040D02*
X006247Y010040D01*
X006247Y010115D02*
X006247Y009964D01*
D14*
X032044Y009980D02*
X032351Y010287D01*
X032428Y010287D01*
X032505Y010210D01*
X032505Y010057D01*
X032428Y009980D01*
X032428Y009827D02*
X032505Y009750D01*
X032505Y009520D01*
X032044Y009520D01*
X032044Y009750D01*
X032121Y009827D01*
X032428Y009827D01*
X032687Y009890D02*
X032687Y012694D01*
X035132Y012694D02*
X035132Y009890D01*
X032505Y010517D02*
X032505Y010671D01*
X032428Y010748D01*
X032121Y010441D01*
X032044Y010517D01*
X032044Y010671D01*
X032121Y010748D01*
X032428Y010748D01*
X032428Y010901D02*
X032351Y010901D01*
X032274Y010978D01*
X032274Y011208D01*
X032121Y011208D02*
X032428Y011208D01*
X032505Y011131D01*
X032505Y010978D01*
X032428Y010901D01*
X032121Y010901D02*
X032044Y010978D01*
X032044Y011131D01*
X032121Y011208D01*
X032505Y010517D02*
X032428Y010441D01*
X032121Y010441D01*
X032044Y010287D02*
X032044Y009980D01*
D15*
X033909Y010965D02*
X033515Y011506D01*
X034303Y011506D01*
X033909Y010965D01*
D16*
X033909Y010711D03*
D17*
X038284Y004042D02*
X039034Y004042D01*
X039034Y003292D01*
X038284Y003292D01*
X038284Y004042D01*
X004847Y017042D02*
X004847Y017792D01*
X004097Y017792D01*
X004097Y017042D01*
X004847Y017042D01*
D18*
X006452Y011127D02*
X006452Y008207D01*
X010462Y008207D01*
X010462Y011127D01*
X006452Y011127D01*
X006602Y010777D02*
X006604Y010806D01*
X006610Y010834D01*
X006619Y010861D01*
X006633Y010886D01*
X006649Y010910D01*
X006669Y010930D01*
X006691Y010949D01*
X006715Y010963D01*
X006742Y010975D01*
X006769Y010983D01*
X006798Y010987D01*
X006826Y010987D01*
X006855Y010983D01*
X006882Y010975D01*
X006909Y010963D01*
X006933Y010949D01*
X006955Y010930D01*
X006975Y010910D01*
X006991Y010886D01*
X007005Y010861D01*
X007014Y010834D01*
X007020Y010806D01*
X007022Y010777D01*
X007020Y010748D01*
X007014Y010720D01*
X007005Y010693D01*
X006991Y010668D01*
X006975Y010644D01*
X006955Y010624D01*
X006933Y010605D01*
X006909Y010591D01*
X006882Y010579D01*
X006855Y010571D01*
X006826Y010567D01*
X006798Y010567D01*
X006769Y010571D01*
X006742Y010579D01*
X006715Y010591D01*
X006691Y010605D01*
X006669Y010624D01*
X006649Y010644D01*
X006633Y010668D01*
X006619Y010693D01*
X006610Y010720D01*
X006604Y010748D01*
X006602Y010777D01*
M02*
