G75*
G70*
%OFA0B0*%
%FSLAX24Y24*%
%IPPOS*%
%LPD*%
%AMOC8*
5,1,8,0,0,1.08239X$1,22.5*
%
%ADD10C,0.0100*%
%ADD11C,0.0600*%
%ADD12C,0.0520*%
%ADD13C,0.0780*%
%ADD14C,0.0600*%
%ADD15OC8,0.0600*%
%ADD16R,0.0945X0.1024*%
%ADD17R,0.0551X0.0709*%
%ADD18OC8,0.0560*%
%ADD19C,0.1000*%
%ADD20R,0.0630X0.0411*%
%ADD21C,0.1000*%
%ADD22OC8,0.1000*%
%ADD23OC8,0.1250*%
%ADD24OC8,0.1500*%
%ADD25C,0.0320*%
%ADD26C,0.0500*%
%ADD27C,0.0120*%
%ADD28C,0.0150*%
%ADD29C,0.0160*%
%ADD30C,0.0357*%
%ADD31C,0.0700*%
D10*
X024011Y004747D02*
X024011Y004947D01*
X024078Y005013D01*
X024145Y005013D01*
X024212Y004947D01*
X024212Y004747D01*
X024212Y004947D02*
X024278Y005013D01*
X024345Y005013D01*
X024412Y004947D01*
X024412Y004747D01*
X024011Y004747D01*
X024078Y005207D02*
X024011Y005274D01*
X024011Y005407D01*
X024078Y005474D01*
X024345Y005474D01*
X024412Y005407D01*
X024412Y005274D01*
X024345Y005207D01*
X024078Y005207D01*
X024412Y005667D02*
X024412Y005934D01*
X024412Y005801D02*
X024011Y005801D01*
X024078Y006588D02*
X024011Y006655D01*
X024011Y006788D01*
X024078Y006855D01*
X024078Y007048D02*
X024011Y007115D01*
X024011Y007248D01*
X024078Y007315D01*
X024345Y007315D01*
X024412Y007248D01*
X024412Y007115D01*
X024345Y007048D01*
X024078Y007048D01*
X024345Y006855D02*
X024412Y006788D01*
X024412Y006655D01*
X024345Y006588D01*
X024078Y006588D01*
X024145Y007509D02*
X024145Y007709D01*
X024212Y007776D01*
X024345Y007776D01*
X024412Y007709D01*
X024412Y007509D01*
X024011Y007509D01*
X024011Y007969D02*
X024412Y007969D01*
X024412Y008169D01*
X024345Y008236D01*
X024212Y008236D01*
X024145Y008169D01*
X024145Y007969D01*
X024212Y008429D02*
X024212Y008563D01*
X024412Y008696D02*
X024412Y008429D01*
X024011Y008429D01*
X024011Y008696D01*
X024011Y008890D02*
X024412Y008890D01*
X024412Y009090D01*
X024345Y009157D01*
X024212Y009157D01*
X024145Y009090D01*
X024145Y008890D01*
X024145Y009023D02*
X024011Y009157D01*
D11*
X015461Y028897D02*
X015461Y029497D01*
X014461Y029497D02*
X014461Y028897D01*
X013461Y028897D02*
X013461Y029497D01*
X010961Y029497D02*
X010961Y028897D01*
X009961Y028897D02*
X009961Y029497D01*
X008961Y029497D02*
X008961Y028897D01*
X007961Y028897D02*
X007961Y029497D01*
X005761Y029697D02*
X005161Y029697D01*
X005161Y028697D02*
X005761Y028697D01*
X005761Y027697D02*
X005161Y027697D01*
X005161Y026697D02*
X005761Y026697D01*
D12*
X007201Y013697D02*
X007721Y013697D01*
X007721Y012697D02*
X007201Y012697D01*
X007201Y011697D02*
X007721Y011697D01*
X007721Y010697D02*
X007201Y010697D01*
X007201Y009697D02*
X007721Y009697D01*
X007721Y008697D02*
X007201Y008697D01*
X007201Y007697D02*
X007721Y007697D01*
X007721Y006697D02*
X007201Y006697D01*
X012201Y006697D02*
X012721Y006697D01*
X012721Y007697D02*
X012201Y007697D01*
X012201Y008697D02*
X012721Y008697D01*
X012721Y009697D02*
X012201Y009697D01*
X012201Y010697D02*
X012721Y010697D01*
X012721Y011697D02*
X012201Y011697D01*
X012201Y012697D02*
X012721Y012697D01*
X012721Y013697D02*
X012201Y013697D01*
D13*
X019481Y004087D02*
X019481Y003307D01*
X021451Y003307D02*
X021451Y004087D01*
X004356Y009747D02*
X003577Y009746D01*
X003573Y011706D02*
X004353Y011707D01*
X004350Y013687D02*
X003570Y013686D01*
X003566Y015646D02*
X004346Y015647D01*
X004351Y018717D02*
X003571Y018717D01*
X003571Y020687D02*
X004351Y020687D01*
D14*
X014461Y009697D03*
D15*
X014461Y008697D03*
X014461Y007697D03*
X015461Y007697D03*
X015461Y008697D03*
X015461Y009697D03*
D16*
X006492Y003197D03*
X004681Y003197D03*
D17*
X004631Y007822D03*
X003292Y007822D03*
D18*
X009461Y016197D03*
X009461Y017197D03*
X010461Y017197D03*
X010461Y016197D03*
X011461Y016197D03*
X011461Y017197D03*
X012461Y017197D03*
X012461Y016197D03*
X013461Y016197D03*
X013461Y017197D03*
X014461Y017197D03*
X014461Y016197D03*
X015461Y016197D03*
X015461Y017197D03*
D19*
X014686Y004197D02*
X014686Y003197D01*
X016686Y003197D02*
X016686Y004197D01*
X010486Y004197D02*
X010486Y003197D01*
X008486Y003197D02*
X008486Y004197D01*
D20*
X009836Y006847D03*
X009836Y007671D03*
D21*
X004961Y005697D03*
X015461Y011697D03*
X003961Y023197D03*
X019336Y029447D03*
D22*
X021336Y029447D03*
X015461Y013697D03*
X003961Y025197D03*
X002961Y005697D03*
D23*
X008086Y020447D03*
X008086Y026697D03*
X023461Y026572D03*
X023461Y020447D03*
D24*
X018774Y014134D03*
X018774Y011384D03*
D25*
X001861Y002096D02*
X001861Y031041D01*
X006134Y031041D01*
X006059Y030966D01*
X005490Y030396D01*
X005022Y030396D01*
X004765Y030290D01*
X004568Y030093D01*
X004461Y029836D01*
X004461Y029557D01*
X004568Y029300D01*
X004671Y029197D01*
X004568Y029093D01*
X004461Y028836D01*
X004461Y028557D01*
X004568Y028300D01*
X004671Y028197D01*
X004568Y028093D01*
X004461Y027836D01*
X004461Y027557D01*
X004568Y027300D01*
X004765Y027103D01*
X004773Y027100D01*
X004734Y027061D01*
X004682Y026990D01*
X004642Y026911D01*
X004615Y026828D01*
X004601Y026741D01*
X004601Y026697D01*
X005461Y026697D01*
X005461Y026696D01*
X005462Y026696D01*
X005462Y026697D01*
X006321Y026697D01*
X006321Y026741D01*
X006308Y026828D01*
X006280Y026911D01*
X006240Y026990D01*
X006189Y027061D01*
X006150Y027100D01*
X006158Y027103D01*
X006276Y027222D01*
X007360Y027222D01*
X007201Y027063D01*
X007201Y026697D01*
X008086Y026697D01*
X008086Y026696D01*
X008087Y026696D01*
X008087Y025812D01*
X008453Y025812D01*
X008971Y026330D01*
X008971Y026515D01*
X011815Y023671D01*
X011367Y023671D01*
X011192Y023599D01*
X011059Y023466D01*
X010986Y023291D01*
X010986Y023102D01*
X010986Y017683D01*
X010961Y017658D01*
X010743Y017876D01*
X010180Y017876D01*
X009961Y017658D01*
X009743Y017876D01*
X009180Y017876D01*
X008975Y017671D01*
X008867Y017671D01*
X008692Y017599D01*
X008559Y017466D01*
X008486Y017291D01*
X008486Y017102D01*
X008486Y015602D01*
X008559Y015427D01*
X008692Y015294D01*
X008867Y015222D01*
X009056Y015222D01*
X009265Y015222D01*
X011576Y012911D01*
X011541Y012828D01*
X011541Y012565D01*
X011642Y012323D01*
X011768Y012196D01*
X011642Y012070D01*
X011541Y011828D01*
X011541Y011565D01*
X011642Y011323D01*
X011768Y011196D01*
X011642Y011070D01*
X011541Y010828D01*
X011541Y010565D01*
X011642Y010323D01*
X011768Y010196D01*
X011642Y010070D01*
X011541Y009828D01*
X011541Y009671D01*
X011367Y009671D01*
X011192Y009599D01*
X009870Y008277D01*
X009442Y008277D01*
X009295Y008216D01*
X009210Y008131D01*
X008796Y008131D01*
X008796Y012605D01*
X008796Y012788D01*
X008726Y012957D01*
X008597Y013086D01*
X008428Y013156D01*
X008195Y013156D01*
X008095Y013256D01*
X008034Y013281D01*
X008060Y013300D01*
X008118Y013358D01*
X008166Y013424D01*
X008203Y013497D01*
X008229Y013575D01*
X008241Y013656D01*
X008241Y013696D01*
X007462Y013696D01*
X007462Y013697D01*
X008241Y013697D01*
X008241Y013737D01*
X008229Y013818D01*
X008203Y013896D01*
X008166Y013969D01*
X008118Y014035D01*
X008060Y014093D01*
X007994Y014141D01*
X007921Y014178D01*
X007843Y014204D01*
X007762Y014216D01*
X007462Y014216D01*
X007462Y013697D01*
X007461Y013697D01*
X007461Y014216D01*
X007160Y014216D01*
X007080Y014204D01*
X007002Y014178D01*
X006929Y014141D01*
X006863Y014093D01*
X006805Y014035D01*
X006757Y013969D01*
X006720Y013896D01*
X006694Y013818D01*
X006681Y013737D01*
X006681Y013697D01*
X007461Y013697D01*
X007461Y013696D01*
X006681Y013696D01*
X006681Y013656D01*
X006694Y013575D01*
X006720Y013497D01*
X006757Y013424D01*
X006805Y013358D01*
X006863Y013300D01*
X006888Y013281D01*
X006828Y013256D01*
X006642Y013070D01*
X006541Y012828D01*
X006541Y012565D01*
X006642Y012323D01*
X006768Y012196D01*
X006701Y012129D01*
X005140Y013690D01*
X005139Y013846D01*
X005019Y014136D01*
X004796Y014358D01*
X004505Y014477D01*
X003411Y014476D01*
X003121Y014355D01*
X002899Y014132D01*
X002779Y013842D01*
X002780Y013527D01*
X002901Y013237D01*
X003123Y013015D01*
X003414Y012896D01*
X004508Y012897D01*
X004565Y012921D01*
X005315Y012171D01*
X005006Y012171D01*
X004799Y012378D01*
X004509Y012497D01*
X003415Y012496D01*
X003124Y012375D01*
X002903Y012152D01*
X002783Y011862D01*
X002783Y011547D01*
X002904Y011257D01*
X003127Y011035D01*
X003417Y010916D01*
X004512Y010917D01*
X004802Y011038D01*
X004984Y011222D01*
X005265Y011222D01*
X006576Y009911D01*
X006541Y009828D01*
X006541Y009565D01*
X006642Y009323D01*
X006768Y009196D01*
X006642Y009070D01*
X006541Y008828D01*
X006541Y008565D01*
X006642Y008323D01*
X006828Y008137D01*
X006888Y008112D01*
X006863Y008093D01*
X006805Y008035D01*
X006757Y007969D01*
X006720Y007896D01*
X006694Y007818D01*
X006681Y007737D01*
X006681Y007697D01*
X007461Y007697D01*
X007461Y007696D01*
X006681Y007696D01*
X006681Y007656D01*
X006694Y007575D01*
X006720Y007497D01*
X006757Y007424D01*
X006805Y007358D01*
X006863Y007300D01*
X006888Y007281D01*
X006828Y007256D01*
X006642Y007070D01*
X006541Y006828D01*
X006541Y006565D01*
X006642Y006323D01*
X006828Y006137D01*
X007070Y006037D01*
X007790Y006037D01*
X007711Y005846D01*
X007711Y004677D01*
X007586Y004376D01*
X007586Y003946D01*
X007292Y003946D01*
X007191Y004047D01*
X007044Y004108D01*
X005940Y004108D01*
X005911Y004096D01*
X005382Y004096D01*
X005331Y004075D01*
X005331Y004647D01*
X005512Y004828D01*
X005611Y005067D01*
X005611Y005074D01*
X005724Y005187D01*
X005861Y005517D01*
X005861Y005876D01*
X005724Y006206D01*
X005611Y006319D01*
X005611Y007567D01*
X005611Y007826D01*
X005512Y008065D01*
X005330Y008248D01*
X005305Y008258D01*
X005245Y008402D01*
X005133Y008515D01*
X004986Y008576D01*
X004585Y008576D01*
X004501Y008661D01*
X004354Y008721D01*
X003694Y008721D01*
X003547Y008661D01*
X003435Y008548D01*
X003388Y008436D01*
X003292Y008436D01*
X002991Y008436D01*
X002941Y008426D01*
X002893Y008406D01*
X001861Y008406D01*
X001861Y008724D02*
X006541Y008724D01*
X006607Y008406D02*
X005242Y008406D01*
X005490Y008087D02*
X006857Y008087D01*
X006686Y007769D02*
X005611Y007769D01*
X005611Y007450D02*
X006743Y007450D01*
X006703Y007132D02*
X005611Y007132D01*
X005611Y006813D02*
X006541Y006813D01*
X006571Y006495D02*
X005611Y006495D01*
X005737Y006176D02*
X006789Y006176D01*
X007716Y005857D02*
X005861Y005857D01*
X005861Y005539D02*
X007711Y005539D01*
X007711Y005220D02*
X005738Y005220D01*
X005543Y004902D02*
X007711Y004902D01*
X007672Y004583D02*
X005331Y004583D01*
X005331Y004265D02*
X007586Y004265D01*
X009211Y004744D02*
X009211Y004947D01*
X009964Y004947D01*
X009723Y004706D01*
X009586Y004376D01*
X009586Y003017D01*
X009723Y002687D01*
X009977Y002434D01*
X010307Y002297D01*
X010665Y002297D01*
X010996Y002434D01*
X011249Y002687D01*
X011386Y003017D01*
X011386Y004376D01*
X011249Y004706D01*
X011009Y004947D01*
X014164Y004947D01*
X013923Y004706D01*
X013786Y004376D01*
X013786Y003017D01*
X013923Y002687D01*
X014177Y002434D01*
X014507Y002297D01*
X014865Y002297D01*
X015196Y002434D01*
X015449Y002687D01*
X015586Y003017D01*
X015586Y004376D01*
X015449Y004706D01*
X015209Y004947D01*
X016164Y004947D01*
X015923Y004706D01*
X015786Y004376D01*
X015786Y003017D01*
X015923Y002687D01*
X016177Y002434D01*
X016507Y002297D01*
X016865Y002297D01*
X017196Y002434D01*
X017449Y002687D01*
X017586Y003017D01*
X017586Y004376D01*
X017449Y004706D01*
X017196Y004959D01*
X017169Y004971D01*
X017386Y005061D01*
X017597Y005272D01*
X017711Y005547D01*
X017711Y005846D01*
X017711Y010820D01*
X018298Y010234D01*
X019250Y010234D01*
X019924Y010908D01*
X019924Y011860D01*
X019250Y012534D01*
X018298Y012534D01*
X017711Y011948D01*
X017711Y013570D01*
X018298Y012984D01*
X019250Y012984D01*
X019924Y013658D01*
X019924Y014610D01*
X019250Y015284D01*
X018298Y015284D01*
X017711Y014698D01*
X017711Y016047D01*
X017711Y019947D01*
X022512Y019947D01*
X023037Y019422D01*
X023886Y019422D01*
X024486Y020022D01*
X024486Y020871D01*
X023886Y021471D01*
X023037Y021471D01*
X023012Y021446D01*
X017711Y021446D01*
X017711Y028697D01*
X018814Y028697D01*
X018827Y028684D01*
X019157Y028547D01*
X019515Y028547D01*
X019846Y028684D01*
X020099Y028937D01*
X020236Y029267D01*
X020236Y029626D01*
X020099Y029956D01*
X019846Y030209D01*
X019515Y030346D01*
X019157Y030346D01*
X018827Y030209D01*
X018814Y030196D01*
X017111Y030196D01*
X016812Y030196D01*
X016537Y030082D01*
X016401Y029946D01*
X016001Y029946D01*
X015858Y030090D01*
X015601Y030196D01*
X015322Y030196D01*
X015065Y030090D01*
X014961Y029986D01*
X014858Y030090D01*
X014601Y030196D01*
X014322Y030196D01*
X014065Y030090D01*
X013868Y029893D01*
X013865Y029885D01*
X013826Y029924D01*
X013755Y029975D01*
X013676Y030015D01*
X013593Y030043D01*
X013505Y030056D01*
X013462Y030056D01*
X013462Y029197D01*
X013461Y029197D01*
X013461Y030056D01*
X013417Y030056D01*
X013330Y030043D01*
X013246Y030015D01*
X013168Y029975D01*
X013097Y029924D01*
X013034Y029861D01*
X012982Y029790D01*
X012942Y029711D01*
X012915Y029628D01*
X012901Y029541D01*
X012901Y029197D01*
X013461Y029197D01*
X013461Y029196D01*
X013462Y029196D01*
X013462Y028337D01*
X013505Y028337D01*
X013593Y028350D01*
X013676Y028378D01*
X013755Y028418D01*
X013826Y028469D01*
X013865Y028508D01*
X013868Y028500D01*
X014065Y028303D01*
X014322Y028197D01*
X014601Y028197D01*
X014858Y028303D01*
X014961Y028407D01*
X015065Y028303D01*
X015322Y028197D01*
X015601Y028197D01*
X015858Y028303D01*
X016001Y028447D01*
X016211Y028447D01*
X016211Y020846D01*
X016211Y016946D01*
X016141Y016946D01*
X016141Y017478D01*
X015743Y017876D01*
X015180Y017876D01*
X014961Y017658D01*
X014743Y017876D01*
X014180Y017876D01*
X013961Y017658D01*
X013936Y017683D01*
X013936Y027602D01*
X013936Y027791D01*
X013864Y027966D01*
X013730Y028099D01*
X013556Y028171D01*
X011574Y028171D01*
X011332Y028292D01*
X011358Y028303D01*
X011555Y028500D01*
X011661Y028757D01*
X011661Y029636D01*
X011555Y029893D01*
X011358Y030090D01*
X011101Y030196D01*
X010822Y030196D01*
X010689Y030141D01*
X009789Y031041D01*
X024683Y031041D01*
X024683Y009454D01*
X024600Y009538D01*
X024434Y009607D01*
X024301Y009607D01*
X024122Y009607D01*
X024111Y009602D01*
X024101Y009607D01*
X023922Y009607D01*
X023757Y009538D01*
X023630Y009412D01*
X023561Y009246D01*
X023561Y009067D01*
X023580Y009023D01*
X023561Y008979D01*
X023561Y008800D01*
X023564Y008793D01*
X023561Y008786D01*
X023561Y008340D01*
X023620Y008199D01*
X023561Y008059D01*
X023561Y007879D01*
X023620Y007739D01*
X023561Y007598D01*
X023561Y007419D01*
X023578Y007379D01*
X023577Y007376D01*
X023561Y007338D01*
X023561Y007247D01*
X023561Y007025D01*
X023592Y006952D01*
X023577Y006916D01*
X023561Y006878D01*
X023561Y006878D01*
X023561Y006877D01*
X023561Y006787D01*
X023561Y006565D01*
X023630Y006400D01*
X023756Y006273D01*
X023821Y006209D01*
X023756Y006182D01*
X023630Y006056D01*
X023561Y005890D01*
X023561Y005711D01*
X023606Y005604D01*
X023577Y005535D01*
X023561Y005497D01*
X023561Y005496D01*
X023561Y005406D01*
X023561Y005184D01*
X023592Y005110D01*
X023579Y005078D01*
X023561Y005036D01*
X023561Y004948D01*
X023561Y004657D01*
X023630Y004492D01*
X023756Y004365D01*
X023922Y004297D01*
X024101Y004297D01*
X024122Y004297D01*
X024301Y004297D01*
X024322Y004297D01*
X024501Y004297D01*
X024667Y004365D01*
X024683Y004382D01*
X024683Y002096D01*
X024262Y002096D01*
X024317Y002151D01*
X024450Y002381D01*
X024519Y002638D01*
X024519Y002904D01*
X024450Y003161D01*
X024317Y003392D01*
X024129Y003580D01*
X023899Y003713D01*
X023642Y003782D01*
X023376Y003782D01*
X023119Y003713D01*
X022888Y003580D01*
X022700Y003392D01*
X022567Y003161D01*
X022498Y002904D01*
X022498Y002638D01*
X022567Y002381D01*
X022700Y002151D01*
X022755Y002096D01*
X003790Y002096D01*
X003845Y002151D01*
X003966Y002361D01*
X003982Y002346D01*
X004129Y002285D01*
X005233Y002285D01*
X005322Y002321D01*
X005382Y002297D01*
X005911Y002297D01*
X005940Y002285D01*
X007044Y002285D01*
X007191Y002346D01*
X007292Y002447D01*
X007964Y002447D01*
X007977Y002434D01*
X008307Y002297D01*
X008665Y002297D01*
X008996Y002434D01*
X009249Y002687D01*
X009386Y003017D01*
X009386Y004376D01*
X009249Y004706D01*
X009211Y004744D01*
X009211Y004902D02*
X009919Y004902D01*
X009672Y004583D02*
X009300Y004583D01*
X009386Y004265D02*
X009586Y004265D01*
X009586Y003946D02*
X009386Y003946D01*
X009386Y003628D02*
X009586Y003628D01*
X009586Y003309D02*
X009386Y003309D01*
X009375Y002991D02*
X009598Y002991D01*
X009738Y002672D02*
X009235Y002672D01*
X008803Y002354D02*
X010170Y002354D01*
X010803Y002354D02*
X014370Y002354D01*
X013938Y002672D02*
X011235Y002672D01*
X011375Y002991D02*
X013798Y002991D01*
X013786Y003309D02*
X011386Y003309D01*
X011386Y003628D02*
X013786Y003628D01*
X013786Y003946D02*
X011386Y003946D01*
X011386Y004265D02*
X013786Y004265D01*
X013872Y004583D02*
X011300Y004583D01*
X011054Y004902D02*
X014119Y004902D01*
X015254Y004902D02*
X016119Y004902D01*
X015872Y004583D02*
X015500Y004583D01*
X015586Y004265D02*
X015786Y004265D01*
X015786Y003946D02*
X015586Y003946D01*
X015586Y003628D02*
X015786Y003628D01*
X015786Y003309D02*
X015586Y003309D01*
X015575Y002991D02*
X015798Y002991D01*
X015938Y002672D02*
X015435Y002672D01*
X015003Y002354D02*
X016370Y002354D01*
X017003Y002354D02*
X022583Y002354D01*
X022498Y002672D02*
X021595Y002672D01*
X021579Y002668D02*
X021661Y002690D01*
X021739Y002722D01*
X021813Y002765D01*
X021881Y002817D01*
X021941Y002877D01*
X021993Y002945D01*
X022036Y003018D01*
X022068Y003097D01*
X022090Y003179D01*
X022101Y003264D01*
X022101Y003696D01*
X021452Y003696D01*
X021452Y003697D01*
X022101Y003697D01*
X022101Y004129D01*
X022090Y004214D01*
X022068Y004296D01*
X022036Y004375D01*
X021993Y004448D01*
X021941Y004516D01*
X021881Y004576D01*
X021813Y004628D01*
X021739Y004671D01*
X021661Y004703D01*
X021579Y004725D01*
X021494Y004736D01*
X021452Y004736D01*
X021452Y003697D01*
X021451Y003697D01*
X021451Y004736D01*
X021409Y004736D01*
X021324Y004725D01*
X021242Y004703D01*
X021163Y004671D01*
X021089Y004628D01*
X021022Y004576D01*
X020962Y004516D01*
X020910Y004448D01*
X020867Y004375D01*
X020835Y004296D01*
X020813Y004214D01*
X020801Y004129D01*
X020801Y003697D01*
X021451Y003697D01*
X021451Y003696D01*
X021452Y003696D01*
X021452Y002657D01*
X021494Y002657D01*
X021579Y002668D01*
X021452Y002672D02*
X021451Y002672D01*
X021451Y002657D02*
X021451Y003696D01*
X020801Y003696D01*
X020801Y003264D01*
X020813Y003179D01*
X020835Y003097D01*
X020867Y003018D01*
X020910Y002945D01*
X020962Y002877D01*
X021022Y002817D01*
X021089Y002765D01*
X021163Y002722D01*
X021242Y002690D01*
X021324Y002668D01*
X021409Y002657D01*
X021451Y002657D01*
X021308Y002672D02*
X019964Y002672D01*
X019929Y002637D02*
X020151Y002859D01*
X020271Y003149D01*
X020271Y004244D01*
X020151Y004534D01*
X019929Y004756D01*
X019639Y004876D01*
X019324Y004876D01*
X019034Y004756D01*
X018812Y004534D01*
X018691Y004244D01*
X018691Y003149D01*
X018812Y002859D01*
X019034Y002637D01*
X019324Y002517D01*
X019639Y002517D01*
X019929Y002637D01*
X020206Y002991D02*
X020883Y002991D01*
X020801Y003309D02*
X020271Y003309D01*
X020271Y003628D02*
X020801Y003628D01*
X020801Y003946D02*
X020271Y003946D01*
X020263Y004265D02*
X020826Y004265D01*
X021031Y004583D02*
X020102Y004583D01*
X018861Y004583D02*
X017500Y004583D01*
X017586Y004265D02*
X018700Y004265D01*
X018691Y003946D02*
X017586Y003946D01*
X017586Y003628D02*
X018691Y003628D01*
X018691Y003309D02*
X017586Y003309D01*
X017575Y002991D02*
X018757Y002991D01*
X018999Y002672D02*
X017435Y002672D01*
X017254Y004902D02*
X023561Y004902D01*
X023561Y005036D02*
X023561Y005036D01*
X023561Y005036D01*
X023561Y005220D02*
X017546Y005220D01*
X017708Y005539D02*
X023579Y005539D01*
X023561Y005496D02*
X023561Y005496D01*
X023561Y005857D02*
X017711Y005857D01*
X017711Y006176D02*
X023750Y006176D01*
X023591Y006495D02*
X017711Y006495D01*
X017711Y006813D02*
X023561Y006813D01*
X023561Y007132D02*
X017711Y007132D01*
X017711Y007450D02*
X023561Y007450D01*
X023561Y007338D02*
X023561Y007338D01*
X023561Y007338D01*
X023607Y007769D02*
X017711Y007769D01*
X017711Y008087D02*
X023573Y008087D01*
X023561Y008406D02*
X017711Y008406D01*
X017711Y008724D02*
X023561Y008724D01*
X023571Y009043D02*
X017711Y009043D01*
X017711Y009361D02*
X023609Y009361D01*
X024683Y009680D02*
X017711Y009680D01*
X017711Y009999D02*
X024683Y009999D01*
X024683Y010317D02*
X019333Y010317D01*
X019652Y010636D02*
X024683Y010636D01*
X024683Y010954D02*
X019924Y010954D01*
X019924Y011273D02*
X024683Y011273D01*
X024683Y011591D02*
X019924Y011591D01*
X019874Y011910D02*
X024683Y011910D01*
X024683Y012228D02*
X019556Y012228D01*
X019450Y013184D02*
X024683Y013184D01*
X024683Y013503D02*
X019769Y013503D01*
X019924Y013821D02*
X024683Y013821D01*
X024683Y014140D02*
X019924Y014140D01*
X019924Y014458D02*
X024683Y014458D01*
X024683Y014777D02*
X019758Y014777D01*
X019439Y015095D02*
X024683Y015095D01*
X024683Y015414D02*
X017711Y015414D01*
X017711Y015732D02*
X024683Y015732D01*
X024683Y016051D02*
X017711Y016051D01*
X017711Y016369D02*
X024683Y016369D01*
X024683Y016688D02*
X017711Y016688D01*
X017711Y017006D02*
X024683Y017006D01*
X024683Y017325D02*
X017711Y017325D01*
X017711Y017644D02*
X024683Y017644D01*
X024683Y017962D02*
X017711Y017962D01*
X017711Y018281D02*
X024683Y018281D01*
X024683Y018599D02*
X017711Y018599D01*
X017711Y018918D02*
X024683Y018918D01*
X024683Y019236D02*
X017711Y019236D01*
X017711Y019555D02*
X022904Y019555D01*
X022585Y019873D02*
X017711Y019873D01*
X017711Y021466D02*
X023031Y021466D01*
X023891Y021466D02*
X024683Y021466D01*
X024683Y021148D02*
X024210Y021148D01*
X024486Y020829D02*
X024683Y020829D01*
X024683Y020510D02*
X024486Y020510D01*
X024486Y020192D02*
X024683Y020192D01*
X024683Y019873D02*
X024338Y019873D01*
X024019Y019555D02*
X024683Y019555D01*
X024683Y021785D02*
X017711Y021785D01*
X017711Y022103D02*
X024683Y022103D01*
X024683Y022422D02*
X017711Y022422D01*
X017711Y022740D02*
X024683Y022740D01*
X024683Y023059D02*
X017711Y023059D01*
X017711Y023377D02*
X024683Y023377D01*
X024683Y023696D02*
X017711Y023696D01*
X017711Y024014D02*
X024683Y024014D01*
X024683Y024333D02*
X017711Y024333D01*
X017711Y024652D02*
X024683Y024652D01*
X024683Y024970D02*
X017711Y024970D01*
X017711Y025289D02*
X024683Y025289D01*
X024683Y025607D02*
X017711Y025607D01*
X017711Y025926D02*
X022856Y025926D01*
X023095Y025687D02*
X022576Y026205D01*
X022576Y026571D01*
X023461Y026571D01*
X023462Y026571D01*
X023462Y026572D01*
X024346Y026572D01*
X024346Y026938D01*
X023828Y027456D01*
X023462Y027456D01*
X023462Y026572D01*
X023461Y026572D01*
X023461Y027456D01*
X023095Y027456D01*
X022576Y026938D01*
X022576Y026572D01*
X023461Y026572D01*
X023461Y026571D01*
X023461Y025687D01*
X023095Y025687D01*
X023462Y025687D02*
X023828Y025687D01*
X024346Y026205D01*
X024346Y026571D01*
X023462Y026571D01*
X023462Y025687D01*
X023461Y025926D02*
X023462Y025926D01*
X023461Y026244D02*
X023462Y026244D01*
X023461Y026563D02*
X023462Y026563D01*
X023461Y026881D02*
X023462Y026881D01*
X023461Y027200D02*
X023462Y027200D01*
X024085Y027200D02*
X024683Y027200D01*
X024683Y027518D02*
X017711Y027518D01*
X017711Y027200D02*
X022838Y027200D01*
X022576Y026881D02*
X017711Y026881D01*
X017711Y026563D02*
X022576Y026563D01*
X022576Y026244D02*
X017711Y026244D01*
X017711Y027837D02*
X024683Y027837D01*
X024683Y028156D02*
X017711Y028156D01*
X017711Y028474D02*
X024683Y028474D01*
X024683Y028793D02*
X021757Y028793D01*
X021651Y028687D02*
X022096Y029132D01*
X022096Y029446D01*
X021337Y029446D01*
X021337Y029447D01*
X022096Y029447D01*
X022096Y029761D01*
X021651Y030206D01*
X021337Y030206D01*
X021337Y029447D01*
X021336Y029447D01*
X021336Y030206D01*
X021022Y030206D01*
X020576Y029761D01*
X020576Y029447D01*
X021336Y029447D01*
X021336Y029446D01*
X021337Y029446D01*
X021337Y028687D01*
X021651Y028687D01*
X021336Y028687D02*
X021336Y029446D01*
X020576Y029446D01*
X020576Y029132D01*
X021022Y028687D01*
X021336Y028687D01*
X021336Y028793D02*
X021337Y028793D01*
X021336Y029111D02*
X021337Y029111D01*
X021336Y029430D02*
X021337Y029430D01*
X021336Y029748D02*
X021337Y029748D01*
X021336Y030067D02*
X021337Y030067D01*
X021791Y030067D02*
X022517Y030067D01*
X022498Y029999D02*
X022567Y030256D01*
X022700Y030486D01*
X022888Y030674D01*
X023119Y030807D01*
X023376Y030876D01*
X023642Y030876D01*
X023899Y030807D01*
X024129Y030674D01*
X024317Y030486D01*
X024450Y030256D01*
X024519Y029999D01*
X024519Y029733D01*
X024450Y029476D01*
X024317Y029246D01*
X024129Y029057D01*
X023899Y028924D01*
X023642Y028856D01*
X023376Y028856D01*
X023119Y028924D01*
X022888Y029057D01*
X022700Y029246D01*
X022567Y029476D01*
X022498Y029733D01*
X022498Y029999D01*
X022498Y029748D02*
X022096Y029748D01*
X022096Y029430D02*
X022594Y029430D01*
X022835Y029111D02*
X022076Y029111D01*
X022642Y030385D02*
X010444Y030385D01*
X010126Y030704D02*
X022940Y030704D01*
X024078Y030704D02*
X024683Y030704D01*
X024683Y031022D02*
X009807Y031022D01*
X009265Y030222D02*
X009481Y030006D01*
X009461Y029986D01*
X009358Y030090D01*
X009101Y030196D01*
X008822Y030196D01*
X008565Y030090D01*
X008368Y029893D01*
X008365Y029885D01*
X008326Y029924D01*
X008255Y029975D01*
X008176Y030015D01*
X008093Y030043D01*
X008005Y030056D01*
X007962Y030056D01*
X007962Y029197D01*
X007961Y029197D01*
X007961Y030056D01*
X007917Y030056D01*
X007830Y030043D01*
X007746Y030015D01*
X007668Y029975D01*
X007597Y029924D01*
X007534Y029861D01*
X007482Y029790D01*
X007442Y029711D01*
X007415Y029628D01*
X007401Y029541D01*
X007401Y029197D01*
X007961Y029197D01*
X007961Y029196D01*
X007401Y029196D01*
X007401Y028852D01*
X007415Y028765D01*
X007442Y028682D01*
X007448Y028671D01*
X006658Y028671D01*
X006438Y028891D01*
X006355Y029093D01*
X006251Y029197D01*
X006355Y029300D01*
X006461Y029557D01*
X006461Y029836D01*
X006406Y029969D01*
X006658Y030222D01*
X009265Y030222D01*
X009381Y030067D02*
X009419Y030067D01*
X008542Y030067D02*
X006503Y030067D01*
X006461Y029748D02*
X007461Y029748D01*
X007401Y029430D02*
X006409Y029430D01*
X006337Y029111D02*
X007401Y029111D01*
X007411Y028793D02*
X006537Y028793D01*
X006255Y027200D02*
X007338Y027200D01*
X007201Y026881D02*
X006290Y026881D01*
X006321Y026696D02*
X005462Y026696D01*
X005462Y026137D01*
X005805Y026137D01*
X005893Y026150D01*
X005976Y026178D01*
X006055Y026218D01*
X006126Y026269D01*
X006189Y026332D01*
X006240Y026403D01*
X006280Y026482D01*
X006308Y026565D01*
X006321Y026652D01*
X006321Y026696D01*
X006307Y026563D02*
X007201Y026563D01*
X007201Y026696D02*
X007201Y026330D01*
X007720Y025812D01*
X008086Y025812D01*
X008086Y026696D01*
X007201Y026696D01*
X007287Y026244D02*
X006092Y026244D01*
X005462Y026244D02*
X005461Y026244D01*
X005461Y026137D02*
X005117Y026137D01*
X005030Y026150D01*
X004946Y026178D01*
X004868Y026218D01*
X004797Y026269D01*
X004734Y026332D01*
X004682Y026403D01*
X004642Y026482D01*
X004615Y026565D01*
X004601Y026652D01*
X004601Y026696D01*
X005461Y026696D01*
X005461Y026137D01*
X005461Y026563D02*
X005462Y026563D01*
X004831Y026244D02*
X001861Y026244D01*
X001861Y025926D02*
X003616Y025926D01*
X003647Y025956D02*
X003201Y025511D01*
X003201Y025197D01*
X003961Y025197D01*
X003961Y025956D01*
X003647Y025956D01*
X003962Y025956D02*
X003962Y025197D01*
X004721Y025197D01*
X004721Y025511D01*
X004276Y025956D01*
X003962Y025956D01*
X003961Y025926D02*
X003962Y025926D01*
X003961Y025607D02*
X003962Y025607D01*
X003961Y025289D02*
X003962Y025289D01*
X003962Y025197D02*
X003961Y025197D01*
X003961Y025196D01*
X003962Y025196D01*
X003962Y025197D01*
X003962Y025196D02*
X004721Y025196D01*
X004721Y024882D01*
X004276Y024437D01*
X003962Y024437D01*
X003962Y025196D01*
X003961Y025196D02*
X003961Y024437D01*
X003647Y024437D01*
X003201Y024882D01*
X003201Y025196D01*
X003961Y025196D01*
X003961Y024970D02*
X003962Y024970D01*
X003961Y024652D02*
X003962Y024652D01*
X004491Y024652D02*
X010835Y024652D01*
X010516Y024970D02*
X004721Y024970D01*
X004721Y025289D02*
X010198Y025289D01*
X009879Y025607D02*
X004626Y025607D01*
X004307Y025926D02*
X007606Y025926D01*
X008086Y025926D02*
X008087Y025926D01*
X008086Y026244D02*
X008087Y026244D01*
X008086Y026563D02*
X008087Y026563D01*
X008567Y025926D02*
X009561Y025926D01*
X009242Y026244D02*
X008886Y026244D01*
X011153Y024333D02*
X001861Y024333D01*
X001861Y024014D02*
X003584Y024014D01*
X003452Y023959D02*
X003782Y024096D01*
X004140Y024096D01*
X004471Y023959D01*
X004724Y023706D01*
X004861Y023376D01*
X004861Y023017D01*
X004724Y022687D01*
X004711Y022674D01*
X004711Y021446D01*
X007637Y021446D01*
X007662Y021471D01*
X008511Y021471D01*
X009111Y020871D01*
X009111Y020022D01*
X008511Y019422D01*
X007662Y019422D01*
X007137Y019947D01*
X004629Y019947D01*
X004509Y019897D01*
X003414Y019897D01*
X003124Y020017D01*
X002902Y020239D01*
X002781Y020529D01*
X002781Y020844D01*
X002902Y021134D01*
X003124Y021356D01*
X003211Y021392D01*
X003211Y022674D01*
X003198Y022687D01*
X003061Y023017D01*
X003061Y023376D01*
X003198Y023706D01*
X003452Y023959D01*
X003194Y023696D02*
X001861Y023696D01*
X001861Y023377D02*
X003062Y023377D01*
X003061Y023059D02*
X001861Y023059D01*
X001861Y022740D02*
X003176Y022740D01*
X003211Y022422D02*
X001861Y022422D01*
X001861Y022103D02*
X003211Y022103D01*
X003211Y021785D02*
X001861Y021785D01*
X001861Y021466D02*
X003211Y021466D01*
X002915Y021148D02*
X001861Y021148D01*
X001861Y020829D02*
X002781Y020829D01*
X002789Y020510D02*
X001861Y020510D01*
X001861Y020192D02*
X002949Y020192D01*
X003283Y019301D02*
X003209Y019258D01*
X003142Y019206D01*
X003082Y019146D01*
X003030Y019078D01*
X002987Y019005D01*
X002955Y018926D01*
X002933Y018844D01*
X002921Y018759D01*
X002921Y018717D01*
X003961Y018717D01*
X003961Y019366D01*
X003529Y019366D01*
X003444Y019355D01*
X003362Y019333D01*
X003283Y019301D01*
X003181Y019236D02*
X001861Y019236D01*
X001861Y018918D02*
X002952Y018918D01*
X002921Y018716D02*
X002921Y018674D01*
X002933Y018589D01*
X002955Y018507D01*
X002987Y018428D01*
X003030Y018355D01*
X003082Y018287D01*
X003142Y018227D01*
X003209Y018175D01*
X003283Y018132D01*
X003362Y018100D01*
X003444Y018078D01*
X003529Y018067D01*
X003961Y018067D01*
X003961Y018716D01*
X003962Y018716D01*
X003962Y018717D01*
X005001Y018717D01*
X005001Y018759D01*
X004990Y018844D01*
X004968Y018926D01*
X004936Y019005D01*
X004893Y019078D01*
X004841Y019146D01*
X004781Y019206D01*
X004713Y019258D01*
X004639Y019301D01*
X004561Y019333D01*
X004479Y019355D01*
X004394Y019366D01*
X003962Y019366D01*
X003962Y018717D01*
X003961Y018717D01*
X003961Y018716D01*
X002921Y018716D01*
X002931Y018599D02*
X001861Y018599D01*
X001861Y018281D02*
X003088Y018281D01*
X003961Y018281D02*
X003962Y018281D01*
X003962Y018067D02*
X004394Y018067D01*
X004479Y018078D01*
X004561Y018100D01*
X004639Y018132D01*
X004713Y018175D01*
X004781Y018227D01*
X004841Y018287D01*
X004893Y018355D01*
X004936Y018428D01*
X004968Y018507D01*
X004990Y018589D01*
X005001Y018674D01*
X005001Y018716D01*
X003962Y018716D01*
X003962Y018067D01*
X003961Y018599D02*
X003962Y018599D01*
X003961Y018918D02*
X003962Y018918D01*
X003961Y019236D02*
X003962Y019236D01*
X004742Y019236D02*
X010986Y019236D01*
X010986Y018918D02*
X004970Y018918D01*
X004992Y018599D02*
X010986Y018599D01*
X010986Y018281D02*
X004835Y018281D01*
X004502Y016437D02*
X003408Y016436D01*
X003118Y016315D01*
X002896Y016092D01*
X002776Y015802D01*
X002777Y015487D01*
X002897Y015197D01*
X003120Y014975D01*
X003410Y014856D01*
X004505Y014857D01*
X004795Y014978D01*
X005017Y015201D01*
X005136Y015491D01*
X005136Y015806D01*
X005015Y016096D01*
X004793Y016318D01*
X004502Y016437D01*
X004667Y016369D02*
X008486Y016369D01*
X008486Y016051D02*
X005034Y016051D01*
X005136Y015732D02*
X008486Y015732D01*
X008572Y015414D02*
X005104Y015414D01*
X004911Y015095D02*
X009391Y015095D01*
X009709Y014777D02*
X001861Y014777D01*
X001861Y015095D02*
X003000Y015095D01*
X002807Y015414D02*
X001861Y015414D01*
X001861Y015732D02*
X002776Y015732D01*
X002879Y016051D02*
X001861Y016051D01*
X001861Y016369D02*
X003249Y016369D01*
X001861Y016688D02*
X008486Y016688D01*
X008486Y017006D02*
X001861Y017006D01*
X001861Y017325D02*
X008501Y017325D01*
X008800Y017644D02*
X001861Y017644D01*
X001861Y017962D02*
X010986Y017962D01*
X010986Y019555D02*
X008644Y019555D01*
X008963Y019873D02*
X010986Y019873D01*
X010986Y020192D02*
X009111Y020192D01*
X009111Y020510D02*
X010986Y020510D01*
X010986Y020829D02*
X009111Y020829D01*
X008835Y021148D02*
X010986Y021148D01*
X010986Y021466D02*
X008516Y021466D01*
X007656Y021466D02*
X004711Y021466D01*
X004711Y021785D02*
X010986Y021785D01*
X010986Y022103D02*
X004711Y022103D01*
X004711Y022422D02*
X010986Y022422D01*
X010986Y022740D02*
X004747Y022740D01*
X004861Y023059D02*
X010986Y023059D01*
X011022Y023377D02*
X004861Y023377D01*
X004729Y023696D02*
X011790Y023696D01*
X011472Y024014D02*
X004339Y024014D01*
X003432Y024652D02*
X001861Y024652D01*
X001861Y024970D02*
X003201Y024970D01*
X003201Y025289D02*
X001861Y025289D01*
X001861Y025607D02*
X003297Y025607D01*
X004616Y026563D02*
X001861Y026563D01*
X001861Y026881D02*
X004633Y026881D01*
X004668Y027200D02*
X001861Y027200D01*
X001861Y027518D02*
X004477Y027518D01*
X004462Y027837D02*
X001861Y027837D01*
X001861Y028156D02*
X004630Y028156D01*
X004496Y028474D02*
X001861Y028474D01*
X001861Y028793D02*
X004461Y028793D01*
X004586Y029111D02*
X003710Y029111D01*
X003656Y029057D02*
X003426Y028924D01*
X003169Y028856D01*
X002903Y028856D01*
X002646Y028924D01*
X002416Y029057D01*
X002228Y029246D01*
X002095Y029476D01*
X002026Y029733D01*
X002026Y029999D01*
X002095Y030256D01*
X002228Y030486D01*
X002416Y030674D01*
X002646Y030807D01*
X002903Y030876D01*
X003169Y030876D01*
X003426Y030807D01*
X003656Y030674D01*
X003845Y030486D01*
X003978Y030256D01*
X004046Y029999D01*
X004046Y029733D01*
X003978Y029476D01*
X003845Y029246D01*
X003656Y029057D01*
X003951Y029430D02*
X004514Y029430D01*
X004461Y029748D02*
X004046Y029748D01*
X004028Y030067D02*
X004557Y030067D01*
X004995Y030385D02*
X003903Y030385D01*
X003605Y030704D02*
X005797Y030704D01*
X006116Y031022D02*
X001861Y031022D01*
X001861Y030704D02*
X002467Y030704D01*
X002170Y030385D02*
X001861Y030385D01*
X001861Y030067D02*
X002044Y030067D01*
X002026Y029748D02*
X001861Y029748D01*
X001861Y029430D02*
X002121Y029430D01*
X002362Y029111D02*
X001861Y029111D01*
X007961Y029430D02*
X007962Y029430D01*
X007961Y029748D02*
X007962Y029748D01*
X011381Y030067D02*
X014042Y030067D01*
X013462Y029748D02*
X013461Y029748D01*
X013461Y029430D02*
X013462Y029430D01*
X013461Y029196D02*
X012901Y029196D01*
X012901Y028852D01*
X012915Y028765D01*
X012942Y028682D01*
X012982Y028603D01*
X013034Y028532D01*
X013097Y028469D01*
X013168Y028418D01*
X013246Y028378D01*
X013330Y028350D01*
X013417Y028337D01*
X013461Y028337D01*
X013461Y029196D01*
X013461Y029111D02*
X013462Y029111D01*
X013461Y028793D02*
X013462Y028793D01*
X013461Y028474D02*
X013462Y028474D01*
X013594Y028156D02*
X016211Y028156D01*
X016211Y027837D02*
X013917Y027837D01*
X013936Y027518D02*
X016211Y027518D01*
X016211Y027200D02*
X013936Y027200D01*
X013936Y026881D02*
X016211Y026881D01*
X016211Y026563D02*
X013936Y026563D01*
X013936Y026244D02*
X016211Y026244D01*
X016211Y025926D02*
X013936Y025926D01*
X013936Y025607D02*
X016211Y025607D01*
X016211Y025289D02*
X013936Y025289D01*
X013936Y024970D02*
X016211Y024970D01*
X016211Y024652D02*
X013936Y024652D01*
X013936Y024333D02*
X016211Y024333D01*
X016211Y024014D02*
X013936Y024014D01*
X013936Y023696D02*
X016211Y023696D01*
X016211Y023377D02*
X013936Y023377D01*
X013936Y023059D02*
X016211Y023059D01*
X016211Y022740D02*
X013936Y022740D01*
X013936Y022422D02*
X016211Y022422D01*
X016211Y022103D02*
X013936Y022103D01*
X013936Y021785D02*
X016211Y021785D01*
X016211Y021466D02*
X013936Y021466D01*
X013936Y021148D02*
X016211Y021148D01*
X016211Y020829D02*
X013936Y020829D01*
X013936Y020510D02*
X016211Y020510D01*
X016211Y020192D02*
X013936Y020192D01*
X013936Y019873D02*
X016211Y019873D01*
X016211Y019555D02*
X013936Y019555D01*
X013936Y019236D02*
X016211Y019236D01*
X016211Y018918D02*
X013936Y018918D01*
X013936Y018599D02*
X016211Y018599D01*
X016211Y018281D02*
X013936Y018281D01*
X013936Y017962D02*
X016211Y017962D01*
X016211Y017644D02*
X015976Y017644D01*
X016141Y017325D02*
X016211Y017325D01*
X016211Y017006D02*
X016141Y017006D01*
X016211Y015447D02*
X015611Y015447D01*
X013312Y015447D01*
X013037Y015561D01*
X012826Y015772D01*
X012818Y015790D01*
X012685Y015657D01*
X012462Y015657D01*
X012462Y016196D01*
X012461Y016196D01*
X012461Y015657D01*
X012238Y015657D01*
X011961Y015933D01*
X011685Y015657D01*
X011462Y015657D01*
X011462Y016196D01*
X011462Y016197D01*
X011921Y016197D01*
X012461Y016197D01*
X012461Y016196D01*
X011921Y016196D01*
X011462Y016196D01*
X011461Y016196D01*
X011461Y015657D01*
X011238Y015657D01*
X010961Y015933D01*
X010929Y015901D01*
X012473Y014356D01*
X012853Y014356D01*
X013095Y014256D01*
X013281Y014070D01*
X013381Y013828D01*
X013381Y013565D01*
X013281Y013323D01*
X013155Y013196D01*
X013281Y013070D01*
X013381Y012828D01*
X013381Y012565D01*
X013281Y012323D01*
X013155Y012196D01*
X013281Y012070D01*
X013381Y011828D01*
X013381Y011565D01*
X013281Y011323D01*
X013155Y011196D01*
X013281Y011070D01*
X013381Y010828D01*
X013381Y010565D01*
X013281Y010323D01*
X013155Y010196D01*
X013175Y010176D01*
X013951Y010176D01*
X014065Y010290D01*
X014322Y010396D01*
X014601Y010396D01*
X014858Y010290D01*
X014961Y010186D01*
X014986Y010211D01*
X014986Y010919D01*
X014952Y010934D01*
X014698Y011187D01*
X014561Y011517D01*
X014561Y011876D01*
X014698Y012206D01*
X014952Y012459D01*
X015282Y012596D01*
X015640Y012596D01*
X015971Y012459D01*
X016211Y012219D01*
X016211Y013372D01*
X015776Y012937D01*
X015462Y012937D01*
X015462Y013696D01*
X015461Y013696D01*
X015461Y012937D01*
X015147Y012937D01*
X014701Y013382D01*
X014701Y013696D01*
X015461Y013696D01*
X015461Y013697D01*
X015461Y014456D01*
X015147Y014456D01*
X014701Y014011D01*
X014701Y013697D01*
X015461Y013697D01*
X015462Y013697D01*
X015462Y014456D01*
X015776Y014456D01*
X016211Y014021D01*
X016211Y015447D01*
X016211Y015414D02*
X011416Y015414D01*
X011461Y015732D02*
X011462Y015732D01*
X011761Y015732D02*
X012162Y015732D01*
X012461Y015732D02*
X012462Y015732D01*
X012761Y015732D02*
X012865Y015732D01*
X012462Y016051D02*
X012461Y016051D01*
X011734Y015095D02*
X016211Y015095D01*
X016211Y014777D02*
X012053Y014777D01*
X012371Y014458D02*
X016211Y014458D01*
X016211Y014140D02*
X016093Y014140D01*
X015462Y014140D02*
X015461Y014140D01*
X015461Y013821D02*
X015462Y013821D01*
X015461Y013503D02*
X015462Y013503D01*
X015461Y013184D02*
X015462Y013184D01*
X016024Y013184D02*
X016211Y013184D01*
X016211Y012865D02*
X013366Y012865D01*
X013374Y012547D02*
X015163Y012547D01*
X014720Y012228D02*
X013187Y012228D01*
X013347Y011910D02*
X014576Y011910D01*
X014561Y011591D02*
X013381Y011591D01*
X013231Y011273D02*
X014663Y011273D01*
X014931Y010954D02*
X013329Y010954D01*
X013381Y010636D02*
X014986Y010636D01*
X014986Y010317D02*
X014792Y010317D01*
X014130Y010317D02*
X013275Y010317D01*
X011647Y010317D02*
X008796Y010317D01*
X008796Y009999D02*
X011612Y009999D01*
X011541Y009680D02*
X008796Y009680D01*
X008796Y009361D02*
X010955Y009361D01*
X010636Y009043D02*
X008796Y009043D01*
X008796Y008724D02*
X010318Y008724D01*
X009999Y008406D02*
X008796Y008406D01*
X008796Y010636D02*
X011541Y010636D01*
X011594Y010954D02*
X008796Y010954D01*
X008796Y011273D02*
X011692Y011273D01*
X011541Y011591D02*
X008796Y011591D01*
X008796Y011910D02*
X011575Y011910D01*
X011736Y012228D02*
X008796Y012228D01*
X008796Y012547D02*
X011549Y012547D01*
X011557Y012865D02*
X008764Y012865D01*
X008167Y013184D02*
X011302Y013184D01*
X010984Y013503D02*
X008205Y013503D01*
X008228Y013821D02*
X010665Y013821D01*
X010347Y014140D02*
X007996Y014140D01*
X007462Y014140D02*
X007461Y014140D01*
X007461Y013821D02*
X007462Y013821D01*
X006927Y014140D02*
X005015Y014140D01*
X005139Y013821D02*
X006695Y013821D01*
X006718Y013503D02*
X005327Y013503D01*
X005646Y013184D02*
X006756Y013184D01*
X006557Y012865D02*
X005964Y012865D01*
X006283Y012547D02*
X006549Y012547D01*
X006601Y012228D02*
X006736Y012228D01*
X005532Y010954D02*
X004600Y010954D01*
X004512Y010537D02*
X003418Y010536D01*
X003128Y010415D01*
X002906Y010192D01*
X002786Y009902D01*
X002787Y009587D01*
X002908Y009297D01*
X003130Y009075D01*
X003421Y008956D01*
X004515Y008957D01*
X004805Y009078D01*
X005027Y009301D01*
X005147Y009591D01*
X005146Y009906D01*
X005025Y010196D01*
X004803Y010418D01*
X004512Y010537D01*
X004904Y010317D02*
X006169Y010317D01*
X005851Y010636D02*
X001861Y010636D01*
X001861Y010954D02*
X003324Y010954D01*
X002898Y011273D02*
X001861Y011273D01*
X001861Y011591D02*
X002783Y011591D01*
X002803Y011910D02*
X001861Y011910D01*
X001861Y012228D02*
X002979Y012228D01*
X002954Y013184D02*
X001861Y013184D01*
X001861Y013503D02*
X002790Y013503D01*
X002779Y013821D02*
X001861Y013821D01*
X001861Y014140D02*
X002907Y014140D01*
X003369Y014458D02*
X001861Y014458D01*
X001861Y012865D02*
X004621Y012865D01*
X004939Y012547D02*
X001861Y012547D01*
X001861Y010317D02*
X003031Y010317D01*
X002826Y009999D02*
X001861Y009999D01*
X001861Y009680D02*
X002787Y009680D01*
X002881Y009361D02*
X001861Y009361D01*
X001861Y009043D02*
X003209Y009043D01*
X003292Y008436D02*
X003292Y007822D01*
X003292Y007822D01*
X003292Y008436D01*
X003292Y008406D02*
X003292Y008406D01*
X003292Y008087D02*
X003292Y008087D01*
X003292Y007822D02*
X003292Y007821D01*
X003292Y007821D01*
X003292Y007207D01*
X002991Y007207D01*
X002941Y007217D01*
X002893Y007237D01*
X002851Y007265D01*
X002815Y007301D01*
X002786Y007344D01*
X002767Y007391D01*
X002757Y007442D01*
X002757Y007821D01*
X003292Y007821D01*
X003292Y007207D01*
X003388Y007207D01*
X003435Y007095D01*
X003547Y006982D01*
X003694Y006922D01*
X004311Y006922D01*
X004311Y006319D01*
X004198Y006206D01*
X004061Y005876D01*
X004061Y005517D01*
X004086Y005459D01*
X004031Y005326D01*
X004031Y005067D01*
X004031Y004068D01*
X003982Y004047D01*
X003869Y003935D01*
X003808Y003788D01*
X003808Y003428D01*
X003656Y003580D01*
X003426Y003713D01*
X003169Y003782D01*
X002903Y003782D01*
X002646Y003713D01*
X002416Y003580D01*
X002228Y003392D01*
X002095Y003161D01*
X002026Y002904D01*
X002026Y002638D01*
X002095Y002381D01*
X002228Y002151D01*
X002282Y002096D01*
X001861Y002096D01*
X001861Y002354D02*
X002111Y002354D01*
X002026Y002672D02*
X001861Y002672D01*
X001861Y002991D02*
X002049Y002991D01*
X002180Y003309D02*
X001861Y003309D01*
X001861Y003628D02*
X002499Y003628D01*
X001861Y003946D02*
X003881Y003946D01*
X003808Y003628D02*
X003573Y003628D01*
X004031Y004265D02*
X001861Y004265D01*
X001861Y004583D02*
X004031Y004583D01*
X004031Y004902D02*
X001861Y004902D01*
X001861Y005220D02*
X002363Y005220D01*
X002201Y005382D02*
X002201Y005696D01*
X002961Y005696D01*
X002962Y005696D01*
X002962Y005697D01*
X003721Y005697D01*
X003721Y006011D01*
X003276Y006456D01*
X002962Y006456D01*
X002962Y005697D01*
X002961Y005697D01*
X002961Y006456D01*
X002647Y006456D01*
X002201Y006011D01*
X002201Y005697D01*
X002961Y005697D01*
X002961Y005696D01*
X002961Y004937D01*
X002647Y004937D01*
X002201Y005382D01*
X002201Y005539D02*
X001861Y005539D01*
X001861Y005857D02*
X002201Y005857D01*
X002366Y006176D02*
X001861Y006176D01*
X001861Y006495D02*
X004311Y006495D01*
X004311Y006813D02*
X001861Y006813D01*
X001861Y007132D02*
X003420Y007132D01*
X003292Y007450D02*
X003292Y007450D01*
X003292Y007769D02*
X003292Y007769D01*
X003292Y007822D02*
X002757Y007822D01*
X002757Y008201D01*
X002767Y008252D01*
X002786Y008299D01*
X002815Y008342D01*
X002851Y008378D01*
X002893Y008406D01*
X002757Y008087D02*
X001861Y008087D01*
X001861Y007769D02*
X002757Y007769D01*
X002757Y007450D02*
X001861Y007450D01*
X002961Y006176D02*
X002962Y006176D01*
X002961Y005857D02*
X002962Y005857D01*
X002962Y005696D02*
X003721Y005696D01*
X003721Y005382D01*
X003276Y004937D01*
X002962Y004937D01*
X002962Y005696D01*
X002961Y005539D02*
X002962Y005539D01*
X002961Y005220D02*
X002962Y005220D01*
X003560Y005220D02*
X004031Y005220D01*
X004061Y005539D02*
X003721Y005539D01*
X003721Y005857D02*
X004061Y005857D01*
X004186Y006176D02*
X003557Y006176D01*
X004720Y009043D02*
X006631Y009043D01*
X006626Y009361D02*
X005052Y009361D01*
X005147Y009680D02*
X006541Y009680D01*
X006488Y009999D02*
X005108Y009999D01*
X004949Y012228D02*
X005258Y012228D01*
X004552Y014458D02*
X010028Y014458D01*
X011097Y015732D02*
X011162Y015732D01*
X011461Y016051D02*
X011462Y016051D01*
X011461Y016196D02*
X010921Y016196D01*
X010462Y016196D01*
X010462Y016197D01*
X010921Y016197D01*
X011461Y016197D01*
X011461Y016196D01*
X013212Y014140D02*
X014830Y014140D01*
X014701Y013821D02*
X013381Y013821D01*
X013355Y013503D02*
X014701Y013503D01*
X014899Y013184D02*
X013167Y013184D01*
X015760Y012547D02*
X016211Y012547D01*
X016202Y012228D02*
X016211Y012228D01*
X017711Y012228D02*
X017992Y012228D01*
X017711Y012547D02*
X024683Y012547D01*
X024683Y012865D02*
X017711Y012865D01*
X017711Y013184D02*
X018098Y013184D01*
X017779Y013503D02*
X017711Y013503D01*
X017711Y014777D02*
X017790Y014777D01*
X017711Y015095D02*
X018109Y015095D01*
X017896Y010636D02*
X017711Y010636D01*
X017711Y010317D02*
X018214Y010317D01*
X021451Y004583D02*
X021452Y004583D01*
X021451Y004265D02*
X021452Y004265D01*
X021451Y003946D02*
X021452Y003946D01*
X021451Y003628D02*
X021452Y003628D01*
X021451Y003309D02*
X021452Y003309D01*
X021451Y002991D02*
X021452Y002991D01*
X022020Y002991D02*
X022522Y002991D01*
X022653Y003309D02*
X022101Y003309D01*
X022101Y003628D02*
X022971Y003628D01*
X023592Y004583D02*
X021872Y004583D01*
X022077Y004265D02*
X024683Y004265D01*
X024683Y003946D02*
X022101Y003946D01*
X024046Y003628D02*
X024683Y003628D01*
X024683Y003309D02*
X024365Y003309D01*
X024496Y002991D02*
X024683Y002991D01*
X024683Y002672D02*
X024519Y002672D01*
X024434Y002354D02*
X024683Y002354D01*
X008170Y002354D02*
X007199Y002354D01*
X003974Y002354D02*
X003961Y002354D01*
X001861Y019555D02*
X007529Y019555D01*
X007210Y019873D02*
X001861Y019873D01*
X011529Y028474D02*
X013092Y028474D01*
X012911Y028793D02*
X011661Y028793D01*
X011661Y029111D02*
X012901Y029111D01*
X012901Y029430D02*
X011661Y029430D01*
X011615Y029748D02*
X012961Y029748D01*
X013831Y028474D02*
X013894Y028474D01*
X014881Y030067D02*
X015042Y030067D01*
X015881Y030067D02*
X016521Y030067D01*
X019989Y030067D02*
X020882Y030067D01*
X020576Y029748D02*
X020186Y029748D01*
X020236Y029430D02*
X020576Y029430D01*
X020597Y029111D02*
X020172Y029111D01*
X019955Y028793D02*
X020916Y028793D01*
X024183Y029111D02*
X024683Y029111D01*
X024683Y029430D02*
X024423Y029430D01*
X024519Y029748D02*
X024683Y029748D01*
X024683Y030067D02*
X024501Y030067D01*
X024375Y030385D02*
X024683Y030385D01*
X024683Y026881D02*
X024346Y026881D01*
X024346Y026563D02*
X024683Y026563D01*
X024683Y026244D02*
X024346Y026244D01*
X024067Y025926D02*
X024683Y025926D01*
D26*
X023461Y020447D02*
X023461Y020197D01*
X015461Y009697D02*
X015461Y009197D01*
X015461Y008697D01*
X015461Y007697D01*
X008461Y003697D02*
X008461Y003197D01*
X006492Y003197D02*
X006461Y003197D01*
X004961Y005197D02*
X004961Y005697D01*
X004961Y007697D01*
X004631Y007697D01*
X004631Y007822D01*
X004681Y005197D02*
X004961Y005197D01*
X004681Y005197D02*
X004681Y003197D01*
D27*
X008336Y007671D02*
X008336Y012697D01*
X007461Y012697D01*
X008336Y007671D02*
X009836Y007671D01*
X009961Y007671D01*
X009836Y006847D02*
X009836Y006697D01*
X012461Y006697D01*
D28*
X009961Y007697D02*
X011461Y009197D01*
X015461Y009197D01*
X015461Y009697D02*
X015461Y011697D01*
X012461Y012697D02*
X009461Y015697D01*
X008961Y015697D01*
X008961Y017197D01*
X009461Y017197D01*
X009961Y016697D02*
X010461Y017197D01*
X009961Y016697D02*
X009961Y015697D01*
X010461Y015697D01*
X012461Y013697D01*
X011461Y017197D02*
X011461Y023197D01*
X012461Y023197D01*
X012961Y023697D01*
X012961Y027197D01*
X010961Y027197D01*
X009461Y028197D01*
X008961Y028697D01*
X008961Y029197D01*
X008461Y028197D02*
X006461Y028197D01*
X005961Y028697D01*
X005461Y028697D01*
X005461Y029697D02*
X006461Y030697D01*
X009461Y030697D01*
X010961Y029197D01*
X010461Y028197D02*
X009961Y028697D01*
X009961Y029197D01*
X010461Y028197D02*
X011461Y027697D01*
X013461Y027697D01*
X013461Y017197D01*
X012461Y023697D02*
X008461Y027697D01*
X005461Y027697D01*
X008461Y028197D02*
X011961Y024697D01*
X004461Y013697D02*
X003961Y013697D01*
X003960Y013686D01*
X004461Y013697D02*
X007461Y010697D01*
X007461Y009697D02*
X005461Y011697D01*
X004461Y011697D01*
X003963Y011707D01*
X009961Y007697D02*
X009961Y007671D01*
D29*
X012461Y007697D02*
X014461Y007697D01*
X014461Y008697D02*
X012461Y008697D01*
X012461Y009697D02*
X014461Y009697D01*
D30*
X012461Y023697D03*
X011961Y024697D03*
D31*
X015461Y029197D02*
X016961Y029197D01*
X016961Y029447D01*
X019336Y029447D01*
X016961Y029197D02*
X016961Y020697D01*
X016961Y016197D01*
X015461Y016197D01*
X013461Y016197D01*
X016961Y016197D02*
X016961Y005697D01*
X008461Y005697D01*
X008461Y003697D01*
X008486Y003697D01*
X008486Y003197D01*
X008461Y003197D01*
X006492Y003197D01*
X008086Y020447D02*
X008086Y020697D01*
X003961Y020697D01*
X003961Y023197D01*
X016961Y020697D02*
X023461Y020697D01*
X023461Y020447D01*
M02*
