G75*
G70*
%OFA0B0*%
%FSLAX24Y24*%
%IPPOS*%
%LPD*%
%AMOC8*
5,1,8,0,0,1.08239X$1,22.5*
%
%ADD10C,0.0100*%
%ADD11C,0.0050*%
%ADD12C,0.0060*%
%ADD13C,0.0070*%
%ADD14C,0.0020*%
%ADD15R,0.0250X0.0450*%
%ADD16R,0.1750X0.0200*%
%ADD17R,0.3200X0.0200*%
%ADD18R,0.1250X0.0050*%
%ADD19R,0.1600X0.0200*%
%ADD20R,0.0250X0.0900*%
%ADD21C,0.0030*%
%ADD22R,0.0900X0.0250*%
%ADD23C,0.0040*%
D10*
X010453Y022122D02*
X010386Y022188D01*
X010653Y022455D01*
X010653Y022188D01*
X010587Y022122D01*
X010453Y022122D01*
X010386Y022188D02*
X010386Y022455D01*
X010453Y022522D01*
X010587Y022522D01*
X010653Y022455D01*
X010847Y022455D02*
X010913Y022522D01*
X011047Y022522D01*
X011114Y022455D01*
X011114Y022388D01*
X010847Y022122D01*
X011114Y022122D01*
X011307Y022188D02*
X011574Y022455D01*
X011574Y022188D01*
X011507Y022122D01*
X011374Y022122D01*
X011307Y022188D01*
X011307Y022455D01*
X011374Y022522D01*
X011507Y022522D01*
X011574Y022455D01*
X011767Y022455D02*
X011767Y022388D01*
X011834Y022322D01*
X011968Y022322D01*
X012034Y022255D01*
X012034Y022188D01*
X011968Y022122D01*
X011834Y022122D01*
X011767Y022188D01*
X011767Y022255D01*
X011834Y022322D01*
X011968Y022322D02*
X012034Y022388D01*
X012034Y022455D01*
X011968Y022522D01*
X011834Y022522D01*
X011767Y022455D01*
X011807Y022872D02*
X011941Y022872D01*
X011874Y022872D02*
X011874Y023138D01*
X011807Y023138D01*
X011874Y023272D02*
X011874Y023339D01*
X011834Y023497D02*
X011968Y023497D01*
X012034Y023563D01*
X012034Y023830D01*
X011968Y023897D01*
X011834Y023897D01*
X011767Y023830D01*
X011767Y023563D01*
X011834Y023497D01*
X011574Y023497D02*
X011441Y023630D01*
X011507Y023630D02*
X011307Y023630D01*
X011307Y023497D02*
X011307Y023897D01*
X011507Y023897D01*
X011574Y023830D01*
X011574Y023697D01*
X011507Y023630D01*
X011114Y023697D02*
X010847Y023697D01*
X010847Y023763D02*
X010980Y023897D01*
X011114Y023763D01*
X011114Y023497D01*
X010847Y023497D02*
X010847Y023763D01*
X010653Y023763D02*
X010587Y023697D01*
X010386Y023697D01*
X010386Y023897D02*
X010587Y023897D01*
X010653Y023830D01*
X010653Y023763D01*
X010587Y023697D02*
X010653Y023630D01*
X010653Y023563D01*
X010587Y023497D01*
X010386Y023497D01*
X010386Y023897D01*
X010886Y023138D02*
X010953Y023138D01*
X011020Y023072D01*
X011087Y023138D01*
X011153Y023072D01*
X011153Y022872D01*
X011020Y022872D02*
X011020Y023072D01*
X010886Y023138D02*
X010886Y022872D01*
X011347Y022938D02*
X011413Y023005D01*
X011614Y023005D01*
X011614Y023072D02*
X011614Y022872D01*
X011413Y022872D01*
X011347Y022938D01*
X011413Y023138D02*
X011547Y023138D01*
X011614Y023072D01*
X012114Y023138D02*
X012114Y022872D01*
X012114Y023138D02*
X012314Y023138D01*
X012381Y023072D01*
X012381Y022872D01*
X012574Y022872D02*
X012775Y022872D01*
X012841Y022938D01*
X012841Y023072D01*
X012775Y023138D01*
X012574Y023138D01*
X012574Y023272D02*
X012574Y022872D01*
X012428Y022522D02*
X012295Y022522D01*
X012228Y022455D01*
X012428Y022522D02*
X012495Y022455D01*
X012495Y022388D01*
X012228Y022122D01*
X012495Y022122D01*
X012688Y022188D02*
X012688Y022455D01*
X012755Y022522D01*
X012888Y022522D01*
X012955Y022455D01*
X012688Y022188D01*
X012755Y022122D01*
X012888Y022122D01*
X012955Y022188D01*
X012955Y022455D01*
X013149Y022388D02*
X013282Y022522D01*
X013282Y022122D01*
X013149Y022122D02*
X013415Y022122D01*
X013609Y022322D02*
X013876Y022322D01*
X013809Y022522D02*
X013609Y022322D01*
X013809Y022122D02*
X013809Y022522D01*
X013762Y022872D02*
X013562Y022872D01*
X013495Y022938D01*
X013562Y023005D01*
X013762Y023005D01*
X013762Y023072D02*
X013762Y022872D01*
X013955Y022872D02*
X013955Y023138D01*
X013955Y023005D02*
X014089Y023138D01*
X014156Y023138D01*
X014339Y023072D02*
X014406Y023138D01*
X014606Y023138D01*
X014606Y023272D02*
X014606Y022872D01*
X014406Y022872D01*
X014339Y022938D01*
X014339Y023072D01*
X013762Y023072D02*
X013695Y023138D01*
X013562Y023138D01*
X013302Y023072D02*
X013302Y022938D01*
X013235Y022872D01*
X013101Y022872D01*
X013035Y022938D01*
X013035Y023072D01*
X013101Y023138D01*
X013235Y023138D01*
X013302Y023072D01*
X013282Y023497D02*
X013282Y023897D01*
X013149Y023897D02*
X013415Y023897D01*
X012955Y023830D02*
X012955Y023563D01*
X012888Y023497D01*
X012755Y023497D01*
X012688Y023563D01*
X012688Y023830D01*
X012755Y023897D01*
X012888Y023897D01*
X012955Y023830D01*
X012495Y023830D02*
X012495Y023763D01*
X012428Y023697D01*
X012228Y023697D01*
X012228Y023897D02*
X012428Y023897D01*
X012495Y023830D01*
X012428Y023697D02*
X012495Y023630D01*
X012495Y023563D01*
X012428Y023497D01*
X012228Y023497D01*
X012228Y023897D01*
X012961Y028047D02*
X012961Y029197D01*
X012961Y030347D01*
X013461Y030347D01*
X013461Y029947D01*
X013561Y029747D01*
X015361Y029747D01*
X015461Y029947D01*
X015461Y030347D01*
X015361Y030347D02*
X015361Y029947D01*
X015461Y029947D01*
X015361Y029947D02*
X013561Y029947D01*
X013561Y030347D01*
X013461Y030347D02*
X013961Y030347D01*
X015961Y030347D01*
X015961Y029197D01*
X015961Y028047D01*
X015711Y028047D01*
X015711Y028297D01*
X015211Y028297D01*
X015211Y028047D01*
X014711Y028047D01*
X014711Y028297D01*
X014211Y028297D01*
X014211Y028047D01*
X013711Y028047D01*
X013211Y028047D01*
X013211Y028297D01*
X013711Y028297D01*
X013711Y028047D01*
X013211Y028047D02*
X013061Y028047D01*
X014211Y028047D02*
X014711Y028047D01*
X015211Y028047D02*
X015711Y028047D01*
X013561Y029947D02*
X013461Y029947D01*
D11*
X000520Y004142D02*
X000370Y004142D01*
X000295Y004217D01*
X000295Y004517D01*
X000370Y004592D01*
X000520Y004592D01*
X000595Y004517D01*
X000755Y004442D02*
X000905Y004592D01*
X000905Y004142D01*
X000755Y004142D02*
X001055Y004142D01*
X001216Y004217D02*
X001516Y004517D01*
X001516Y004217D01*
X001441Y004142D01*
X001291Y004142D01*
X001216Y004217D01*
X001216Y004517D01*
X001291Y004592D01*
X001441Y004592D01*
X001516Y004517D01*
X001676Y004517D02*
X001751Y004592D01*
X001901Y004592D01*
X001976Y004517D01*
X001976Y004442D01*
X001676Y004142D01*
X001976Y004142D01*
X000595Y004217D02*
X000520Y004142D01*
X002993Y009080D02*
X002992Y009380D01*
X002992Y009230D02*
X003443Y009231D01*
X003292Y009381D01*
X003289Y011080D02*
X003364Y011081D01*
X003439Y011156D01*
X003439Y011306D01*
X003364Y011381D01*
X003289Y011080D02*
X002989Y011380D01*
X002989Y011080D01*
X003061Y013080D02*
X002986Y013155D01*
X002985Y013305D01*
X003060Y013380D01*
X003211Y013230D02*
X003211Y013155D01*
X003136Y013080D01*
X003061Y013080D01*
X003211Y013155D02*
X003286Y013080D01*
X003361Y013081D01*
X003436Y013156D01*
X003436Y013306D01*
X003360Y013381D01*
X003207Y015080D02*
X003207Y015380D01*
X003432Y015156D01*
X002982Y015155D01*
X004561Y019031D02*
X004486Y019106D01*
X004486Y019256D01*
X004561Y019331D01*
X004636Y019331D01*
X004936Y019031D01*
X004936Y019331D01*
X005949Y019372D02*
X006174Y019372D01*
X006249Y019447D01*
X006249Y019597D01*
X006174Y019672D01*
X005949Y019672D01*
X005949Y019222D01*
X006409Y019222D02*
X006409Y019522D01*
X006560Y019672D01*
X006710Y019522D01*
X006710Y019222D01*
X006870Y019222D02*
X006870Y019672D01*
X007095Y019672D01*
X007170Y019597D01*
X007170Y019297D01*
X007095Y019222D01*
X006870Y019222D01*
X006710Y019447D02*
X006409Y019447D01*
X007330Y019522D02*
X007480Y019672D01*
X007480Y019222D01*
X007330Y019222D02*
X007630Y019222D01*
X007791Y019297D02*
X008091Y019597D01*
X008091Y019297D01*
X008016Y019222D01*
X007866Y019222D01*
X007791Y019297D01*
X007791Y019597D01*
X007866Y019672D01*
X008016Y019672D01*
X008091Y019597D01*
X008251Y019447D02*
X008551Y019447D01*
X008476Y019222D02*
X008476Y019672D01*
X008251Y019447D01*
X008461Y018547D02*
X007961Y018547D01*
X007961Y018447D01*
X007461Y018447D01*
X007461Y014947D01*
X009161Y014947D01*
X009161Y014997D01*
X009761Y014997D01*
X009761Y014947D01*
X011661Y014947D01*
X011661Y015347D01*
X011661Y015447D01*
X007961Y015447D01*
X007961Y017947D01*
X016961Y017947D01*
X016961Y015447D01*
X015261Y015447D01*
X014661Y015447D01*
X013261Y015447D01*
X013261Y015347D01*
X013261Y014947D01*
X011661Y014947D01*
X012086Y015122D02*
X012387Y015122D01*
X012237Y015122D02*
X012237Y015572D01*
X012086Y015422D01*
X011661Y015447D02*
X011661Y015747D01*
X013261Y015747D01*
X013261Y015447D01*
X012847Y015347D02*
X012547Y015347D01*
X012772Y015572D01*
X012772Y015122D01*
X013261Y014947D02*
X014311Y014947D01*
X014461Y015147D01*
X014661Y015147D01*
X015261Y015147D01*
X015261Y015347D01*
X015261Y015447D01*
X015261Y015147D02*
X015461Y015147D01*
X015611Y014947D01*
X017461Y014947D01*
X017461Y018447D01*
X016961Y018447D01*
X016961Y018547D01*
X016461Y018547D01*
X016461Y018447D01*
X012711Y018447D01*
X012711Y018547D01*
X012211Y018547D01*
X012211Y018447D01*
X008461Y018447D01*
X008461Y018547D01*
X008561Y017422D02*
X008486Y017347D01*
X008561Y017422D02*
X008712Y017422D01*
X008787Y017347D01*
X008787Y017272D01*
X008486Y016972D01*
X008787Y016972D01*
X008637Y016422D02*
X008637Y015972D01*
X008787Y015972D02*
X008486Y015972D01*
X008486Y016272D02*
X008637Y016422D01*
X006761Y013822D02*
X006836Y013747D01*
X006836Y013597D01*
X006761Y013522D01*
X006686Y013522D01*
X006611Y013597D01*
X006611Y013747D01*
X006686Y013822D01*
X006761Y013822D01*
X006611Y013747D02*
X006536Y013822D01*
X006461Y013822D01*
X006386Y013747D01*
X006386Y013597D01*
X006461Y013522D01*
X006536Y013522D01*
X006611Y013597D01*
X006411Y009403D02*
X006711Y009103D01*
X006786Y009103D01*
X006711Y008942D02*
X006411Y008942D01*
X006711Y008642D01*
X006786Y008717D01*
X006786Y008867D01*
X006711Y008942D01*
X006711Y008642D02*
X006411Y008642D01*
X006336Y008717D01*
X006336Y008867D01*
X006411Y008942D01*
X006336Y009103D02*
X006336Y009403D01*
X006411Y009403D01*
X006786Y008482D02*
X006786Y008182D01*
X006786Y008332D02*
X006336Y008332D01*
X006486Y008182D01*
X006336Y008022D02*
X006336Y007872D01*
X006336Y007947D02*
X006711Y007947D01*
X006786Y007872D01*
X006786Y007797D01*
X006711Y007722D01*
X006836Y006822D02*
X006836Y006522D01*
X006836Y006672D02*
X006386Y006672D01*
X006536Y006522D01*
X011336Y007872D02*
X011336Y008022D01*
X011336Y007947D02*
X011711Y007947D01*
X011786Y007872D01*
X011786Y007797D01*
X011711Y007722D01*
X011786Y008182D02*
X011786Y008482D01*
X011786Y008332D02*
X011336Y008332D01*
X011486Y008182D01*
X011411Y008642D02*
X011336Y008717D01*
X011336Y008867D01*
X011411Y008942D01*
X011711Y008642D01*
X011786Y008717D01*
X011786Y008867D01*
X011711Y008942D01*
X011411Y008942D01*
X011411Y009103D02*
X011336Y009178D01*
X011336Y009328D01*
X011411Y009403D01*
X011486Y009403D01*
X011561Y009328D01*
X011561Y009178D01*
X011486Y009103D01*
X011411Y009103D01*
X011561Y009178D02*
X011636Y009103D01*
X011711Y009103D01*
X011786Y009178D01*
X011786Y009328D01*
X011711Y009403D01*
X011636Y009403D01*
X011561Y009328D01*
X011711Y008642D02*
X011411Y008642D01*
X011836Y006822D02*
X011836Y006522D01*
X011836Y006672D02*
X011386Y006672D01*
X011536Y006522D01*
X013486Y009511D02*
X013336Y009661D01*
X013786Y009661D01*
X013786Y009511D02*
X013786Y009811D01*
X016136Y009836D02*
X016211Y009761D01*
X016286Y009761D01*
X016361Y009836D01*
X016361Y010061D01*
X016211Y010061D02*
X016136Y009986D01*
X016136Y009836D01*
X016211Y010061D02*
X016511Y010061D01*
X016586Y009986D01*
X016586Y009836D01*
X016511Y009761D01*
X016511Y009601D02*
X016586Y009526D01*
X016586Y009376D01*
X016511Y009301D01*
X016211Y009601D01*
X016511Y009601D01*
X016211Y009601D02*
X016136Y009526D01*
X016136Y009376D01*
X016211Y009301D01*
X016511Y009301D01*
X016586Y009141D02*
X016586Y008840D01*
X016586Y008990D02*
X016136Y008990D01*
X016286Y008840D01*
X016136Y008680D02*
X016136Y008530D01*
X016136Y008605D02*
X016511Y008605D01*
X016586Y008530D01*
X016586Y008455D01*
X016511Y008380D01*
X015611Y006961D02*
X015536Y006961D01*
X015461Y006886D01*
X015461Y006661D01*
X015611Y006661D01*
X015686Y006736D01*
X015686Y006886D01*
X015611Y006961D01*
X015311Y006811D02*
X015461Y006661D01*
X015311Y006811D02*
X015236Y006961D01*
X018049Y012309D02*
X018049Y012759D01*
X018274Y012759D01*
X018349Y012684D01*
X018349Y012534D01*
X018274Y012459D01*
X018049Y012459D01*
X018509Y012534D02*
X018809Y012534D01*
X018809Y012609D02*
X018809Y012309D01*
X018970Y012309D02*
X018970Y012759D01*
X019195Y012759D01*
X019270Y012684D01*
X019270Y012384D01*
X019195Y012309D01*
X018970Y012309D01*
X018809Y012609D02*
X018659Y012759D01*
X018509Y012609D01*
X018509Y012309D01*
X019430Y012309D02*
X019730Y012309D01*
X019580Y012309D02*
X019580Y012759D01*
X019430Y012609D01*
X019890Y012684D02*
X019890Y012384D01*
X020191Y012684D01*
X020191Y012384D01*
X020115Y012309D01*
X019965Y012309D01*
X019890Y012384D01*
X019890Y012684D02*
X019965Y012759D01*
X020115Y012759D01*
X020191Y012684D01*
X020351Y012684D02*
X020351Y012609D01*
X020426Y012534D01*
X020651Y012534D01*
X020651Y012384D02*
X020651Y012684D01*
X020576Y012759D01*
X020426Y012759D01*
X020351Y012684D01*
X020351Y012384D02*
X020426Y012309D01*
X020576Y012309D01*
X020651Y012384D01*
X020576Y015059D02*
X020426Y015059D01*
X020351Y015134D01*
X020651Y015434D01*
X020651Y015134D01*
X020576Y015059D01*
X020351Y015134D02*
X020351Y015434D01*
X020426Y015509D01*
X020576Y015509D01*
X020651Y015434D01*
X020191Y015059D02*
X019890Y015059D01*
X020040Y015059D02*
X020040Y015509D01*
X019890Y015359D01*
X019730Y015059D02*
X019430Y015059D01*
X019580Y015059D02*
X019580Y015509D01*
X019430Y015359D01*
X019270Y015434D02*
X019270Y015134D01*
X019195Y015059D01*
X018970Y015059D01*
X018970Y015509D01*
X019195Y015509D01*
X019270Y015434D01*
X018810Y015359D02*
X018810Y015059D01*
X018810Y015284D02*
X018509Y015284D01*
X018509Y015359D02*
X018509Y015059D01*
X018349Y015284D02*
X018349Y015434D01*
X018274Y015509D01*
X018049Y015509D01*
X018049Y015059D01*
X018049Y015209D02*
X018274Y015209D01*
X018349Y015284D01*
X018509Y015359D02*
X018659Y015509D01*
X018810Y015359D01*
X021324Y019222D02*
X021324Y019672D01*
X021549Y019672D01*
X021624Y019597D01*
X021624Y019447D01*
X021549Y019372D01*
X021324Y019372D01*
X021784Y019447D02*
X022085Y019447D01*
X022085Y019522D02*
X022085Y019222D01*
X022245Y019222D02*
X022245Y019672D01*
X022470Y019672D01*
X022545Y019597D01*
X022545Y019297D01*
X022470Y019222D01*
X022245Y019222D01*
X022085Y019522D02*
X021935Y019672D01*
X021784Y019522D01*
X021784Y019222D01*
X022705Y019222D02*
X023005Y019222D01*
X022855Y019222D02*
X022855Y019672D01*
X022705Y019522D01*
X023166Y019597D02*
X023166Y019297D01*
X023466Y019597D01*
X023466Y019297D01*
X023391Y019222D01*
X023241Y019222D01*
X023166Y019297D01*
X023166Y019597D02*
X023241Y019672D01*
X023391Y019672D01*
X023466Y019597D01*
X023626Y019597D02*
X023701Y019672D01*
X023851Y019672D01*
X023926Y019597D01*
X023926Y019522D01*
X023851Y019447D01*
X023926Y019372D01*
X023926Y019297D01*
X023851Y019222D01*
X023701Y019222D01*
X023626Y019297D01*
X023776Y019447D02*
X023851Y019447D01*
X023926Y025347D02*
X023626Y025347D01*
X023776Y025347D02*
X023776Y025797D01*
X023626Y025647D01*
X023466Y025722D02*
X023166Y025422D01*
X023241Y025347D01*
X023391Y025347D01*
X023466Y025422D01*
X023466Y025722D01*
X023391Y025797D01*
X023241Y025797D01*
X023166Y025722D01*
X023166Y025422D01*
X023005Y025347D02*
X022705Y025347D01*
X022855Y025347D02*
X022855Y025797D01*
X022705Y025647D01*
X022545Y025722D02*
X022545Y025422D01*
X022470Y025347D01*
X022245Y025347D01*
X022245Y025797D01*
X022470Y025797D01*
X022545Y025722D01*
X022085Y025647D02*
X022085Y025347D01*
X022085Y025572D02*
X021784Y025572D01*
X021784Y025647D02*
X021935Y025797D01*
X022085Y025647D01*
X021784Y025647D02*
X021784Y025347D01*
X021624Y025572D02*
X021549Y025497D01*
X021324Y025497D01*
X021324Y025347D02*
X021324Y025797D01*
X021549Y025797D01*
X021624Y025722D01*
X021624Y025572D01*
X022066Y030372D02*
X022217Y030372D01*
X022292Y030447D01*
X022452Y030372D02*
X022752Y030372D01*
X022602Y030372D02*
X022602Y030822D01*
X022452Y030672D01*
X022292Y030747D02*
X022217Y030822D01*
X022066Y030822D01*
X021991Y030747D01*
X021991Y030447D01*
X022066Y030372D01*
X022912Y030447D02*
X023212Y030747D01*
X023212Y030447D01*
X023137Y030372D01*
X022987Y030372D01*
X022912Y030447D01*
X022912Y030747D01*
X022987Y030822D01*
X023137Y030822D01*
X023212Y030747D01*
X023372Y030822D02*
X023673Y030822D01*
X023673Y030747D01*
X023372Y030447D01*
X023372Y030372D01*
X014211Y028047D02*
X013961Y028047D01*
X012961Y028047D01*
X011887Y029197D02*
X011586Y029197D01*
X011812Y029422D01*
X011812Y028972D01*
X013461Y030197D02*
X013461Y030347D01*
X013561Y030347D01*
X009168Y030322D02*
X009018Y030247D01*
X008867Y030097D01*
X009093Y030097D01*
X009168Y030022D01*
X009168Y029947D01*
X009093Y029872D01*
X008943Y029872D01*
X008867Y029947D01*
X008867Y030097D01*
X008707Y030247D02*
X008707Y029947D01*
X008632Y029872D01*
X008482Y029872D01*
X008407Y029947D01*
X008707Y030247D01*
X008632Y030322D01*
X008482Y030322D01*
X008407Y030247D01*
X008407Y029947D01*
X008247Y029872D02*
X007947Y029872D01*
X008097Y029872D02*
X008097Y030322D01*
X007947Y030172D01*
X007787Y030322D02*
X007637Y030322D01*
X007712Y030322D02*
X007712Y029947D01*
X007637Y029872D01*
X007561Y029872D01*
X007486Y029947D01*
X007187Y029422D02*
X007187Y028972D01*
X007337Y028972D02*
X007036Y028972D01*
X007036Y029272D02*
X007187Y029422D01*
X006586Y029376D02*
X006511Y029301D01*
X006211Y029601D01*
X006511Y029601D01*
X006586Y029526D01*
X006586Y029376D01*
X006511Y029301D02*
X006211Y029301D01*
X006136Y029376D01*
X006136Y029526D01*
X006211Y029601D01*
X006361Y029761D02*
X006136Y029986D01*
X006586Y029986D01*
X006361Y030061D02*
X006361Y029761D01*
X006586Y029141D02*
X006586Y028840D01*
X006586Y028990D02*
X006136Y028990D01*
X006286Y028840D01*
X006136Y028680D02*
X006136Y028530D01*
X006136Y028605D02*
X006511Y028605D01*
X006586Y028530D01*
X006586Y028455D01*
X006511Y028380D01*
X005686Y030211D02*
X005686Y030511D01*
X005686Y030361D02*
X005236Y030361D01*
X005386Y030211D01*
X002856Y026832D02*
X002856Y026532D01*
X002856Y026682D02*
X002406Y026682D01*
X002556Y026532D01*
X002481Y026372D02*
X002406Y026297D01*
X002406Y026147D01*
X002481Y026072D01*
X002781Y026072D01*
X002856Y026147D01*
X002856Y026297D01*
X002781Y026372D01*
X005236Y025886D02*
X005461Y025661D01*
X005461Y025961D01*
X005686Y025886D02*
X005236Y025886D01*
X005949Y025922D02*
X005949Y025472D01*
X005949Y025622D02*
X006174Y025622D01*
X006249Y025697D01*
X006249Y025847D01*
X006174Y025922D01*
X005949Y025922D01*
X006409Y025772D02*
X006409Y025472D01*
X006409Y025697D02*
X006710Y025697D01*
X006710Y025772D02*
X006710Y025472D01*
X006870Y025472D02*
X007095Y025472D01*
X007170Y025547D01*
X007170Y025847D01*
X007095Y025922D01*
X006870Y025922D01*
X006870Y025472D01*
X006710Y025772D02*
X006560Y025922D01*
X006409Y025772D01*
X007330Y025772D02*
X007480Y025922D01*
X007480Y025472D01*
X007330Y025472D02*
X007630Y025472D01*
X007791Y025547D02*
X008091Y025847D01*
X008091Y025547D01*
X008016Y025472D01*
X007866Y025472D01*
X007791Y025547D01*
X007791Y025847D01*
X007866Y025922D01*
X008016Y025922D01*
X008091Y025847D01*
X008251Y025847D02*
X008326Y025922D01*
X008476Y025922D01*
X008551Y025847D01*
X008551Y025772D01*
X008251Y025472D01*
X008551Y025472D01*
X004936Y021331D02*
X004936Y021031D01*
X004936Y021181D02*
X004486Y021181D01*
X004636Y021031D01*
X011461Y013822D02*
X011536Y013822D01*
X011611Y013747D01*
X011611Y013597D01*
X011536Y013522D01*
X011461Y013522D01*
X011386Y013597D01*
X011386Y013747D01*
X011461Y013822D01*
X011611Y013747D02*
X011686Y013822D01*
X011761Y013822D01*
X011836Y013747D01*
X011836Y013597D01*
X011761Y013522D01*
X011686Y013522D01*
X011611Y013597D01*
X013906Y014647D02*
X013981Y014572D01*
X014281Y014572D01*
X014356Y014647D01*
X014356Y014797D01*
X014281Y014872D01*
X014356Y015032D02*
X014056Y015332D01*
X013981Y015332D01*
X013906Y015257D01*
X013906Y015107D01*
X013981Y015032D01*
X013981Y014872D02*
X013906Y014797D01*
X013906Y014647D01*
X014356Y015032D02*
X014356Y015332D01*
X014661Y015347D02*
X014661Y015147D01*
X014661Y015347D02*
X014661Y015447D01*
X019871Y003172D02*
X019796Y003097D01*
X019871Y003172D02*
X020021Y003172D01*
X020096Y003097D01*
X020096Y003022D01*
X019796Y002722D01*
X020096Y002722D01*
X021796Y002722D02*
X022096Y002722D01*
X021946Y002722D02*
X021946Y003172D01*
X021796Y003022D01*
D12*
X022101Y003447D02*
X022461Y003447D01*
X022461Y002447D01*
X022461Y001247D01*
X018461Y001247D01*
X018261Y001247D01*
X018261Y003147D01*
X018461Y003047D01*
X018461Y002447D01*
X022461Y002447D01*
X022251Y002347D02*
X022251Y001347D01*
X020651Y001347D01*
X020651Y002347D01*
X022251Y002347D01*
X022041Y001997D02*
X020841Y001747D01*
X020891Y001697D02*
X022091Y001947D01*
X022014Y002071D02*
X022040Y002054D01*
X022063Y002035D01*
X022083Y002012D01*
X022100Y001988D01*
X022114Y001961D01*
X022125Y001932D01*
X022131Y001903D01*
X022134Y001873D01*
X022133Y001842D01*
X022128Y001813D01*
X022119Y001784D01*
X022106Y001756D01*
X022090Y001731D01*
X022071Y001707D01*
X022091Y001727D02*
X022056Y001686D01*
X022017Y001647D01*
X021977Y001611D01*
X021933Y001578D01*
X021888Y001548D01*
X021841Y001520D01*
X021792Y001497D01*
X021741Y001476D01*
X021690Y001459D01*
X021637Y001445D01*
X021584Y001435D01*
X021530Y001429D01*
X021475Y001426D01*
X021421Y001427D01*
X021366Y001432D01*
X021313Y001440D01*
X021259Y001451D01*
X021207Y001467D01*
X021156Y001485D01*
X021106Y001508D01*
X021058Y001533D01*
X021012Y001562D01*
X020968Y001593D01*
X020926Y001628D01*
X020886Y001665D01*
X020849Y001705D01*
X020851Y001707D02*
X020832Y001731D01*
X020816Y001756D01*
X020803Y001784D01*
X020793Y001812D01*
X020786Y001842D01*
X020782Y001872D01*
X020782Y001902D01*
X020786Y001933D01*
X020793Y001962D01*
X020803Y001991D01*
X020816Y002018D01*
X020832Y002044D01*
X020851Y002067D01*
X020873Y002089D01*
X020281Y002347D02*
X020281Y001347D01*
X018681Y001347D01*
X018681Y002347D01*
X020281Y002347D01*
X020071Y001997D02*
X018871Y001747D01*
X018921Y001697D02*
X020121Y001947D01*
X020044Y002071D02*
X020070Y002054D01*
X020093Y002035D01*
X020113Y002012D01*
X020130Y001988D01*
X020144Y001961D01*
X020155Y001932D01*
X020161Y001903D01*
X020164Y001873D01*
X020163Y001842D01*
X020158Y001813D01*
X020149Y001784D01*
X020136Y001756D01*
X020120Y001731D01*
X020101Y001707D01*
X020061Y002057D02*
X020012Y002093D01*
X019962Y002126D01*
X019910Y002156D01*
X019856Y002182D01*
X019800Y002205D01*
X019743Y002225D01*
X019685Y002241D01*
X019626Y002253D01*
X019566Y002261D01*
X019506Y002266D01*
X019446Y002267D01*
X019386Y002264D01*
X019326Y002257D01*
X019266Y002247D01*
X019208Y002233D01*
X019150Y002215D01*
X019094Y002194D01*
X019039Y002169D01*
X018986Y002141D01*
X018934Y002110D01*
X018885Y002075D01*
X018903Y002089D02*
X018881Y002067D01*
X018862Y002044D01*
X018846Y002018D01*
X018833Y001991D01*
X018823Y001962D01*
X018816Y001933D01*
X018812Y001902D01*
X018812Y001872D01*
X018816Y001842D01*
X018823Y001812D01*
X018833Y001784D01*
X018846Y001756D01*
X018862Y001731D01*
X018881Y001707D01*
X018461Y001247D02*
X018461Y002447D01*
X018461Y003047D02*
X018461Y003447D01*
X018831Y003447D01*
X018831Y003597D02*
X018681Y003597D01*
X018681Y005397D01*
X018681Y006147D01*
X018461Y006147D01*
X018461Y005747D01*
X018461Y005297D01*
X018461Y003447D01*
X018831Y003897D02*
X018831Y005147D01*
X020131Y005147D01*
X020131Y003897D01*
X020131Y003597D02*
X020281Y003597D01*
X020281Y005397D01*
X018681Y005397D01*
X018461Y005297D02*
X018261Y005197D01*
X018261Y005847D01*
X018461Y005747D01*
X018681Y006147D02*
X020281Y006147D01*
X020651Y006147D01*
X022251Y006147D01*
X022251Y005397D01*
X020651Y005397D01*
X020651Y003597D01*
X020801Y003597D01*
X020801Y003447D02*
X020131Y003447D01*
X020801Y003897D02*
X020801Y005147D01*
X022101Y005147D01*
X022101Y003897D01*
X022101Y003597D02*
X022251Y003597D01*
X022251Y005397D01*
X022251Y006147D02*
X022461Y006147D01*
X022461Y003447D01*
X022031Y002057D02*
X021983Y002094D01*
X021933Y002127D01*
X021880Y002157D01*
X021826Y002183D01*
X021770Y002206D01*
X021713Y002226D01*
X021655Y002242D01*
X021596Y002254D01*
X021536Y002262D01*
X021476Y002267D01*
X021416Y002268D01*
X021356Y002265D01*
X021296Y002258D01*
X021236Y002248D01*
X021178Y002234D01*
X021120Y002216D01*
X021064Y002195D01*
X021009Y002170D01*
X020955Y002142D01*
X020904Y002110D01*
X020854Y002076D01*
X020121Y001727D02*
X020086Y001686D01*
X020047Y001647D01*
X020006Y001611D01*
X019963Y001578D01*
X019918Y001548D01*
X019871Y001520D01*
X019822Y001497D01*
X019771Y001476D01*
X019720Y001459D01*
X019667Y001445D01*
X019614Y001435D01*
X019559Y001429D01*
X019505Y001426D01*
X019451Y001427D01*
X019396Y001432D01*
X019343Y001440D01*
X019289Y001451D01*
X019237Y001467D01*
X019186Y001486D01*
X019136Y001508D01*
X019088Y001533D01*
X019042Y001562D01*
X018998Y001593D01*
X018956Y001628D01*
X018916Y001665D01*
X018879Y001705D01*
X016936Y002247D02*
X016936Y002897D01*
X016836Y002897D02*
X016836Y002347D01*
X016686Y002347D01*
X016686Y002697D01*
X014936Y002697D01*
X014936Y002247D01*
X016686Y002247D01*
X016936Y002247D01*
X016686Y002247D02*
X016686Y002347D01*
X016836Y004497D02*
X016836Y005047D01*
X016686Y005047D01*
X016686Y004697D01*
X014936Y004697D01*
X014936Y005147D01*
X016686Y005147D01*
X016936Y005147D01*
X016936Y004497D01*
X016686Y005047D02*
X016686Y005147D01*
X015711Y007197D02*
X014211Y007197D01*
X013961Y007447D01*
X013961Y007947D01*
X014211Y008197D01*
X013961Y008447D01*
X013961Y008947D01*
X014211Y009197D01*
X013961Y009447D01*
X013961Y009947D01*
X014211Y010197D01*
X015711Y010197D01*
X015961Y009947D01*
X015961Y009447D01*
X015711Y009197D01*
X015961Y008947D01*
X015961Y008447D01*
X015711Y008197D01*
X015961Y007947D01*
X015961Y007447D01*
X015711Y007197D01*
X012961Y007297D02*
X012961Y008097D01*
X012861Y008197D01*
X012961Y008297D01*
X012961Y009097D01*
X012861Y009197D01*
X012961Y009297D01*
X012961Y010097D01*
X012861Y010197D01*
X012961Y010297D01*
X012961Y011097D01*
X012861Y011197D01*
X012961Y011297D01*
X012961Y012097D01*
X012861Y012197D01*
X012961Y012297D01*
X012961Y013097D01*
X012861Y013197D01*
X012961Y013297D01*
X012961Y014197D01*
X011961Y014197D01*
X011961Y013297D01*
X012061Y013197D01*
X011961Y013097D01*
X011961Y012297D01*
X012061Y012197D01*
X011961Y012097D01*
X011961Y011297D01*
X012061Y011197D01*
X011961Y011097D01*
X011961Y010297D01*
X012061Y010197D01*
X011961Y010097D01*
X011961Y009297D01*
X012061Y009197D01*
X011961Y009097D01*
X011961Y008297D01*
X012061Y008197D01*
X011961Y008097D01*
X011961Y007297D01*
X012061Y007197D01*
X011961Y007097D01*
X011961Y006197D01*
X012961Y006197D01*
X012961Y007097D01*
X012861Y007197D01*
X012961Y007297D01*
X010236Y005147D02*
X010236Y004697D01*
X008486Y004697D01*
X008486Y005047D01*
X008336Y005047D01*
X008336Y004497D01*
X008236Y004497D02*
X008236Y005147D01*
X008486Y005147D01*
X008486Y005047D01*
X008486Y005147D02*
X010236Y005147D01*
X011286Y003697D02*
X013886Y003697D01*
X010236Y002697D02*
X010236Y002247D01*
X008486Y002247D01*
X008236Y002247D01*
X008236Y002897D01*
X008336Y002897D02*
X008336Y002347D01*
X008486Y002347D01*
X008486Y002697D01*
X010236Y002697D01*
X008486Y002347D02*
X008486Y002247D01*
X005611Y005197D02*
X005311Y005197D01*
X005461Y005047D02*
X005461Y005347D01*
X004411Y005697D02*
X004311Y005697D01*
X004311Y005247D01*
X004061Y005247D01*
X004061Y006147D01*
X004311Y006147D01*
X004311Y005697D01*
X001961Y005697D02*
X001963Y005795D01*
X001971Y005893D01*
X001983Y005990D01*
X001999Y006087D01*
X002021Y006183D01*
X002047Y006278D01*
X002078Y006371D01*
X002113Y006462D01*
X002153Y006552D01*
X002197Y006640D01*
X002246Y006725D01*
X002298Y006808D01*
X002355Y006888D01*
X002415Y006966D01*
X002479Y007040D01*
X002547Y007111D01*
X002618Y007179D01*
X002692Y007243D01*
X002770Y007303D01*
X002850Y007360D01*
X002933Y007412D01*
X003018Y007461D01*
X003106Y007505D01*
X003196Y007545D01*
X003287Y007580D01*
X003380Y007611D01*
X003475Y007637D01*
X003571Y007659D01*
X003668Y007675D01*
X003765Y007687D01*
X003863Y007695D01*
X003961Y007697D01*
X004059Y007695D01*
X004157Y007687D01*
X004254Y007675D01*
X004351Y007659D01*
X004447Y007637D01*
X004542Y007611D01*
X004635Y007580D01*
X004726Y007545D01*
X004816Y007505D01*
X004904Y007461D01*
X004989Y007412D01*
X005072Y007360D01*
X005152Y007303D01*
X005230Y007243D01*
X005304Y007179D01*
X005375Y007111D01*
X005443Y007040D01*
X005507Y006966D01*
X005567Y006888D01*
X005624Y006808D01*
X005676Y006725D01*
X005725Y006640D01*
X005769Y006552D01*
X005809Y006462D01*
X005844Y006371D01*
X005875Y006278D01*
X005901Y006183D01*
X005923Y006087D01*
X005939Y005990D01*
X005951Y005893D01*
X005959Y005795D01*
X005961Y005697D01*
X005959Y005599D01*
X005951Y005501D01*
X005939Y005404D01*
X005923Y005307D01*
X005901Y005211D01*
X005875Y005116D01*
X005844Y005023D01*
X005809Y004932D01*
X005769Y004842D01*
X005725Y004754D01*
X005676Y004669D01*
X005624Y004586D01*
X005567Y004506D01*
X005507Y004428D01*
X005443Y004354D01*
X005375Y004283D01*
X005304Y004215D01*
X005230Y004151D01*
X005152Y004091D01*
X005072Y004034D01*
X004989Y003982D01*
X004904Y003933D01*
X004816Y003889D01*
X004726Y003849D01*
X004635Y003814D01*
X004542Y003783D01*
X004447Y003757D01*
X004351Y003735D01*
X004254Y003719D01*
X004157Y003707D01*
X004059Y003699D01*
X003961Y003697D01*
X003863Y003699D01*
X003765Y003707D01*
X003668Y003719D01*
X003571Y003735D01*
X003475Y003757D01*
X003380Y003783D01*
X003287Y003814D01*
X003196Y003849D01*
X003106Y003889D01*
X003018Y003933D01*
X002933Y003982D01*
X002850Y004034D01*
X002770Y004091D01*
X002692Y004151D01*
X002618Y004215D01*
X002547Y004283D01*
X002479Y004354D01*
X002415Y004428D01*
X002355Y004506D01*
X002298Y004586D01*
X002246Y004669D01*
X002197Y004754D01*
X002153Y004842D01*
X002113Y004932D01*
X002078Y005023D01*
X002047Y005116D01*
X002021Y005211D01*
X001999Y005307D01*
X001983Y005404D01*
X001971Y005501D01*
X001963Y005599D01*
X001961Y005697D01*
X003511Y005697D02*
X003711Y005697D01*
X003718Y008726D02*
X002718Y008724D01*
X001518Y008722D01*
X001511Y012692D01*
X001504Y016662D01*
X001504Y016862D01*
X003404Y016866D01*
X003304Y016665D01*
X002704Y016664D01*
X002711Y012694D01*
X001511Y012692D01*
X001612Y012522D02*
X002612Y012524D01*
X002614Y010924D01*
X001614Y010922D01*
X001612Y012522D01*
X001611Y012862D02*
X001608Y014462D01*
X002608Y014464D01*
X002611Y012864D01*
X001611Y012862D01*
X002211Y013023D02*
X001959Y014223D01*
X002009Y014273D02*
X002261Y013074D01*
X002336Y013100D02*
X002321Y013076D01*
X002303Y013054D01*
X002282Y013034D01*
X002259Y013017D01*
X002235Y013003D01*
X002209Y012992D01*
X002181Y012984D01*
X002153Y012980D01*
X002125Y012979D01*
X002097Y012982D01*
X002069Y012987D01*
X002042Y012997D01*
X002017Y013009D01*
X001993Y013024D01*
X001971Y013042D01*
X002012Y012333D02*
X002264Y011134D01*
X002214Y011083D02*
X001962Y012283D01*
X001972Y012323D02*
X001995Y012342D01*
X002021Y012358D01*
X002048Y012371D01*
X002077Y012381D01*
X002106Y012388D01*
X002137Y012392D01*
X002167Y012392D01*
X002197Y012388D01*
X002227Y012381D01*
X002255Y012371D01*
X002283Y012358D01*
X002308Y012342D01*
X002332Y012323D01*
X002353Y012301D01*
X002711Y012694D02*
X003711Y012696D01*
X003712Y012326D01*
X003862Y012326D02*
X003862Y012526D01*
X005662Y012529D01*
X006412Y012531D01*
X006411Y012701D01*
X006411Y012871D01*
X005661Y012869D01*
X005658Y014469D01*
X003858Y014466D01*
X003859Y014316D01*
X003709Y014316D02*
X003707Y015016D01*
X003857Y015016D02*
X003858Y014866D01*
X005658Y014869D01*
X005655Y016469D01*
X006405Y016471D01*
X006404Y016671D01*
X006004Y016670D01*
X005554Y016669D01*
X003704Y016666D01*
X003705Y016266D01*
X003855Y016266D02*
X003855Y016466D01*
X005655Y016469D01*
X005554Y016669D02*
X005454Y016869D01*
X006104Y016870D01*
X006004Y016670D01*
X006405Y016471D02*
X006408Y014871D01*
X006408Y014471D01*
X006411Y012871D01*
X006411Y012701D02*
X003711Y012696D01*
X003711Y013066D01*
X003861Y013066D02*
X003861Y012866D01*
X005661Y012869D01*
X005411Y013019D02*
X004161Y013017D01*
X004162Y012377D02*
X005412Y012379D01*
X005414Y011079D01*
X004164Y011077D01*
X003864Y011076D02*
X003864Y010926D01*
X005664Y010929D01*
X005662Y012529D01*
X005411Y013019D02*
X005409Y014319D01*
X004159Y014317D01*
X004157Y015017D02*
X005407Y015019D01*
X005405Y016319D01*
X004155Y016317D01*
X003704Y016666D02*
X003304Y016665D01*
X002704Y016664D02*
X001504Y016662D01*
X001605Y016462D02*
X002605Y016464D01*
X002608Y014864D01*
X001608Y014862D01*
X001605Y016462D01*
X001955Y016223D02*
X002207Y015023D01*
X002257Y015074D02*
X002005Y016273D01*
X001966Y016263D02*
X001989Y016282D01*
X002015Y016298D01*
X002042Y016311D01*
X002071Y016321D01*
X002100Y016328D01*
X002131Y016332D01*
X002161Y016332D01*
X002191Y016328D01*
X002221Y016321D01*
X002249Y016311D01*
X002277Y016298D01*
X002302Y016282D01*
X002326Y016263D01*
X002347Y016241D01*
X001963Y016265D02*
X001923Y016228D01*
X001886Y016188D01*
X001852Y016146D01*
X001820Y016102D01*
X001791Y016056D01*
X001766Y016007D01*
X001744Y015958D01*
X001725Y015907D01*
X001710Y015854D01*
X001698Y015801D01*
X001690Y015747D01*
X001686Y015693D01*
X001685Y015639D01*
X001688Y015584D01*
X001695Y015530D01*
X001705Y015477D01*
X001718Y015424D01*
X001736Y015372D01*
X001756Y015322D01*
X001780Y015273D01*
X001807Y015226D01*
X001838Y015181D01*
X001871Y015137D01*
X001907Y015097D01*
X001946Y015058D01*
X001987Y015023D01*
X001967Y015042D02*
X001989Y015024D01*
X002013Y015009D01*
X002038Y014997D01*
X002065Y014987D01*
X002093Y014982D01*
X002121Y014979D01*
X002149Y014980D01*
X002177Y014984D01*
X002205Y014992D01*
X002231Y015003D01*
X002255Y015017D01*
X002278Y015034D01*
X002299Y015054D01*
X002317Y015076D01*
X002332Y015100D01*
X002317Y015084D02*
X002353Y015132D01*
X002386Y015182D01*
X002415Y015235D01*
X002442Y015289D01*
X002465Y015345D01*
X002484Y015402D01*
X002500Y015460D01*
X002512Y015519D01*
X002520Y015579D01*
X002525Y015639D01*
X002526Y015699D01*
X002523Y015759D01*
X002516Y015819D01*
X002506Y015878D01*
X002492Y015937D01*
X002474Y015994D01*
X002452Y016051D01*
X002428Y016106D01*
X002399Y016159D01*
X002368Y016210D01*
X002333Y016259D01*
X002461Y017497D02*
X001811Y017497D01*
X001911Y017697D01*
X002361Y017697D01*
X004211Y017697D01*
X004211Y018067D01*
X004061Y018067D02*
X004061Y017917D01*
X002261Y017917D01*
X001511Y017917D01*
X001511Y017697D01*
X001911Y017697D01*
X002261Y017917D02*
X002261Y019517D01*
X004061Y019517D01*
X004061Y019367D01*
X004211Y019367D02*
X004211Y020037D01*
X004061Y020037D02*
X004061Y019887D01*
X002261Y019887D01*
X002261Y021487D01*
X001511Y021487D01*
X001511Y019887D01*
X001511Y019517D01*
X001511Y017917D01*
X002361Y017697D02*
X002461Y017497D01*
X002511Y018067D02*
X002511Y019367D01*
X003761Y019367D01*
X003761Y020037D02*
X002511Y020037D01*
X002511Y021337D01*
X003761Y021337D01*
X004061Y021337D02*
X004061Y021487D01*
X002261Y021487D01*
X001511Y021487D02*
X001511Y021697D01*
X004211Y021697D01*
X004211Y021337D01*
X004211Y021697D02*
X005211Y021697D01*
X006411Y021697D01*
X006411Y017697D01*
X006411Y017497D01*
X004511Y017497D01*
X004611Y017697D01*
X005211Y017697D01*
X005211Y021697D01*
X005311Y021487D02*
X006311Y021487D01*
X006311Y019887D01*
X005311Y019887D01*
X005311Y021487D01*
X005661Y021277D02*
X005911Y020077D01*
X005961Y020127D02*
X005711Y021327D01*
X005587Y021250D02*
X005604Y021276D01*
X005623Y021299D01*
X005646Y021319D01*
X005670Y021336D01*
X005697Y021350D01*
X005726Y021361D01*
X005755Y021367D01*
X005785Y021370D01*
X005816Y021369D01*
X005845Y021364D01*
X005874Y021355D01*
X005902Y021342D01*
X005927Y021326D01*
X005951Y021307D01*
X005601Y021266D02*
X005564Y021218D01*
X005531Y021168D01*
X005501Y021115D01*
X005475Y021061D01*
X005452Y021005D01*
X005432Y020948D01*
X005416Y020890D01*
X005404Y020831D01*
X005396Y020771D01*
X005391Y020711D01*
X005390Y020651D01*
X005393Y020591D01*
X005400Y020531D01*
X005410Y020471D01*
X005424Y020413D01*
X005442Y020355D01*
X005463Y020299D01*
X005488Y020244D01*
X005516Y020190D01*
X005548Y020139D01*
X005582Y020089D01*
X005569Y020109D02*
X005591Y020087D01*
X005614Y020068D01*
X005640Y020052D01*
X005667Y020039D01*
X005696Y020029D01*
X005725Y020022D01*
X005756Y020018D01*
X005786Y020018D01*
X005816Y020022D01*
X005846Y020029D01*
X005874Y020039D01*
X005902Y020052D01*
X005927Y020068D01*
X005951Y020087D01*
X006311Y019517D02*
X005311Y019517D01*
X005311Y017917D01*
X006311Y017917D01*
X006311Y019517D01*
X005711Y019357D02*
X005961Y018157D01*
X005911Y018107D02*
X005661Y019307D01*
X005587Y019280D02*
X005604Y019306D01*
X005623Y019329D01*
X005646Y019349D01*
X005670Y019366D01*
X005697Y019380D01*
X005726Y019391D01*
X005755Y019397D01*
X005785Y019400D01*
X005816Y019399D01*
X005845Y019394D01*
X005874Y019385D01*
X005902Y019372D01*
X005927Y019356D01*
X005951Y019337D01*
X005601Y019297D02*
X005565Y019248D01*
X005532Y019198D01*
X005502Y019146D01*
X005476Y019092D01*
X005453Y019036D01*
X005433Y018979D01*
X005417Y018921D01*
X005405Y018862D01*
X005397Y018802D01*
X005392Y018742D01*
X005391Y018682D01*
X005394Y018622D01*
X005401Y018562D01*
X005411Y018502D01*
X005425Y018444D01*
X005443Y018386D01*
X005464Y018330D01*
X005489Y018275D01*
X005517Y018222D01*
X005548Y018170D01*
X005583Y018121D01*
X005569Y018139D02*
X005591Y018117D01*
X005614Y018098D01*
X005640Y018082D01*
X005667Y018069D01*
X005696Y018059D01*
X005725Y018052D01*
X005756Y018048D01*
X005786Y018048D01*
X005816Y018052D01*
X005846Y018059D01*
X005874Y018069D01*
X005902Y018082D01*
X005927Y018098D01*
X005951Y018117D01*
X006411Y017697D02*
X005211Y017697D01*
X004611Y017697D02*
X004211Y017697D01*
X003761Y018067D02*
X002511Y018067D01*
X002261Y019517D02*
X001511Y019517D01*
X001511Y019887D02*
X002261Y019887D01*
X003461Y022547D02*
X003461Y022847D01*
X003311Y022697D02*
X003611Y022697D01*
X003961Y023747D02*
X003961Y023847D01*
X003511Y023847D01*
X003511Y024097D01*
X004411Y024097D01*
X004411Y023847D01*
X003961Y023847D01*
X001961Y024197D02*
X001963Y024295D01*
X001971Y024393D01*
X001983Y024490D01*
X001999Y024587D01*
X002021Y024683D01*
X002047Y024778D01*
X002078Y024871D01*
X002113Y024962D01*
X002153Y025052D01*
X002197Y025140D01*
X002246Y025225D01*
X002298Y025308D01*
X002355Y025388D01*
X002415Y025466D01*
X002479Y025540D01*
X002547Y025611D01*
X002618Y025679D01*
X002692Y025743D01*
X002770Y025803D01*
X002850Y025860D01*
X002933Y025912D01*
X003018Y025961D01*
X003106Y026005D01*
X003196Y026045D01*
X003287Y026080D01*
X003380Y026111D01*
X003475Y026137D01*
X003571Y026159D01*
X003668Y026175D01*
X003765Y026187D01*
X003863Y026195D01*
X003961Y026197D01*
X004059Y026195D01*
X004157Y026187D01*
X004254Y026175D01*
X004351Y026159D01*
X004447Y026137D01*
X004542Y026111D01*
X004635Y026080D01*
X004726Y026045D01*
X004816Y026005D01*
X004904Y025961D01*
X004989Y025912D01*
X005072Y025860D01*
X005152Y025803D01*
X005230Y025743D01*
X005304Y025679D01*
X005375Y025611D01*
X005443Y025540D01*
X005507Y025466D01*
X005567Y025388D01*
X005624Y025308D01*
X005676Y025225D01*
X005725Y025140D01*
X005769Y025052D01*
X005809Y024962D01*
X005844Y024871D01*
X005875Y024778D01*
X005901Y024683D01*
X005923Y024587D01*
X005939Y024490D01*
X005951Y024393D01*
X005959Y024295D01*
X005961Y024197D01*
X005959Y024099D01*
X005951Y024001D01*
X005939Y023904D01*
X005923Y023807D01*
X005901Y023711D01*
X005875Y023616D01*
X005844Y023523D01*
X005809Y023432D01*
X005769Y023342D01*
X005725Y023254D01*
X005676Y023169D01*
X005624Y023086D01*
X005567Y023006D01*
X005507Y022928D01*
X005443Y022854D01*
X005375Y022783D01*
X005304Y022715D01*
X005230Y022651D01*
X005152Y022591D01*
X005072Y022534D01*
X004989Y022482D01*
X004904Y022433D01*
X004816Y022389D01*
X004726Y022349D01*
X004635Y022314D01*
X004542Y022283D01*
X004447Y022257D01*
X004351Y022235D01*
X004254Y022219D01*
X004157Y022207D01*
X004059Y022199D01*
X003961Y022197D01*
X003863Y022199D01*
X003765Y022207D01*
X003668Y022219D01*
X003571Y022235D01*
X003475Y022257D01*
X003380Y022283D01*
X003287Y022314D01*
X003196Y022349D01*
X003106Y022389D01*
X003018Y022433D01*
X002933Y022482D01*
X002850Y022534D01*
X002770Y022591D01*
X002692Y022651D01*
X002618Y022715D01*
X002547Y022783D01*
X002479Y022854D01*
X002415Y022928D01*
X002355Y023006D01*
X002298Y023086D01*
X002246Y023169D01*
X002197Y023254D01*
X002153Y023342D01*
X002113Y023432D01*
X002078Y023523D01*
X002047Y023616D01*
X002021Y023711D01*
X001999Y023807D01*
X001983Y023904D01*
X001971Y024001D01*
X001963Y024099D01*
X001961Y024197D01*
X003961Y024447D02*
X003961Y024647D01*
X005211Y026197D02*
X004961Y026447D01*
X004961Y026947D01*
X005211Y027197D01*
X004961Y027447D01*
X004961Y027947D01*
X005211Y028197D01*
X004961Y028447D01*
X004961Y028947D01*
X005211Y029197D01*
X004961Y029447D01*
X004961Y029947D01*
X005211Y030197D01*
X005711Y030197D01*
X005961Y029947D01*
X005961Y029447D01*
X005711Y029197D01*
X005961Y028947D01*
X005961Y028447D01*
X005711Y028197D01*
X005961Y027947D01*
X005961Y027447D01*
X005711Y027197D01*
X005961Y026947D01*
X005961Y026447D01*
X005711Y026197D01*
X005211Y026197D01*
X007486Y026097D02*
X007486Y026297D01*
X007486Y026097D02*
X007686Y026097D01*
X008486Y026097D02*
X008686Y026097D01*
X008686Y026297D01*
X008686Y027097D02*
X008686Y027297D01*
X008486Y027297D01*
X007686Y027297D02*
X007486Y027297D01*
X007486Y027097D01*
X007711Y028697D02*
X008211Y028697D01*
X008461Y028947D01*
X008711Y028697D01*
X009211Y028697D01*
X009461Y028947D01*
X009711Y028697D01*
X010211Y028697D01*
X010461Y028947D01*
X010711Y028697D01*
X011211Y028697D01*
X011461Y028947D01*
X011461Y029447D01*
X011211Y029697D01*
X010711Y029697D01*
X010461Y029447D01*
X010211Y029697D01*
X009711Y029697D01*
X009461Y029447D01*
X009211Y029697D01*
X008711Y029697D01*
X008461Y029447D01*
X008211Y029697D01*
X007711Y029697D01*
X007461Y029447D01*
X007461Y028947D01*
X007711Y028697D01*
X007686Y021047D02*
X007486Y021047D01*
X007486Y020847D01*
X007486Y020047D02*
X007486Y019847D01*
X007686Y019847D01*
X008486Y019847D02*
X008686Y019847D01*
X008686Y020047D01*
X008686Y020847D02*
X008686Y021047D01*
X008486Y021047D01*
X005931Y021326D02*
X005972Y021291D01*
X006011Y021252D01*
X006047Y021212D01*
X006080Y021168D01*
X006110Y021123D01*
X006138Y021076D01*
X006161Y021027D01*
X006182Y020976D01*
X006199Y020925D01*
X006213Y020872D01*
X006223Y020819D01*
X006229Y020765D01*
X006232Y020710D01*
X006231Y020656D01*
X006226Y020601D01*
X006218Y020548D01*
X006207Y020494D01*
X006191Y020442D01*
X006173Y020391D01*
X006150Y020341D01*
X006125Y020293D01*
X006096Y020247D01*
X006065Y020203D01*
X006030Y020161D01*
X005993Y020121D01*
X005953Y020084D01*
X005931Y019357D02*
X005972Y019322D01*
X006011Y019283D01*
X006047Y019242D01*
X006080Y019199D01*
X006110Y019154D01*
X006138Y019107D01*
X006161Y019058D01*
X006182Y019007D01*
X006199Y018956D01*
X006213Y018903D01*
X006223Y018850D01*
X006229Y018795D01*
X006232Y018741D01*
X006231Y018687D01*
X006226Y018632D01*
X006218Y018579D01*
X006207Y018525D01*
X006191Y018473D01*
X006172Y018422D01*
X006150Y018372D01*
X006125Y018324D01*
X006096Y018278D01*
X006065Y018234D01*
X006030Y018192D01*
X005993Y018152D01*
X005953Y018115D01*
X005658Y014869D02*
X006408Y014871D01*
X006408Y014471D02*
X005658Y014469D01*
X006961Y014197D02*
X006961Y013297D01*
X007061Y013197D01*
X006961Y013097D01*
X006961Y012297D01*
X007061Y012197D01*
X006961Y012097D01*
X006961Y011297D01*
X007061Y011197D01*
X006961Y011097D01*
X006961Y010297D01*
X007061Y010197D01*
X006961Y010097D01*
X006961Y009297D01*
X007061Y009197D01*
X006961Y009097D01*
X006961Y008297D01*
X007061Y008197D01*
X006961Y008097D01*
X006961Y007297D01*
X007061Y007197D01*
X006961Y007097D01*
X006961Y006197D01*
X007961Y006197D01*
X007961Y007097D01*
X007861Y007197D01*
X007961Y007297D01*
X007961Y008097D01*
X007861Y008197D01*
X007961Y008297D01*
X007961Y009097D01*
X007861Y009197D01*
X007961Y009297D01*
X007961Y010097D01*
X007861Y010197D01*
X007961Y010297D01*
X007961Y011097D01*
X007861Y011197D01*
X007961Y011297D01*
X007961Y012097D01*
X007861Y012197D01*
X007961Y012297D01*
X007961Y013097D01*
X007861Y013197D01*
X007961Y013297D01*
X007961Y014197D01*
X006961Y014197D01*
X006412Y012531D02*
X006414Y010931D01*
X006415Y010531D01*
X006418Y008931D01*
X005668Y008929D01*
X005665Y010529D01*
X003865Y010526D01*
X003865Y010376D01*
X003715Y010376D02*
X003714Y011076D01*
X004165Y010377D02*
X005415Y010379D01*
X005418Y009079D01*
X004168Y009077D01*
X003868Y009126D02*
X003868Y008926D01*
X005668Y008929D01*
X006418Y008931D02*
X006418Y008731D01*
X003718Y008726D01*
X003718Y009126D01*
X002718Y008724D02*
X002711Y012694D01*
X001991Y013023D02*
X001950Y013058D01*
X001911Y013097D01*
X001875Y013137D01*
X001842Y013181D01*
X001811Y013226D01*
X001784Y013273D01*
X001760Y013322D01*
X001740Y013372D01*
X001722Y013424D01*
X001709Y013477D01*
X001699Y013530D01*
X001692Y013584D01*
X001689Y013639D01*
X001690Y013693D01*
X001694Y013747D01*
X001702Y013801D01*
X001714Y013854D01*
X001729Y013907D01*
X001748Y013958D01*
X001770Y014007D01*
X001795Y014056D01*
X001824Y014102D01*
X001856Y014146D01*
X001890Y014188D01*
X001927Y014228D01*
X001967Y014265D01*
X001969Y014263D02*
X001992Y014282D01*
X002018Y014298D01*
X002045Y014311D01*
X002074Y014321D01*
X002103Y014328D01*
X002134Y014332D01*
X002164Y014332D01*
X002194Y014328D01*
X002224Y014321D01*
X002252Y014311D01*
X002280Y014298D01*
X002305Y014282D01*
X002329Y014263D01*
X002350Y014241D01*
X002337Y014259D02*
X002372Y014210D01*
X002403Y014159D01*
X002432Y014106D01*
X002456Y014051D01*
X002478Y013994D01*
X002496Y013937D01*
X002510Y013878D01*
X002520Y013819D01*
X002527Y013759D01*
X002530Y013699D01*
X002529Y013639D01*
X002524Y013578D01*
X002516Y013519D01*
X002504Y013460D01*
X002488Y013402D01*
X002469Y013345D01*
X002446Y013289D01*
X002419Y013235D01*
X002390Y013182D01*
X002357Y013132D01*
X002321Y013084D01*
X001970Y012325D02*
X001930Y012288D01*
X001893Y012248D01*
X001858Y012206D01*
X001827Y012162D01*
X001798Y012116D01*
X001773Y012067D01*
X001751Y012018D01*
X001732Y011966D01*
X001717Y011914D01*
X001705Y011861D01*
X001697Y011807D01*
X001693Y011753D01*
X001692Y011698D01*
X001695Y011644D01*
X001702Y011590D01*
X001712Y011537D01*
X001725Y011484D01*
X001743Y011432D01*
X001763Y011382D01*
X001787Y011333D01*
X001814Y011286D01*
X001845Y011240D01*
X001878Y011197D01*
X001914Y011157D01*
X001953Y011118D01*
X001994Y011083D01*
X001974Y011102D02*
X001996Y011084D01*
X002020Y011069D01*
X002045Y011057D01*
X002072Y011047D01*
X002100Y011042D01*
X002128Y011039D01*
X002156Y011040D01*
X002184Y011044D01*
X002212Y011052D01*
X002238Y011063D01*
X002262Y011077D01*
X002285Y011094D01*
X002306Y011114D01*
X002324Y011136D01*
X002339Y011160D01*
X002615Y010524D02*
X002618Y008924D01*
X001618Y008922D01*
X001615Y010522D01*
X002615Y010524D01*
X002357Y010301D02*
X002336Y010323D01*
X002312Y010342D01*
X002287Y010358D01*
X002259Y010371D01*
X002231Y010381D01*
X002201Y010388D01*
X002171Y010392D01*
X002141Y010392D01*
X002110Y010388D01*
X002081Y010381D01*
X002052Y010371D01*
X002025Y010358D01*
X001999Y010342D01*
X001976Y010323D01*
X002016Y010333D02*
X002268Y009134D01*
X002218Y009083D02*
X001966Y010283D01*
X002345Y010320D02*
X002380Y010271D01*
X002411Y010219D01*
X002439Y010166D01*
X002464Y010111D01*
X002486Y010055D01*
X002504Y009997D01*
X002518Y009938D01*
X002528Y009879D01*
X002535Y009819D01*
X002538Y009759D01*
X002537Y009698D01*
X002532Y009638D01*
X002524Y009579D01*
X002512Y009520D01*
X002496Y009461D01*
X002477Y009404D01*
X002454Y009348D01*
X002427Y009294D01*
X002398Y009242D01*
X002365Y009191D01*
X002328Y009143D01*
X002342Y009160D02*
X002327Y009136D01*
X002309Y009114D01*
X002288Y009094D01*
X002265Y009077D01*
X002241Y009063D01*
X002215Y009052D01*
X002187Y009044D01*
X002159Y009040D01*
X002131Y009039D01*
X002103Y009042D01*
X002075Y009047D01*
X002048Y009057D01*
X002023Y009069D01*
X001999Y009084D01*
X001977Y009102D01*
X001998Y009083D02*
X001957Y009118D01*
X001918Y009157D01*
X001882Y009197D01*
X001849Y009240D01*
X001818Y009286D01*
X001791Y009333D01*
X001767Y009382D01*
X001747Y009432D01*
X001729Y009484D01*
X001716Y009537D01*
X001706Y009590D01*
X001699Y009644D01*
X001696Y009698D01*
X001697Y009753D01*
X001701Y009807D01*
X001709Y009861D01*
X001721Y009914D01*
X001736Y009966D01*
X001755Y010018D01*
X001777Y010067D01*
X001802Y010116D01*
X001831Y010162D01*
X001862Y010206D01*
X001897Y010248D01*
X001934Y010288D01*
X001974Y010325D01*
X002324Y011144D02*
X002360Y011192D01*
X002393Y011242D01*
X002422Y011295D01*
X002449Y011349D01*
X002472Y011405D01*
X002491Y011462D01*
X002507Y011520D01*
X002519Y011579D01*
X002527Y011638D01*
X002532Y011699D01*
X002533Y011759D01*
X002530Y011819D01*
X002523Y011879D01*
X002513Y011938D01*
X002499Y011997D01*
X002481Y012054D01*
X002459Y012111D01*
X002435Y012166D01*
X002406Y012219D01*
X002375Y012270D01*
X002340Y012319D01*
X005664Y010929D02*
X006414Y010931D01*
X006415Y010531D02*
X005665Y010529D01*
X014811Y011197D02*
X015111Y011197D01*
X014961Y011347D02*
X014961Y011047D01*
X015461Y012247D02*
X015461Y012347D01*
X015011Y012347D01*
X015011Y012597D01*
X015911Y012597D01*
X015911Y012347D01*
X015461Y012347D01*
X013461Y012697D02*
X013463Y012795D01*
X013471Y012893D01*
X013483Y012990D01*
X013499Y013087D01*
X013521Y013183D01*
X013547Y013278D01*
X013578Y013371D01*
X013613Y013462D01*
X013653Y013552D01*
X013697Y013640D01*
X013746Y013725D01*
X013798Y013808D01*
X013855Y013888D01*
X013915Y013966D01*
X013979Y014040D01*
X014047Y014111D01*
X014118Y014179D01*
X014192Y014243D01*
X014270Y014303D01*
X014350Y014360D01*
X014433Y014412D01*
X014518Y014461D01*
X014606Y014505D01*
X014696Y014545D01*
X014787Y014580D01*
X014880Y014611D01*
X014975Y014637D01*
X015071Y014659D01*
X015168Y014675D01*
X015265Y014687D01*
X015363Y014695D01*
X015461Y014697D01*
X015559Y014695D01*
X015657Y014687D01*
X015754Y014675D01*
X015851Y014659D01*
X015947Y014637D01*
X016042Y014611D01*
X016135Y014580D01*
X016226Y014545D01*
X016316Y014505D01*
X016404Y014461D01*
X016489Y014412D01*
X016572Y014360D01*
X016652Y014303D01*
X016730Y014243D01*
X016804Y014179D01*
X016875Y014111D01*
X016943Y014040D01*
X017007Y013966D01*
X017067Y013888D01*
X017124Y013808D01*
X017176Y013725D01*
X017225Y013640D01*
X017269Y013552D01*
X017309Y013462D01*
X017344Y013371D01*
X017375Y013278D01*
X017401Y013183D01*
X017423Y013087D01*
X017439Y012990D01*
X017451Y012893D01*
X017459Y012795D01*
X017461Y012697D01*
X017459Y012599D01*
X017451Y012501D01*
X017439Y012404D01*
X017423Y012307D01*
X017401Y012211D01*
X017375Y012116D01*
X017344Y012023D01*
X017309Y011932D01*
X017269Y011842D01*
X017225Y011754D01*
X017176Y011669D01*
X017124Y011586D01*
X017067Y011506D01*
X017007Y011428D01*
X016943Y011354D01*
X016875Y011283D01*
X016804Y011215D01*
X016730Y011151D01*
X016652Y011091D01*
X016572Y011034D01*
X016489Y010982D01*
X016404Y010933D01*
X016316Y010889D01*
X016226Y010849D01*
X016135Y010814D01*
X016042Y010783D01*
X015947Y010757D01*
X015851Y010735D01*
X015754Y010719D01*
X015657Y010707D01*
X015559Y010699D01*
X015461Y010697D01*
X015363Y010699D01*
X015265Y010707D01*
X015168Y010719D01*
X015071Y010735D01*
X014975Y010757D01*
X014880Y010783D01*
X014787Y010814D01*
X014696Y010849D01*
X014606Y010889D01*
X014518Y010933D01*
X014433Y010982D01*
X014350Y011034D01*
X014270Y011091D01*
X014192Y011151D01*
X014118Y011215D01*
X014047Y011283D01*
X013979Y011354D01*
X013915Y011428D01*
X013855Y011506D01*
X013798Y011586D01*
X013746Y011669D01*
X013697Y011754D01*
X013653Y011842D01*
X013613Y011932D01*
X013578Y012023D01*
X013547Y012116D01*
X013521Y012211D01*
X013499Y012307D01*
X013483Y012404D01*
X013471Y012501D01*
X013463Y012599D01*
X013461Y012697D01*
X015461Y012947D02*
X015461Y013147D01*
X018024Y013384D02*
X018024Y013634D01*
X018024Y013384D02*
X018274Y013384D01*
X019274Y013384D02*
X019524Y013384D01*
X019524Y013634D01*
X019524Y014634D02*
X019524Y014884D01*
X019274Y014884D01*
X018274Y014884D02*
X018024Y014884D01*
X018024Y014634D01*
X018024Y012134D02*
X018274Y012134D01*
X018024Y012134D02*
X018024Y011884D01*
X018024Y010884D02*
X018024Y010634D01*
X018274Y010634D01*
X019274Y010634D02*
X019524Y010634D01*
X019524Y010884D01*
X019524Y011884D02*
X019524Y012134D01*
X019274Y012134D01*
X020281Y006147D02*
X020281Y005397D01*
X020651Y005397D02*
X020651Y006147D01*
X022861Y019847D02*
X022861Y020047D01*
X022861Y019847D02*
X023061Y019847D01*
X023861Y019847D02*
X024061Y019847D01*
X024061Y020047D01*
X024061Y020847D02*
X024061Y021047D01*
X023861Y021047D01*
X023061Y021047D02*
X022861Y021047D01*
X022861Y020847D01*
X022861Y025972D02*
X022861Y026172D01*
X022861Y025972D02*
X023061Y025972D01*
X023861Y025972D02*
X024061Y025972D01*
X024061Y026172D01*
X024061Y026972D02*
X024061Y027172D01*
X023861Y027172D01*
X023061Y027172D02*
X022861Y027172D01*
X022861Y026972D01*
X020786Y029447D02*
X020586Y029447D01*
X018586Y029447D02*
X018588Y029533D01*
X018594Y029619D01*
X018605Y029704D01*
X018620Y029788D01*
X018638Y029872D01*
X018661Y029955D01*
X018688Y030037D01*
X018719Y030117D01*
X018754Y030195D01*
X018793Y030272D01*
X018835Y030347D01*
X018881Y030419D01*
X018930Y030489D01*
X018983Y030557D01*
X019039Y030622D01*
X019099Y030684D01*
X019161Y030744D01*
X019226Y030800D01*
X019294Y030853D01*
X019364Y030902D01*
X019436Y030948D01*
X019511Y030990D01*
X019588Y031029D01*
X019666Y031064D01*
X019746Y031095D01*
X019828Y031122D01*
X019911Y031145D01*
X019995Y031163D01*
X020079Y031178D01*
X020164Y031189D01*
X020250Y031195D01*
X020336Y031197D01*
X020422Y031195D01*
X020508Y031189D01*
X020593Y031178D01*
X020677Y031163D01*
X020761Y031145D01*
X020844Y031122D01*
X020926Y031095D01*
X021006Y031064D01*
X021084Y031029D01*
X021161Y030990D01*
X021236Y030948D01*
X021308Y030902D01*
X021378Y030853D01*
X021446Y030800D01*
X021511Y030744D01*
X021573Y030684D01*
X021633Y030622D01*
X021689Y030557D01*
X021742Y030489D01*
X021791Y030419D01*
X021837Y030347D01*
X021879Y030272D01*
X021918Y030195D01*
X021953Y030117D01*
X021984Y030037D01*
X022011Y029955D01*
X022034Y029872D01*
X022052Y029788D01*
X022067Y029704D01*
X022078Y029619D01*
X022084Y029533D01*
X022086Y029447D01*
X022084Y029361D01*
X022078Y029275D01*
X022067Y029190D01*
X022052Y029106D01*
X022034Y029022D01*
X022011Y028939D01*
X021984Y028857D01*
X021953Y028777D01*
X021918Y028699D01*
X021879Y028622D01*
X021837Y028547D01*
X021791Y028475D01*
X021742Y028405D01*
X021689Y028337D01*
X021633Y028272D01*
X021573Y028210D01*
X021511Y028150D01*
X021446Y028094D01*
X021378Y028041D01*
X021308Y027992D01*
X021236Y027946D01*
X021161Y027904D01*
X021084Y027865D01*
X021006Y027830D01*
X020926Y027799D01*
X020844Y027772D01*
X020761Y027749D01*
X020677Y027731D01*
X020593Y027716D01*
X020508Y027705D01*
X020422Y027699D01*
X020336Y027697D01*
X020250Y027699D01*
X020164Y027705D01*
X020079Y027716D01*
X019995Y027731D01*
X019911Y027749D01*
X019828Y027772D01*
X019746Y027799D01*
X019666Y027830D01*
X019588Y027865D01*
X019511Y027904D01*
X019436Y027946D01*
X019364Y027992D01*
X019294Y028041D01*
X019226Y028094D01*
X019161Y028150D01*
X019099Y028210D01*
X019039Y028272D01*
X018983Y028337D01*
X018930Y028405D01*
X018881Y028475D01*
X018835Y028547D01*
X018793Y028622D01*
X018754Y028699D01*
X018719Y028777D01*
X018688Y028857D01*
X018661Y028939D01*
X018638Y029022D01*
X018620Y029106D01*
X018605Y029190D01*
X018594Y029275D01*
X018588Y029361D01*
X018586Y029447D01*
X019036Y029947D02*
X019036Y030247D01*
X018886Y030097D02*
X019186Y030097D01*
X019886Y029447D02*
X019986Y029447D01*
X019986Y029897D01*
X020236Y029897D01*
X020236Y028997D01*
X019986Y028997D01*
X019986Y029447D01*
D13*
X016523Y028941D02*
X016236Y028941D01*
X016379Y028941D02*
X016379Y029371D01*
X016236Y029228D01*
X012823Y029248D02*
X012751Y029176D01*
X012823Y029104D01*
X012823Y029033D01*
X012751Y028961D01*
X012608Y028961D01*
X012536Y029033D01*
X012679Y029176D02*
X012751Y029176D01*
X012823Y029248D02*
X012823Y029320D01*
X012751Y029391D01*
X012608Y029391D01*
X012536Y029320D01*
X007276Y021507D02*
X007276Y021087D01*
X007276Y021297D02*
X006646Y021297D01*
X006856Y021087D01*
X006751Y020863D02*
X006646Y020758D01*
X006646Y020547D01*
X006751Y020442D01*
X007171Y020442D01*
X006751Y020863D01*
X007171Y020863D01*
X007276Y020758D01*
X007276Y020547D01*
X007171Y020442D01*
X007276Y020218D02*
X007276Y019798D01*
X007276Y020008D02*
X006646Y020008D01*
X006856Y019798D01*
X006646Y019574D02*
X006646Y019364D01*
X006646Y019469D02*
X007171Y019469D01*
X007276Y019364D01*
X007276Y019258D01*
X007171Y019153D01*
X007496Y018837D02*
X007601Y018732D01*
X007707Y018732D01*
X007812Y018837D01*
X007812Y019362D01*
X007707Y019362D02*
X007917Y019362D01*
X008141Y019152D02*
X008351Y019362D01*
X008351Y018732D01*
X008141Y018732D02*
X008561Y018732D01*
X008785Y018837D02*
X009206Y019257D01*
X009206Y018837D01*
X009101Y018732D01*
X008891Y018732D01*
X008785Y018837D01*
X008785Y019257D01*
X008891Y019362D01*
X009101Y019362D01*
X009206Y019257D01*
X009430Y019257D02*
X009535Y019362D01*
X009745Y019362D01*
X009850Y019257D01*
X009850Y019152D01*
X009745Y019047D01*
X009850Y018942D01*
X009850Y018837D01*
X009745Y018732D01*
X009535Y018732D01*
X009430Y018837D01*
X009640Y019047D02*
X009745Y019047D01*
X001277Y012344D02*
X001068Y012133D01*
X000647Y012133D01*
X000648Y011908D02*
X001278Y011909D01*
X001279Y011594D01*
X001174Y011489D01*
X000964Y011489D01*
X000858Y011594D01*
X000858Y011909D01*
X000858Y011699D02*
X000648Y011488D01*
X000649Y011264D02*
X001279Y011265D01*
X000964Y011159D02*
X000650Y010844D01*
X000650Y010619D02*
X000651Y010199D01*
X000650Y010409D02*
X001281Y010410D01*
X001070Y010620D01*
X001280Y010845D02*
X000859Y011264D01*
X000963Y012133D02*
X000962Y012553D01*
X001067Y012554D02*
X000647Y012553D01*
X001067Y012554D02*
X001277Y012344D01*
X001176Y009976D02*
X000756Y009975D01*
X001177Y009555D01*
X000757Y009555D01*
X000652Y009660D01*
X000651Y009870D01*
X000756Y009975D01*
X001176Y009976D02*
X001282Y009871D01*
X001282Y009661D01*
X001177Y009555D01*
X001072Y009331D02*
X001283Y009121D01*
X000652Y009120D01*
X000652Y009330D02*
X000653Y008910D01*
X011543Y002412D02*
X011543Y001782D01*
X011543Y002097D02*
X011753Y002097D01*
X011543Y002412D02*
X011964Y002412D01*
X012188Y002202D02*
X012398Y002412D01*
X012398Y001782D01*
X012188Y001782D02*
X012608Y001782D01*
X012832Y001887D02*
X013253Y002307D01*
X013253Y001887D01*
X013148Y001782D01*
X012937Y001782D01*
X012832Y001887D01*
X012832Y002307D01*
X012937Y002412D01*
X013148Y002412D01*
X013253Y002307D01*
X013477Y002202D02*
X013687Y002412D01*
X013687Y001782D01*
X013477Y001782D02*
X013897Y001782D01*
X019918Y000487D02*
X020023Y000382D01*
X020128Y000382D01*
X020233Y000487D01*
X020233Y001012D01*
X020128Y001012D02*
X020339Y001012D01*
X020563Y000802D02*
X020773Y001012D01*
X020773Y000382D01*
X020563Y000382D02*
X020983Y000382D01*
X021207Y000487D02*
X021207Y000907D01*
X021312Y001012D01*
X021523Y001012D01*
X021628Y000907D01*
X021207Y000487D01*
X021312Y000382D01*
X021523Y000382D01*
X021628Y000487D01*
X021628Y000907D01*
X021852Y000907D02*
X021957Y001012D01*
X022167Y001012D01*
X022272Y000907D01*
X022272Y000802D01*
X021852Y000382D01*
X022272Y000382D01*
D14*
X014686Y002547D02*
X010486Y002547D01*
X010486Y004847D02*
X014686Y004847D01*
X014661Y015347D02*
X013261Y015347D01*
X011661Y015347D02*
X007861Y015347D01*
X007861Y018047D01*
X017061Y018047D01*
X017061Y015347D01*
X015261Y015347D01*
D15*
X014811Y004722D03*
X014811Y002672D03*
X010361Y002672D03*
X010361Y004722D03*
D16*
X015811Y004597D03*
D17*
X012586Y004447D03*
X012586Y002947D03*
D18*
X009511Y002922D03*
X009511Y004472D03*
X015661Y004472D03*
X015661Y002922D03*
D19*
X015736Y002797D03*
X009436Y002797D03*
X009436Y004597D03*
D20*
X003736Y005697D03*
X020561Y029447D03*
D21*
X015191Y025922D02*
X015191Y025799D01*
X015129Y025737D01*
X014882Y025984D01*
X015129Y025984D01*
X015191Y025922D01*
X015129Y025737D02*
X014882Y025737D01*
X014821Y025799D01*
X014821Y025922D01*
X014882Y025984D01*
X014805Y025947D02*
X014805Y026353D01*
X014118Y026353D01*
X014118Y025947D01*
X014118Y025447D02*
X014118Y025040D01*
X014805Y025040D01*
X014805Y025447D01*
X014821Y025492D02*
X015191Y025492D01*
X015191Y025369D02*
X015191Y025615D01*
X014944Y025369D02*
X014821Y025492D01*
X014821Y025124D02*
X015191Y025124D01*
X015191Y025247D02*
X015191Y025000D01*
X015191Y024879D02*
X015067Y024755D01*
X015067Y024817D02*
X015067Y024632D01*
X015191Y024632D02*
X014821Y024632D01*
X014821Y024817D01*
X014882Y024879D01*
X015006Y024879D01*
X015067Y024817D01*
X014944Y025000D02*
X014821Y025124D01*
D22*
X015461Y012922D03*
X003961Y024422D03*
D23*
X012992Y030566D02*
X013052Y030506D01*
X013112Y030506D01*
X013172Y030566D01*
X013172Y030866D01*
X013112Y030866D02*
X013232Y030866D01*
X013360Y030746D02*
X013480Y030866D01*
X013480Y030506D01*
X013360Y030506D02*
X013601Y030506D01*
X013729Y030506D02*
X013969Y030506D01*
X013849Y030506D02*
X013849Y030866D01*
X013729Y030746D01*
X014097Y030806D02*
X014157Y030866D01*
X014277Y030866D01*
X014337Y030806D01*
X014337Y030746D01*
X014097Y030506D01*
X014337Y030506D01*
M02*
