G75*
G70*
%OFA0B0*%
%FSLAX24Y24*%
%IPPOS*%
%LPD*%
%AMOC8*
5,1,8,0,0,1.08239X$1,22.5*
%
%ADD10C,0.0060*%
%ADD11R,0.0197X0.0866*%
%ADD12C,0.0040*%
%ADD13R,0.0240X0.0620*%
%ADD14C,0.0080*%
%ADD15C,0.0030*%
D10*
X004681Y002763D02*
X006492Y002763D01*
X005941Y002842D02*
X005941Y003551D01*
X005232Y003551D01*
X005232Y002842D01*
X005941Y002842D01*
X006492Y003630D02*
X004681Y003630D01*
D11*
X005291Y003197D03*
D12*
X005382Y003904D02*
X005536Y003904D01*
X005612Y003981D01*
X005305Y004288D01*
X005305Y003981D01*
X005382Y003904D01*
X005152Y003981D02*
X005075Y003904D01*
X004922Y003904D01*
X004845Y003981D01*
X004845Y004057D01*
X004922Y004134D01*
X004998Y004134D01*
X004922Y004134D02*
X004845Y004211D01*
X004845Y004288D01*
X004922Y004364D01*
X005075Y004364D01*
X005152Y004288D01*
X005305Y004288D02*
X005382Y004364D01*
X005536Y004364D01*
X005612Y004288D01*
X005612Y003981D01*
X005766Y003904D02*
X006073Y003904D01*
X005919Y003904D02*
X005919Y004364D01*
X006073Y004211D01*
X006226Y004288D02*
X006303Y004364D01*
X006533Y004364D01*
X006533Y003904D01*
X006303Y003904D01*
X006226Y003981D01*
X006226Y004288D01*
X002729Y008917D02*
X002499Y008917D01*
X002422Y008993D01*
X002422Y009300D01*
X002499Y009377D01*
X002729Y009377D01*
X002729Y008917D01*
X002269Y008917D02*
X001962Y008917D01*
X002115Y008917D02*
X002115Y009377D01*
X002269Y009223D01*
X001808Y009300D02*
X001732Y009377D01*
X001578Y009377D01*
X001501Y009300D01*
X001808Y008993D01*
X001732Y008917D01*
X001578Y008917D01*
X001501Y008993D01*
X001501Y009300D01*
X001348Y009300D02*
X001271Y009377D01*
X001118Y009377D01*
X001041Y009300D01*
X001041Y009223D01*
X001348Y008917D01*
X001041Y008917D01*
X001808Y008993D02*
X001808Y009300D01*
D13*
X004181Y007822D03*
D14*
X004108Y007822D02*
X003715Y007585D01*
X003715Y008058D01*
X004108Y007822D01*
D15*
X009493Y007915D02*
X009493Y007509D01*
X009493Y007915D02*
X010180Y007915D01*
X010180Y007509D01*
X010321Y007491D02*
X010383Y007429D01*
X010629Y007676D01*
X010383Y007676D01*
X010321Y007615D01*
X010321Y007491D01*
X010383Y007429D02*
X010629Y007429D01*
X010691Y007491D01*
X010691Y007615D01*
X010629Y007676D01*
X010629Y007798D02*
X010568Y007798D01*
X010506Y007859D01*
X010506Y007983D01*
X010444Y008045D01*
X010383Y008045D01*
X010321Y007983D01*
X010321Y007859D01*
X010383Y007798D01*
X010444Y007798D01*
X010506Y007859D01*
X010506Y007983D02*
X010568Y008045D01*
X010629Y008045D01*
X010691Y007983D01*
X010691Y007859D01*
X010629Y007798D01*
X010321Y007308D02*
X010321Y007061D01*
X010321Y006940D02*
X010444Y006816D01*
X010444Y006878D02*
X010444Y006693D01*
X010321Y006693D02*
X010691Y006693D01*
X010691Y006878D01*
X010629Y006940D01*
X010506Y006940D01*
X010444Y006878D01*
X010568Y007061D02*
X010691Y007185D01*
X010321Y007185D01*
X010180Y007009D02*
X010180Y006603D01*
X009493Y006603D01*
X009493Y007009D01*
M02*
