G75*
G70*
%OFA0B0*%
%FSLAX24Y24*%
%IPPOS*%
%LPD*%
%AMOC8*
5,1,8,0,0,1.08239X$1,22.5*
%
%ADD10C,0.0100*%
%ADD11C,0.0060*%
%ADD12C,0.0040*%
%ADD13C,0.0050*%
%ADD14C,0.0600*%
%ADD15C,0.0520*%
%ADD16C,0.0780*%
%ADD17C,0.0600*%
%ADD18OC8,0.0600*%
%ADD19OC8,0.0560*%
%ADD20C,0.1000*%
%ADD21C,0.1000*%
%ADD22OC8,0.1000*%
%ADD23OC8,0.1250*%
%ADD24R,0.0630X0.0411*%
%ADD25OC8,0.1500*%
%ADD26C,0.0320*%
%ADD27C,0.0150*%
%ADD28C,0.0700*%
%ADD29C,0.0357*%
%ADD30C,0.0500*%
D10*
X024011Y004747D02*
X024011Y005013D01*
X024011Y004880D02*
X024411Y004880D01*
X024345Y005207D02*
X024078Y005207D01*
X024011Y005274D01*
X024011Y005407D01*
X024078Y005474D01*
X024345Y005474D01*
X024411Y005407D01*
X024411Y005274D01*
X024345Y005207D01*
X024411Y005667D02*
X024011Y005667D01*
X024011Y005867D01*
X024078Y005934D01*
X024211Y005934D01*
X024278Y005867D01*
X024278Y005667D01*
X024345Y006588D02*
X024078Y006588D01*
X024011Y006655D01*
X024011Y006788D01*
X024078Y006855D01*
X024078Y007048D02*
X024345Y007048D01*
X024411Y007115D01*
X024411Y007248D01*
X024345Y007315D01*
X024078Y007315D01*
X024011Y007248D01*
X024011Y007115D01*
X024078Y007048D01*
X024345Y006855D02*
X024411Y006788D01*
X024411Y006655D01*
X024345Y006588D01*
X024411Y007509D02*
X024011Y007509D01*
X024011Y007709D01*
X024078Y007776D01*
X024211Y007776D01*
X024278Y007709D01*
X024278Y007509D01*
X024278Y007969D02*
X024278Y008169D01*
X024211Y008236D01*
X024078Y008236D01*
X024011Y008169D01*
X024011Y007969D01*
X024411Y007969D01*
X024411Y008429D02*
X024011Y008429D01*
X024011Y008696D01*
X024011Y008890D02*
X024011Y009090D01*
X024078Y009157D01*
X024211Y009157D01*
X024278Y009090D01*
X024278Y008890D01*
X024278Y009023D02*
X024411Y009157D01*
X024411Y008890D02*
X024011Y008890D01*
X024211Y008563D02*
X024211Y008429D01*
X024411Y008429D02*
X024411Y008696D01*
X024403Y010247D02*
X024270Y010247D01*
X024136Y010380D01*
X024203Y010553D02*
X024470Y010553D01*
X024536Y010620D01*
X024536Y010754D01*
X024470Y010820D01*
X024536Y011014D02*
X024403Y011147D01*
X024270Y011147D01*
X024136Y011014D01*
X024203Y010820D02*
X024136Y010754D01*
X024136Y010620D01*
X024203Y010553D01*
X024403Y010247D02*
X024536Y010380D01*
X024470Y011781D02*
X024270Y011781D01*
X024470Y011781D02*
X024536Y011848D01*
X024536Y012048D01*
X024270Y012048D01*
X024336Y012241D02*
X024270Y012308D01*
X024270Y012508D01*
X024403Y012442D02*
X024403Y012308D01*
X024336Y012241D01*
X024536Y012241D02*
X024536Y012442D01*
X024470Y012508D01*
X024403Y012442D01*
X024536Y012702D02*
X024536Y012902D01*
X024470Y012969D01*
X024336Y012969D01*
X024270Y012902D01*
X024270Y012702D01*
X024670Y012702D01*
X024536Y013162D02*
X024270Y013162D01*
X024403Y013162D02*
X024270Y013296D01*
X024270Y013362D01*
X024270Y013612D02*
X024270Y013746D01*
X024336Y013813D01*
X024536Y013813D01*
X024536Y013612D01*
X024470Y013546D01*
X024403Y013612D01*
X024403Y013813D01*
X024470Y014006D02*
X024270Y014006D01*
X024470Y014006D02*
X024536Y014073D01*
X024470Y014139D01*
X024536Y014206D01*
X024470Y014273D01*
X024270Y014273D01*
X024270Y014466D02*
X024270Y014667D01*
X024336Y014733D01*
X024536Y014733D01*
X024536Y014927D02*
X024536Y015060D01*
X024536Y014993D02*
X024270Y014993D01*
X024270Y014927D01*
X024136Y014993D02*
X024069Y014993D01*
X024336Y015234D02*
X024270Y015300D01*
X024270Y015434D01*
X024336Y015501D01*
X024403Y015501D01*
X024403Y015234D01*
X024470Y015234D02*
X024336Y015234D01*
X024470Y015234D02*
X024536Y015300D01*
X024536Y015434D01*
X024536Y015694D02*
X024270Y015694D01*
X024270Y015894D01*
X024336Y015961D01*
X024536Y015961D01*
X024536Y016154D02*
X024536Y016288D01*
X024536Y016221D02*
X024270Y016221D01*
X024270Y016154D01*
X024136Y016221D02*
X024069Y016221D01*
X024270Y016528D02*
X024270Y016661D01*
X024336Y016728D01*
X024536Y016728D01*
X024536Y016528D01*
X024470Y016461D01*
X024403Y016528D01*
X024403Y016728D01*
X024470Y016922D02*
X024470Y016988D01*
X024536Y016988D01*
X024536Y016922D01*
X024470Y016922D01*
X024536Y017152D02*
X024536Y017352D01*
X024470Y017419D01*
X024336Y017419D01*
X024270Y017352D01*
X024270Y017152D01*
X024670Y017152D01*
X024536Y017612D02*
X024536Y017746D01*
X024536Y017679D02*
X024136Y017679D01*
X024136Y017612D01*
X024270Y014466D02*
X024536Y014466D01*
X022309Y030497D02*
X022309Y030897D01*
X022109Y030697D01*
X022376Y030697D01*
X021915Y030497D02*
X021649Y030497D01*
X021782Y030497D02*
X021782Y030897D01*
X021649Y030763D01*
X021455Y030830D02*
X021188Y030563D01*
X021255Y030497D01*
X021388Y030497D01*
X021455Y030563D01*
X021455Y030830D01*
X021388Y030897D01*
X021255Y030897D01*
X021188Y030830D01*
X021188Y030563D01*
X020995Y030497D02*
X020728Y030497D01*
X020995Y030763D01*
X020995Y030830D01*
X020928Y030897D01*
X020795Y030897D01*
X020728Y030830D01*
X020534Y030830D02*
X020534Y030763D01*
X020468Y030697D01*
X020334Y030697D01*
X020267Y030763D01*
X020267Y030830D01*
X020334Y030897D01*
X020468Y030897D01*
X020534Y030830D01*
X020468Y030697D02*
X020534Y030630D01*
X020534Y030563D01*
X020468Y030497D01*
X020334Y030497D01*
X020267Y030563D01*
X020267Y030630D01*
X020334Y030697D01*
X020074Y030830D02*
X020074Y030563D01*
X020007Y030497D01*
X019874Y030497D01*
X019807Y030563D01*
X020074Y030830D01*
X020007Y030897D01*
X019874Y030897D01*
X019807Y030830D01*
X019807Y030563D01*
X019614Y030497D02*
X019347Y030497D01*
X019614Y030763D01*
X019614Y030830D01*
X019547Y030897D01*
X019413Y030897D01*
X019347Y030830D01*
X019153Y030830D02*
X019153Y030563D01*
X019087Y030497D01*
X018953Y030497D01*
X018886Y030563D01*
X019153Y030830D01*
X019087Y030897D01*
X018953Y030897D01*
X018886Y030830D01*
X018886Y030563D01*
X018106Y030497D02*
X017906Y030497D01*
X017839Y030563D01*
X017839Y030697D01*
X017906Y030763D01*
X018106Y030763D01*
X018106Y030897D02*
X018106Y030497D01*
X017656Y030763D02*
X017589Y030763D01*
X017455Y030630D01*
X017455Y030497D02*
X017455Y030763D01*
X017262Y030697D02*
X017262Y030497D01*
X017062Y030497D01*
X016995Y030563D01*
X017062Y030630D01*
X017262Y030630D01*
X017262Y030697D02*
X017195Y030763D01*
X017062Y030763D01*
X016802Y030697D02*
X016802Y030563D01*
X016735Y030497D01*
X016601Y030497D01*
X016535Y030563D01*
X016535Y030697D01*
X016601Y030763D01*
X016735Y030763D01*
X016802Y030697D01*
X016341Y030697D02*
X016341Y030563D01*
X016275Y030497D01*
X016074Y030497D01*
X016074Y030897D01*
X016074Y030763D02*
X016275Y030763D01*
X016341Y030697D01*
X015881Y030697D02*
X015881Y030497D01*
X015881Y030697D02*
X015814Y030763D01*
X015614Y030763D01*
X015614Y030497D01*
X015441Y030497D02*
X015307Y030497D01*
X015374Y030497D02*
X015374Y030763D01*
X015307Y030763D01*
X015374Y030897D02*
X015374Y030964D01*
X015114Y030697D02*
X015114Y030497D01*
X014913Y030497D01*
X014847Y030563D01*
X014913Y030630D01*
X015114Y030630D01*
X015114Y030697D02*
X015047Y030763D01*
X014913Y030763D01*
X014653Y030697D02*
X014653Y030497D01*
X014520Y030497D02*
X014520Y030697D01*
X014587Y030763D01*
X014653Y030697D01*
X014520Y030697D02*
X014453Y030763D01*
X014386Y030763D01*
X014386Y030497D01*
X012027Y030497D02*
X012027Y030897D01*
X011893Y030763D01*
X011760Y030897D01*
X011760Y030497D01*
X011566Y030563D02*
X011566Y030830D01*
X011500Y030897D01*
X011366Y030897D01*
X011299Y030830D01*
X011299Y030563D01*
X011366Y030497D01*
X011500Y030497D01*
X011566Y030563D01*
X011106Y030563D02*
X011039Y030497D01*
X010906Y030497D01*
X010839Y030563D01*
X010839Y030830D01*
X010906Y030897D01*
X011039Y030897D01*
X011106Y030830D01*
X010676Y030563D02*
X010676Y030497D01*
X010609Y030497D01*
X010609Y030563D01*
X010676Y030563D01*
X010415Y030897D02*
X010149Y030897D01*
X010282Y030897D02*
X010282Y030497D01*
X009955Y030563D02*
X009955Y030830D01*
X009888Y030897D01*
X009755Y030897D01*
X009688Y030830D01*
X009688Y030563D01*
X009755Y030497D01*
X009888Y030497D01*
X009955Y030563D01*
X009495Y030563D02*
X009428Y030497D01*
X009228Y030497D01*
X009228Y030897D01*
X009428Y030897D01*
X009495Y030830D01*
X009495Y030763D01*
X009428Y030697D01*
X009228Y030697D01*
X009428Y030697D02*
X009495Y030630D01*
X009495Y030563D01*
X009034Y030563D02*
X009034Y030830D01*
X008968Y030897D01*
X008834Y030897D01*
X008767Y030830D01*
X008767Y030563D01*
X008834Y030497D01*
X008968Y030497D01*
X009034Y030563D01*
X008574Y030497D02*
X008441Y030630D01*
X008507Y030630D02*
X008307Y030630D01*
X008307Y030497D02*
X008307Y030897D01*
X008507Y030897D01*
X008574Y030830D01*
X008574Y030697D01*
X008507Y030630D01*
X008114Y030697D02*
X007847Y030697D01*
X007847Y030763D02*
X007980Y030897D01*
X008114Y030763D01*
X008114Y030497D01*
X007847Y030497D02*
X007847Y030763D01*
X007653Y030763D02*
X007587Y030697D01*
X007386Y030697D01*
X007386Y030897D02*
X007587Y030897D01*
X007653Y030830D01*
X007653Y030763D01*
X007587Y030697D02*
X007653Y030630D01*
X007653Y030563D01*
X007587Y030497D01*
X007386Y030497D01*
X007386Y030897D01*
D11*
X019491Y022154D02*
X019705Y022367D01*
X019705Y021727D01*
X019918Y021727D02*
X019491Y021727D01*
X020136Y021727D02*
X020563Y022154D01*
X020563Y022260D01*
X020456Y022367D01*
X020243Y022367D01*
X020136Y022260D01*
X020136Y021727D02*
X020563Y021727D01*
X020780Y021940D02*
X020994Y021727D01*
X021207Y021940D01*
X021207Y022367D01*
X020780Y022367D02*
X020780Y021940D01*
X022070Y021727D02*
X022283Y021727D01*
X022176Y021727D02*
X022176Y022367D01*
X022070Y022367D02*
X022283Y022367D01*
X022499Y022367D02*
X022926Y021727D01*
X022926Y022367D01*
X023144Y022047D02*
X023571Y022047D01*
X023357Y022260D02*
X023357Y021833D01*
X022499Y021727D02*
X022499Y022367D01*
D12*
X016865Y028717D02*
X016941Y028793D01*
X016941Y028947D01*
X016865Y029023D01*
X016711Y029023D01*
X016711Y028870D01*
X016558Y029023D02*
X016481Y028947D01*
X016481Y028793D01*
X016558Y028717D01*
X016865Y028717D01*
X016941Y029177D02*
X016481Y029177D01*
X016941Y029484D01*
X016481Y029484D01*
X016481Y029637D02*
X016481Y029867D01*
X016558Y029944D01*
X016865Y029944D01*
X016941Y029867D01*
X016941Y029637D01*
X016481Y029637D01*
X012691Y029617D02*
X012615Y029694D01*
X012691Y029617D02*
X012691Y029464D01*
X012615Y029387D01*
X012308Y029387D01*
X012231Y029464D01*
X012231Y029617D01*
X012308Y029694D01*
X012385Y029848D02*
X012231Y030001D01*
X012691Y030001D01*
X012691Y029848D02*
X012691Y030154D01*
X012691Y030308D02*
X012385Y030615D01*
X012308Y030615D01*
X012231Y030538D01*
X012231Y030385D01*
X012308Y030308D01*
X012691Y030308D02*
X012691Y030615D01*
X012615Y029234D02*
X012691Y029157D01*
X012691Y029004D01*
X012615Y028927D01*
X012308Y028927D01*
X012231Y029004D01*
X012231Y029157D01*
X012308Y029234D01*
X012231Y028773D02*
X012538Y028773D01*
X012691Y028620D01*
X012538Y028467D01*
X012231Y028467D01*
X008897Y022600D02*
X008897Y022293D01*
X008744Y022447D02*
X009050Y022447D01*
X008590Y022677D02*
X008283Y022677D01*
X008130Y022677D02*
X008130Y022293D01*
X008053Y022217D01*
X007900Y022217D01*
X007823Y022293D01*
X007823Y022677D01*
X007669Y022600D02*
X007669Y022293D01*
X007593Y022217D01*
X007439Y022217D01*
X007362Y022293D01*
X007362Y022600D01*
X007439Y022677D01*
X007593Y022677D01*
X007669Y022600D01*
X008437Y022677D02*
X008437Y022217D01*
X006749Y022370D02*
X006595Y022217D01*
X006442Y022370D01*
X006442Y022677D01*
X006288Y022677D02*
X005981Y022677D01*
X005981Y022447D01*
X006135Y022523D01*
X006212Y022523D01*
X006288Y022447D01*
X006288Y022293D01*
X006212Y022217D01*
X006058Y022217D01*
X005981Y022293D01*
X006749Y022370D02*
X006749Y022677D01*
D13*
X004554Y026534D02*
X004279Y026534D01*
X004279Y027084D01*
X004554Y027084D01*
X004646Y026993D01*
X004646Y026626D01*
X004554Y026534D01*
X004093Y026534D02*
X004093Y027084D01*
X003726Y027084D02*
X004093Y026534D01*
X003726Y026534D02*
X003726Y027084D01*
X003541Y026993D02*
X003449Y027084D01*
X003266Y027084D01*
X003174Y026993D01*
X003174Y026626D01*
X003266Y026534D01*
X003449Y026534D01*
X003541Y026626D01*
X003541Y026809D01*
X003357Y026809D01*
X003857Y027472D02*
X003857Y028022D01*
X003674Y028022D02*
X004041Y028022D01*
X004226Y028022D02*
X004593Y027472D01*
X004226Y027472D02*
X004593Y028022D01*
X004531Y028472D02*
X004164Y029022D01*
X003978Y028930D02*
X003978Y028747D01*
X003887Y028655D01*
X003611Y028655D01*
X003611Y028472D02*
X003611Y029022D01*
X003887Y029022D01*
X003978Y028930D01*
X003795Y028655D02*
X003978Y028472D01*
X004164Y028472D02*
X004531Y029022D01*
D14*
X005161Y028697D02*
X005761Y028697D01*
X005761Y029697D02*
X005161Y029697D01*
X005161Y027697D02*
X005761Y027697D01*
X005761Y026697D02*
X005161Y026697D01*
X007961Y028897D02*
X007961Y029497D01*
X008961Y029497D02*
X008961Y028897D01*
X009961Y028897D02*
X009961Y029497D01*
X010961Y029497D02*
X010961Y028897D01*
X013461Y028897D02*
X013461Y029497D01*
X014461Y029497D02*
X014461Y028897D01*
X015461Y028897D02*
X015461Y029497D01*
D15*
X012721Y013697D02*
X012201Y013697D01*
X012201Y012697D02*
X012721Y012697D01*
X012721Y011697D02*
X012201Y011697D01*
X012201Y010697D02*
X012721Y010697D01*
X012721Y009697D02*
X012201Y009697D01*
X012201Y008697D02*
X012721Y008697D01*
X012721Y007697D02*
X012201Y007697D01*
X012201Y006697D02*
X012721Y006697D01*
X007721Y006697D02*
X007201Y006697D01*
X007201Y007697D02*
X007721Y007697D01*
X007721Y008697D02*
X007201Y008697D01*
X007201Y009697D02*
X007721Y009697D01*
X007721Y010697D02*
X007201Y010697D01*
X007201Y011697D02*
X007721Y011697D01*
X007721Y012697D02*
X007201Y012697D01*
X007201Y013697D02*
X007721Y013697D01*
D16*
X004350Y013687D02*
X003570Y013686D01*
X003566Y015646D02*
X004346Y015647D01*
X004351Y018717D02*
X003571Y018717D01*
X003571Y020687D02*
X004351Y020687D01*
X004353Y011707D02*
X003573Y011706D01*
X003577Y009746D02*
X004356Y009747D01*
X019481Y004087D02*
X019481Y003307D01*
X021451Y003307D02*
X021451Y004087D01*
D17*
X014461Y009697D03*
D18*
X014461Y008697D03*
X014461Y007697D03*
X015461Y007697D03*
X015461Y008697D03*
X015461Y009697D03*
D19*
X015461Y016197D03*
X015461Y017197D03*
X014461Y017197D03*
X014461Y016197D03*
X013461Y016197D03*
X013461Y017197D03*
X012461Y017197D03*
X012461Y016197D03*
X011461Y016197D03*
X011461Y017197D03*
X010461Y017197D03*
X010461Y016197D03*
X009461Y016197D03*
X009461Y017197D03*
D20*
X008486Y004197D02*
X008486Y003197D01*
X010486Y003197D02*
X010486Y004197D01*
X014686Y004197D02*
X014686Y003197D01*
X016686Y003197D02*
X016686Y004197D01*
D21*
X015461Y011697D03*
X004961Y005697D03*
X003961Y023197D03*
X019336Y029447D03*
D22*
X021336Y029447D03*
X015461Y013697D03*
X003961Y025197D03*
X002961Y005697D03*
D23*
X008086Y020447D03*
X008086Y026697D03*
X023461Y026572D03*
X023461Y020447D03*
D24*
X014461Y025284D03*
X014461Y026109D03*
D25*
X018774Y014134D03*
X018774Y011384D03*
D26*
X001861Y002096D02*
X001861Y031041D01*
X006959Y031041D01*
X006936Y030986D01*
X006936Y030807D01*
X006936Y030786D01*
X006936Y030607D01*
X006936Y030586D01*
X006936Y030407D01*
X007005Y030242D01*
X007131Y030115D01*
X007297Y030047D01*
X007587Y030047D01*
X007676Y030046D01*
X007676Y030047D01*
X007717Y030063D01*
X007757Y030047D01*
X007855Y030047D01*
X007830Y030043D01*
X007746Y030015D01*
X007668Y029975D01*
X007597Y029924D01*
X007534Y029861D01*
X007482Y029790D01*
X007442Y029711D01*
X007415Y029628D01*
X007401Y029541D01*
X007401Y029197D01*
X007961Y029197D01*
X007961Y029196D01*
X007962Y029196D01*
X007962Y028337D01*
X008005Y028337D01*
X008093Y028350D01*
X008176Y028378D01*
X008255Y028418D01*
X008326Y028469D01*
X008365Y028508D01*
X008368Y028500D01*
X008565Y028303D01*
X008822Y028197D01*
X009101Y028197D01*
X009358Y028303D01*
X009461Y028407D01*
X009565Y028303D01*
X009822Y028197D01*
X010101Y028197D01*
X010358Y028303D01*
X010461Y028407D01*
X010486Y028382D01*
X010486Y020893D01*
X007692Y018099D01*
X007559Y017966D01*
X007486Y017791D01*
X007486Y015291D01*
X007486Y015102D01*
X007559Y014927D01*
X008486Y014000D01*
X008486Y013490D01*
X008053Y013273D01*
X008034Y013281D01*
X008060Y013300D01*
X008118Y013358D01*
X008166Y013424D01*
X008203Y013497D01*
X008229Y013575D01*
X008241Y013656D01*
X008241Y013696D01*
X007462Y013696D01*
X007462Y013697D01*
X008241Y013697D01*
X008241Y013737D01*
X008229Y013818D01*
X008203Y013896D01*
X008166Y013969D01*
X008118Y014035D01*
X008060Y014093D01*
X007994Y014141D01*
X007921Y014178D01*
X007843Y014204D01*
X007762Y014216D01*
X007462Y014216D01*
X007462Y013697D01*
X007461Y013697D01*
X007461Y014216D01*
X007160Y014216D01*
X007080Y014204D01*
X007002Y014178D01*
X006929Y014141D01*
X006863Y014093D01*
X006805Y014035D01*
X006757Y013969D01*
X006720Y013896D01*
X006694Y013818D01*
X006681Y013737D01*
X006681Y013697D01*
X007461Y013697D01*
X007461Y013696D01*
X006681Y013696D01*
X006681Y013656D01*
X006694Y013575D01*
X006720Y013497D01*
X006757Y013424D01*
X006805Y013358D01*
X006863Y013300D01*
X006888Y013281D01*
X006828Y013256D01*
X006642Y013070D01*
X006541Y012828D01*
X006541Y012565D01*
X006642Y012323D01*
X006768Y012196D01*
X006743Y012171D01*
X006436Y012171D01*
X006436Y014102D01*
X006436Y014291D01*
X006364Y014466D01*
X005136Y015694D01*
X005136Y015806D01*
X005015Y016096D01*
X004793Y016318D01*
X004502Y016437D01*
X003408Y016436D01*
X003118Y016315D01*
X002896Y016092D01*
X002776Y015802D01*
X002777Y015487D01*
X002897Y015197D01*
X003120Y014975D01*
X003410Y014856D01*
X004505Y014857D01*
X004592Y014894D01*
X005486Y014000D01*
X005486Y011602D01*
X005559Y011427D01*
X005692Y011294D01*
X005867Y011222D01*
X006056Y011222D01*
X006743Y011222D01*
X006768Y011196D01*
X006642Y011070D01*
X006541Y010828D01*
X006541Y010565D01*
X006642Y010323D01*
X006768Y010196D01*
X006642Y010070D01*
X006541Y009828D01*
X006541Y009565D01*
X006642Y009323D01*
X006768Y009196D01*
X006743Y009171D01*
X004898Y009171D01*
X005027Y009301D01*
X005147Y009591D01*
X005146Y009906D01*
X005025Y010196D01*
X004803Y010418D01*
X004512Y010537D01*
X003418Y010536D01*
X003128Y010415D01*
X002906Y010192D01*
X002786Y009902D01*
X002787Y009587D01*
X002908Y009297D01*
X003130Y009075D01*
X003421Y008956D01*
X003486Y008956D01*
X003486Y008602D01*
X003559Y008427D01*
X003692Y008294D01*
X003867Y008222D01*
X004056Y008222D01*
X006743Y008222D01*
X006828Y008137D01*
X006888Y008112D01*
X006863Y008093D01*
X006805Y008035D01*
X006757Y007969D01*
X006720Y007896D01*
X006694Y007818D01*
X006681Y007737D01*
X006681Y007697D01*
X007461Y007697D01*
X007461Y007696D01*
X006681Y007696D01*
X006681Y007656D01*
X006694Y007575D01*
X006720Y007497D01*
X006757Y007424D01*
X006805Y007358D01*
X006863Y007300D01*
X006888Y007281D01*
X006828Y007256D01*
X006642Y007070D01*
X006541Y006828D01*
X006541Y006565D01*
X006591Y006446D01*
X005484Y006446D01*
X005471Y006459D01*
X005140Y006596D01*
X004782Y006596D01*
X004452Y006459D01*
X004198Y006206D01*
X004061Y005876D01*
X004061Y005517D01*
X004198Y005187D01*
X004452Y004934D01*
X004782Y004797D01*
X005140Y004797D01*
X005471Y004934D01*
X005484Y004947D01*
X007611Y004947D01*
X007886Y005061D01*
X008097Y005272D01*
X008211Y005547D01*
X008211Y005846D01*
X008211Y006253D01*
X008281Y006323D01*
X008381Y006565D01*
X008381Y006828D01*
X008281Y007070D01*
X008095Y007256D01*
X008034Y007281D01*
X008060Y007300D01*
X008118Y007358D01*
X008166Y007424D01*
X008203Y007497D01*
X008229Y007575D01*
X008241Y007656D01*
X008241Y007696D01*
X007462Y007696D01*
X007462Y007697D01*
X008241Y007697D01*
X008241Y007737D01*
X008229Y007818D01*
X008203Y007896D01*
X008166Y007969D01*
X008118Y008035D01*
X008060Y008093D01*
X008034Y008112D01*
X008095Y008137D01*
X008281Y008323D01*
X008381Y008565D01*
X008381Y008828D01*
X008281Y009070D01*
X008155Y009196D01*
X008281Y009323D01*
X008381Y009565D01*
X008381Y009828D01*
X008281Y010070D01*
X008155Y010196D01*
X008281Y010323D01*
X008381Y010565D01*
X008381Y010828D01*
X008281Y011070D01*
X008155Y011196D01*
X008281Y011323D01*
X008381Y011565D01*
X008381Y011828D01*
X008281Y012070D01*
X008155Y012196D01*
X008281Y012323D01*
X008282Y012326D01*
X009159Y012764D01*
X009230Y012794D01*
X009243Y012806D01*
X009258Y012814D01*
X009309Y012873D01*
X009364Y012927D01*
X009371Y012944D01*
X009382Y012957D01*
X009407Y013030D01*
X009436Y013102D01*
X009436Y013119D01*
X009442Y013136D01*
X009436Y013214D01*
X009436Y014291D01*
X009364Y014466D01*
X009230Y014599D01*
X008436Y015393D01*
X008436Y017500D01*
X010986Y020050D01*
X010986Y019393D01*
X009692Y018099D01*
X009559Y017966D01*
X009522Y017876D01*
X009180Y017876D01*
X008781Y017478D01*
X008781Y016915D01*
X009000Y016696D01*
X008781Y016478D01*
X008781Y015915D01*
X009180Y015517D01*
X009743Y015517D01*
X010060Y015834D01*
X010238Y015657D01*
X010461Y015657D01*
X010461Y016196D01*
X010462Y016196D01*
X010462Y016197D01*
X010921Y016197D01*
X011461Y016197D01*
X011461Y016196D01*
X011462Y016196D01*
X011462Y015657D01*
X011486Y015657D01*
X011486Y015393D01*
X010692Y014599D01*
X010559Y014466D01*
X010486Y014291D01*
X010486Y007291D01*
X010486Y007102D01*
X010559Y006927D01*
X010692Y006794D01*
X010867Y006722D01*
X011349Y006722D01*
X011541Y006625D01*
X011541Y006565D01*
X011642Y006323D01*
X011828Y006137D01*
X012070Y006037D01*
X012853Y006037D01*
X013095Y006137D01*
X013281Y006323D01*
X013381Y006565D01*
X013381Y006828D01*
X013281Y007070D01*
X013155Y007196D01*
X013281Y007323D01*
X013381Y007565D01*
X013381Y007828D01*
X013281Y008070D01*
X013155Y008196D01*
X013281Y008323D01*
X013381Y008565D01*
X013381Y008828D01*
X013281Y009070D01*
X013155Y009196D01*
X013281Y009323D01*
X013381Y009565D01*
X013381Y009828D01*
X013281Y010070D01*
X013155Y010196D01*
X013281Y010323D01*
X013381Y010565D01*
X013381Y010828D01*
X013281Y011070D01*
X013155Y011196D01*
X013281Y011323D01*
X013381Y011565D01*
X013381Y011828D01*
X013281Y012070D01*
X013155Y012196D01*
X013281Y012323D01*
X013381Y012565D01*
X013381Y012828D01*
X013281Y013070D01*
X013155Y013196D01*
X013281Y013323D01*
X013381Y013565D01*
X013381Y013828D01*
X013281Y014070D01*
X013095Y014256D01*
X012853Y014356D01*
X012070Y014356D01*
X011828Y014256D01*
X011642Y014070D01*
X011541Y013828D01*
X011541Y013565D01*
X011642Y013323D01*
X011768Y013196D01*
X011642Y013070D01*
X011541Y012828D01*
X011541Y012565D01*
X011642Y012323D01*
X011768Y012196D01*
X011642Y012070D01*
X011541Y011828D01*
X011541Y011565D01*
X011642Y011323D01*
X011768Y011196D01*
X011642Y011070D01*
X011541Y010828D01*
X011541Y010565D01*
X011642Y010323D01*
X011768Y010196D01*
X011642Y010070D01*
X011541Y009828D01*
X011541Y009565D01*
X011642Y009323D01*
X011768Y009196D01*
X011642Y009070D01*
X011541Y008828D01*
X011541Y008565D01*
X011642Y008323D01*
X011768Y008196D01*
X011642Y008070D01*
X011541Y007828D01*
X011541Y007671D01*
X011478Y007671D01*
X011436Y007674D01*
X011436Y014000D01*
X012364Y014927D01*
X012436Y015102D01*
X012436Y015291D01*
X012436Y015657D01*
X012461Y015657D01*
X012461Y016196D01*
X012462Y016196D01*
X012462Y015657D01*
X012685Y015657D01*
X012818Y015790D01*
X012826Y015772D01*
X013037Y015561D01*
X013312Y015447D01*
X014312Y015447D01*
X015611Y015447D01*
X015886Y015561D01*
X016097Y015772D01*
X016211Y016047D01*
X016211Y016346D01*
X016097Y016621D01*
X015972Y016746D01*
X016141Y016915D01*
X016141Y017478D01*
X015743Y017876D01*
X015453Y017876D01*
X012936Y020393D01*
X012936Y023354D01*
X012952Y023369D01*
X013040Y023581D01*
X013040Y023812D01*
X012952Y024024D01*
X012789Y024187D01*
X012576Y024275D01*
X012436Y024275D01*
X012436Y024354D01*
X012452Y024369D01*
X012540Y024581D01*
X012540Y024722D01*
X013963Y024722D01*
X014067Y024679D01*
X014856Y024679D01*
X015003Y024740D01*
X015115Y024852D01*
X015176Y024999D01*
X015176Y025569D01*
X015124Y025697D01*
X015176Y025824D01*
X015176Y026394D01*
X015115Y026541D01*
X015003Y026654D01*
X014936Y026681D01*
X014936Y028382D01*
X014961Y028407D01*
X015065Y028303D01*
X015322Y028197D01*
X015601Y028197D01*
X015858Y028303D01*
X016055Y028500D01*
X016101Y028612D01*
X016125Y028555D01*
X016224Y028456D01*
X016243Y028437D01*
X016243Y028437D01*
X016318Y028362D01*
X016320Y028360D01*
X016447Y028308D01*
X016474Y028297D01*
X016474Y028296D01*
X016474Y028297D02*
X016474Y028297D01*
X016474Y028296D02*
X016557Y028297D01*
X016781Y028297D01*
X016948Y028297D01*
X017103Y028360D01*
X017179Y028437D01*
X017297Y028555D01*
X017361Y028710D01*
X017361Y028946D01*
X017361Y029030D01*
X017351Y029055D01*
X017348Y029062D01*
X017361Y029093D01*
X017361Y029260D01*
X017337Y029320D01*
X017345Y029361D01*
X017361Y029400D01*
X017361Y029442D01*
X017370Y029483D01*
X017361Y029525D01*
X017361Y029554D01*
X017361Y029866D01*
X017361Y029951D01*
X017351Y029976D01*
X017322Y030047D01*
X017351Y030047D01*
X017359Y030050D01*
X017366Y030047D01*
X017545Y030047D01*
X017681Y030103D01*
X017816Y030047D01*
X017995Y030047D01*
X018195Y030047D01*
X018361Y030115D01*
X018487Y030242D01*
X018512Y030301D01*
X018631Y030182D01*
X018698Y030115D01*
X018722Y030105D01*
X018573Y029956D01*
X018436Y029626D01*
X018436Y029267D01*
X018573Y028937D01*
X018827Y028684D01*
X019157Y028547D01*
X019515Y028547D01*
X019846Y028684D01*
X020099Y028937D01*
X020236Y029267D01*
X020236Y029626D01*
X020099Y029956D01*
X020009Y030047D01*
X020097Y030046D01*
X020097Y030047D02*
X020139Y030064D01*
X020171Y030077D01*
X020245Y030047D01*
X020424Y030047D01*
X020468Y030047D01*
X020557Y030046D01*
X020557Y030047D01*
X020598Y030063D01*
X020638Y030047D01*
X020817Y030047D01*
X020862Y030047D01*
X020576Y029761D01*
X020576Y029447D01*
X021336Y029447D01*
X021336Y029446D01*
X021337Y029446D01*
X021337Y029447D01*
X022096Y029447D01*
X022096Y029761D01*
X021811Y030047D01*
X022005Y030047D01*
X022112Y030091D01*
X022220Y030047D01*
X022399Y030047D01*
X022525Y030099D01*
X022498Y029999D01*
X022498Y029733D01*
X022567Y029476D01*
X022700Y029246D01*
X022888Y029057D01*
X023119Y028924D01*
X023376Y028856D01*
X023642Y028856D01*
X023899Y028924D01*
X024129Y029057D01*
X024317Y029246D01*
X024450Y029476D01*
X024519Y029733D01*
X024519Y029999D01*
X024450Y030256D01*
X024317Y030486D01*
X024129Y030674D01*
X023899Y030807D01*
X023642Y030876D01*
X023376Y030876D01*
X023119Y030807D01*
X022888Y030674D01*
X022826Y030612D01*
X022826Y030786D01*
X022759Y030947D01*
X022759Y030986D01*
X022736Y031041D01*
X024683Y031041D01*
X024683Y018172D01*
X024626Y018196D01*
X024447Y018196D01*
X024286Y018129D01*
X024047Y018129D01*
X023881Y018060D01*
X023755Y017934D01*
X023686Y017768D01*
X023686Y017589D01*
X023686Y017523D01*
X023755Y017357D01*
X023820Y017292D01*
X023820Y017062D01*
X023884Y016907D01*
X023820Y016751D01*
X023820Y016605D01*
X023814Y016603D01*
X023688Y016476D01*
X023619Y016311D01*
X023619Y016132D01*
X023688Y015966D01*
X023814Y015840D01*
X023820Y015837D01*
X023820Y015805D01*
X023820Y015604D01*
X023836Y015564D01*
X023820Y015523D01*
X023820Y015390D01*
X023819Y015390D01*
X023820Y015377D01*
X023814Y015375D01*
X023688Y015248D01*
X023619Y015083D01*
X023619Y014904D01*
X023688Y014739D01*
X023814Y014612D01*
X023820Y014610D01*
X023820Y014577D01*
X023820Y014556D01*
X023820Y014377D01*
X023823Y014370D01*
X023820Y014362D01*
X023820Y014183D01*
X023838Y014139D01*
X023820Y014096D01*
X023820Y013917D01*
X023836Y013876D01*
X023820Y013835D01*
X023820Y013656D01*
X023820Y013523D01*
X023834Y013487D01*
X023820Y013452D01*
X023820Y013206D01*
X023820Y013073D01*
X023836Y013032D01*
X023820Y012991D01*
X023820Y012812D01*
X023820Y012612D01*
X023823Y012605D01*
X023820Y012598D01*
X023820Y012398D01*
X023819Y012397D01*
X023820Y012309D01*
X023820Y012219D01*
X023820Y012218D01*
X023836Y012178D01*
X023820Y012137D01*
X023820Y011958D01*
X023838Y011914D01*
X023820Y011871D01*
X023820Y011691D01*
X023888Y011526D01*
X023950Y011464D01*
X023755Y011269D01*
X023686Y011103D01*
X023686Y010924D01*
X023703Y010884D01*
X023686Y010843D01*
X023686Y010710D01*
X023686Y010709D01*
X023686Y010619D01*
X023686Y010531D01*
X023686Y010531D01*
X023686Y010530D01*
X023699Y010500D01*
X023686Y010469D01*
X023686Y010290D01*
X023755Y010125D01*
X024015Y009865D01*
X024180Y009797D01*
X024359Y009797D01*
X024492Y009797D01*
X024658Y009865D01*
X024683Y009891D01*
X024683Y009521D01*
X024666Y009538D01*
X024501Y009607D01*
X024322Y009607D01*
X024311Y009602D01*
X024301Y009607D01*
X024122Y009607D01*
X023988Y009607D01*
X023823Y009538D01*
X023696Y009411D01*
X023630Y009345D01*
X023561Y009179D01*
X023561Y009000D01*
X023561Y008800D01*
X023564Y008793D01*
X023561Y008786D01*
X023561Y008519D01*
X023561Y008340D01*
X023578Y008299D01*
X023561Y008259D01*
X023561Y008080D01*
X023561Y007879D01*
X023578Y007839D01*
X023561Y007798D01*
X023561Y007619D01*
X023561Y007419D01*
X023578Y007379D01*
X023561Y007338D01*
X023561Y007204D01*
X023561Y007114D01*
X023561Y007025D01*
X023592Y006952D01*
X023561Y006878D01*
X023561Y006744D01*
X023561Y006654D01*
X023561Y006565D01*
X023594Y006487D01*
X023630Y006400D01*
X023630Y006400D01*
X023630Y006400D01*
X023695Y006334D01*
X023756Y006273D01*
X023756Y006273D01*
X023758Y006272D01*
X023768Y006261D01*
X023696Y006189D01*
X023630Y006122D01*
X023561Y005957D01*
X023561Y005778D01*
X023561Y005578D01*
X023578Y005537D01*
X023561Y005497D01*
X023561Y005363D01*
X023561Y005272D01*
X023561Y005184D01*
X023561Y005184D01*
X023561Y005184D01*
X023578Y005143D01*
X023561Y005103D01*
X023561Y004657D01*
X023630Y004492D01*
X023756Y004365D01*
X023922Y004297D01*
X024101Y004297D01*
X024266Y004365D01*
X024331Y004430D01*
X024501Y004430D01*
X024666Y004498D01*
X024683Y004516D01*
X024683Y002096D01*
X024262Y002096D01*
X024317Y002151D01*
X024450Y002381D01*
X024519Y002638D01*
X024519Y002904D01*
X024450Y003161D01*
X024317Y003392D01*
X024129Y003580D01*
X023899Y003713D01*
X023642Y003782D01*
X023376Y003782D01*
X023119Y003713D01*
X022888Y003580D01*
X022700Y003392D01*
X022567Y003161D01*
X022498Y002904D01*
X022498Y002638D01*
X022567Y002381D01*
X022700Y002151D01*
X022755Y002096D01*
X003790Y002096D01*
X003845Y002151D01*
X003978Y002381D01*
X004046Y002638D01*
X004046Y002904D01*
X003978Y003161D01*
X003845Y003392D01*
X003656Y003580D01*
X003426Y003713D01*
X003169Y003782D01*
X002903Y003782D01*
X002646Y003713D01*
X002416Y003580D01*
X002228Y003392D01*
X002095Y003161D01*
X002026Y002904D01*
X002026Y002638D01*
X002095Y002381D01*
X002228Y002151D01*
X002282Y002096D01*
X001861Y002096D01*
X001861Y002354D02*
X002111Y002354D01*
X002026Y002672D02*
X001861Y002672D01*
X001861Y002991D02*
X002049Y002991D01*
X002180Y003309D02*
X001861Y003309D01*
X001861Y003628D02*
X002499Y003628D01*
X001861Y003946D02*
X007586Y003946D01*
X007586Y003628D02*
X003573Y003628D01*
X003892Y003309D02*
X007586Y003309D01*
X007586Y003017D02*
X007723Y002687D01*
X007977Y002434D01*
X008307Y002297D01*
X008665Y002297D01*
X008996Y002434D01*
X009249Y002687D01*
X009386Y003017D01*
X009386Y004376D01*
X009249Y004706D01*
X008996Y004959D01*
X008665Y005096D01*
X008307Y005096D01*
X007977Y004959D01*
X007723Y004706D01*
X007586Y004376D01*
X007586Y003017D01*
X007598Y002991D02*
X004023Y002991D01*
X004046Y002672D02*
X007738Y002672D01*
X008170Y002354D02*
X003961Y002354D01*
X004528Y004902D02*
X001861Y004902D01*
X001861Y005220D02*
X002363Y005220D01*
X002201Y005382D02*
X002201Y005696D01*
X002961Y005696D01*
X002962Y005696D01*
X002962Y005697D01*
X003721Y005697D01*
X003721Y006011D01*
X003276Y006456D01*
X002962Y006456D01*
X002962Y005697D01*
X002961Y005697D01*
X002961Y006456D01*
X002647Y006456D01*
X002201Y006011D01*
X002201Y005697D01*
X002961Y005697D01*
X002961Y005696D01*
X002961Y004937D01*
X002647Y004937D01*
X002201Y005382D01*
X002201Y005539D02*
X001861Y005539D01*
X001861Y005857D02*
X002201Y005857D01*
X002366Y006176D02*
X001861Y006176D01*
X001861Y006495D02*
X004536Y006495D01*
X004186Y006176D02*
X003557Y006176D01*
X003721Y005857D02*
X004061Y005857D01*
X004061Y005539D02*
X003721Y005539D01*
X003721Y005696D02*
X002962Y005696D01*
X002962Y004937D01*
X003276Y004937D01*
X003721Y005382D01*
X003721Y005696D01*
X003560Y005220D02*
X004184Y005220D01*
X002962Y005220D02*
X002961Y005220D01*
X002961Y005539D02*
X002962Y005539D01*
X002961Y005857D02*
X002962Y005857D01*
X002961Y006176D02*
X002962Y006176D01*
X001861Y006813D02*
X006541Y006813D01*
X006571Y006495D02*
X005387Y006495D01*
X006703Y007132D02*
X001861Y007132D01*
X001861Y007450D02*
X006743Y007450D01*
X006686Y007769D02*
X001861Y007769D01*
X001861Y008087D02*
X006857Y008087D01*
X008066Y008087D02*
X010486Y008087D01*
X010486Y007769D02*
X008236Y007769D01*
X008179Y007450D02*
X010486Y007450D01*
X010486Y007132D02*
X008220Y007132D01*
X008381Y006813D02*
X010673Y006813D01*
X011571Y006495D02*
X008352Y006495D01*
X008211Y006176D02*
X011789Y006176D01*
X010996Y004959D02*
X010665Y005096D01*
X010307Y005096D01*
X009977Y004959D01*
X009723Y004706D01*
X009586Y004376D01*
X009586Y003017D01*
X009723Y002687D01*
X009977Y002434D01*
X010307Y002297D01*
X010665Y002297D01*
X010996Y002434D01*
X011249Y002687D01*
X011386Y003017D01*
X011386Y004376D01*
X011249Y004706D01*
X010996Y004959D01*
X011054Y004902D02*
X014119Y004902D01*
X014177Y004959D02*
X013923Y004706D01*
X013786Y004376D01*
X013786Y003017D01*
X013923Y002687D01*
X014177Y002434D01*
X014507Y002297D01*
X014865Y002297D01*
X015196Y002434D01*
X015449Y002687D01*
X015586Y003017D01*
X015586Y004376D01*
X015449Y004706D01*
X015196Y004959D01*
X014865Y005096D01*
X014507Y005096D01*
X014177Y004959D01*
X013872Y004583D02*
X011300Y004583D01*
X011386Y004265D02*
X013786Y004265D01*
X013786Y003946D02*
X011386Y003946D01*
X011386Y003628D02*
X013786Y003628D01*
X013786Y003309D02*
X011386Y003309D01*
X011375Y002991D02*
X013798Y002991D01*
X013938Y002672D02*
X011235Y002672D01*
X010803Y002354D02*
X014370Y002354D01*
X015003Y002354D02*
X016370Y002354D01*
X016507Y002297D02*
X016177Y002434D01*
X015923Y002687D01*
X015786Y003017D01*
X015786Y004376D01*
X015923Y004706D01*
X016177Y004959D01*
X016507Y005096D01*
X016865Y005096D01*
X017196Y004959D01*
X017449Y004706D01*
X017557Y004446D01*
X017711Y004446D01*
X017711Y010820D01*
X017624Y010908D01*
X017624Y011860D01*
X018298Y012534D01*
X019250Y012534D01*
X019711Y012073D01*
X019711Y013445D01*
X019250Y012984D01*
X018298Y012984D01*
X017624Y013658D01*
X017624Y014610D01*
X018298Y015284D01*
X019250Y015284D01*
X019688Y014846D01*
X020071Y014846D01*
X020312Y014946D01*
X020611Y014946D01*
X020886Y014832D01*
X021097Y014621D01*
X021211Y014346D01*
X021211Y007047D01*
X021097Y006772D01*
X020886Y006561D01*
X020611Y006447D01*
X020312Y006447D01*
X020211Y006447D01*
X020211Y004388D01*
X020271Y004244D01*
X020271Y003149D01*
X020151Y002859D01*
X019929Y002637D01*
X019639Y002517D01*
X019324Y002517D01*
X019034Y002637D01*
X018812Y002859D01*
X018751Y003005D01*
X018611Y002947D01*
X017557Y002947D01*
X017449Y002687D01*
X017196Y002434D01*
X016865Y002297D01*
X016507Y002297D01*
X017003Y002354D02*
X022583Y002354D01*
X022498Y002672D02*
X021595Y002672D01*
X021579Y002668D02*
X021661Y002690D01*
X021739Y002722D01*
X021813Y002765D01*
X021881Y002817D01*
X021941Y002877D01*
X021993Y002945D01*
X022036Y003018D01*
X022068Y003097D01*
X022090Y003179D01*
X022101Y003264D01*
X022101Y003696D01*
X021452Y003696D01*
X021452Y003697D01*
X022101Y003697D01*
X022101Y004129D01*
X022090Y004214D01*
X022068Y004296D01*
X022036Y004375D01*
X021993Y004448D01*
X021941Y004516D01*
X021881Y004576D01*
X021813Y004628D01*
X021739Y004671D01*
X021661Y004703D01*
X021579Y004725D01*
X021494Y004736D01*
X021452Y004736D01*
X021452Y003697D01*
X021451Y003697D01*
X021451Y004736D01*
X021409Y004736D01*
X021324Y004725D01*
X021242Y004703D01*
X021163Y004671D01*
X021089Y004628D01*
X021022Y004576D01*
X020962Y004516D01*
X020910Y004448D01*
X020867Y004375D01*
X020835Y004296D01*
X020813Y004214D01*
X020801Y004129D01*
X020801Y003697D01*
X021451Y003697D01*
X021451Y003696D01*
X021452Y003696D01*
X021452Y002657D01*
X021494Y002657D01*
X021579Y002668D01*
X021452Y002672D02*
X021451Y002672D01*
X021451Y002657D02*
X021451Y003696D01*
X020801Y003696D01*
X020801Y003264D01*
X020813Y003179D01*
X020835Y003097D01*
X020867Y003018D01*
X020910Y002945D01*
X020962Y002877D01*
X021022Y002817D01*
X021089Y002765D01*
X021163Y002722D01*
X021242Y002690D01*
X021324Y002668D01*
X021409Y002657D01*
X021451Y002657D01*
X021308Y002672D02*
X019964Y002672D01*
X020206Y002991D02*
X020883Y002991D01*
X020801Y003309D02*
X020271Y003309D01*
X020271Y003628D02*
X020801Y003628D01*
X020801Y003946D02*
X020271Y003946D01*
X020263Y004265D02*
X020826Y004265D01*
X021031Y004583D02*
X020211Y004583D01*
X020211Y004902D02*
X023561Y004902D01*
X023561Y005220D02*
X020211Y005220D01*
X020211Y005539D02*
X023577Y005539D01*
X023561Y005363D02*
X023561Y005363D01*
X023561Y005857D02*
X020211Y005857D01*
X020211Y006176D02*
X023683Y006176D01*
X023590Y006495D02*
X020727Y006495D01*
X021114Y006813D02*
X023561Y006813D01*
X023561Y006744D02*
X023561Y006744D01*
X023561Y006565D02*
X023561Y006565D01*
X023561Y006565D01*
X023561Y007025D02*
X023561Y007025D01*
X023561Y007025D01*
X023561Y007132D02*
X021211Y007132D01*
X021211Y007450D02*
X023561Y007450D01*
X023561Y007204D02*
X023561Y007204D01*
X023561Y007769D02*
X021211Y007769D01*
X021211Y008087D02*
X023561Y008087D01*
X023561Y008406D02*
X021211Y008406D01*
X021211Y008724D02*
X023561Y008724D01*
X023561Y009043D02*
X021211Y009043D01*
X021211Y009361D02*
X023646Y009361D01*
X023881Y009999D02*
X021211Y009999D01*
X021211Y010317D02*
X023686Y010317D01*
X023686Y010636D02*
X021211Y010636D01*
X021211Y010954D02*
X023686Y010954D01*
X023759Y011273D02*
X021211Y011273D01*
X021211Y011591D02*
X023861Y011591D01*
X023836Y011910D02*
X021211Y011910D01*
X021211Y012228D02*
X023820Y012228D01*
X023820Y012218D02*
X023820Y012218D01*
X023820Y012547D02*
X021211Y012547D01*
X021211Y012865D02*
X023820Y012865D01*
X023820Y013184D02*
X021211Y013184D01*
X021211Y013503D02*
X023828Y013503D01*
X023820Y013206D02*
X023820Y013206D01*
X023820Y013821D02*
X021211Y013821D01*
X021211Y014140D02*
X023838Y014140D01*
X023820Y014458D02*
X021165Y014458D01*
X020942Y014777D02*
X023672Y014777D01*
X023624Y015095D02*
X019439Y015095D01*
X018109Y015095D02*
X012434Y015095D01*
X012436Y015414D02*
X023820Y015414D01*
X023820Y015732D02*
X016058Y015732D01*
X016211Y016051D02*
X023653Y016051D01*
X023644Y016369D02*
X016202Y016369D01*
X016031Y016688D02*
X023820Y016688D01*
X023843Y017006D02*
X016141Y017006D01*
X016141Y017325D02*
X023787Y017325D01*
X023686Y017644D02*
X015976Y017644D01*
X015368Y017962D02*
X023783Y017962D01*
X024683Y018281D02*
X015049Y018281D01*
X014730Y018599D02*
X024683Y018599D01*
X024683Y018918D02*
X014412Y018918D01*
X014093Y019236D02*
X024683Y019236D01*
X024683Y019555D02*
X024019Y019555D01*
X023886Y019422D02*
X024486Y020022D01*
X024486Y020871D01*
X023886Y021471D01*
X023604Y021471D01*
X023722Y021590D01*
X023749Y021655D01*
X023814Y021682D01*
X023935Y021803D01*
X024001Y021961D01*
X024001Y022132D01*
X023935Y022290D01*
X023814Y022411D01*
X023749Y022438D01*
X023722Y022504D01*
X023601Y022625D01*
X023443Y022690D01*
X023272Y022690D01*
X023229Y022672D01*
X023170Y022732D01*
X023012Y022797D01*
X022841Y022797D01*
X022713Y022744D01*
X022703Y022748D01*
X022667Y022772D01*
X022625Y022780D01*
X022585Y022797D01*
X022542Y022797D01*
X022500Y022805D01*
X022457Y022797D01*
X022414Y022797D01*
X022391Y022788D01*
X022369Y022797D01*
X021984Y022797D01*
X021826Y022732D01*
X021705Y022611D01*
X021640Y022453D01*
X021640Y022281D01*
X021705Y022123D01*
X021746Y022082D01*
X021746Y022011D01*
X021705Y021970D01*
X021640Y021812D01*
X021640Y021641D01*
X021705Y021483D01*
X021826Y021362D01*
X021984Y021297D01*
X022091Y021297D01*
X022262Y021297D01*
X022369Y021297D01*
X022391Y021306D01*
X022414Y021297D01*
X022585Y021297D01*
X022713Y021350D01*
X022722Y021346D01*
X022758Y021322D01*
X022801Y021313D01*
X022841Y021297D01*
X022862Y021297D01*
X022436Y020871D01*
X022436Y020022D01*
X023037Y019422D01*
X023886Y019422D01*
X024338Y019873D02*
X024683Y019873D01*
X024683Y020192D02*
X024486Y020192D01*
X024486Y020510D02*
X024683Y020510D01*
X024683Y020829D02*
X024486Y020829D01*
X024683Y021148D02*
X024210Y021148D01*
X023891Y021466D02*
X024683Y021466D01*
X024683Y021785D02*
X023917Y021785D01*
X024001Y022103D02*
X024683Y022103D01*
X024683Y022422D02*
X023789Y022422D01*
X023149Y022740D02*
X024683Y022740D01*
X024683Y023059D02*
X012936Y023059D01*
X012936Y022740D02*
X019482Y022740D01*
X019461Y022732D02*
X019340Y022611D01*
X019127Y022397D01*
X019061Y022239D01*
X019061Y022068D01*
X019114Y021940D01*
X019061Y021812D01*
X019061Y021641D01*
X019127Y021483D01*
X019248Y021362D01*
X019406Y021297D01*
X020004Y021297D01*
X020027Y021306D01*
X020050Y021297D01*
X020221Y021297D01*
X020648Y021297D01*
X020778Y021350D01*
X020908Y021297D01*
X021079Y021297D01*
X021238Y021362D01*
X021451Y021576D01*
X021572Y021696D01*
X021637Y021854D01*
X021637Y022453D01*
X021572Y022611D01*
X021451Y022732D01*
X021293Y022797D01*
X021122Y022797D01*
X020994Y022744D01*
X020866Y022797D01*
X020695Y022797D01*
X020618Y022765D01*
X020597Y022774D01*
X020542Y022797D01*
X020328Y022797D01*
X020157Y022797D01*
X019999Y022732D01*
X019974Y022706D01*
X019948Y022732D01*
X019790Y022797D01*
X019619Y022797D01*
X019461Y022732D01*
X019152Y022422D02*
X012936Y022422D01*
X012936Y022103D02*
X019061Y022103D01*
X019061Y021785D02*
X012936Y021785D01*
X012936Y021466D02*
X019144Y021466D01*
X019927Y022740D02*
X020020Y022740D01*
X021430Y022740D02*
X021847Y022740D01*
X021640Y022422D02*
X021637Y022422D01*
X021637Y022103D02*
X021725Y022103D01*
X021640Y021785D02*
X021609Y021785D01*
X021722Y021466D02*
X021342Y021466D01*
X022436Y020829D02*
X012936Y020829D01*
X012936Y020510D02*
X022436Y020510D01*
X022436Y020192D02*
X013138Y020192D01*
X013456Y019873D02*
X022585Y019873D01*
X022904Y019555D02*
X013775Y019555D01*
X012936Y021148D02*
X022713Y021148D01*
X024683Y023377D02*
X012955Y023377D01*
X013040Y023696D02*
X024683Y023696D01*
X024683Y024014D02*
X012956Y024014D01*
X012436Y024333D02*
X024683Y024333D01*
X024683Y024652D02*
X012540Y024652D01*
X011556Y025671D02*
X011436Y025671D01*
X011436Y028382D01*
X011555Y028500D01*
X011661Y028757D01*
X011661Y029636D01*
X011555Y029893D01*
X011401Y030047D01*
X011456Y030047D01*
X011498Y030047D01*
X011589Y030046D01*
X011589Y030047D01*
X011627Y030062D01*
X011630Y030063D01*
X011670Y030047D01*
X011811Y030047D01*
X011811Y029917D01*
X011855Y029811D01*
X011856Y029809D01*
X011811Y029701D01*
X011811Y029547D01*
X011811Y029463D01*
X011811Y029380D01*
X011827Y029341D01*
X011840Y029310D01*
X011811Y029241D01*
X011811Y029087D01*
X011811Y029003D01*
X011811Y028920D01*
X011811Y028920D01*
X011811Y028920D01*
X011824Y028888D01*
X011811Y028857D01*
X011811Y028690D01*
X011840Y028620D01*
X011811Y028550D01*
X011811Y028383D01*
X011875Y028229D01*
X011993Y028110D01*
X012147Y028047D01*
X012454Y028047D01*
X012622Y028047D01*
X012776Y028110D01*
X012929Y028264D01*
X013047Y028382D01*
X013047Y028382D01*
X013047Y028382D01*
X013065Y028424D01*
X013087Y028479D01*
X013097Y028469D01*
X013168Y028418D01*
X013246Y028378D01*
X013330Y028350D01*
X013417Y028337D01*
X013461Y028337D01*
X013461Y029196D01*
X013462Y029196D01*
X013462Y028337D01*
X013505Y028337D01*
X013593Y028350D01*
X013676Y028378D01*
X013755Y028418D01*
X013826Y028469D01*
X013865Y028508D01*
X013868Y028500D01*
X013986Y028382D01*
X013986Y026681D01*
X013920Y026654D01*
X013807Y026541D01*
X013746Y026394D01*
X013746Y025824D01*
X013799Y025697D01*
X013789Y025671D01*
X011556Y025671D01*
X011436Y025926D02*
X013746Y025926D01*
X013746Y026244D02*
X011436Y026244D01*
X011436Y026563D02*
X013829Y026563D01*
X013986Y026881D02*
X011436Y026881D01*
X011436Y027200D02*
X013986Y027200D01*
X013986Y027518D02*
X011436Y027518D01*
X011436Y027837D02*
X013986Y027837D01*
X013986Y028156D02*
X012821Y028156D01*
X013086Y028474D02*
X013092Y028474D01*
X013461Y028474D02*
X013462Y028474D01*
X013461Y028793D02*
X013462Y028793D01*
X013461Y029111D02*
X013462Y029111D01*
X013461Y029197D02*
X013461Y030056D01*
X013417Y030056D01*
X013330Y030043D01*
X013246Y030015D01*
X013168Y029975D01*
X013111Y029934D01*
X013111Y030224D01*
X013111Y030391D01*
X013111Y030698D01*
X013047Y030853D01*
X012929Y030971D01*
X012775Y031035D01*
X012608Y031035D01*
X012538Y031006D01*
X012468Y031035D01*
X012457Y031035D01*
X012454Y031041D01*
X014027Y031041D01*
X014005Y031018D01*
X013936Y030853D01*
X013936Y030674D01*
X013936Y030407D01*
X014005Y030242D01*
X014130Y030117D01*
X014065Y030090D01*
X013868Y029893D01*
X013865Y029885D01*
X013826Y029924D01*
X013755Y029975D01*
X013676Y030015D01*
X013593Y030043D01*
X013505Y030056D01*
X013462Y030056D01*
X013462Y029197D01*
X013461Y029197D01*
X013461Y029430D02*
X013462Y029430D01*
X013461Y029748D02*
X013462Y029748D01*
X013111Y030067D02*
X014042Y030067D01*
X013945Y030385D02*
X013111Y030385D01*
X013109Y030704D02*
X013936Y030704D01*
X014009Y031022D02*
X012805Y031022D01*
X012578Y031022D02*
X012498Y031022D01*
X011811Y029917D02*
X011811Y029917D01*
X011831Y029748D02*
X011615Y029748D01*
X011811Y029547D02*
X011811Y029547D01*
X011811Y029430D02*
X011661Y029430D01*
X011811Y029380D02*
X011811Y029380D01*
X011811Y029380D01*
X011811Y029111D02*
X011661Y029111D01*
X011811Y029087D02*
X011811Y029087D01*
X011811Y028793D02*
X011661Y028793D01*
X011529Y028474D02*
X011811Y028474D01*
X011948Y028156D02*
X011436Y028156D01*
X010486Y028156D02*
X006361Y028156D01*
X006361Y028077D02*
X006361Y028316D01*
X006461Y028557D01*
X006461Y028836D01*
X006355Y029093D01*
X006251Y029197D01*
X006355Y029300D01*
X006461Y029557D01*
X006461Y029836D01*
X006355Y030093D01*
X006158Y030290D01*
X005901Y030396D01*
X005022Y030396D01*
X004765Y030290D01*
X004568Y030093D01*
X004461Y029836D01*
X004461Y029557D01*
X004506Y029450D01*
X004365Y029422D01*
X004347Y029411D01*
X004330Y029422D01*
X004164Y029455D01*
X004020Y029427D01*
X003971Y029447D01*
X003961Y029447D01*
X003978Y029476D01*
X004046Y029733D01*
X004046Y029999D01*
X003978Y030256D01*
X003845Y030486D01*
X003656Y030674D01*
X003426Y030807D01*
X003169Y030876D01*
X002903Y030876D01*
X002646Y030807D01*
X002416Y030674D01*
X002228Y030486D01*
X002095Y030256D01*
X002026Y029999D01*
X002026Y029733D01*
X002095Y029476D01*
X002228Y029246D01*
X002416Y029057D01*
X002646Y028924D01*
X002903Y028856D01*
X003169Y028856D01*
X003186Y028860D01*
X003186Y028740D01*
X003186Y028570D01*
X003186Y028387D01*
X003251Y028231D01*
X003286Y028196D01*
X003249Y028106D01*
X003249Y027937D01*
X003314Y027781D01*
X003432Y027662D01*
X003432Y027509D01*
X003350Y027509D01*
X003181Y027509D01*
X003025Y027445D01*
X002933Y027353D01*
X002814Y027233D01*
X002749Y027077D01*
X002749Y026710D01*
X002749Y026541D01*
X002814Y026385D01*
X002905Y026293D01*
X003025Y026174D01*
X003181Y026109D01*
X003364Y026109D01*
X003534Y026109D01*
X003588Y026131D01*
X003642Y026109D01*
X003811Y026109D01*
X003906Y026148D01*
X003927Y026134D01*
X003969Y026125D01*
X004009Y026109D01*
X004051Y026109D01*
X004093Y026101D01*
X004135Y026109D01*
X004178Y026109D01*
X004186Y026112D01*
X004194Y026109D01*
X004469Y026109D01*
X004638Y026109D01*
X004639Y026109D01*
X004766Y026162D01*
X004795Y026174D01*
X004851Y026230D01*
X004868Y026218D01*
X004946Y026178D01*
X005030Y026150D01*
X005117Y026137D01*
X005461Y026137D01*
X005461Y026696D01*
X005462Y026696D01*
X005462Y026697D01*
X006321Y026697D01*
X006321Y026741D01*
X006308Y026828D01*
X006280Y026911D01*
X006240Y026990D01*
X006189Y027061D01*
X006150Y027100D01*
X006158Y027103D01*
X006355Y027300D01*
X006461Y027557D01*
X006461Y027836D01*
X006361Y028077D01*
X006461Y027837D02*
X010486Y027837D01*
X010486Y027518D02*
X008516Y027518D01*
X008453Y027581D02*
X008087Y027581D01*
X008087Y026697D01*
X008971Y026697D01*
X008971Y027063D01*
X008453Y027581D01*
X008086Y027581D02*
X007720Y027581D01*
X007201Y027063D01*
X007201Y026697D01*
X008086Y026697D01*
X008086Y027581D01*
X008086Y027518D02*
X008087Y027518D01*
X008086Y027200D02*
X008087Y027200D01*
X008086Y026881D02*
X008087Y026881D01*
X008087Y026697D02*
X008086Y026697D01*
X008086Y026696D01*
X008087Y026696D01*
X008087Y026697D01*
X008087Y026696D02*
X008971Y026696D01*
X008971Y026330D01*
X008453Y025812D01*
X008087Y025812D01*
X008087Y026696D01*
X008086Y026696D02*
X008086Y025812D01*
X007720Y025812D01*
X007201Y026330D01*
X007201Y026696D01*
X008086Y026696D01*
X008086Y026563D02*
X008087Y026563D01*
X008086Y026244D02*
X008087Y026244D01*
X008086Y025926D02*
X008087Y025926D01*
X008567Y025926D02*
X010486Y025926D01*
X010486Y026244D02*
X008886Y026244D01*
X008971Y026563D02*
X010486Y026563D01*
X010486Y026881D02*
X008971Y026881D01*
X008835Y027200D02*
X010486Y027200D01*
X010486Y025607D02*
X004626Y025607D01*
X004721Y025511D02*
X004276Y025956D01*
X003962Y025956D01*
X003962Y025197D01*
X004721Y025197D01*
X004721Y025511D01*
X004721Y025289D02*
X010486Y025289D01*
X010486Y024970D02*
X004721Y024970D01*
X004721Y024882D02*
X004721Y025196D01*
X003962Y025196D01*
X003962Y025197D01*
X003961Y025197D01*
X003961Y025956D01*
X003647Y025956D01*
X003201Y025511D01*
X003201Y025197D01*
X003961Y025197D01*
X003961Y025196D01*
X003962Y025196D01*
X003962Y024437D01*
X004276Y024437D01*
X004721Y024882D01*
X004491Y024652D02*
X010486Y024652D01*
X010486Y024333D02*
X001861Y024333D01*
X001861Y024014D02*
X003584Y024014D01*
X003452Y023959D02*
X003782Y024096D01*
X004140Y024096D01*
X004471Y023959D01*
X004724Y023706D01*
X004861Y023376D01*
X004861Y023017D01*
X004724Y022687D01*
X004711Y022674D01*
X004711Y021392D01*
X004799Y021356D01*
X005021Y021134D01*
X005141Y020844D01*
X005141Y020529D01*
X005021Y020239D01*
X004799Y020017D01*
X004509Y019897D01*
X003414Y019897D01*
X003124Y020017D01*
X002902Y020239D01*
X002781Y020529D01*
X002781Y020844D01*
X002902Y021134D01*
X003124Y021356D01*
X003211Y021392D01*
X003211Y022674D01*
X003198Y022687D01*
X003061Y023017D01*
X003061Y023376D01*
X003198Y023706D01*
X003452Y023959D01*
X003194Y023696D02*
X001861Y023696D01*
X001861Y023377D02*
X003062Y023377D01*
X003061Y023059D02*
X001861Y023059D01*
X001861Y022740D02*
X003176Y022740D01*
X003211Y022422D02*
X001861Y022422D01*
X001861Y022103D02*
X003211Y022103D01*
X003211Y021785D02*
X001861Y021785D01*
X001861Y021466D02*
X003211Y021466D01*
X002915Y021148D02*
X001861Y021148D01*
X001861Y020829D02*
X002781Y020829D01*
X002789Y020510D02*
X001861Y020510D01*
X001861Y020192D02*
X002949Y020192D01*
X003283Y019301D02*
X003209Y019258D01*
X003142Y019206D01*
X003082Y019146D01*
X003030Y019078D01*
X002987Y019005D01*
X002955Y018926D01*
X002933Y018844D01*
X002921Y018759D01*
X002921Y018717D01*
X003961Y018717D01*
X003961Y019366D01*
X003529Y019366D01*
X003444Y019355D01*
X003362Y019333D01*
X003283Y019301D01*
X003181Y019236D02*
X001861Y019236D01*
X001861Y018918D02*
X002952Y018918D01*
X002921Y018716D02*
X002921Y018674D01*
X002933Y018589D01*
X002955Y018507D01*
X002987Y018428D01*
X003030Y018355D01*
X003082Y018287D01*
X003142Y018227D01*
X003209Y018175D01*
X003283Y018132D01*
X003362Y018100D01*
X003444Y018078D01*
X003529Y018067D01*
X003961Y018067D01*
X003961Y018716D01*
X003962Y018716D01*
X003962Y018717D01*
X005001Y018717D01*
X005001Y018759D01*
X004990Y018844D01*
X004968Y018926D01*
X004936Y019005D01*
X004893Y019078D01*
X004841Y019146D01*
X004781Y019206D01*
X004713Y019258D01*
X004639Y019301D01*
X004561Y019333D01*
X004479Y019355D01*
X004394Y019366D01*
X003962Y019366D01*
X003962Y018717D01*
X003961Y018717D01*
X003961Y018716D01*
X002921Y018716D01*
X002931Y018599D02*
X001861Y018599D01*
X001861Y018281D02*
X003088Y018281D01*
X003961Y018281D02*
X003962Y018281D01*
X003962Y018067D02*
X004394Y018067D01*
X004479Y018078D01*
X004561Y018100D01*
X004639Y018132D01*
X004713Y018175D01*
X004781Y018227D01*
X004841Y018287D01*
X004893Y018355D01*
X004936Y018428D01*
X004968Y018507D01*
X004990Y018589D01*
X005001Y018674D01*
X005001Y018716D01*
X003962Y018716D01*
X003962Y018067D01*
X003961Y018599D02*
X003962Y018599D01*
X003961Y018918D02*
X003962Y018918D01*
X003961Y019236D02*
X003962Y019236D01*
X004742Y019236D02*
X008829Y019236D01*
X008644Y019555D02*
X009148Y019555D01*
X008963Y019873D02*
X009467Y019873D01*
X009111Y020022D02*
X008511Y019422D01*
X007662Y019422D01*
X007061Y020022D01*
X007061Y020871D01*
X007662Y021471D01*
X008511Y021471D01*
X009111Y020871D01*
X009111Y020022D01*
X009111Y020192D02*
X009785Y020192D01*
X010104Y020510D02*
X009111Y020510D01*
X009111Y020829D02*
X010422Y020829D01*
X010486Y021148D02*
X008835Y021148D01*
X008516Y021466D02*
X010486Y021466D01*
X010486Y021785D02*
X004711Y021785D01*
X004711Y022103D02*
X005606Y022103D01*
X005625Y022055D02*
X005820Y021860D01*
X005975Y021797D01*
X006142Y021797D01*
X006212Y021797D01*
X006295Y021796D01*
X006295Y021797D01*
X006323Y021808D01*
X006403Y021841D01*
X006512Y021797D01*
X006679Y021797D01*
X006768Y021833D01*
X006833Y021860D01*
X007017Y022045D01*
X007083Y021979D01*
X007201Y021860D01*
X007356Y021797D01*
X007592Y021797D01*
X007676Y021796D01*
X007676Y021797D01*
X007676Y021797D01*
X007701Y021807D01*
X007746Y021826D01*
X007816Y021797D01*
X008052Y021797D01*
X008136Y021796D01*
X008136Y021797D01*
X008137Y021797D01*
X008162Y021807D01*
X008245Y021841D01*
X008353Y021797D01*
X008520Y021797D01*
X008674Y021860D01*
X008724Y021910D01*
X008813Y021873D01*
X008981Y021873D01*
X009135Y021937D01*
X009253Y022055D01*
X009263Y022080D01*
X009288Y022091D01*
X009406Y022209D01*
X009470Y022363D01*
X009470Y022530D01*
X009406Y022685D01*
X009288Y022803D01*
X009263Y022813D01*
X009253Y022838D01*
X009135Y022956D01*
X008981Y023020D01*
X008841Y023020D01*
X008828Y023033D01*
X008674Y023097D01*
X008200Y023097D01*
X008046Y023097D01*
X007976Y023068D01*
X007906Y023097D01*
X007739Y023097D01*
X007708Y023084D01*
X007676Y023097D01*
X007523Y023097D01*
X007523Y023097D01*
X007438Y023097D01*
X007356Y023097D01*
X007356Y023097D01*
X007355Y023097D02*
X007316Y023081D01*
X007201Y023033D01*
X007102Y022934D01*
X007094Y022926D01*
X006987Y023033D01*
X006832Y023097D01*
X006665Y023097D01*
X006595Y023068D01*
X006525Y023097D01*
X006372Y023097D01*
X006065Y023097D01*
X005898Y023097D01*
X005744Y023033D01*
X005625Y022915D01*
X005561Y022760D01*
X005561Y022515D01*
X005557Y022500D01*
X005561Y022432D01*
X005561Y022363D01*
X005561Y022210D01*
X005625Y022055D01*
X005561Y022422D02*
X004711Y022422D01*
X004747Y022740D02*
X005561Y022740D01*
X005806Y023059D02*
X004861Y023059D01*
X004861Y023377D02*
X010486Y023377D01*
X010486Y023059D02*
X008765Y023059D01*
X009351Y022740D02*
X010486Y022740D01*
X010486Y022422D02*
X009470Y022422D01*
X009301Y022103D02*
X010486Y022103D01*
X010486Y023696D02*
X004729Y023696D01*
X004339Y024014D02*
X010486Y024014D01*
X007606Y025926D02*
X004307Y025926D01*
X003962Y025926D02*
X003961Y025926D01*
X003961Y025607D02*
X003962Y025607D01*
X003961Y025289D02*
X003962Y025289D01*
X003961Y025196D02*
X003201Y025196D01*
X003201Y024882D01*
X003647Y024437D01*
X003961Y024437D01*
X003961Y025196D01*
X003961Y024970D02*
X003962Y024970D01*
X003961Y024652D02*
X003962Y024652D01*
X003432Y024652D02*
X001861Y024652D01*
X001861Y024970D02*
X003201Y024970D01*
X003201Y025289D02*
X001861Y025289D01*
X001861Y025607D02*
X003297Y025607D01*
X003616Y025926D02*
X001861Y025926D01*
X001861Y026244D02*
X002954Y026244D01*
X002749Y026563D02*
X001861Y026563D01*
X001861Y026881D02*
X002749Y026881D01*
X002800Y027200D02*
X001861Y027200D01*
X001861Y027518D02*
X003432Y027518D01*
X003291Y027837D02*
X001861Y027837D01*
X001861Y028156D02*
X003269Y028156D01*
X003186Y028474D02*
X001861Y028474D01*
X001861Y028793D02*
X003186Y028793D01*
X002362Y029111D02*
X001861Y029111D01*
X001861Y029430D02*
X002121Y029430D01*
X002026Y029748D02*
X001861Y029748D01*
X001861Y030067D02*
X002044Y030067D01*
X002170Y030385D02*
X001861Y030385D01*
X001861Y030704D02*
X002467Y030704D01*
X001861Y031022D02*
X006951Y031022D01*
X006936Y030704D02*
X003605Y030704D01*
X003903Y030385D02*
X004995Y030385D01*
X004557Y030067D02*
X004028Y030067D01*
X004046Y029748D02*
X004461Y029748D01*
X004403Y029430D02*
X004292Y029430D01*
X004035Y029430D02*
X004013Y029430D01*
X003971Y029447D02*
X003971Y029447D01*
X005928Y030385D02*
X006945Y030385D01*
X007248Y030067D02*
X006366Y030067D01*
X006461Y029748D02*
X007461Y029748D01*
X007401Y029430D02*
X006409Y029430D01*
X006337Y029111D02*
X007401Y029111D01*
X007401Y029196D02*
X007401Y028852D01*
X007415Y028765D01*
X007442Y028682D01*
X007482Y028603D01*
X007534Y028532D01*
X007597Y028469D01*
X007668Y028418D01*
X007746Y028378D01*
X007830Y028350D01*
X007917Y028337D01*
X007961Y028337D01*
X007961Y029196D01*
X007401Y029196D01*
X007411Y028793D02*
X006461Y028793D01*
X006427Y028474D02*
X007592Y028474D01*
X007961Y028474D02*
X007962Y028474D01*
X007961Y028793D02*
X007962Y028793D01*
X007961Y029111D02*
X007962Y029111D01*
X008331Y028474D02*
X008394Y028474D01*
X007657Y027518D02*
X006445Y027518D01*
X006255Y027200D02*
X007338Y027200D01*
X007201Y026881D02*
X006290Y026881D01*
X006321Y026696D02*
X005462Y026696D01*
X005462Y026137D01*
X005805Y026137D01*
X005893Y026150D01*
X005976Y026178D01*
X006055Y026218D01*
X006126Y026269D01*
X006189Y026332D01*
X006240Y026403D01*
X006280Y026482D01*
X006308Y026565D01*
X006321Y026652D01*
X006321Y026696D01*
X006307Y026563D02*
X007201Y026563D01*
X007287Y026244D02*
X006092Y026244D01*
X005462Y026244D02*
X005461Y026244D01*
X005461Y026563D02*
X005462Y026563D01*
X004795Y026174D02*
X004795Y026174D01*
X004795Y026174D01*
X003534Y026109D02*
X003534Y026109D01*
X006924Y023059D02*
X007264Y023059D01*
X007201Y023033D02*
X007201Y023033D01*
X007201Y023033D01*
X007355Y023097D02*
X007356Y023097D01*
X006679Y021797D02*
X006679Y021797D01*
X006295Y021797D02*
X006295Y021797D01*
X007061Y020829D02*
X005141Y020829D01*
X005134Y020510D02*
X007061Y020510D01*
X007061Y020192D02*
X004974Y020192D01*
X005008Y021148D02*
X007338Y021148D01*
X007656Y021466D02*
X004711Y021466D01*
X004970Y018918D02*
X008511Y018918D01*
X008192Y018599D02*
X004992Y018599D01*
X004835Y018281D02*
X007874Y018281D01*
X007557Y017962D02*
X001861Y017962D01*
X001861Y017644D02*
X007486Y017644D01*
X007486Y017325D02*
X001861Y017325D01*
X001861Y017006D02*
X007486Y017006D01*
X007486Y016688D02*
X001861Y016688D01*
X001861Y016369D02*
X003249Y016369D01*
X002879Y016051D02*
X001861Y016051D01*
X001861Y015732D02*
X002776Y015732D01*
X002807Y015414D02*
X001861Y015414D01*
X001861Y015095D02*
X003000Y015095D01*
X003369Y014458D02*
X001861Y014458D01*
X001861Y014140D02*
X002907Y014140D01*
X002899Y014132D02*
X002779Y013842D01*
X002780Y013527D01*
X002901Y013237D01*
X003123Y013015D01*
X003414Y012896D01*
X004508Y012897D01*
X004798Y013018D01*
X005020Y013241D01*
X005140Y013531D01*
X005139Y013846D01*
X005019Y014136D01*
X004796Y014358D01*
X004505Y014477D01*
X003411Y014476D01*
X003121Y014355D01*
X002899Y014132D01*
X002779Y013821D02*
X001861Y013821D01*
X001861Y013503D02*
X002790Y013503D01*
X002954Y013184D02*
X001861Y013184D01*
X001861Y012865D02*
X005486Y012865D01*
X005486Y012547D02*
X001861Y012547D01*
X001861Y012228D02*
X002979Y012228D01*
X002903Y012152D02*
X002783Y011862D01*
X002783Y011547D01*
X002904Y011257D01*
X003127Y011035D01*
X003417Y010916D01*
X004512Y010917D01*
X004802Y011038D01*
X005024Y011261D01*
X005143Y011551D01*
X005143Y011866D01*
X005022Y012156D01*
X004799Y012378D01*
X004509Y012497D01*
X003415Y012496D01*
X003124Y012375D01*
X002903Y012152D01*
X002803Y011910D02*
X001861Y011910D01*
X001861Y011591D02*
X002783Y011591D01*
X002898Y011273D02*
X001861Y011273D01*
X001861Y010954D02*
X003324Y010954D01*
X003031Y010317D02*
X001861Y010317D01*
X001861Y009999D02*
X002826Y009999D01*
X002787Y009680D02*
X001861Y009680D01*
X001861Y009361D02*
X002881Y009361D01*
X003209Y009043D02*
X001861Y009043D01*
X001861Y008724D02*
X003486Y008724D01*
X003580Y008406D02*
X001861Y008406D01*
X001861Y010636D02*
X006541Y010636D01*
X006594Y010954D02*
X004600Y010954D01*
X005028Y011273D02*
X005743Y011273D01*
X005491Y011591D02*
X005143Y011591D01*
X005124Y011910D02*
X005486Y011910D01*
X005486Y012228D02*
X004949Y012228D01*
X004963Y013184D02*
X005486Y013184D01*
X005486Y013503D02*
X005128Y013503D01*
X005139Y013821D02*
X005486Y013821D01*
X005347Y014140D02*
X005015Y014140D01*
X005028Y014458D02*
X004552Y014458D01*
X004709Y014777D02*
X001861Y014777D01*
X004667Y016369D02*
X007486Y016369D01*
X007486Y016051D02*
X005034Y016051D01*
X005136Y015732D02*
X007486Y015732D01*
X007486Y015414D02*
X005416Y015414D01*
X005734Y015095D02*
X007489Y015095D01*
X007709Y014777D02*
X006053Y014777D01*
X006367Y014458D02*
X008028Y014458D01*
X007996Y014140D02*
X008347Y014140D01*
X008228Y013821D02*
X008486Y013821D01*
X008486Y013503D02*
X008205Y013503D01*
X007462Y013821D02*
X007461Y013821D01*
X007461Y014140D02*
X007462Y014140D01*
X006927Y014140D02*
X006436Y014140D01*
X006436Y013821D02*
X006695Y013821D01*
X006718Y013503D02*
X006436Y013503D01*
X006436Y013184D02*
X006756Y013184D01*
X006557Y012865D02*
X006436Y012865D01*
X006436Y012547D02*
X006549Y012547D01*
X006436Y012228D02*
X006736Y012228D01*
X008187Y012228D02*
X010486Y012228D01*
X010486Y011910D02*
X008347Y011910D01*
X008381Y011591D02*
X010486Y011591D01*
X010486Y011273D02*
X008231Y011273D01*
X008329Y010954D02*
X010486Y010954D01*
X010486Y010636D02*
X008381Y010636D01*
X008275Y010317D02*
X010486Y010317D01*
X010486Y009999D02*
X008311Y009999D01*
X008381Y009680D02*
X010486Y009680D01*
X010486Y009361D02*
X008297Y009361D01*
X008292Y009043D02*
X010486Y009043D01*
X010486Y008724D02*
X008381Y008724D01*
X008315Y008406D02*
X010486Y008406D01*
X011436Y008406D02*
X011607Y008406D01*
X011659Y008087D02*
X011436Y008087D01*
X011436Y007769D02*
X011541Y007769D01*
X011541Y008724D02*
X011436Y008724D01*
X011436Y009043D02*
X011631Y009043D01*
X011626Y009361D02*
X011436Y009361D01*
X011436Y009680D02*
X011541Y009680D01*
X011612Y009999D02*
X011436Y009999D01*
X011436Y010317D02*
X011647Y010317D01*
X011541Y010636D02*
X011436Y010636D01*
X011436Y010954D02*
X011594Y010954D01*
X011692Y011273D02*
X011436Y011273D01*
X011436Y011591D02*
X011541Y011591D01*
X011575Y011910D02*
X011436Y011910D01*
X011436Y012228D02*
X011736Y012228D01*
X011549Y012547D02*
X011436Y012547D01*
X011436Y012865D02*
X011557Y012865D01*
X011436Y013184D02*
X011756Y013184D01*
X011567Y013503D02*
X011436Y013503D01*
X011436Y013821D02*
X011541Y013821D01*
X011576Y014140D02*
X011711Y014140D01*
X011895Y014458D02*
X017624Y014458D01*
X017624Y014140D02*
X016093Y014140D01*
X016221Y014011D02*
X015776Y014456D01*
X015462Y014456D01*
X015462Y013697D01*
X016221Y013697D01*
X016221Y014011D01*
X016221Y013821D02*
X017624Y013821D01*
X017779Y013503D02*
X016221Y013503D01*
X016221Y013382D02*
X016221Y013696D01*
X015462Y013696D01*
X015462Y013697D01*
X015461Y013697D01*
X015461Y014456D01*
X015147Y014456D01*
X014701Y014011D01*
X014701Y013697D01*
X015461Y013697D01*
X015461Y013696D01*
X015462Y013696D01*
X015462Y012937D01*
X015776Y012937D01*
X016221Y013382D01*
X016024Y013184D02*
X018098Y013184D01*
X017992Y012228D02*
X016202Y012228D01*
X016224Y012206D02*
X015971Y012459D01*
X015640Y012596D01*
X015282Y012596D01*
X014952Y012459D01*
X014698Y012206D01*
X014561Y011876D01*
X014561Y011517D01*
X014698Y011187D01*
X014952Y010934D01*
X015282Y010797D01*
X015640Y010797D01*
X015971Y010934D01*
X016224Y011187D01*
X016361Y011517D01*
X016361Y011876D01*
X016224Y012206D01*
X016347Y011910D02*
X017673Y011910D01*
X017624Y011591D02*
X016361Y011591D01*
X016260Y011273D02*
X017624Y011273D01*
X017624Y010954D02*
X015992Y010954D01*
X015751Y010396D02*
X015171Y010396D01*
X014961Y010186D01*
X014858Y010290D01*
X014601Y010396D01*
X014322Y010396D01*
X014065Y010290D01*
X013868Y010093D01*
X013761Y009836D01*
X013761Y009557D01*
X013868Y009300D01*
X013971Y009196D01*
X013761Y008986D01*
X013761Y008407D01*
X013971Y008197D01*
X013761Y007986D01*
X013761Y007407D01*
X014171Y006997D01*
X014751Y006997D01*
X014961Y007207D01*
X015171Y006997D01*
X015751Y006997D01*
X016161Y007407D01*
X016161Y007986D01*
X015951Y008197D01*
X016161Y008407D01*
X016161Y008986D01*
X015951Y009196D01*
X016161Y009407D01*
X016161Y009986D01*
X015751Y010396D01*
X015831Y010317D02*
X017711Y010317D01*
X017711Y009999D02*
X016149Y009999D01*
X016161Y009680D02*
X017711Y009680D01*
X017711Y009361D02*
X016116Y009361D01*
X016105Y009043D02*
X017711Y009043D01*
X017711Y008724D02*
X016161Y008724D01*
X016161Y008406D02*
X017711Y008406D01*
X017711Y008087D02*
X016061Y008087D01*
X016161Y007769D02*
X017711Y007769D01*
X017711Y007450D02*
X016161Y007450D01*
X015886Y007132D02*
X017711Y007132D01*
X017711Y006813D02*
X013381Y006813D01*
X013352Y006495D02*
X017711Y006495D01*
X017711Y006176D02*
X013134Y006176D01*
X013220Y007132D02*
X014036Y007132D01*
X013761Y007450D02*
X013334Y007450D01*
X013381Y007769D02*
X013761Y007769D01*
X013862Y008087D02*
X013264Y008087D01*
X013315Y008406D02*
X013762Y008406D01*
X013761Y008724D02*
X013381Y008724D01*
X013292Y009043D02*
X013818Y009043D01*
X013843Y009361D02*
X013297Y009361D01*
X013381Y009680D02*
X013761Y009680D01*
X013829Y009999D02*
X013311Y009999D01*
X013275Y010317D02*
X014130Y010317D01*
X014792Y010317D02*
X015092Y010317D01*
X014931Y010954D02*
X013329Y010954D01*
X013381Y010636D02*
X017711Y010636D01*
X019556Y012228D02*
X019711Y012228D01*
X019711Y012547D02*
X015760Y012547D01*
X015461Y012937D02*
X015461Y013696D01*
X014701Y013696D01*
X014701Y013382D01*
X015147Y012937D01*
X015461Y012937D01*
X015461Y013184D02*
X015462Y013184D01*
X015461Y013503D02*
X015462Y013503D01*
X015461Y013821D02*
X015462Y013821D01*
X015461Y014140D02*
X015462Y014140D01*
X014830Y014140D02*
X013212Y014140D01*
X013381Y013821D02*
X014701Y013821D01*
X014701Y013503D02*
X013355Y013503D01*
X013167Y013184D02*
X014899Y013184D01*
X015163Y012547D02*
X013374Y012547D01*
X013366Y012865D02*
X019711Y012865D01*
X019711Y013184D02*
X019450Y013184D01*
X017790Y014777D02*
X012213Y014777D01*
X011486Y015414D02*
X008436Y015414D01*
X008436Y015732D02*
X008964Y015732D01*
X008781Y016051D02*
X008436Y016051D01*
X008436Y016369D02*
X008781Y016369D01*
X008991Y016688D02*
X008436Y016688D01*
X008436Y017006D02*
X008781Y017006D01*
X008781Y017325D02*
X008436Y017325D01*
X008580Y017644D02*
X008947Y017644D01*
X008899Y017962D02*
X009557Y017962D01*
X009874Y018281D02*
X009217Y018281D01*
X009536Y018599D02*
X010192Y018599D01*
X010511Y018918D02*
X009854Y018918D01*
X010173Y019236D02*
X010829Y019236D01*
X010986Y019555D02*
X010491Y019555D01*
X010810Y019873D02*
X010986Y019873D01*
X010921Y016196D02*
X010462Y016196D01*
X010462Y015657D01*
X010685Y015657D01*
X010961Y015933D01*
X011238Y015657D01*
X011461Y015657D01*
X011461Y016196D01*
X010921Y016196D01*
X010761Y015732D02*
X011162Y015732D01*
X011461Y015732D02*
X011462Y015732D01*
X011461Y016051D02*
X011462Y016051D01*
X011188Y015095D02*
X008734Y015095D01*
X009053Y014777D02*
X010870Y014777D01*
X010556Y014458D02*
X009367Y014458D01*
X009436Y014140D02*
X010486Y014140D01*
X010486Y013821D02*
X009436Y013821D01*
X009436Y013503D02*
X010486Y013503D01*
X010486Y013184D02*
X009439Y013184D01*
X009303Y012865D02*
X010486Y012865D01*
X010486Y012547D02*
X008724Y012547D01*
X006647Y010317D02*
X004904Y010317D01*
X005108Y009999D02*
X006612Y009999D01*
X006541Y009680D02*
X005147Y009680D01*
X005052Y009361D02*
X006626Y009361D01*
X008211Y005857D02*
X017711Y005857D01*
X017711Y005539D02*
X008208Y005539D01*
X008046Y005220D02*
X017711Y005220D01*
X017711Y004902D02*
X017254Y004902D01*
X017500Y004583D02*
X017711Y004583D01*
X018717Y002991D02*
X018757Y002991D01*
X018999Y002672D02*
X017435Y002672D01*
X015938Y002672D02*
X015435Y002672D01*
X015575Y002991D02*
X015798Y002991D01*
X015786Y003309D02*
X015586Y003309D01*
X015586Y003628D02*
X015786Y003628D01*
X015786Y003946D02*
X015586Y003946D01*
X015586Y004265D02*
X015786Y004265D01*
X015872Y004583D02*
X015500Y004583D01*
X015254Y004902D02*
X016119Y004902D01*
X015036Y007132D02*
X014886Y007132D01*
X014663Y011273D02*
X013231Y011273D01*
X013381Y011591D02*
X014561Y011591D01*
X014576Y011910D02*
X013347Y011910D01*
X013187Y012228D02*
X014720Y012228D01*
X012865Y015732D02*
X012761Y015732D01*
X012462Y015732D02*
X012461Y015732D01*
X012461Y016051D02*
X012462Y016051D01*
X010462Y016051D02*
X010461Y016051D01*
X010461Y015732D02*
X010462Y015732D01*
X010162Y015732D02*
X009959Y015732D01*
X007529Y019555D02*
X001861Y019555D01*
X001861Y019873D02*
X007210Y019873D01*
X013831Y028474D02*
X013894Y028474D01*
X014936Y028156D02*
X024683Y028156D01*
X024683Y028474D02*
X017216Y028474D01*
X017361Y028793D02*
X018718Y028793D01*
X018501Y029111D02*
X017361Y029111D01*
X017361Y029030D02*
X017361Y029030D01*
X017361Y029030D01*
X017361Y029430D02*
X018436Y029430D01*
X018487Y029748D02*
X017361Y029748D01*
X017361Y029951D02*
X017361Y029951D01*
X017361Y029951D01*
X017594Y030067D02*
X017767Y030067D01*
X018244Y030067D02*
X018684Y030067D01*
X020097Y030046D02*
X020097Y030047D01*
X020097Y030047D01*
X020146Y030067D02*
X020196Y030067D01*
X020186Y029748D02*
X020576Y029748D01*
X020557Y030047D02*
X020557Y030047D01*
X020576Y029446D02*
X020576Y029132D01*
X021022Y028687D01*
X021336Y028687D01*
X021336Y029446D01*
X020576Y029446D01*
X020576Y029430D02*
X020236Y029430D01*
X020172Y029111D02*
X020597Y029111D01*
X020916Y028793D02*
X019955Y028793D01*
X021336Y028793D02*
X021337Y028793D01*
X021337Y028687D02*
X021651Y028687D01*
X022096Y029132D01*
X022096Y029446D01*
X021337Y029446D01*
X021337Y028687D01*
X021336Y029111D02*
X021337Y029111D01*
X021336Y029430D02*
X021337Y029430D01*
X021757Y028793D02*
X024683Y028793D01*
X024683Y029111D02*
X024183Y029111D01*
X024423Y029430D02*
X024683Y029430D01*
X024683Y029748D02*
X024519Y029748D01*
X024501Y030067D02*
X024683Y030067D01*
X024683Y030385D02*
X024375Y030385D01*
X024078Y030704D02*
X024683Y030704D01*
X024683Y031022D02*
X022744Y031022D01*
X022826Y030704D02*
X022940Y030704D01*
X022517Y030067D02*
X022447Y030067D01*
X022171Y030067D02*
X022054Y030067D01*
X022096Y029748D02*
X022498Y029748D01*
X022594Y029430D02*
X022096Y029430D01*
X022076Y029111D02*
X022835Y029111D01*
X023095Y027456D02*
X022576Y026938D01*
X022576Y026572D01*
X023461Y026572D01*
X023461Y027456D01*
X023095Y027456D01*
X022838Y027200D02*
X014936Y027200D01*
X014936Y027518D02*
X024683Y027518D01*
X024683Y027200D02*
X024085Y027200D01*
X023828Y027456D02*
X024346Y026938D01*
X024346Y026572D01*
X023462Y026572D01*
X023462Y026571D01*
X024346Y026571D01*
X024346Y026205D01*
X023828Y025687D01*
X023462Y025687D01*
X023462Y026571D01*
X023461Y026571D01*
X023461Y025687D01*
X023095Y025687D01*
X022576Y026205D01*
X022576Y026571D01*
X023461Y026571D01*
X023461Y026572D01*
X023462Y026572D01*
X023462Y027456D01*
X023828Y027456D01*
X023462Y027200D02*
X023461Y027200D01*
X023461Y026881D02*
X023462Y026881D01*
X023461Y026563D02*
X023462Y026563D01*
X023461Y026244D02*
X023462Y026244D01*
X023461Y025926D02*
X023462Y025926D01*
X024067Y025926D02*
X024683Y025926D01*
X024683Y026244D02*
X024346Y026244D01*
X024346Y026563D02*
X024683Y026563D01*
X024683Y026881D02*
X024346Y026881D01*
X024683Y027837D02*
X014936Y027837D01*
X014936Y026881D02*
X022576Y026881D01*
X022576Y026563D02*
X015094Y026563D01*
X015176Y026244D02*
X022576Y026244D01*
X022856Y025926D02*
X015176Y025926D01*
X015161Y025607D02*
X024683Y025607D01*
X024683Y025289D02*
X015176Y025289D01*
X015164Y024970D02*
X024683Y024970D01*
X016320Y028360D02*
X016320Y028360D01*
X016206Y028474D02*
X016029Y028474D01*
X016125Y028555D02*
X016125Y028555D01*
X016125Y028555D01*
X011589Y030047D02*
X011589Y030047D01*
X007676Y030047D02*
X007676Y030047D01*
X021211Y009680D02*
X024683Y009680D01*
X023592Y004583D02*
X021872Y004583D01*
X022077Y004265D02*
X024683Y004265D01*
X024683Y003946D02*
X022101Y003946D01*
X022101Y003628D02*
X022971Y003628D01*
X022653Y003309D02*
X022101Y003309D01*
X022020Y002991D02*
X022522Y002991D01*
X021452Y002991D02*
X021451Y002991D01*
X021451Y003309D02*
X021452Y003309D01*
X021451Y003628D02*
X021452Y003628D01*
X021451Y003946D02*
X021452Y003946D01*
X021451Y004265D02*
X021452Y004265D01*
X021451Y004583D02*
X021452Y004583D01*
X024046Y003628D02*
X024683Y003628D01*
X024683Y003309D02*
X024365Y003309D01*
X024496Y002991D02*
X024683Y002991D01*
X024683Y002672D02*
X024519Y002672D01*
X024434Y002354D02*
X024683Y002354D01*
X010170Y002354D02*
X008803Y002354D01*
X009235Y002672D02*
X009738Y002672D01*
X009598Y002991D02*
X009375Y002991D01*
X009386Y003309D02*
X009586Y003309D01*
X009586Y003628D02*
X009386Y003628D01*
X009386Y003946D02*
X009586Y003946D01*
X009586Y004265D02*
X009386Y004265D01*
X009300Y004583D02*
X009672Y004583D01*
X009919Y004902D02*
X009054Y004902D01*
X007919Y004902D02*
X005395Y004902D01*
X007586Y004265D02*
X001861Y004265D01*
X001861Y004583D02*
X007672Y004583D01*
D27*
X007461Y008697D02*
X003961Y008697D01*
X003961Y009697D01*
X003967Y009747D01*
X005961Y011697D02*
X005961Y014197D01*
X004461Y015697D01*
X003961Y015697D01*
X003956Y015646D01*
X005961Y011697D02*
X007461Y011697D01*
X007461Y012697D02*
X007961Y012697D01*
X008961Y013197D01*
X008961Y014197D01*
X007961Y015197D01*
X007961Y017697D01*
X010961Y020697D01*
X010961Y029197D01*
X011461Y025197D02*
X011461Y019197D01*
X009961Y017697D01*
X009961Y016697D01*
X009461Y016197D01*
X010961Y014197D02*
X010961Y007197D01*
X011461Y007197D01*
X012461Y006697D01*
X012461Y010697D02*
X012461Y011697D01*
X010961Y014197D02*
X011961Y015197D01*
X011961Y016697D01*
X012461Y017197D01*
X014461Y017197D02*
X011961Y019697D01*
X011961Y024697D01*
X011461Y025197D02*
X014461Y025197D01*
X014461Y025284D01*
X014461Y026109D02*
X014461Y029197D01*
X012461Y023697D02*
X012461Y020197D01*
X015461Y017197D01*
D28*
X015461Y016197D02*
X014461Y016197D01*
X013461Y016197D01*
X018461Y011197D02*
X018774Y011197D01*
X018774Y011384D01*
X018461Y011197D02*
X018461Y003697D01*
X016686Y003697D01*
X019461Y003697D02*
X019461Y007197D01*
X020461Y007197D01*
X020461Y014197D01*
X019481Y003697D02*
X019461Y003697D01*
X007461Y005697D02*
X004961Y005697D01*
X007461Y005697D02*
X007461Y006697D01*
X003961Y020687D02*
X003961Y023197D01*
D29*
X011961Y024697D03*
X012461Y023697D03*
D30*
X018774Y014197D02*
X018774Y014134D01*
X018774Y014197D02*
X020461Y014197D01*
M02*
